<?xml version="1.0" encoding="utf-8"?>
<!-- Generator: Adobe Illustrator 28.2.0, SVG Export Plug-In . SVG Version: 6.00 Build 0)  -->
<svg version="1.1" xmlns="http://www.w3.org/2000/svg" xmlns:xlink="http://www.w3.org/1999/xlink" x="0px" y="0px"
	 viewBox="0 0 243.54 61.33" style="enable-background:new 0 0 243.54 61.33;" xml:space="preserve">
<style type="text/css">
	.st0{display:none;}
	.st1{display:inline;}
	.st2{fill:#911443;}
	.st3{fill:none;stroke:#911443;stroke-width:0.5;stroke-miterlimit:10;}
	.st4{fill:#FFFFFF;}
	.st5{font-family:'Barlow-Regular';}
	.st6{font-size:22px;}
	.st7{fill:none;stroke:#FFFFFF;stroke-width:0.5;stroke-miterlimit:10;}
	.st8{fill:#901443;}
</style>
<g id="Capa_2_00000102541059499937160670000008226552247891296947_" class="st0">
	<g id="Capa_1-2" class="st1">
		<g>
			<rect x="0.25" y="0.25" class="st2" width="153.29" height="60.8"/>
			<rect x="0.25" y="0.25" class="st3" width="153.29" height="60.8"/>
			<path class="st3" d="M136.11,61.08h82.85l23.33-28.23c1.33-1.61,1.33-4.22,0-5.83L220.22,0.31h-84.11V61.08L136.11,61.08z"/>
			<text transform="matrix(1 0 0 1 20.52 37.88)" class="st4 st5 st6">C</text>
			<text transform="matrix(1 0 0 1 33.85 37.88)" class="st4 st5 st6">o</text>
			<text transform="matrix(1 0 0 1 45.84 37.88)" class="st4 st5 st6">n</text>
			<text transform="matrix(1 0 0 1 57.55 37.88)" class="st4 st5 st6">o</text>
			<text transform="matrix(1 0 0 1 69.54 37.88)" class="st4 st5 st6">c</text>
			<text transform="matrix(1 0 0 1 80.91 37.88)" class="st4 st5 st6">e más</text>
		</g>
	</g>
</g>
<g id="Capa_3">
	<rect x="0.31" y="1.06" class="st4" width="153.29" height="60.8"/>
	<path class="st7" d="M136.18,61.89h82.85l23.33-28.23c1.33-1.61,1.33-4.22,0-5.83L220.29,1.11h-84.11V61.89z"/>
	<g>
		<text transform="matrix(1 0 0 1 20.5877 38.6876)" class="st8 st5 st6">Conoce más</text>
	</g>
</g>
</svg>
