<svg enable-background="new 0 0 248 64" viewBox="0 0 248 64" xmlns="http://www.w3.org/2000/svg"><path d="m92.2 1.6h153.3v60.8h-153.3z" fill="#911443"/><path d="m92.2 1.6h153.3v60.8h-153.3z" fill="none" stroke="#911443" stroke-miterlimit="10" stroke-width=".5"/><path d="m109.7 62.4h-82.9l-23.3-28.2c-1.3-1.6-1.3-4.2 0-5.8l22-26.8h84.1v60.8z" fill="none" stroke="#911443" stroke-miterlimit="10" stroke-width=".5"/><g enable-background="new" fill="#fff"><path d="m137.5 38.9-4.8-15v-.1c0-.1.1-.2.2-.2h1.2c.1 0 .2.1.3.2l4 12.9h.1s.1 0 .1 0l4-12.9c0-.1.1-.2.3-.2h1.2c.2 0 .2.1.2.2l-4.8 15c0 .1-.1.2-.3.2h-1.2c-.3.1-.4 0-.5-.1z"/><path d="m148.5 38.6c-.8-.4-1.4-1-1.8-1.8s-.6-1.7-.6-2.7v-5.5c0-1 .2-1.9.6-2.7s1-1.4 1.8-1.8 1.7-.6 2.8-.6c1 0 2 .2 2.8.6s1.4 1 1.8 1.8.6 1.7.6 2.7v5.5c0 1-.2 1.9-.6 2.7s-1 1.4-1.8 1.8-1.7.6-2.8.6-2-.2-2.8-.6zm5.4-1.7c.7-.7 1-1.6 1-2.7v-5.6c0-1.1-.3-2-1-2.7s-1.6-1-2.7-1-2 .3-2.7 1-1 1.6-1 2.7v5.6c0 1.1.3 2 1 2.7s1.6 1 2.7 1 2-.4 2.7-1z"/><path d="m160.2 38.8v-15c0-.1.1-.2.2-.2h1.1c.1 0 .2.1.2.2v13.7c0 .1 0 .1.1.1h7.8c.1 0 .2.1.2.2v.9c0 .1-.1.2-.2.2h-9.2c-.2.2-.2.1-.2-.1z"/><path d="m175.5 38.9-4.8-15v-.1c0-.1.1-.2.2-.2h1.2c.1 0 .2.1.3.2l4 12.9h.1s.1 0 .1 0l4-12.9c0-.1.1-.2.3-.2h1.2c.2 0 .2.1.2.2l-4.8 15c0 .1-.1.2-.3.2h-1.2c-.4.1-.4 0-.5-.1z"/><path d="m194.4 25h-8.1c-.1 0-.1 0-.1.1v5.4c0 .1 0 .1.1.1h5.7c.1 0 .2.1.2.2v.9c0 .1-.1.2-.2.2h-5.7c-.1 0-.1 0-.1.1v5.5c0 .1 0 .1.1.1h8.1c.1 0 .2.1.2.2v.9c0 .1-.1.2-.2.2h-9.5c-.1 0-.2-.1-.2-.2v-15c0-.1.1-.2.2-.2h9.5c.1 0 .2.1.2.2v.9c0 .3-.1.4-.2.4z"/><path d="m206.7 38.9-3.2-6.8s0-.1-.1-.1h-3.7c-.1 0-.1 0-.1.1v6.7c0 .1-.1.2-.2.2h-1.1c-.1 0-.2-.1-.2-.2v-15c0-.1.1-.2.2-.2h5.7c1.3 0 2.3.4 3.1 1.2s1.2 1.8 1.2 3.1c0 1-.3 1.9-.8 2.6-.6.7-1.3 1.2-2.3 1.4-.1 0-.1.1 0 .1l3.3 6.8v.1c0 .1-.1.2-.2.2h-1.2c-.3-0-.4-.1-.4-.2zm-7.2-13.8v5.6c0 .1 0 .1.1.1h4.1c.9 0 1.5-.3 2.1-.8s.8-1.2.8-2.1-.3-1.5-.8-2.1c-.5-.5-1.2-.8-2.1-.8l-4.2.1c0-.1 0-.1 0 0z"/></g></svg>