<?xml version="1.0" encoding="utf-8"?>
<!-- Generator: Adobe Illustrator 28.2.0, SVG Export Plug-In . SVG Version: 6.00 Build 0)  -->
<svg version="1.1" id="Capa_1" xmlns="http://www.w3.org/2000/svg" xmlns:xlink="http://www.w3.org/1999/xlink" x="0px" y="0px"
	 viewBox="0 0 248 64" style="enable-background:new 0 0 248 64;" xml:space="preserve">
<style type="text/css">
	.st0{fill:#911443;}
	.st1{fill:none;stroke:#911443;stroke-width:0.5;stroke-miterlimit:10;}
	.st2{enable-background:new    ;}
	.st3{fill:#FFFFFF;}
</style>
<g>
	<rect x="92.2" y="1.6" class="st0" width="153.3" height="60.8"/>
	<rect x="92.2" y="1.6" class="st1" width="153.3" height="60.8"/>
	<path class="st1" d="M109.7,62.4H26.8L3.5,34.2c-1.3-1.6-1.3-4.2,0-5.8L25.5,1.6h84.1V62.4z"/>
	<g class="st2">
		<path class="st3" d="M137.5,38.9l-4.8-15l0-0.1c0-0.1,0.1-0.2,0.2-0.2h1.2c0.1,0,0.2,0.1,0.3,0.2l4,12.9c0,0,0,0,0.1,0
			s0.1,0,0.1,0l4-12.9c0-0.1,0.1-0.2,0.3-0.2h1.2c0.2,0,0.2,0.1,0.2,0.2l-4.8,15c0,0.1-0.1,0.2-0.3,0.2h-1.2
			C137.7,39.1,137.6,39,137.5,38.9z"/>
		<path class="st3" d="M148.5,38.6c-0.8-0.4-1.4-1-1.8-1.8c-0.4-0.8-0.6-1.7-0.6-2.7v-5.5c0-1,0.2-1.9,0.6-2.7
			c0.4-0.8,1-1.4,1.8-1.8c0.8-0.4,1.7-0.6,2.8-0.6c1,0,2,0.2,2.8,0.6c0.8,0.4,1.4,1,1.8,1.8c0.4,0.8,0.6,1.7,0.6,2.7v5.5
			c0,1-0.2,1.9-0.6,2.7c-0.4,0.8-1,1.4-1.8,1.8s-1.7,0.6-2.8,0.6C150.2,39.2,149.3,39,148.5,38.6z M153.9,36.9c0.7-0.7,1-1.6,1-2.7
			v-5.6c0-1.1-0.3-2-1-2.7c-0.7-0.7-1.6-1-2.7-1c-1.1,0-2,0.3-2.7,1c-0.7,0.7-1,1.6-1,2.7v5.6c0,1.1,0.3,2,1,2.7
			c0.7,0.7,1.6,1,2.7,1C152.3,37.9,153.2,37.5,153.9,36.9z"/>
		<path class="st3" d="M160.2,38.8v-15c0-0.1,0.1-0.2,0.2-0.2h1.1c0.1,0,0.2,0.1,0.2,0.2v13.7c0,0.1,0,0.1,0.1,0.1h7.8
			c0.1,0,0.2,0.1,0.2,0.2v0.9c0,0.1-0.1,0.2-0.2,0.2h-9.2C160.2,39.1,160.2,39,160.2,38.8z"/>
		<path class="st3" d="M175.5,38.9l-4.8-15l0-0.1c0-0.1,0.1-0.2,0.2-0.2h1.2c0.1,0,0.2,0.1,0.3,0.2l4,12.9c0,0,0,0,0.1,0
			s0.1,0,0.1,0l4-12.9c0-0.1,0.1-0.2,0.3-0.2h1.2c0.2,0,0.2,0.1,0.2,0.2l-4.8,15c0,0.1-0.1,0.2-0.3,0.2h-1.2
			C175.6,39.1,175.6,39,175.5,38.9z"/>
		<path class="st3" d="M194.4,25h-8.1c-0.1,0-0.1,0-0.1,0.1v5.4c0,0.1,0,0.1,0.1,0.1h5.7c0.1,0,0.2,0.1,0.2,0.2v0.9
			c0,0.1-0.1,0.2-0.2,0.2h-5.7c-0.1,0-0.1,0-0.1,0.1v5.5c0,0.1,0,0.1,0.1,0.1h8.1c0.1,0,0.2,0.1,0.2,0.2v0.9c0,0.1-0.1,0.2-0.2,0.2
			h-9.5c-0.1,0-0.2-0.1-0.2-0.2v-15c0-0.1,0.1-0.2,0.2-0.2h9.5c0.1,0,0.2,0.1,0.2,0.2v0.9C194.6,24.9,194.5,25,194.4,25z"/>
		<path class="st3" d="M206.7,38.9l-3.2-6.8c0,0,0-0.1-0.1-0.1h-3.7c-0.1,0-0.1,0-0.1,0.1v6.7c0,0.1-0.1,0.2-0.2,0.2h-1.1
			c-0.1,0-0.2-0.1-0.2-0.2v-15c0-0.1,0.1-0.2,0.2-0.2h5.7c1.3,0,2.3,0.4,3.1,1.2c0.8,0.8,1.2,1.8,1.2,3.1c0,1-0.3,1.9-0.8,2.6
			c-0.6,0.7-1.3,1.2-2.3,1.4c-0.1,0-0.1,0.1,0,0.1l3.3,6.8c0,0,0,0.1,0,0.1c0,0.1-0.1,0.2-0.2,0.2h-1.2
			C206.8,39.1,206.7,39,206.7,38.9z M199.5,25.1v5.6c0,0.1,0,0.1,0.1,0.1h4.1c0.9,0,1.5-0.3,2.1-0.8s0.8-1.2,0.8-2.1
			c0-0.9-0.3-1.5-0.8-2.1c-0.5-0.5-1.2-0.8-2.1-0.8L199.5,25.1C199.5,25,199.5,25,199.5,25.1z"/>
	</g>
</g>
</svg>
