<svg enable-background="new 0 0 243.5 61.3" viewBox="0 0 243.5 61.3" xmlns="http://www.w3.org/2000/svg"><path d="m.2.2h153.3v60.8h-153.3z" fill="#581945"/><path d="m.2.2h153.3v60.8h-153.3z" fill="none" stroke="#581945" stroke-miterlimit="10" stroke-width=".5"/><path d="m136.1 61.1h82.9l23.3-28.2c1.3-1.6 1.3-4.2 0-5.8l-22.1-26.8h-84.1z" fill="none" stroke="#581945" stroke-miterlimit="10" stroke-width=".5"/><g fill="#fff"><path d="m24.6 37.5c-.8-.4-1.4-1-1.8-1.7s-.6-1.6-.6-2.6v-6.1c0-1 .2-1.8.6-2.5s1-1.3 1.8-1.7 1.7-.6 2.7-.6 1.9.2 2.7.6 1.4 1 1.8 1.7.6 1.5.6 2.5c0 .1 0 .1-.1.2 0 0-.1.1-.2.1l-1.1.1c-.1 0-.2-.1-.2-.2v-.1c0-1-.3-1.9-1-2.5s-1.5-.9-2.6-.9-2 .3-2.6.9c-.7.6-1 1.5-1 2.5v6.2c0 1 .3 1.9 1 2.5s1.5.9 2.6.9 2-.3 2.6-.9c.7-.6 1-1.5 1-2.5 0-.1.1-.2.2-.2l1.1.1c.1 0 .2.1.2.2 0 1-.2 1.8-.6 2.5s-1 1.3-1.8 1.7-1.7.6-2.7.6c-1-.2-1.9-.4-2.6-.8z"/><path d="m37.1 37.2c-.8-.5-1.3-1.3-1.6-2.2-.2-.7-.3-1.6-.3-2.7s.1-2 .3-2.7c.3-.9.8-1.7 1.6-2.2s1.7-.8 2.8-.8c1 0 1.9.3 2.7.8s1.3 1.3 1.6 2.2c.2.6.3 1.5.3 2.7s-.1 2.1-.3 2.7c-.3 1-.8 1.7-1.6 2.2s-1.7.8-2.7.8c-1.1.1-2-.2-2.8-.8zm4.6-1.1c.5-.4.8-.9 1-1.6.1-.5.2-1.3.2-2.2 0-1-.1-1.7-.2-2.2-.2-.7-.5-1.2-1-1.6s-1.1-.6-1.8-.6-1.3.2-1.8.6-.8.9-1 1.6c-.1.5-.2 1.3-.2 2.2 0 1 .1 1.7.2 2.2.2.7.5 1.2 1 1.6s1.1.6 1.9.6c.6 0 1.2-.2 1.7-.6z"/><path d="m55 27.6c.7.7 1 1.6 1 2.8v7.3c0 .1-.1.2-.2.2h-1.1c-.1 0-.2-.1-.2-.2v-7c0-.8-.2-1.5-.7-2s-1.1-.8-1.9-.8-1.5.2-2 .7-.7 1.2-.7 2v7c0 .1-.1.2-.2.2h-1.1c-.1 0-.2-.1-.2-.2v-10.6c0-.1.1-.2.2-.2h1.1c.1 0 .2.1.2.2v.9.1h.1c.6-.9 1.6-1.4 3-1.4 1.1 0 2 .3 2.7 1z"/><path d="m60.8 37.2c-.8-.5-1.3-1.3-1.6-2.2-.2-.7-.3-1.6-.3-2.7s.1-2 .3-2.7c.3-.9.8-1.7 1.6-2.2s1.7-.8 2.8-.8c1 0 1.9.3 2.7.8s1.3 1.3 1.6 2.2c.2.6.3 1.5.3 2.7s-.1 2.1-.3 2.7c-.3 1-.8 1.7-1.6 2.2s-1.7.8-2.7.8c-1.1.1-2-.2-2.8-.8zm4.6-1.1c.5-.4.8-.9 1-1.6.1-.5.2-1.3.2-2.2 0-1-.1-1.7-.2-2.2-.2-.7-.5-1.2-1-1.6s-1.1-.6-1.8-.6-1.3.2-1.8.6-.8.9-1 1.6c-.1.5-.2 1.3-.2 2.2 0 1 .1 1.7.2 2.2.2.7.5 1.2 1 1.6s1.1.6 1.9.6c.6 0 1.2-.2 1.7-.6z"/><path d="m72.8 37.2c-.8-.5-1.3-1.3-1.6-2.2-.2-.6-.3-1.6-.3-2.7s.1-2 .3-2.7c.3-.9.8-1.6 1.5-2.2.8-.5 1.7-.8 2.7-.8 1.1 0 2 .3 2.8.8s1.3 1.2 1.5 2c.1.3.1.5.1.7 0 .1-.1.2-.2.2l-1.1.2c-.1 0-.2-.1-.2-.2l-.1-.3c-.1-.6-.5-1-1-1.4s-1.1-.6-1.9-.6-1.3.2-1.8.6-.8.9-1 1.6c-.1.6-.2 1.3-.2 2.2 0 1 .1 1.7.2 2.2.1.7.5 1.2 1 1.6s1.1.6 1.8.6 1.3-.2 1.9-.6.8-.9 1-1.4v-.1-.1c0-.1.1-.2.3-.2l1.1.2c.1 0 .2.1.2.2l-.1.4c-.2.9-.7 1.5-1.5 2.1-.8.5-1.7.8-2.8.8-1-0-1.9-.3-2.6-.9z"/><g enable-background="new"><path d="m91.3 32v.7c0 .1-.1.2-.2.2h-7.1c-.1 0-.1 0-.1.1 0 .8.1 1.3.1 1.6.2.7.5 1.2 1 1.6s1.2.6 2 .6c.6 0 1.2-.1 1.6-.4.5-.3.8-.7 1.1-1.2.1-.1.2-.2.3-.1l.9.5c.1.1.1.2.1.3-.4.7-.9 1.3-1.6 1.7s-1.6.6-2.5.6c-1 0-1.9-.3-2.6-.7-.7-.5-1.2-1.2-1.5-2-.3-.7-.4-1.7-.4-3 0-.6 0-1.1 0-1.5s.1-.7.2-1c.2-1 .8-1.7 1.5-2.3s1.7-.9 2.7-.9c1.3 0 2.4.3 3.1 1s1.2 1.6 1.3 2.9c.1.2.1.7.1 1.3zm-6.3-3.5c-.5.4-.8.9-.9 1.5-.1.3-.1.8-.2 1.5 0 .1 0 .1.1.1h5.7c.1 0 .1 0 .1-.1 0-.7-.1-1.1-.1-1.4-.2-.7-.5-1.2-1-1.6s-1.1-.6-1.9-.6c-.7 0-1.3.2-1.8.6z"/><path d="m112.7 27.6c.6.7 1 1.6 1 2.7v7.4c0 .1-.1.2-.2.2h-1.1c-.1 0-.2-.1-.2-.2v-7.1c0-.8-.2-1.4-.7-1.9s-1.1-.7-1.8-.7c-.8 0-1.4.2-1.9.7s-.7 1.1-.7 1.9v7.1c0 .1-.1.2-.2.2h-1.1c-.1 0-.2-.1-.2-.2v-7.1c0-.8-.2-1.4-.7-1.9s-1.1-.7-1.8-.7c-.8 0-1.4.2-1.9.7s-.7 1.1-.7 1.9v7.1c0 .1-.1.2-.2.2h-1.3c-.1 0-.2-.1-.2-.2v-10.7c0-.1.1-.2.2-.2h1.1c.1 0 .2.1.2.2v.9.1h.1c.3-.4.7-.7 1.2-1 .5-.2 1.1-.3 1.7-.3.8 0 1.4.2 2 .5.5.3 1 .8 1.2 1.3 0 .1.1.1.1 0 .3-.6.8-1.1 1.4-1.4s1.3-.5 2-.5c1.2 0 2 .3 2.7 1z"/><path d="m123.9 27.6c.7.7 1.1 1.6 1.1 2.7v7.4c0 .1-.1.2-.2.2h-1.1c-.1 0-.2-.1-.2-.2v-.9-.1s0 0-.1 0c-.4.4-.8.8-1.4 1s-1.2.3-2 .3c-1 0-1.9-.3-2.6-.8s-1.1-1.3-1.1-2.4.4-2 1.2-2.6 1.9-1 3.3-1h2.6c.1 0 .1 0 .1-.1v-.8c0-.7-.2-1.3-.6-1.8s-1.1-.6-1.9-.6c-.7 0-1.3.1-1.7.4s-.7.6-.8 1.1c0 .1-.1.2-.3.2l-1.2-.2c-.2 0-.2-.1-.2-.2.1-.8.6-1.5 1.3-2 .8-.5 1.7-.8 2.9-.8 1.2.2 2.2.5 2.9 1.2zm-1.4 8.5c.6-.4.9-1 .9-1.7v-1.7c0-.1 0-.1-.1-.1h-2.3c-1 0-1.7.2-2.3.6s-.9.9-.9 1.7c0 .6.2 1.1.7 1.5.4.3 1 .5 1.7.5.9-.2 1.6-.4 2.3-.8zm-2.6-10.9c0-.1 0-.1 0-.2l1.3-2.4c0-.1.1-.2.3-.2h1c.1 0 .1 0 .2.1v.2l-1.5 2.4c-.1.1-.2.2-.3.2h-.8c-.1 0-.1 0-.2-.1z"/><path d="m129.7 37.6c-.6-.3-1.1-.6-1.5-1.1-.3-.4-.5-.9-.5-1.5v-.3c0-.1.1-.2.2-.2h1.1c.1 0 .2.1.2.2v.3c0 .5.3.9.8 1.3s1.1.5 1.9.5 1.4-.2 1.8-.5c.5-.3.7-.8.7-1.3 0-.4-.1-.7-.4-.9-.2-.2-.5-.4-.9-.5-.3-.1-.8-.3-1.5-.5-.8-.2-1.5-.5-2-.7s-1-.6-1.3-1-.5-.9-.5-1.6c0-.9.4-1.7 1.1-2.2.7-.6 1.7-.8 2.9-.8.8 0 1.5.1 2.1.4s1.1.6 1.4 1.1.5 1 .5 1.6v.1c0 .1-.1.2-.2.2h-1c-.1 0-.2-.1-.2-.2v-.1c0-.5-.2-.9-.7-1.3-.5-.3-1.1-.5-1.9-.5-.7 0-1.3.2-1.8.5s-.7.7-.7 1.2.2.9.7 1.1c.4.3 1.1.5 2 .8.9.2 1.5.5 2.1.7s1 .5 1.4 1c.4.4.6 1 .6 1.6 0 1-.4 1.7-1.1 2.3s-1.7.9-3 .9c-1-.2-1.7-.3-2.3-.6z"/></g></g></svg>