<?xml version="1.0" encoding="utf-8"?>
<!-- Generator: Adobe Illustrator 28.3.0, SVG Export Plug-In . SVG Version: 6.00 Build 0)  -->
<svg version="1.1" id="Capa_1" xmlns="http://www.w3.org/2000/svg" xmlns:xlink="http://www.w3.org/1999/xlink" x="0px" y="0px"
	 viewBox="0 0 570 64" style="enable-background:new 0 0 570 64;" xml:space="preserve">
<style type="text/css">
	.st0{fill:#581945;}
	.st1{fill:none;stroke:#581945;stroke-width:0.5;stroke-miterlimit:10;}
	.st2{enable-background:new    ;}
	.st3{fill:#FFFFFF;}
</style>
<rect x="3.2" y="1.6" class="st0" width="473.7" height="60.8"/>
<rect x="323.5" y="1.6" class="st1" width="153.3" height="60.8"/>
<path class="st1" d="M459.4,62.4h82.9l23.3-28.2c1.3-1.6,1.3-4.2,0-5.8L543.5,1.6h-84.1V62.4z"/>
<g class="st2">
	<path class="st3" d="M20,37.8c-0.8-0.4-1.4-1-1.8-1.7s-0.6-1.6-0.6-2.6v-6.1c0-1,0.2-1.8,0.6-2.5s1-1.3,1.8-1.7s1.7-0.6,2.7-0.6
		s1.9,0.2,2.7,0.6c0.8,0.4,1.4,1,1.8,1.7s0.6,1.5,0.6,2.5c0,0.1,0,0.1-0.1,0.2c0,0-0.1,0.1-0.2,0.1l-1.1,0.1c-0.1,0-0.2-0.1-0.2-0.2
		v-0.1c0-1-0.3-1.9-1-2.5s-1.5-0.9-2.6-0.9s-2,0.3-2.6,0.9c-0.7,0.6-1,1.5-1,2.5v6.2c0,1,0.3,1.9,1,2.5s1.5,0.9,2.6,0.9
		s2-0.3,2.6-0.9s1-1.5,1-2.5l0,0c0-0.1,0.1-0.2,0.2-0.2l1.1,0.1c0.1,0,0.2,0.1,0.2,0.2c0,1-0.2,1.8-0.6,2.5s-1,1.3-1.8,1.7
		s-1.7,0.6-2.7,0.6C21.7,38.4,20.8,38.2,20,37.8z"/>
	<path class="st3" d="M32.5,37.5c-0.8-0.5-1.3-1.3-1.6-2.2c-0.2-0.7-0.3-1.6-0.3-2.7c0-1.1,0.1-2,0.3-2.7c0.3-0.9,0.8-1.7,1.6-2.2
		c0.8-0.5,1.7-0.8,2.8-0.8c1,0,1.9,0.3,2.7,0.8s1.3,1.3,1.6,2.2c0.2,0.6,0.3,1.5,0.3,2.7s-0.1,2.1-0.3,2.7c-0.3,1-0.8,1.7-1.6,2.2
		s-1.7,0.8-2.7,0.8C34.2,38.4,33.3,38.1,32.5,37.5z M37.1,36.4c0.5-0.4,0.8-0.9,1-1.6c0.1-0.5,0.2-1.3,0.2-2.2c0-1-0.1-1.7-0.2-2.2
		c-0.2-0.7-0.5-1.2-1-1.6s-1.1-0.6-1.8-0.6s-1.3,0.2-1.8,0.6s-0.8,0.9-1,1.6c-0.1,0.5-0.2,1.3-0.2,2.2c0,1,0.1,1.7,0.2,2.2
		c0.2,0.7,0.5,1.2,1,1.6s1.1,0.6,1.9,0.6C36,37,36.6,36.8,37.1,36.4z"/>
	<path class="st3" d="M50.4,27.9c0.7,0.7,1,1.6,1,2.8V38c0,0.1-0.1,0.2-0.2,0.2h-1.1c-0.1,0-0.2-0.1-0.2-0.2v-7c0-0.8-0.2-1.5-0.7-2
		s-1.1-0.8-1.9-0.8c-0.8,0-1.5,0.2-2,0.7s-0.7,1.2-0.7,2v7c0,0.1-0.1,0.2-0.2,0.2h-1.1c-0.1,0-0.2-0.1-0.2-0.2V27.3
		c0-0.1,0.1-0.2,0.2-0.2h1.1c0.1,0,0.2,0.1,0.2,0.2v0.9v0.1c0,0,0,0,0.1,0c0.6-0.9,1.6-1.4,3-1.4C48.8,26.9,49.7,27.2,50.4,27.9z"/>
	<path class="st3" d="M56.2,37.5c-0.8-0.5-1.3-1.3-1.6-2.2c-0.2-0.7-0.3-1.6-0.3-2.7c0-1.1,0.1-2,0.3-2.7c0.3-0.9,0.8-1.7,1.6-2.2
		s1.7-0.8,2.8-0.8c1,0,1.9,0.3,2.7,0.8s1.3,1.3,1.6,2.2c0.2,0.6,0.3,1.5,0.3,2.7s-0.1,2.1-0.3,2.7c-0.3,1-0.8,1.7-1.6,2.2
		S60,38.3,59,38.3C57.9,38.4,57,38.1,56.2,37.5z M60.8,36.4c0.5-0.4,0.8-0.9,1-1.6c0.1-0.5,0.2-1.3,0.2-2.2c0-1-0.1-1.7-0.2-2.2
		c-0.2-0.7-0.5-1.2-1-1.6s-1.1-0.6-1.8-0.6s-1.3,0.2-1.8,0.6s-0.8,0.9-1,1.6c-0.1,0.5-0.2,1.3-0.2,2.2c0,1,0.1,1.7,0.2,2.2
		c0.2,0.7,0.5,1.2,1,1.6s1,0.6,1.8,0.6C59.7,37,60.3,36.8,60.8,36.4z"/>
	<path class="st3" d="M68.2,37.5c-0.8-0.5-1.3-1.3-1.6-2.2c-0.2-0.6-0.3-1.6-0.3-2.7c0-1.1,0.1-2,0.3-2.7c0.3-0.9,0.8-1.6,1.5-2.2
		c0.8-0.5,1.7-0.8,2.7-0.8c1.1,0,2,0.3,2.8,0.8s1.3,1.2,1.5,2c0.1,0.3,0.1,0.5,0.1,0.7l0,0c0,0.1-0.1,0.2-0.2,0.2l-1,0.2l0,0
		c-0.1,0-0.2-0.1-0.2-0.2l-0.1-0.3c-0.1-0.6-0.5-1-1-1.4s-1.1-0.6-1.9-0.6s-1.3,0.2-1.8,0.6s-0.8,0.9-1,1.6
		c-0.1,0.6-0.2,1.3-0.2,2.2c0,1,0.1,1.7,0.2,2.2c0.1,0.7,0.5,1.2,1,1.6c0.5,0.4,1.1,0.6,1.8,0.6c0.7,0,1.3-0.2,1.9-0.6
		c0.5-0.4,0.8-0.9,1-1.4V35v-0.1c0-0.1,0.1-0.2,0.3-0.2l1.1,0.2c0.1,0,0.2,0.1,0.2,0.2l-0.1,0.4c-0.2,0.8-0.7,1.5-1.5,2.1
		c-0.8,0.5-1.7,0.8-2.8,0.8C69.8,38.4,68.9,38.1,68.2,37.5z"/>
	<path class="st3" d="M86.7,32.3V33c0,0.1-0.1,0.2-0.2,0.2h-7.1c-0.1,0-0.1,0-0.1,0.1c0,0.8,0.1,1.3,0.1,1.6c0.2,0.7,0.5,1.2,1,1.6
		c0.5,0.4,1.2,0.6,2,0.6c0.6,0,1.2-0.1,1.6-0.4c0.5-0.3,0.8-0.7,1.1-1.2c0.1-0.1,0.2-0.2,0.3-0.1l0.9,0.5c0.1,0.1,0.1,0.2,0.1,0.3
		c-0.4,0.7-0.9,1.3-1.6,1.7s-1.6,0.6-2.5,0.6c-1,0-1.9-0.3-2.6-0.7c-0.7-0.5-1.2-1.2-1.5-2c-0.3-0.7-0.4-1.7-0.4-3
		c0-0.6,0-1.1,0-1.5s0.1-0.7,0.2-1c0.2-1,0.8-1.7,1.5-2.3s1.7-0.9,2.7-0.9c1.3,0,2.4,0.3,3.1,1s1.2,1.6,1.3,2.9
		C86.7,31.2,86.7,31.7,86.7,32.3z M80.4,28.8c-0.5,0.4-0.8,0.9-0.9,1.5c-0.1,0.3-0.1,0.8-0.2,1.5c0,0.1,0,0.1,0.1,0.1h5.7
		c0.1,0,0.1,0,0.1-0.1c0-0.7-0.1-1.1-0.1-1.4c-0.2-0.7-0.5-1.2-1-1.6s-1.1-0.6-1.9-0.6C81.5,28.2,80.9,28.4,80.4,28.8z"/>
	<path class="st3" d="M108.1,27.9c0.6,0.7,1,1.6,1,2.7V38c0,0.1-0.1,0.2-0.2,0.2h-1.1c-0.1,0-0.2-0.1-0.2-0.2v-7.1
		c0-0.8-0.2-1.4-0.7-1.9s-1.1-0.7-1.8-0.7c-0.8,0-1.4,0.2-1.9,0.7s-0.7,1.1-0.7,1.9V38c0,0.1-0.1,0.2-0.2,0.2H101
		c-0.1,0-0.2-0.1-0.2-0.2v-7.1c0-0.8-0.2-1.4-0.7-1.9s-1.1-0.7-1.8-0.7c-0.8,0-1.4,0.2-1.9,0.7s-0.7,1.1-0.7,1.9V38
		c0,0.1-0.1,0.2-0.2,0.2h-1.1c-0.1,0-0.2-0.1-0.2-0.2V27.3c0-0.1,0.1-0.2,0.2-0.2h1.1c0.1,0,0.2,0.1,0.2,0.2v0.9c0,0,0,0,0,0.1
		c0,0,0,0,0.1,0c0.3-0.4,0.7-0.7,1.2-1c0.5-0.2,1.1-0.3,1.7-0.3c0.8,0,1.4,0.2,2,0.5c0.5,0.3,1,0.8,1.2,1.3c0,0.1,0.1,0.1,0.1,0
		c0.3-0.6,0.8-1.1,1.4-1.4s1.3-0.5,2-0.5C106.6,26.9,107.4,27.2,108.1,27.9z"/>
	<path class="st3" d="M119.3,27.9c0.7,0.7,1.1,1.6,1.1,2.7V38c0,0.1-0.1,0.2-0.2,0.2H119c-0.1,0-0.2-0.1-0.2-0.2v-0.9V37
		c0,0,0,0-0.1,0c-0.4,0.4-0.8,0.8-1.4,1s-1.2,0.3-2,0.3c-1,0-1.9-0.3-2.6-0.8s-1.1-1.3-1.1-2.4c0-1.1,0.4-2,1.2-2.6
		c0.8-0.6,1.9-1,3.3-1h2.6c0.1,0,0.1,0,0.1-0.1v-0.8c0-0.7-0.2-1.3-0.6-1.8s-1.1-0.6-1.9-0.6c-0.7,0-1.3,0.1-1.7,0.4
		s-0.7,0.6-0.8,1.1c0,0.1-0.1,0.2-0.3,0.2l-1.2-0.2c-0.2,0-0.2-0.1-0.2-0.2c0.1-0.8,0.6-1.5,1.3-2c0.8-0.5,1.7-0.8,2.9-0.8
		C117.6,26.9,118.6,27.2,119.3,27.9z M117.9,36.4c0.6-0.4,0.9-1,0.9-1.7V33c0-0.1,0-0.1-0.1-0.1h-2.3c-1,0-1.7,0.2-2.3,0.6
		c-0.6,0.4-0.9,0.9-0.9,1.7c0,0.6,0.2,1.1,0.7,1.5c0.4,0.3,1,0.5,1.7,0.5C116.5,37,117.2,36.8,117.9,36.4z M115.3,25.5
		c0-0.1,0-0.1,0-0.2l1.3-2.4c0-0.1,0.1-0.2,0.3-0.2h1c0.1,0,0.1,0,0.2,0.1c0,0.1,0,0.1,0,0.2l-1.5,2.4c-0.1,0.1-0.2,0.2-0.3,0.2
		h-0.8C115.4,25.6,115.4,25.6,115.3,25.5z"/>
	<path class="st3" d="M125.1,37.9c-0.6-0.3-1.1-0.6-1.5-1.1c-0.3-0.4-0.5-0.9-0.5-1.5V35c0-0.1,0.1-0.2,0.2-0.2h1.1
		c0.1,0,0.2,0.1,0.2,0.2v0.2c0,0.5,0.3,0.9,0.8,1.3c0.5,0.4,1.1,0.5,1.9,0.5c0.8,0,1.4-0.2,1.8-0.5c0.5-0.3,0.7-0.8,0.7-1.3
		c0-0.4-0.1-0.7-0.4-0.9c-0.2-0.2-0.5-0.4-0.9-0.6c-0.3-0.1-0.8-0.3-1.5-0.5c-0.8-0.2-1.5-0.5-2-0.7s-1-0.6-1.3-1s-0.5-0.9-0.5-1.6
		c0-0.9,0.4-1.7,1.1-2.2c0.7-0.6,1.7-0.8,2.9-0.8c0.8,0,1.5,0.1,2.1,0.4s1.1,0.6,1.4,1.1c0.3,0.5,0.5,1,0.5,1.6l0,0
		c0,0.1-0.1,0.2-0.2,0.2h-1c-0.1,0-0.2-0.1-0.2-0.2l0,0c0-0.5-0.2-0.9-0.7-1.3c-0.5-0.3-1.1-0.5-1.9-0.5c-0.7,0-1.3,0.2-1.8,0.5
		s-0.7,0.7-0.7,1.2s0.2,0.9,0.7,1.1s1.1,0.5,2,0.8c0.9,0.2,1.5,0.5,2.1,0.7c0.5,0.2,1,0.5,1.4,1c0.4,0.4,0.6,1,0.6,1.6
		c0,1-0.4,1.7-1.1,2.3s-1.7,0.9-3,0.9C126.4,38.3,125.7,38.2,125.1,37.9z"/>
	<path class="st3" d="M145.5,27.9c0.7,0.7,1.1,1.6,1.1,2.7V38c0,0.1-0.1,0.2-0.2,0.2h-1.1c-0.1,0-0.2-0.1-0.2-0.2v-0.9V37
		c0,0,0,0-0.1,0c-0.4,0.4-0.8,0.8-1.4,1c-0.6,0.2-1.2,0.3-2,0.3c-1,0-1.9-0.3-2.6-0.8c-0.7-0.5-1.1-1.3-1.1-2.4c0-1.1,0.4-2,1.2-2.6
		c0.8-0.6,1.9-1,3.3-1h2.6c0.1,0,0.1,0,0.1-0.1v-0.8c0-0.7-0.2-1.3-0.6-1.8s-1.1-0.6-1.9-0.6c-0.7,0-1.3,0.1-1.7,0.4
		s-0.7,0.6-0.8,1.1c0,0.1-0.1,0.2-0.3,0.2l-1.2-0.2c-0.2,0-0.2-0.1-0.2-0.2c0.1-0.8,0.6-1.5,1.3-2c0.8-0.5,1.7-0.8,2.9-0.8
		C143.8,26.9,144.8,27.2,145.5,27.9z M144.1,36.4c0.6-0.4,0.9-1,0.9-1.7V33c0-0.1,0-0.1-0.1-0.1h-2.3c-1,0-1.7,0.2-2.3,0.6
		c-0.6,0.4-0.9,0.9-0.9,1.7c0,0.6,0.2,1.1,0.7,1.5c0.4,0.3,1,0.5,1.7,0.5C142.7,37,143.4,36.8,144.1,36.4z"/>
	<path class="st3" d="M154.5,28.3H152c-0.1,0-0.1,0-0.1,0.1v6.5c0,0.7,0.2,1.2,0.5,1.5s0.8,0.4,1.5,0.4h0.5c0.1,0,0.2,0.1,0.2,0.2v1
		c0,0.1-0.1,0.2-0.2,0.2c-0.2,0-0.4,0-0.8,0c-1.1,0-1.9-0.2-2.4-0.6s-0.8-1.1-0.8-2.2v-7c0-0.1,0-0.1-0.1-0.1H149
		c-0.1,0-0.2-0.1-0.2-0.2v-0.9c0-0.1,0.1-0.2,0.2-0.2h1.3c0.1,0,0.1,0,0.1-0.1v-2.6c0-0.1,0.1-0.2,0.2-0.2h1.1
		c0.1,0,0.2,0.1,0.2,0.2V27c0,0.1,0,0.1,0.1,0.1h2.5c0.1,0,0.2,0.1,0.2,0.2v0.9C154.7,28.3,154.7,28.3,154.5,28.3z"/>
	<path class="st3" d="M163.5,27.2c0.1,0.1,0.2,0.2,0.1,0.3l-0.2,1.1c0,0.1-0.1,0.2-0.3,0.1s-0.5-0.2-0.9-0.2h-0.3
		c-0.8,0-1.4,0.3-1.9,0.8s-0.7,1.2-0.7,2V38c0,0.1-0.1,0.2-0.2,0.2H158c-0.1,0-0.2-0.1-0.2-0.2V27.3c0-0.1,0.1-0.2,0.2-0.2h1.1
		c0.1,0,0.2,0.1,0.2,0.2v1.3v0.1c0,0,0,0,0.1,0c0.3-0.5,0.7-1,1.2-1.3s1-0.5,1.7-0.5C162.7,26.9,163.1,27,163.5,27.2z"/>
	<path class="st3" d="M172.6,27.9c0.7,0.7,1.1,1.6,1.1,2.7V38c0,0.1-0.1,0.2-0.2,0.2h-1.1c-0.1,0-0.2-0.1-0.2-0.2v-0.9V37
		c0,0,0,0-0.1,0c-0.4,0.4-0.8,0.8-1.4,1c-0.6,0.2-1.2,0.3-2,0.3c-1,0-1.9-0.3-2.6-0.8c-0.7-0.5-1.1-1.3-1.1-2.4c0-1.1,0.4-2,1.2-2.6
		c0.8-0.6,1.9-1,3.3-1h2.6c0.1,0,0.1,0,0.1-0.1v-0.8c0-0.7-0.2-1.3-0.6-1.8s-1.1-0.6-1.9-0.6c-0.7,0-1.3,0.1-1.7,0.4
		s-0.7,0.6-0.8,1.1c0,0.1-0.1,0.2-0.3,0.2l-1.2-0.2c-0.2,0-0.2-0.1-0.2-0.2c0.1-0.8,0.6-1.5,1.3-2c0.8-0.5,1.7-0.8,2.9-0.8
		C170.9,26.9,171.9,27.2,172.6,27.9z M171.2,36.4c0.6-0.4,0.9-1,0.9-1.7V33c0-0.1,0-0.1-0.1-0.1h-2.3c-1,0-1.7,0.2-2.3,0.6
		c-0.6,0.4-0.9,0.9-0.9,1.7c0,0.6,0.2,1.1,0.7,1.5c0.4,0.3,1,0.5,1.7,0.5C169.8,37,170.6,36.8,171.2,36.4z"/>
	<path class="st3" d="M178.4,37.5c-0.8-0.5-1.3-1.3-1.6-2.2c-0.2-0.6-0.3-1.6-0.3-2.7c0-1.1,0.1-2,0.3-2.7c0.3-0.9,0.8-1.6,1.5-2.2
		c0.8-0.5,1.7-0.8,2.7-0.8c1.1,0,2,0.3,2.8,0.8s1.3,1.2,1.5,2c0.1,0.3,0.1,0.5,0.1,0.7l0,0c0,0.1-0.1,0.2-0.2,0.2l-1.1,0.2l0,0
		c-0.1,0-0.2-0.1-0.2-0.2l-0.1-0.3c-0.1-0.6-0.5-1-1-1.4s-1.1-0.6-1.9-0.6s-1.3,0.2-1.8,0.6s-0.8,0.9-1,1.6
		c-0.1,0.6-0.2,1.3-0.2,2.2c0,1,0.1,1.7,0.2,2.2c0.1,0.7,0.5,1.2,1,1.6c0.5,0.4,1.1,0.6,1.8,0.6s1.3-0.2,1.9-0.6
		c0.5-0.4,0.8-0.9,1-1.4V35v-0.1c0-0.1,0.1-0.2,0.3-0.2l1.1,0.2c0.1,0,0.2,0.1,0.2,0.2l-0.1,0.4c-0.2,0.8-0.7,1.5-1.5,2.1
		c-0.8,0.5-1.7,0.8-2.8,0.8C180.1,38.4,179.2,38.1,178.4,37.5z"/>
	<path class="st3" d="M193.2,28.3h-2.5c-0.1,0-0.1,0-0.1,0.1v6.5c0,0.7,0.2,1.2,0.5,1.5s0.8,0.4,1.5,0.4h0.5c0.1,0,0.2,0.1,0.2,0.2
		v1c0,0.1-0.1,0.2-0.2,0.2c-0.2,0-0.4,0-0.8,0c-1.1,0-1.9-0.2-2.4-0.6s-0.8-1.1-0.8-2.2v-7c0-0.1,0-0.1-0.1-0.1h-1.3
		c-0.1,0-0.2-0.1-0.2-0.2v-0.9c0-0.1,0.1-0.2,0.2-0.2h1.3c0.1,0,0.1,0,0.1-0.1v-2.6c0-0.1,0.1-0.2,0.2-0.2h1.1
		c0.1,0,0.2,0.1,0.2,0.2V27c0,0.1,0,0.1,0.1,0.1h2.5c0.1,0,0.2,0.1,0.2,0.2v0.9C193.4,28.3,193.3,28.3,193.2,28.3z"/>
	<path class="st3" d="M196.6,24.7c-0.2-0.2-0.4-0.5-0.4-0.9s0.1-0.7,0.4-0.9c0.2-0.2,0.5-0.3,0.9-0.3s0.6,0.1,0.9,0.3
		c0.2,0.2,0.4,0.5,0.4,0.9s-0.1,0.6-0.4,0.9c-0.2,0.2-0.5,0.4-0.9,0.4S196.8,24.9,196.6,24.7z M196.6,37.9V27.2
		c0-0.1,0.1-0.2,0.2-0.2h1.1c0.1,0,0.2,0.1,0.2,0.2v10.7c0,0.1-0.1,0.2-0.2,0.2h-1.1C196.7,38.2,196.6,38.1,196.6,37.9z"/>
	<path class="st3" d="M204.6,38L201,27.3v-0.1c0-0.1,0.1-0.2,0.2-0.2h1.3c0.1,0,0.2,0.1,0.3,0.2l2.8,8.6c0,0,0,0,0.1,0s0.1,0,0.1,0
		l2.8-8.6c0-0.1,0.1-0.2,0.3-0.2h1.3c0.2,0,0.2,0.1,0.2,0.2l-4,10.8c0,0.1-0.1,0.2-0.3,0.2h-1.3C204.7,38.2,204.6,38.1,204.6,38z"/>
	<path class="st3" d="M213.6,37.5c-0.8-0.5-1.3-1.3-1.6-2.2c-0.2-0.7-0.3-1.6-0.3-2.7c0-1.1,0.1-2,0.3-2.7c0.3-0.9,0.8-1.7,1.6-2.2
		s1.7-0.8,2.8-0.8c1,0,1.9,0.3,2.7,0.8s1.3,1.3,1.6,2.2c0.2,0.6,0.3,1.5,0.3,2.7s-0.1,2.1-0.3,2.7c-0.3,1-0.8,1.7-1.6,2.2
		s-1.7,0.8-2.7,0.8C215.3,38.4,214.4,38.1,213.6,37.5z M218.1,36.4c0.5-0.4,0.8-0.9,1-1.6c0.1-0.5,0.2-1.3,0.2-2.2
		c0-1-0.1-1.7-0.2-2.2c-0.2-0.7-0.5-1.2-1-1.6s-1.1-0.6-1.8-0.6s-1.3,0.2-1.8,0.6s-0.8,0.9-1,1.6c-0.1,0.5-0.2,1.3-0.2,2.2
		c0,1,0.1,1.7,0.2,2.2c0.2,0.7,0.5,1.2,1,1.6s1.1,0.6,1.9,0.6C217,37,217.6,36.8,218.1,36.4z"/>
	<path class="st3" d="M225.6,37.9c-0.6-0.3-1.1-0.6-1.5-1.1c-0.3-0.4-0.5-0.9-0.5-1.5V35c0-0.1,0.1-0.2,0.2-0.2h1.1
		c0.1,0,0.2,0.1,0.2,0.2v0.2c0,0.5,0.3,0.9,0.8,1.3c0.5,0.4,1.1,0.5,1.9,0.5c0.8,0,1.4-0.2,1.8-0.5c0.5-0.3,0.7-0.8,0.7-1.3
		c0-0.4-0.1-0.7-0.4-0.9c-0.2-0.2-0.5-0.4-0.9-0.6c-0.3-0.1-0.8-0.3-1.5-0.5c-0.8-0.2-1.5-0.5-2-0.7s-1-0.6-1.3-1s-0.5-0.9-0.5-1.6
		c0-0.9,0.4-1.7,1.1-2.2c0.7-0.6,1.7-0.8,2.9-0.8c0.8,0,1.5,0.1,2.1,0.4s1.1,0.6,1.4,1.1c0.3,0.5,0.5,1,0.5,1.6l0,0
		c0,0.1-0.1,0.2-0.2,0.2h-1c-0.1,0-0.2-0.1-0.2-0.2l0,0c0-0.5-0.2-0.9-0.7-1.3c-0.5-0.3-1.1-0.5-1.9-0.5c-0.7,0-1.3,0.2-1.8,0.5
		s-0.7,0.7-0.7,1.2s0.2,0.9,0.7,1.1s1.1,0.5,2,0.8c0.9,0.2,1.5,0.5,2.1,0.7c0.5,0.2,1,0.5,1.4,1c0.4,0.4,0.6,1,0.6,1.6
		c0,1-0.4,1.7-1.1,2.3s-1.7,0.9-3,0.9C226.9,38.3,226.2,38.2,225.6,37.9z"/>
	<path class="st3" d="M238.4,42.4v-0.9c0-0.1,0.1-0.2,0.2-0.2h0.1c0.6,0,1-0.1,1.3-0.3s0.6-0.4,0.8-0.9c0.2-0.4,0.5-1.1,0.7-1.9
		c0-0.1,0-0.1,0-0.1l-3.7-10.8v-0.1c0-0.1,0.1-0.2,0.2-0.2h1.2c0.1,0,0.2,0.1,0.3,0.2l2.9,8.9c0,0,0,0,0.1,0h0.1l2.8-8.9
		c0-0.1,0.1-0.2,0.3-0.2h1.1c0.2,0,0.2,0.1,0.2,0.2l-4.1,11.9c-0.4,1-0.7,1.7-1,2.2s-0.7,0.8-1.2,1s-1.1,0.3-1.9,0.3h-0.2
		C238.5,42.6,238.4,42.5,238.4,42.4z"/>
	<path class="st3" d="M255.1,37.9c-0.6-0.3-1.1-0.6-1.5-1.1c-0.3-0.4-0.5-0.9-0.5-1.5V35c0-0.1,0.1-0.2,0.2-0.2h1.1
		c0.1,0,0.2,0.1,0.2,0.2v0.2c0,0.5,0.3,0.9,0.8,1.3c0.5,0.4,1.1,0.5,1.9,0.5c0.8,0,1.4-0.2,1.8-0.5c0.5-0.3,0.7-0.8,0.7-1.3
		c0-0.4-0.1-0.7-0.4-0.9c-0.2-0.2-0.5-0.4-0.9-0.6c-0.3-0.1-0.8-0.3-1.5-0.5c-0.8-0.2-1.5-0.5-2-0.7s-1-0.6-1.3-1s-0.5-0.9-0.5-1.6
		c0-0.9,0.4-1.7,1.1-2.2c0.7-0.6,1.7-0.8,2.9-0.8c0.8,0,1.5,0.1,2.1,0.4s1.1,0.6,1.4,1.1s0.5,1,0.5,1.6l0,0c0,0.1-0.1,0.2-0.2,0.2
		h-1c-0.1,0-0.2-0.1-0.2-0.2l0,0c0-0.5-0.2-0.9-0.7-1.3c-0.5-0.3-1.1-0.5-1.9-0.5c-0.7,0-1.3,0.2-1.8,0.5s-0.7,0.7-0.7,1.2
		s0.2,0.9,0.7,1.1s1.1,0.5,2,0.8c0.9,0.2,1.5,0.5,2.1,0.7c0.5,0.2,1,0.5,1.4,1c0.4,0.4,0.6,1,0.6,1.6c0,1-0.4,1.7-1.1,2.3
		s-1.7,0.9-3,0.9C256.4,38.3,255.7,38.2,255.1,37.9z"/>
	<path class="st3" d="M272.8,32.3V33c0,0.1-0.1,0.2-0.2,0.2h-7.1c-0.1,0-0.1,0-0.1,0.1c0,0.8,0.1,1.3,0.1,1.6c0.2,0.7,0.5,1.2,1,1.6
		c0.5,0.4,1.2,0.6,2,0.6c0.6,0,1.2-0.1,1.6-0.4c0.5-0.3,0.8-0.7,1.1-1.2c0.1-0.1,0.2-0.2,0.3-0.1l0.9,0.5c0.1,0.1,0.1,0.2,0.1,0.3
		c-0.4,0.7-0.9,1.3-1.6,1.7s-1.6,0.6-2.5,0.6c-1,0-1.9-0.3-2.6-0.7c-0.7-0.5-1.2-1.2-1.5-2c-0.3-0.7-0.4-1.7-0.4-3
		c0-0.6,0-1.1,0-1.5s0.1-0.7,0.2-1c0.2-1,0.8-1.7,1.5-2.3c0.8-0.6,1.7-0.9,2.7-0.9c1.3,0,2.4,0.3,3.1,1s1.2,1.6,1.3,2.9
		C272.8,31.2,272.8,31.7,272.8,32.3z M266.5,28.8c-0.5,0.4-0.8,0.9-0.9,1.5c-0.1,0.3-0.1,0.8-0.2,1.5c0,0.1,0,0.1,0.1,0.1h5.7
		c0.1,0,0.1,0,0.1-0.1c0-0.7-0.1-1.1-0.1-1.4c-0.2-0.7-0.5-1.2-1-1.6s-1.1-0.6-1.9-0.6C267.6,28.2,267,28.4,266.5,28.8z"/>
	<path class="st3" d="M281.7,27.2c0.1,0.1,0.2,0.2,0.1,0.3l-0.2,1.1c0,0.1-0.1,0.2-0.3,0.1c-0.2-0.1-0.5-0.2-0.9-0.2h-0.3
		c-0.8,0-1.4,0.3-1.9,0.8s-0.7,1.2-0.7,2V38c0,0.1-0.1,0.2-0.2,0.2h-1.1c-0.1,0-0.2-0.1-0.2-0.2V27.3c0-0.1,0.1-0.2,0.2-0.2h1.1
		c0.1,0,0.2,0.1,0.2,0.2v1.3v0.1c0,0,0,0,0.1,0c0.3-0.5,0.7-1,1.2-1.3s1-0.5,1.7-0.5C280.9,26.9,281.3,27,281.7,27.2z"/>
	<path class="st3" d="M287.1,38l-3.6-10.7v-0.1c0-0.1,0.1-0.2,0.2-0.2h1.3c0.1,0,0.2,0.1,0.3,0.2l2.8,8.6c0,0,0,0,0.1,0h0.1l2.8-8.6
		c0-0.1,0.1-0.2,0.3-0.2h1.3c0.2,0,0.2,0.1,0.2,0.2l-4,10.8c0,0.1-0.1,0.2-0.3,0.2h-1.3C287.2,38.2,287.2,38.1,287.1,38z"/>
	<path class="st3" d="M295.2,24.7c-0.2-0.2-0.4-0.5-0.4-0.9s0.1-0.7,0.4-0.9c0.2-0.2,0.5-0.3,0.9-0.3s0.6,0.1,0.9,0.3
		c0.2,0.2,0.4,0.5,0.4,0.9s-0.1,0.6-0.4,0.9c-0.2,0.2-0.5,0.4-0.9,0.4C295.7,25,295.4,24.9,295.2,24.7z M295.2,37.9V27.2
		c0-0.1,0.1-0.2,0.2-0.2h1.1c0.1,0,0.2,0.1,0.2,0.2v10.7c0,0.1-0.1,0.2-0.2,0.2h-1.1C295.3,38.2,295.2,38.1,295.2,37.9z"/>
	<path class="st3" d="M302.1,37.5c-0.8-0.5-1.3-1.3-1.6-2.2c-0.2-0.6-0.3-1.6-0.3-2.7c0-1.1,0.1-2,0.3-2.7c0.3-0.9,0.8-1.6,1.5-2.2
		c0.8-0.5,1.7-0.8,2.7-0.8c1.1,0,2,0.3,2.8,0.8s1.3,1.2,1.5,2c0.1,0.3,0.1,0.5,0.1,0.7l0,0c0,0.1-0.1,0.2-0.2,0.2l-1.1,0.2l0,0
		c-0.1,0-0.2-0.1-0.2-0.2l-0.1-0.3c-0.1-0.6-0.5-1-1-1.4s-1.1-0.6-1.9-0.6s-1.3,0.2-1.8,0.6s-0.8,0.9-1,1.6
		c-0.1,0.6-0.2,1.3-0.2,2.2c0,1,0.1,1.7,0.2,2.2c0.1,0.7,0.5,1.2,1,1.6s1.1,0.6,1.8,0.6c0.7,0,1.3-0.2,1.9-0.6
		c0.5-0.4,0.8-0.9,1-1.4V35v-0.1c0-0.1,0.1-0.2,0.3-0.2l1.1,0.2c0.1,0,0.2,0.1,0.2,0.2l-0.1,0.4c-0.2,0.8-0.7,1.5-1.5,2.1
		c-0.8,0.5-1.7,0.8-2.8,0.8C303.7,38.4,302.8,38.1,302.1,37.5z"/>
	<path class="st3" d="M312.2,24.7c-0.2-0.2-0.4-0.5-0.4-0.9s0.1-0.7,0.4-0.9c0.2-0.2,0.5-0.3,0.9-0.3s0.6,0.1,0.9,0.3
		c0.2,0.2,0.4,0.5,0.4,0.9s-0.1,0.6-0.4,0.9c-0.2,0.2-0.5,0.4-0.9,0.4C312.7,25,312.5,24.9,312.2,24.7z M312.3,37.9V27.2
		c0-0.1,0.1-0.2,0.2-0.2h1.1c0.1,0,0.2,0.1,0.2,0.2v10.7c0,0.1-0.1,0.2-0.2,0.2h-1.1C312.3,38.2,312.3,38.1,312.3,37.9z"/>
	<path class="st3" d="M319.2,37.5c-0.8-0.5-1.3-1.3-1.6-2.2c-0.2-0.7-0.3-1.6-0.3-2.7c0-1.1,0.1-2,0.3-2.7c0.3-0.9,0.8-1.7,1.6-2.2
		c0.8-0.5,1.7-0.8,2.8-0.8c1,0,1.9,0.3,2.7,0.8c0.8,0.5,1.3,1.3,1.6,2.2c0.2,0.6,0.3,1.5,0.3,2.7s-0.1,2.1-0.3,2.7
		c-0.3,1-0.8,1.7-1.6,2.2c-0.8,0.5-1.7,0.8-2.7,0.8S319.9,38.1,319.2,37.5z M323.7,36.4c0.5-0.4,0.8-0.9,1-1.6
		c0.1-0.5,0.2-1.3,0.2-2.2c0-1-0.1-1.7-0.2-2.2c-0.2-0.7-0.5-1.2-1-1.6s-1.1-0.6-1.8-0.6c-0.7,0-1.3,0.2-1.8,0.6s-0.8,0.9-1,1.6
		c-0.1,0.5-0.2,1.3-0.2,2.2c0,1,0.1,1.7,0.2,2.2c0.2,0.7,0.5,1.2,1,1.6c0.5,0.4,1.1,0.6,1.9,0.6C322.6,37,323.2,36.8,323.7,36.4z"/>
	<path class="st3" d="M331.1,37.9c-0.6-0.3-1.1-0.6-1.5-1.1c-0.3-0.4-0.5-0.9-0.5-1.5V35c0-0.1,0.1-0.2,0.2-0.2h1.1
		c0.1,0,0.2,0.1,0.2,0.2v0.2c0,0.5,0.3,0.9,0.8,1.3s1.1,0.5,1.9,0.5s1.4-0.2,1.8-0.5c0.5-0.3,0.7-0.8,0.7-1.3c0-0.4-0.1-0.7-0.4-0.9
		s-0.5-0.4-0.9-0.6c-0.3-0.1-0.8-0.3-1.5-0.5c-0.8-0.2-1.5-0.5-2-0.7s-1-0.6-1.3-1s-0.5-0.9-0.5-1.6c0-0.9,0.4-1.7,1.1-2.2
		c0.7-0.6,1.7-0.8,2.9-0.8c0.8,0,1.5,0.1,2.1,0.4s1.1,0.6,1.4,1.1s0.5,1,0.5,1.6l0,0c0,0.1-0.1,0.2-0.2,0.2h-1
		c-0.1,0-0.2-0.1-0.2-0.2l0,0c0-0.5-0.2-0.9-0.7-1.3c-0.5-0.3-1.1-0.5-1.9-0.5c-0.7,0-1.3,0.2-1.8,0.5s-0.7,0.7-0.7,1.2
		s0.2,0.9,0.7,1.1c0.4,0.3,1.1,0.5,2,0.8c0.9,0.2,1.5,0.5,2.1,0.7c0.5,0.2,1,0.5,1.4,1c0.4,0.4,0.6,1,0.6,1.6c0,1-0.4,1.7-1.1,2.3
		s-1.7,0.9-3,0.9C332.5,38.3,331.7,38.2,331.1,37.9z"/>
	<path class="st3" d="M351.8,22.8h1.1c0.1,0,0.2,0.1,0.2,0.2v15c0,0.1-0.1,0.2-0.2,0.2h-1.1c-0.1,0-0.2-0.1-0.2-0.2v-1
		c0,0,0,0,0-0.1c0,0,0,0-0.1,0c-0.3,0.4-0.7,0.8-1.2,1s-1,0.4-1.6,0.4c-1,0-1.9-0.3-2.6-0.8s-1.2-1.2-1.4-2.2
		c-0.2-0.7-0.3-1.6-0.3-2.8s0.1-2.1,0.3-2.7c0.3-0.9,0.7-1.7,1.5-2.2c0.7-0.5,1.6-0.8,2.6-0.8c0.6,0,1.1,0.1,1.6,0.3
		c0.5,0.2,0.9,0.6,1.2,1h0.1c0,0,0,0,0-0.1v-5C351.5,22.9,351.6,22.8,351.8,22.8z M351.4,34.3c0.1-0.4,0.1-0.9,0.1-1.7
		c0-0.7,0-1.3-0.1-1.7s-0.2-0.8-0.3-1.1c-0.2-0.5-0.5-0.9-0.9-1.2c-0.4-0.3-0.9-0.5-1.4-0.5c-0.6,0-1.1,0.1-1.5,0.4
		s-0.7,0.7-0.9,1.2c-0.2,0.3-0.3,0.7-0.4,1.1s-0.1,1-0.1,1.7c0,0.7,0,1.2,0.1,1.6s0.2,0.7,0.3,1c0.2,0.5,0.5,0.9,0.9,1.3
		c0.4,0.3,1,0.5,1.6,0.5s1.1-0.2,1.5-0.5s0.7-0.7,0.9-1.2C351.3,35,351.4,34.7,351.4,34.3z"/>
	<path class="st3" d="M365.3,32.3V33c0,0.1-0.1,0.2-0.2,0.2H358c-0.1,0-0.1,0-0.1,0.1c0,0.8,0.1,1.3,0.1,1.6c0.2,0.7,0.5,1.2,1,1.6
		c0.5,0.4,1.2,0.6,2,0.6c0.6,0,1.2-0.1,1.6-0.4c0.5-0.3,0.8-0.7,1.1-1.2c0.1-0.1,0.2-0.2,0.3-0.1l0.9,0.5c0.1,0.1,0.1,0.2,0.1,0.3
		c-0.4,0.7-0.9,1.3-1.6,1.7s-1.6,0.6-2.5,0.6c-1,0-1.9-0.3-2.6-0.7s-1.2-1.2-1.5-2c-0.3-0.7-0.4-1.7-0.4-3c0-0.6,0-1.1,0-1.5
		s0.1-0.7,0.2-1c0.2-1,0.8-1.7,1.5-2.3c0.8-0.6,1.7-0.9,2.7-0.9c1.3,0,2.4,0.3,3.1,1s1.2,1.6,1.3,2.9
		C365.2,31.2,365.3,31.7,365.3,32.3z M359,28.8c-0.5,0.4-0.8,0.9-0.9,1.5c-0.1,0.3-0.1,0.8-0.2,1.5c0,0.1,0,0.1,0.1,0.1h5.7
		c0.1,0,0.1,0,0.1-0.1c0-0.7-0.1-1.1-0.1-1.4c-0.2-0.7-0.5-1.2-1-1.6s-1.1-0.6-1.9-0.6C360,28.2,359.4,28.4,359,28.8z"/>
	<path class="st3" d="M372.8,38V23c0-0.1,0.1-0.2,0.2-0.2h1.1c0.1,0,0.2,0.1,0.2,0.2v15c0,0.1-0.1,0.2-0.2,0.2H373
		C372.8,38.2,372.8,38.1,372.8,38z"/>
	<path class="st3" d="M384.7,27.9c0.7,0.7,1.1,1.6,1.1,2.7V38c0,0.1-0.1,0.2-0.2,0.2h-1.1c-0.1,0-0.2-0.1-0.2-0.2v-0.9V37
		c0,0,0,0-0.1,0c-0.4,0.4-0.8,0.8-1.4,1s-1.2,0.3-2,0.3c-1,0-1.9-0.3-2.6-0.8s-1.1-1.3-1.1-2.4c0-1.1,0.4-2,1.2-2.6
		c0.8-0.6,1.9-1,3.3-1h2.6c0.1,0,0.1,0,0.1-0.1v-0.8c0-0.7-0.2-1.3-0.6-1.8s-1.1-0.6-1.9-0.6c-0.7,0-1.3,0.1-1.7,0.4
		c-0.4,0.3-0.7,0.6-0.8,1.1c0,0.1-0.1,0.2-0.3,0.2l-1.2-0.2c-0.2,0-0.2-0.1-0.2-0.2c0.1-0.8,0.6-1.5,1.3-2c0.8-0.5,1.7-0.8,2.9-0.8
		C383,26.9,384,27.2,384.7,27.9z M383.3,36.4c0.6-0.4,0.9-1,0.9-1.7V33c0-0.1,0-0.1-0.1-0.1h-2.3c-1,0-1.7,0.2-2.3,0.6
		c-0.6,0.4-0.9,0.9-0.9,1.7c0,0.6,0.2,1.1,0.7,1.5s1,0.5,1.7,0.5C381.9,37,382.7,36.8,383.3,36.4z"/>
	<path class="st3" d="M392.5,38v-1.1c0-0.1,0-0.2,0.1-0.3l6.2-8.1v-0.1c0,0,0,0-0.1,0h-6c-0.1,0-0.2-0.1-0.2-0.2v-1
		c0-0.1,0.1-0.2,0.2-0.2h7.7c0.1,0,0.2,0.1,0.2,0.2v1.1c0,0.1,0,0.2-0.1,0.3l-6.3,8.1v0.1c0,0,0,0,0.1,0h6.1c0.1,0,0.2,0.1,0.2,0.2
		v1c0,0.1-0.1,0.2-0.2,0.2h-7.8C392.5,38.2,392.5,38.1,392.5,38z"/>
	<path class="st3" d="M404.8,37.5c-0.8-0.5-1.3-1.3-1.6-2.2c-0.2-0.7-0.3-1.6-0.3-2.7c0-1.1,0.1-2,0.3-2.7c0.3-0.9,0.8-1.7,1.6-2.2
		c0.8-0.5,1.7-0.8,2.8-0.8c1,0,1.9,0.3,2.7,0.8c0.8,0.5,1.3,1.3,1.6,2.2c0.2,0.6,0.3,1.5,0.3,2.7s-0.1,2.1-0.3,2.7
		c-0.3,1-0.8,1.7-1.6,2.2c-0.8,0.5-1.7,0.8-2.7,0.8S405.5,38.1,404.8,37.5z M409.3,36.4c0.5-0.4,0.8-0.9,1-1.6
		c0.1-0.5,0.2-1.3,0.2-2.2c0-1-0.1-1.7-0.2-2.2c-0.2-0.7-0.5-1.2-1-1.6s-1.1-0.6-1.8-0.6c-0.7,0-1.3,0.2-1.8,0.6s-0.8,0.9-1,1.6
		c-0.1,0.5-0.2,1.3-0.2,2.2c0,1,0.1,1.7,0.2,2.2c0.2,0.7,0.5,1.2,1,1.6c0.5,0.4,1.1,0.6,1.9,0.6C408.2,37,408.8,36.8,409.3,36.4z"/>
	<path class="st3" d="M422.7,27.9c0.7,0.7,1,1.6,1,2.8V38c0,0.1-0.1,0.2-0.2,0.2h-1.1c-0.1,0-0.2-0.1-0.2-0.2v-7
		c0-0.8-0.2-1.5-0.7-2s-1.1-0.8-1.9-0.8s-1.5,0.2-2,0.7s-0.7,1.2-0.7,2v7c0,0.1-0.1,0.2-0.2,0.2h-1.1c-0.1,0-0.2-0.1-0.2-0.2V27.3
		c0-0.1,0.1-0.2,0.2-0.2h1.1c0.1,0,0.2,0.1,0.2,0.2v0.9v0.1c0,0,0,0,0.1,0c0.6-0.9,1.6-1.4,3-1.4C421,26.9,422,27.2,422.7,27.9z"/>
	<path class="st3" d="M434,27.9c0.7,0.7,1.1,1.6,1.1,2.7V38c0,0.1-0.1,0.2-0.2,0.2h-1.1c-0.1,0-0.2-0.1-0.2-0.2v-0.9V37
		c0,0,0,0-0.1,0c-0.4,0.4-0.8,0.8-1.4,1s-1.2,0.3-2,0.3c-1,0-1.9-0.3-2.6-0.8s-1.1-1.3-1.1-2.4c0-1.1,0.4-2,1.2-2.6
		c0.8-0.6,1.9-1,3.3-1h2.6c0.1,0,0.1,0,0.1-0.1v-0.8c0-0.7-0.2-1.3-0.6-1.8s-1.1-0.6-1.9-0.6c-0.7,0-1.3,0.1-1.7,0.4
		c-0.4,0.3-0.7,0.6-0.8,1.1c0,0.1-0.1,0.2-0.3,0.2l-1.2-0.2c-0.2,0-0.2-0.1-0.2-0.2c0.1-0.8,0.6-1.5,1.3-2c0.8-0.5,1.7-0.8,2.9-0.8
		C432.3,26.9,433.3,27.2,434,27.9z M432.6,36.4c0.6-0.4,0.9-1,0.9-1.7V33c0-0.1,0-0.1-0.1-0.1h-2.3c-1,0-1.7,0.2-2.3,0.6
		c-0.6,0.4-0.9,0.9-0.9,1.7c0,0.6,0.2,1.1,0.7,1.5s1,0.5,1.7,0.5C431.2,37,431.9,36.8,432.6,36.4z"/>
</g>
</svg>
