<svg enable-background="new 0 0 570 64" viewBox="0 0 570 64" xmlns="http://www.w3.org/2000/svg"><path d="m3.2 1.6h473.7v60.8h-473.7z" fill="#581945"/><path d="m323.5 1.6h153.3v60.8h-153.3z" fill="none" stroke="#581945" stroke-miterlimit="10" stroke-width=".5"/><path d="m459.4 62.4h82.9l23.3-28.2c1.3-1.6 1.3-4.2 0-5.8l-22.1-26.8h-84.1z" fill="none" stroke="#581945" stroke-miterlimit="10" stroke-width=".5"/><g enable-background="new" fill="#fff"><path d="m20 37.8c-.8-.4-1.4-1-1.8-1.7s-.6-1.6-.6-2.6v-6.1c0-1 .2-1.8.6-2.5s1-1.3 1.8-1.7 1.7-.6 2.7-.6 1.9.2 2.7.6 1.4 1 1.8 1.7.6 1.5.6 2.5c0 .1 0 .1-.1.2 0 0-.1.1-.2.1l-1.1.1c-.1 0-.2-.1-.2-.2v-.1c0-1-.3-1.9-1-2.5s-1.5-.9-2.6-.9-2 .3-2.6.9c-.7.6-1 1.5-1 2.5v6.2c0 1 .3 1.9 1 2.5s1.5.9 2.6.9 2-.3 2.6-.9 1-1.5 1-2.5c0-.1.1-.2.2-.2l1.1.1c.1 0 .2.1.2.2 0 1-.2 1.8-.6 2.5s-1 1.3-1.8 1.7-1.7.6-2.7.6c-.9-.2-1.8-.4-2.6-.8z"/><path d="m32.5 37.5c-.8-.5-1.3-1.3-1.6-2.2-.2-.7-.3-1.6-.3-2.7s.1-2 .3-2.7c.3-.9.8-1.7 1.6-2.2s1.7-.8 2.8-.8c1 0 1.9.3 2.7.8s1.3 1.3 1.6 2.2c.2.6.3 1.5.3 2.7s-.1 2.1-.3 2.7c-.3 1-.8 1.7-1.6 2.2s-1.7.8-2.7.8c-1.1.1-2-.2-2.8-.8zm4.6-1.1c.5-.4.8-.9 1-1.6.1-.5.2-1.3.2-2.2 0-1-.1-1.7-.2-2.2-.2-.7-.5-1.2-1-1.6s-1.1-.6-1.8-.6-1.3.2-1.8.6-.8.9-1 1.6c-.1.5-.2 1.3-.2 2.2 0 1 .1 1.7.2 2.2.2.7.5 1.2 1 1.6s1.1.6 1.9.6c.6 0 1.2-.2 1.7-.6z"/><path d="m50.4 27.9c.7.7 1 1.6 1 2.8v7.3c0 .1-.1.2-.2.2h-1.1c-.1 0-.2-.1-.2-.2v-7c0-.8-.2-1.5-.7-2s-1.1-.8-1.9-.8-1.5.2-2 .7-.7 1.2-.7 2v7c0 .1-.1.2-.2.2h-1.1c-.1 0-.2-.1-.2-.2v-10.6c0-.1.1-.2.2-.2h1.1c.1 0 .2.1.2.2v.9.1h.1c.6-.9 1.6-1.4 3-1.4 1.1-0 2 .3 2.7 1z"/><path d="m56.2 37.5c-.8-.5-1.3-1.3-1.6-2.2-.2-.7-.3-1.6-.3-2.7s.1-2 .3-2.7c.3-.9.8-1.7 1.6-2.2s1.7-.8 2.8-.8c1 0 1.9.3 2.7.8s1.3 1.3 1.6 2.2c.2.6.3 1.5.3 2.7s-.1 2.1-.3 2.7c-.3 1-.8 1.7-1.6 2.2s-1.7.8-2.7.8c-1.1.1-2-.2-2.8-.8zm4.6-1.1c.5-.4.8-.9 1-1.6.1-.5.2-1.3.2-2.2 0-1-.1-1.7-.2-2.2-.2-.7-.5-1.2-1-1.6s-1.1-.6-1.8-.6-1.3.2-1.8.6-.8.9-1 1.6c-.1.5-.2 1.3-.2 2.2 0 1 .1 1.7.2 2.2.2.7.5 1.2 1 1.6s1 .6 1.8.6c.7 0 1.3-.2 1.8-.6z"/><path d="m68.2 37.5c-.8-.5-1.3-1.3-1.6-2.2-.2-.6-.3-1.6-.3-2.7s.1-2 .3-2.7c.3-.9.8-1.6 1.5-2.2.8-.5 1.7-.8 2.7-.8 1.1 0 2 .3 2.8.8s1.3 1.2 1.5 2c.1.3.1.5.1.7 0 .1-.1.2-.2.2l-1 .2c-.1 0-.2-.1-.2-.2l-.1-.3c-.1-.6-.5-1-1-1.4s-1.1-.6-1.9-.6-1.3.2-1.8.6-.8.9-1 1.6c-.1.6-.2 1.3-.2 2.2 0 1 .1 1.7.2 2.2.1.7.5 1.2 1 1.6s1.1.6 1.8.6 1.3-.2 1.9-.6c.5-.4.8-.9 1-1.4v-.1-.1c0-.1.1-.2.3-.2l1.1.2c.1 0 .2.1.2.2l-.1.4c-.2.8-.7 1.5-1.5 2.1-.8.5-1.7.8-2.8.8s-2-.3-2.7-.9z"/><path d="m86.7 32.3v.7c0 .1-.1.2-.2.2h-7.1c-.1 0-.1 0-.1.1 0 .8.1 1.3.1 1.6.2.7.5 1.2 1 1.6s1.2.6 2 .6c.6 0 1.2-.1 1.6-.4.5-.3.8-.7 1.1-1.2.1-.1.2-.2.3-.1l.9.5c.1.1.1.2.1.3-.4.7-.9 1.3-1.6 1.7s-1.6.6-2.5.6c-1 0-1.9-.3-2.6-.7-.7-.5-1.2-1.2-1.5-2-.3-.7-.4-1.7-.4-3 0-.6 0-1.1 0-1.5s.1-.7.2-1c.2-1 .8-1.7 1.5-2.3s1.7-.9 2.7-.9c1.3 0 2.4.3 3.1 1s1.2 1.6 1.3 2.9c.1.2.1.7.1 1.3zm-6.3-3.5c-.5.4-.8.9-.9 1.5-.1.3-.1.8-.2 1.5 0 .1 0 .1.1.1h5.7c.1 0 .1 0 .1-.1 0-.7-.1-1.1-.1-1.4-.2-.7-.5-1.2-1-1.6s-1.1-.6-1.9-.6c-.7 0-1.3.2-1.8.6z"/><path d="m108.1 27.9c.6.7 1 1.6 1 2.7v7.4c0 .1-.1.2-.2.2h-1.1c-.1 0-.2-.1-.2-.2v-7.1c0-.8-.2-1.4-.7-1.9s-1.1-.7-1.8-.7c-.8 0-1.4.2-1.9.7s-.7 1.1-.7 1.9v7.1c0 .1-.1.2-.2.2h-1.3c-.1 0-.2-.1-.2-.2v-7.1c0-.8-.2-1.4-.7-1.9s-1.1-.7-1.8-.7c-.8 0-1.4.2-1.9.7s-.7 1.1-.7 1.9v7.1c0 .1-.1.2-.2.2h-1.1c-.1 0-.2-.1-.2-.2v-10.7c0-.1.1-.2.2-.2h1.1c.1 0 .2.1.2.2v.9.1h.1c.3-.4.7-.7 1.2-1 .5-.2 1.1-.3 1.7-.3.8 0 1.4.2 2 .5.5.3 1 .8 1.2 1.3 0 .1.1.1.1 0 .3-.6.8-1.1 1.4-1.4s1.3-.5 2-.5c1.2-0 2 .3 2.7 1z"/><path d="m119.3 27.9c.7.7 1.1 1.6 1.1 2.7v7.4c0 .1-.1.2-.2.2h-1.2c-.1 0-.2-.1-.2-.2v-.9-.1s0 0-.1 0c-.4.4-.8.8-1.4 1s-1.2.3-2 .3c-1 0-1.9-.3-2.6-.8s-1.1-1.3-1.1-2.4.4-2 1.2-2.6 1.9-1 3.3-1h2.6c.1 0 .1 0 .1-.1v-.8c0-.7-.2-1.3-.6-1.8s-1.1-.6-1.9-.6c-.7 0-1.3.1-1.7.4s-.7.6-.8 1.1c0 .1-.1.2-.3.2l-1.2-.2c-.2 0-.2-.1-.2-.2.1-.8.6-1.5 1.3-2 .8-.5 1.7-.8 2.9-.8 1.3.2 2.3.5 3 1.2zm-1.4 8.5c.6-.4.9-1 .9-1.7v-1.7c0-.1 0-.1-.1-.1h-2.3c-1 0-1.7.2-2.3.6s-.9.9-.9 1.7c0 .6.2 1.1.7 1.5.4.3 1 .5 1.7.5.9-.2 1.6-.4 2.3-.8zm-2.6-10.9c0-.1 0-.1 0-.2l1.3-2.4c0-.1.1-.2.3-.2h1c.1 0 .1 0 .2.1v.2l-1.5 2.4c-.1.1-.2.2-.3.2h-.8c-.1 0-.1 0-.2-.1z"/><path d="m125.1 37.9c-.6-.3-1.1-.6-1.5-1.1-.3-.4-.5-.9-.5-1.5v-.3c0-.1.1-.2.2-.2h1.1c.1 0 .2.1.2.2v.2c0 .5.3.9.8 1.3s1.1.5 1.9.5 1.4-.2 1.8-.5c.5-.3.7-.8.7-1.3 0-.4-.1-.7-.4-.9-.2-.2-.5-.4-.9-.6-.3-.1-.8-.3-1.5-.5-.8-.2-1.5-.5-2-.7s-1-.6-1.3-1-.5-.9-.5-1.6c0-.9.4-1.7 1.1-2.2.7-.6 1.7-.8 2.9-.8.8 0 1.5.1 2.1.4s1.1.6 1.4 1.1.5 1 .5 1.6c0 .1-.1.2-.2.2h-1c-.1 0-.2-.1-.2-.2 0-.5-.2-.9-.7-1.3-.5-.3-1.1-.5-1.9-.5-.7 0-1.3.2-1.8.5s-.7.7-.7 1.2.2.9.7 1.1 1.1.5 2 .8c.9.2 1.5.5 2.1.7.5.2 1 .5 1.4 1 .4.4.6 1 .6 1.6 0 1-.4 1.7-1.1 2.3s-1.7.9-3 .9c-1 0-1.7-.1-2.3-.4z"/><path d="m145.5 27.9c.7.7 1.1 1.6 1.1 2.7v7.4c0 .1-.1.2-.2.2h-1.1c-.1 0-.2-.1-.2-.2v-.9-.1s0 0-.1 0c-.4.4-.8.8-1.4 1s-1.2.3-2 .3c-1 0-1.9-.3-2.6-.8s-1.1-1.3-1.1-2.4.4-2 1.2-2.6 1.9-1 3.3-1h2.6c.1 0 .1 0 .1-.1v-.8c0-.7-.2-1.3-.6-1.8s-1.1-.6-1.9-.6c-.7 0-1.3.1-1.7.4s-.7.6-.8 1.1c0 .1-.1.2-.3.2l-1.2-.2c-.2 0-.2-.1-.2-.2.1-.8.6-1.5 1.3-2 .8-.5 1.7-.8 2.9-.8 1.2.2 2.2.5 2.9 1.2zm-1.4 8.5c.6-.4.9-1 .9-1.7v-1.7c0-.1 0-.1-.1-.1h-2.3c-1 0-1.7.2-2.3.6s-.9.9-.9 1.7c0 .6.2 1.1.7 1.5.4.3 1 .5 1.7.5.9-.2 1.6-.4 2.3-.8z"/><path d="m154.5 28.3h-2.5c-.1 0-.1 0-.1.1v6.5c0 .7.2 1.2.5 1.5s.8.4 1.5.4h.5c.1 0 .2.1.2.2v1c0 .1-.1.2-.2.2-.2 0-.4 0-.8 0-1.1 0-1.9-.2-2.4-.6s-.8-1.1-.8-2.2v-7c0-.1 0-.1-.1-.1h-1.3c-.1 0-.2-.1-.2-.2v-.9c0-.1.1-.2.2-.2h1.3c.1 0 .1 0 .1-.1v-2.6c0-.1.1-.2.2-.2h1.1c.1 0 .2.1.2.2v2.7c0 .1 0 .1.1.1h2.5c.1 0 .2.1.2.2v.9c0 .1 0 .1-.2.1z"/><path d="m163.5 27.2c.1.1.2.2.1.3l-.2 1.1c0 .1-.1.2-.3.1s-.5-.2-.9-.2h-.3c-.8 0-1.4.3-1.9.8s-.7 1.2-.7 2v6.7c0 .1-.1.2-.2.2h-1.1c-.1 0-.2-.1-.2-.2v-10.7c0-.1.1-.2.2-.2h1.1c.1 0 .2.1.2.2v1.3.1h.1c.3-.5.7-1 1.2-1.3s1-.5 1.7-.5c.4-0 .8.1 1.2.3z"/><path d="m172.6 27.9c.7.7 1.1 1.6 1.1 2.7v7.4c0 .1-.1.2-.2.2h-1.1c-.1 0-.2-.1-.2-.2v-.9-.1s0 0-.1 0c-.4.4-.8.8-1.4 1s-1.2.3-2 .3c-1 0-1.9-.3-2.6-.8s-1.1-1.3-1.1-2.4.4-2 1.2-2.6 1.9-1 3.3-1h2.6c.1 0 .1 0 .1-.1v-.8c0-.7-.2-1.3-.6-1.8s-1.1-.6-1.9-.6c-.7 0-1.3.1-1.7.4s-.7.6-.8 1.1c0 .1-.1.2-.3.2l-1.2-.2c-.2 0-.2-.1-.2-.2.1-.8.6-1.5 1.3-2 .8-.5 1.7-.8 2.9-.8 1.2.2 2.2.5 2.9 1.2zm-1.4 8.5c.6-.4.9-1 .9-1.7v-1.7c0-.1 0-.1-.1-.1h-2.3c-1 0-1.7.2-2.3.6s-.9.9-.9 1.7c0 .6.2 1.1.7 1.5.4.3 1 .5 1.7.5.9-.2 1.7-.4 2.3-.8z"/><path d="m178.4 37.5c-.8-.5-1.3-1.3-1.6-2.2-.2-.6-.3-1.6-.3-2.7s.1-2 .3-2.7c.3-.9.8-1.6 1.5-2.2.8-.5 1.7-.8 2.7-.8 1.1 0 2 .3 2.8.8s1.3 1.2 1.5 2c.1.3.1.5.1.7 0 .1-.1.2-.2.2l-1.1.2c-.1 0-.2-.1-.2-.2l-.1-.3c-.1-.6-.5-1-1-1.4s-1.1-.6-1.9-.6-1.3.2-1.8.6-.8.9-1 1.6c-.1.6-.2 1.3-.2 2.2 0 1 .1 1.7.2 2.2.1.7.5 1.2 1 1.6s1.1.6 1.8.6 1.3-.2 1.9-.6c.5-.4.8-.9 1-1.4v-.1-.1c0-.1.1-.2.3-.2l1.1.2c.1 0 .2.1.2.2l-.1.4c-.2.8-.7 1.5-1.5 2.1-.8.5-1.7.8-2.8.8-.9 0-1.8-.3-2.6-.9z"/><path d="m193.2 28.3h-2.5c-.1 0-.1 0-.1.1v6.5c0 .7.2 1.2.5 1.5s.8.4 1.5.4h.5c.1 0 .2.1.2.2v1c0 .1-.1.2-.2.2-.2 0-.4 0-.8 0-1.1 0-1.9-.2-2.4-.6s-.8-1.1-.8-2.2v-7c0-.1 0-.1-.1-.1h-1.3c-.1 0-.2-.1-.2-.2v-.9c0-.1.1-.2.2-.2h1.3c.1 0 .1 0 .1-.1v-2.6c0-.1.1-.2.2-.2h1.1c.1 0 .2.1.2.2v2.7c0 .1 0 .1.1.1h2.5c.1 0 .2.1.2.2v.9c0 .1-.1.1-.2.1z"/><path d="m196.6 24.7c-.2-.2-.4-.5-.4-.9s.1-.7.4-.9c.2-.2.5-.3.9-.3s.6.1.9.3c.2.2.4.5.4.9s-.1.6-.4.9c-.2.2-.5.4-.9.4s-.7-.2-.9-.4zm0 13.2v-10.7c0-.1.1-.2.2-.2h1.1c.1 0 .2.1.2.2v10.7c0 .1-.1.2-.2.2h-1.1c-.1.1-.2 0-.2-.2z"/><path d="m204.6 38-3.6-10.7v-.1c0-.1.1-.2.2-.2h1.3c.1 0 .2.1.3.2l2.8 8.6h.1s.1 0 .1 0l2.8-8.6c0-.1.1-.2.3-.2h1.3c.2 0 .2.1.2.2l-4 10.8c0 .1-.1.2-.3.2h-1.3c-.1 0-.2-.1-.2-.2z"/><path d="m213.6 37.5c-.8-.5-1.3-1.3-1.6-2.2-.2-.7-.3-1.6-.3-2.7s.1-2 .3-2.7c.3-.9.8-1.7 1.6-2.2s1.7-.8 2.8-.8c1 0 1.9.3 2.7.8s1.3 1.3 1.6 2.2c.2.6.3 1.5.3 2.7s-.1 2.1-.3 2.7c-.3 1-.8 1.7-1.6 2.2s-1.7.8-2.7.8c-1.1.1-2-.2-2.8-.8zm4.5-1.1c.5-.4.8-.9 1-1.6.1-.5.2-1.3.2-2.2 0-1-.1-1.7-.2-2.2-.2-.7-.5-1.2-1-1.6s-1.1-.6-1.8-.6-1.3.2-1.8.6-.8.9-1 1.6c-.1.5-.2 1.3-.2 2.2 0 1 .1 1.7.2 2.2.2.7.5 1.2 1 1.6s1.1.6 1.9.6c.6 0 1.2-.2 1.7-.6z"/><path d="m225.6 37.9c-.6-.3-1.1-.6-1.5-1.1-.3-.4-.5-.9-.5-1.5v-.3c0-.1.1-.2.2-.2h1.1c.1 0 .2.1.2.2v.2c0 .5.3.9.8 1.3s1.1.5 1.9.5 1.4-.2 1.8-.5c.5-.3.7-.8.7-1.3 0-.4-.1-.7-.4-.9-.2-.2-.5-.4-.9-.6-.3-.1-.8-.3-1.5-.5-.8-.2-1.5-.5-2-.7s-1-.6-1.3-1-.5-.9-.5-1.6c0-.9.4-1.7 1.1-2.2.7-.6 1.7-.8 2.9-.8.8 0 1.5.1 2.1.4s1.1.6 1.4 1.1.5 1 .5 1.6c0 .1-.1.2-.2.2h-1c-.1 0-.2-.1-.2-.2 0-.5-.2-.9-.7-1.3-.5-.3-1.1-.5-1.9-.5-.7 0-1.3.2-1.8.5s-.7.7-.7 1.2.2.9.7 1.1 1.1.5 2 .8c.9.2 1.5.5 2.1.7.5.2 1 .5 1.4 1 .4.4.6 1 .6 1.6 0 1-.4 1.7-1.1 2.3s-1.7.9-3 .9c-1 0-1.7-.1-2.3-.4z"/><path d="m238.4 42.4v-.9c0-.1.1-.2.2-.2h.1c.6 0 1-.1 1.3-.3s.6-.4.8-.9c.2-.4.5-1.1.7-1.9 0-.1 0-.1 0-.1l-3.7-10.8v-.1c0-.1.1-.2.2-.2h1.2c.1 0 .2.1.3.2l2.9 8.9h.1.1l2.8-8.9c0-.1.1-.2.3-.2h1.1c.2 0 .2.1.2.2l-4.1 11.9c-.4 1-.7 1.7-1 2.2s-.7.8-1.2 1-1.1.3-1.9.3h-.2c-.1 0-.2-.1-.2-.2z"/><path d="m255.1 37.9c-.6-.3-1.1-.6-1.5-1.1-.3-.4-.5-.9-.5-1.5v-.3c0-.1.1-.2.2-.2h1.1c.1 0 .2.1.2.2v.2c0 .5.3.9.8 1.3s1.1.5 1.9.5 1.4-.2 1.8-.5c.5-.3.7-.8.7-1.3 0-.4-.1-.7-.4-.9-.2-.2-.5-.4-.9-.6-.3-.1-.8-.3-1.5-.5-.8-.2-1.5-.5-2-.7s-1-.6-1.3-1-.5-.9-.5-1.6c0-.9.4-1.7 1.1-2.2.7-.6 1.7-.8 2.9-.8.8 0 1.5.1 2.1.4s1.1.6 1.4 1.1.5 1 .5 1.6c0 .1-.1.2-.2.2h-1c-.1 0-.2-.1-.2-.2 0-.5-.2-.9-.7-1.3-.5-.3-1.1-.5-1.9-.5-.7 0-1.3.2-1.8.5s-.7.7-.7 1.2.2.9.7 1.1 1.1.5 2 .8c.9.2 1.5.5 2.1.7.5.2 1 .5 1.4 1 .4.4.6 1 .6 1.6 0 1-.4 1.7-1.1 2.3s-1.7.9-3 .9c-1 0-1.7-.1-2.3-.4z"/><path d="m272.8 32.3v.7c0 .1-.1.2-.2.2h-7.1c-.1 0-.1 0-.1.1 0 .8.1 1.3.1 1.6.2.7.5 1.2 1 1.6s1.2.6 2 .6c.6 0 1.2-.1 1.6-.4.5-.3.8-.7 1.1-1.2.1-.1.2-.2.3-.1l.9.5c.1.1.1.2.1.3-.4.7-.9 1.3-1.6 1.7s-1.6.6-2.5.6c-1 0-1.9-.3-2.6-.7-.7-.5-1.2-1.2-1.5-2-.3-.7-.4-1.7-.4-3 0-.6 0-1.1 0-1.5s.1-.7.2-1c.2-1 .8-1.7 1.5-2.3.8-.6 1.7-.9 2.7-.9 1.3 0 2.4.3 3.1 1s1.2 1.6 1.3 2.9c.1.2.1.7.1 1.3zm-6.3-3.5c-.5.4-.8.9-.9 1.5-.1.3-.1.8-.2 1.5 0 .1 0 .1.1.1h5.7c.1 0 .1 0 .1-.1 0-.7-.1-1.1-.1-1.4-.2-.7-.5-1.2-1-1.6s-1.1-.6-1.9-.6c-.7 0-1.3.2-1.8.6z"/><path d="m281.7 27.2c.1.1.2.2.1.3l-.2 1.1c0 .1-.1.2-.3.1s-.5-.2-.9-.2h-.3c-.8 0-1.4.3-1.9.8s-.7 1.2-.7 2v6.7c0 .1-.1.2-.2.2h-1.1c-.1 0-.2-.1-.2-.2v-10.7c0-.1.1-.2.2-.2h1.1c.1 0 .2.1.2.2v1.3.1h.1c.3-.5.7-1 1.2-1.3s1-.5 1.7-.5c.4-0 .8.1 1.2.3z"/><path d="m287.1 38-3.6-10.7v-.1c0-.1.1-.2.2-.2h1.3c.1 0 .2.1.3.2l2.8 8.6h.1.1l2.8-8.6c0-.1.1-.2.3-.2h1.3c.2 0 .2.1.2.2l-4 10.8c0 .1-.1.2-.3.2h-1.3c-.1 0-.1-.1-.2-.2z"/><path d="m295.2 24.7c-.2-.2-.4-.5-.4-.9s.1-.7.4-.9c.2-.2.5-.3.9-.3s.6.1.9.3c.2.2.4.5.4.9s-.1.6-.4.9c-.2.2-.5.4-.9.4-.4-.1-.7-.2-.9-.4zm0 13.2v-10.7c0-.1.1-.2.2-.2h1.1c.1 0 .2.1.2.2v10.7c0 .1-.1.2-.2.2h-1.1c-.1.1-.2 0-.2-.2z"/><path d="m302.1 37.5c-.8-.5-1.3-1.3-1.6-2.2-.2-.6-.3-1.6-.3-2.7s.1-2 .3-2.7c.3-.9.8-1.6 1.5-2.2.8-.5 1.7-.8 2.7-.8 1.1 0 2 .3 2.8.8s1.3 1.2 1.5 2c.1.3.1.5.1.7 0 .1-.1.2-.2.2l-1.1.2c-.1 0-.2-.1-.2-.2l-.1-.3c-.1-.6-.5-1-1-1.4s-1.1-.6-1.9-.6-1.3.2-1.8.6-.8.9-1 1.6c-.1.6-.2 1.3-.2 2.2 0 1 .1 1.7.2 2.2.1.7.5 1.2 1 1.6s1.1.6 1.8.6 1.3-.2 1.9-.6c.5-.4.8-.9 1-1.4v-.1-.1c0-.1.1-.2.3-.2l1.1.2c.1 0 .2.1.2.2l-.1.4c-.2.8-.7 1.5-1.5 2.1-.8.5-1.7.8-2.8.8-1 0-1.9-.3-2.6-.9z"/><path d="m312.2 24.7c-.2-.2-.4-.5-.4-.9s.1-.7.4-.9c.2-.2.5-.3.9-.3s.6.1.9.3c.2.2.4.5.4.9s-.1.6-.4.9c-.2.2-.5.4-.9.4-.4-.1-.6-.2-.9-.4zm.1 13.2v-10.7c0-.1.1-.2.2-.2h1.1c.1 0 .2.1.2.2v10.7c0 .1-.1.2-.2.2h-1.1c-.2.1-.2 0-.2-.2z"/><path d="m319.2 37.5c-.8-.5-1.3-1.3-1.6-2.2-.2-.7-.3-1.6-.3-2.7s.1-2 .3-2.7c.3-.9.8-1.7 1.6-2.2s1.7-.8 2.8-.8c1 0 1.9.3 2.7.8s1.3 1.3 1.6 2.2c.2.6.3 1.5.3 2.7s-.1 2.1-.3 2.7c-.3 1-.8 1.7-1.6 2.2s-1.7.8-2.7.8-2.1-.2-2.8-.8zm4.5-1.1c.5-.4.8-.9 1-1.6.1-.5.2-1.3.2-2.2 0-1-.1-1.7-.2-2.2-.2-.7-.5-1.2-1-1.6s-1.1-.6-1.8-.6-1.3.2-1.8.6-.8.9-1 1.6c-.1.5-.2 1.3-.2 2.2 0 1 .1 1.7.2 2.2.2.7.5 1.2 1 1.6s1.1.6 1.9.6c.6 0 1.2-.2 1.7-.6z"/><path d="m331.1 37.9c-.6-.3-1.1-.6-1.5-1.1-.3-.4-.5-.9-.5-1.5v-.3c0-.1.1-.2.2-.2h1.1c.1 0 .2.1.2.2v.2c0 .5.3.9.8 1.3s1.1.5 1.9.5 1.4-.2 1.8-.5c.5-.3.7-.8.7-1.3 0-.4-.1-.7-.4-.9s-.5-.4-.9-.6c-.3-.1-.8-.3-1.5-.5-.8-.2-1.5-.5-2-.7s-1-.6-1.3-1-.5-.9-.5-1.6c0-.9.4-1.7 1.1-2.2.7-.6 1.7-.8 2.9-.8.8 0 1.5.1 2.1.4s1.1.6 1.4 1.1.5 1 .5 1.6c0 .1-.1.2-.2.2h-1c-.1 0-.2-.1-.2-.2 0-.5-.2-.9-.7-1.3-.5-.3-1.1-.5-1.9-.5-.7 0-1.3.2-1.8.5s-.7.7-.7 1.2.2.9.7 1.1c.4.3 1.1.5 2 .8.9.2 1.5.5 2.1.7.5.2 1 .5 1.4 1 .4.4.6 1 .6 1.6 0 1-.4 1.7-1.1 2.3s-1.7.9-3 .9c-.9 0-1.7-.1-2.3-.4z"/><path d="m351.8 22.8h1.1c.1 0 .2.1.2.2v15c0 .1-.1.2-.2.2h-1.1c-.1 0-.2-.1-.2-.2v-1s0 0 0-.1c0 0 0 0-.1 0-.3.4-.7.8-1.2 1s-1 .4-1.6.4c-1 0-1.9-.3-2.6-.8s-1.2-1.2-1.4-2.2c-.2-.7-.3-1.6-.3-2.8s.1-2.1.3-2.7c.3-.9.7-1.7 1.5-2.2.7-.5 1.6-.8 2.6-.8.6 0 1.1.1 1.6.3s.9.6 1.2 1h.1s0 0 0-.1v-5c-.2-.1-.1-.2.1-.2zm-.4 11.5c.1-.4.1-.9.1-1.7 0-.7 0-1.3-.1-1.7s-.2-.8-.3-1.1c-.2-.5-.5-.9-.9-1.2s-.9-.5-1.4-.5c-.6 0-1.1.1-1.5.4s-.7.7-.9 1.2c-.2.3-.3.7-.4 1.1s-.1 1-.1 1.7 0 1.2.1 1.6.2.7.3 1c.2.5.5.9.9 1.3.4.3 1 .5 1.6.5s1.1-.2 1.5-.5.7-.7.9-1.2c.1-.2.2-.5.2-.9z"/><path d="m365.3 32.3v.7c0 .1-.1.2-.2.2h-7.1c-.1 0-.1 0-.1.1 0 .8.1 1.3.1 1.6.2.7.5 1.2 1 1.6s1.2.6 2 .6c.6 0 1.2-.1 1.6-.4.5-.3.8-.7 1.1-1.2.1-.1.2-.2.3-.1l.9.5c.1.1.1.2.1.3-.4.7-.9 1.3-1.6 1.7s-1.6.6-2.5.6c-1 0-1.9-.3-2.6-.7s-1.2-1.2-1.5-2c-.3-.7-.4-1.7-.4-3 0-.6 0-1.1 0-1.5s.1-.7.2-1c.2-1 .8-1.7 1.5-2.3.8-.6 1.7-.9 2.7-.9 1.3 0 2.4.3 3.1 1s1.2 1.6 1.3 2.9c-0 .2.1.7.1 1.3zm-6.3-3.5c-.5.4-.8.9-.9 1.5-.1.3-.1.8-.2 1.5 0 .1 0 .1.1.1h5.7c.1 0 .1 0 .1-.1 0-.7-.1-1.1-.1-1.4-.2-.7-.5-1.2-1-1.6s-1.1-.6-1.9-.6-1.4.2-1.8.6z"/><path d="m372.8 38v-15c0-.1.1-.2.2-.2h1.1c.1 0 .2.1.2.2v15c0 .1-.1.2-.2.2h-1.1c-.2 0-.2-.1-.2-.2z"/><path d="m384.7 27.9c.7.7 1.1 1.6 1.1 2.7v7.4c0 .1-.1.2-.2.2h-1.1c-.1 0-.2-.1-.2-.2v-.9-.1s0 0-.1 0c-.4.4-.8.8-1.4 1s-1.2.3-2 .3c-1 0-1.9-.3-2.6-.8s-1.1-1.3-1.1-2.4.4-2 1.2-2.6 1.9-1 3.3-1h2.6c.1 0 .1 0 .1-.1v-.8c0-.7-.2-1.3-.6-1.8s-1.1-.6-1.9-.6c-.7 0-1.3.1-1.7.4s-.7.6-.8 1.1c0 .1-.1.2-.3.2l-1.2-.2c-.2 0-.2-.1-.2-.2.1-.8.6-1.5 1.3-2 .8-.5 1.7-.8 2.9-.8 1.2.2 2.2.5 2.9 1.2zm-1.4 8.5c.6-.4.9-1 .9-1.7v-1.7c0-.1 0-.1-.1-.1h-2.3c-1 0-1.7.2-2.3.6s-.9.9-.9 1.7c0 .6.2 1.1.7 1.5s1 .5 1.7.5c.9-.2 1.7-.4 2.3-.8z"/><path d="m392.5 38v-1.1c0-.1 0-.2.1-.3l6.2-8.1v-.1s0 0-.1 0h-6c-.1 0-.2-.1-.2-.2v-1c0-.1.1-.2.2-.2h7.7c.1 0 .2.1.2.2v1.1c0 .1 0 .2-.1.3l-6.3 8.1v.1h.1 6.1c.1 0 .2.1.2.2v1c0 .1-.1.2-.2.2h-7.8c-.1-0-.1-.1-.1-.2z"/><path d="m404.8 37.5c-.8-.5-1.3-1.3-1.6-2.2-.2-.7-.3-1.6-.3-2.7s.1-2 .3-2.7c.3-.9.8-1.7 1.6-2.2s1.7-.8 2.8-.8c1 0 1.9.3 2.7.8s1.3 1.3 1.6 2.2c.2.6.3 1.5.3 2.7s-.1 2.1-.3 2.7c-.3 1-.8 1.7-1.6 2.2s-1.7.8-2.7.8-2.1-.2-2.8-.8zm4.5-1.1c.5-.4.8-.9 1-1.6.1-.5.2-1.3.2-2.2 0-1-.1-1.7-.2-2.2-.2-.7-.5-1.2-1-1.6s-1.1-.6-1.8-.6-1.3.2-1.8.6-.8.9-1 1.6c-.1.5-.2 1.3-.2 2.2 0 1 .1 1.7.2 2.2.2.7.5 1.2 1 1.6s1.1.6 1.9.6c.6 0 1.2-.2 1.7-.6z"/><path d="m422.7 27.9c.7.7 1 1.6 1 2.8v7.3c0 .1-.1.2-.2.2h-1.1c-.1 0-.2-.1-.2-.2v-7c0-.8-.2-1.5-.7-2s-1.1-.8-1.9-.8-1.5.2-2 .7-.7 1.2-.7 2v7c0 .1-.1.2-.2.2h-1.1c-.1 0-.2-.1-.2-.2v-10.6c0-.1.1-.2.2-.2h1.1c.1 0 .2.1.2.2v.9.1h.1c.6-.9 1.6-1.4 3-1.4 1-0 2 .3 2.7 1z"/><path d="m434 27.9c.7.7 1.1 1.6 1.1 2.7v7.4c0 .1-.1.2-.2.2h-1.1c-.1 0-.2-.1-.2-.2v-.9-.1s0 0-.1 0c-.4.4-.8.8-1.4 1s-1.2.3-2 .3c-1 0-1.9-.3-2.6-.8s-1.1-1.3-1.1-2.4.4-2 1.2-2.6 1.9-1 3.3-1h2.6c.1 0 .1 0 .1-.1v-.8c0-.7-.2-1.3-.6-1.8s-1.1-.6-1.9-.6c-.7 0-1.3.1-1.7.4s-.7.6-.8 1.1c0 .1-.1.2-.3.2l-1.2-.2c-.2 0-.2-.1-.2-.2.1-.8.6-1.5 1.3-2 .8-.5 1.7-.8 2.9-.8 1.2.2 2.2.5 2.9 1.2zm-1.4 8.5c.6-.4.9-1 .9-1.7v-1.7c0-.1 0-.1-.1-.1h-2.3c-1 0-1.7.2-2.3.6s-.9.9-.9 1.7c0 .6.2 1.1.7 1.5s1 .5 1.7.5c.9-.2 1.6-.4 2.3-.8z"/></g></svg>