<?xml version="1.0" encoding="utf-8"?>
<!-- Generator: Adobe Illustrator 28.3.0, SVG Export Plug-In . SVG Version: 6.00 Build 0)  -->
<svg version="1.1" id="Capa_2_00000080189700889794518300000006176886657968906685_"
	 xmlns="http://www.w3.org/2000/svg" xmlns:xlink="http://www.w3.org/1999/xlink" x="0px" y="0px" viewBox="0 0 243.5 61.3"
	 style="enable-background:new 0 0 243.5 61.3;" xml:space="preserve">
<style type="text/css">
	.st0{fill:#581945;}
	.st1{fill:none;stroke:#581945;stroke-width:0.5;stroke-miterlimit:10;}
	.st2{enable-background:new    ;}
	.st3{fill:#FFFFFF;}
</style>
<g id="Capa_1-2">
	<g>
		<rect x="0.2" y="0.2" class="st0" width="153.3" height="60.8"/>
		<rect x="0.2" y="0.2" class="st1" width="153.3" height="60.8"/>
		<path class="st1" d="M136.1,61.1H219l23.3-28.2c1.3-1.6,1.3-4.2,0-5.8L220.2,0.3h-84.1V61.1L136.1,61.1z"/>
		<g class="st2">
			<path class="st3" d="M24.6,37.5c-0.8-0.4-1.4-1-1.8-1.7s-0.6-1.6-0.6-2.6v-6.1c0-1,0.2-1.8,0.6-2.5s1-1.3,1.8-1.7
				s1.7-0.6,2.7-0.6s1.9,0.2,2.7,0.6c0.8,0.4,1.4,1,1.8,1.7s0.6,1.5,0.6,2.5c0,0.1,0,0.1-0.1,0.2c0,0-0.1,0.1-0.2,0.1L31,27.5
				c-0.1,0-0.2-0.1-0.2-0.2v-0.1c0-1-0.3-1.9-1-2.5s-1.5-0.9-2.6-0.9s-2,0.3-2.6,0.9c-0.7,0.6-1,1.5-1,2.5v6.2c0,1,0.3,1.9,1,2.5
				s1.5,0.9,2.6,0.9s2-0.3,2.6-0.9c0.7-0.6,1-1.5,1-2.5l0,0c0-0.1,0.1-0.2,0.2-0.2l1.1,0.1c0.1,0,0.2,0.1,0.2,0.2
				c0,1-0.2,1.8-0.6,2.5s-1,1.3-1.8,1.7s-1.7,0.6-2.7,0.6C26.2,38.1,25.3,37.9,24.6,37.5z"/>
		</g>
		<g class="st2">
			<path class="st3" d="M37.1,37.2c-0.8-0.5-1.3-1.3-1.6-2.2c-0.2-0.7-0.3-1.6-0.3-2.7c0-1.1,0.1-2,0.3-2.7c0.3-0.9,0.8-1.7,1.6-2.2
				s1.7-0.8,2.8-0.8c1,0,1.9,0.3,2.7,0.8s1.3,1.3,1.6,2.2c0.2,0.6,0.3,1.5,0.3,2.7s-0.1,2.1-0.3,2.7c-0.3,1-0.8,1.7-1.6,2.2
				S40.9,38,39.9,38C38.8,38.1,37.9,37.8,37.1,37.2z M41.7,36.1c0.5-0.4,0.8-0.9,1-1.6c0.1-0.5,0.2-1.3,0.2-2.2c0-1-0.1-1.7-0.2-2.2
				c-0.2-0.7-0.5-1.2-1-1.6s-1.1-0.6-1.8-0.6s-1.3,0.2-1.8,0.6s-0.8,0.9-1,1.6c-0.1,0.5-0.2,1.3-0.2,2.2c0,1,0.1,1.7,0.2,2.2
				c0.2,0.7,0.5,1.2,1,1.6c0.5,0.4,1.1,0.6,1.9,0.6C40.6,36.7,41.2,36.5,41.7,36.1z"/>
		</g>
		<g class="st2">
			<path class="st3" d="M55,27.6c0.7,0.7,1,1.6,1,2.8v7.3c0,0.1-0.1,0.2-0.2,0.2h-1.1c-0.1,0-0.2-0.1-0.2-0.2v-7
				c0-0.8-0.2-1.5-0.7-2s-1.1-0.8-1.9-0.8c-0.8,0-1.5,0.2-2,0.7s-0.7,1.2-0.7,2v7c0,0.1-0.1,0.2-0.2,0.2h-1.1
				c-0.1,0-0.2-0.1-0.2-0.2V27c0-0.1,0.1-0.2,0.2-0.2H49c0.1,0,0.2,0.1,0.2,0.2v0.9V28c0,0,0,0,0.1,0c0.6-0.9,1.6-1.4,3-1.4
				C53.4,26.6,54.3,26.9,55,27.6z"/>
		</g>
		<g class="st2">
			<path class="st3" d="M60.8,37.2c-0.8-0.5-1.3-1.3-1.6-2.2c-0.2-0.7-0.3-1.6-0.3-2.7c0-1.1,0.1-2,0.3-2.7c0.3-0.9,0.8-1.7,1.6-2.2
				s1.7-0.8,2.8-0.8c1,0,1.9,0.3,2.7,0.8c0.8,0.5,1.3,1.3,1.6,2.2c0.2,0.6,0.3,1.5,0.3,2.7s-0.1,2.1-0.3,2.7c-0.3,1-0.8,1.7-1.6,2.2
				c-0.8,0.5-1.7,0.8-2.7,0.8C62.5,38.1,61.6,37.8,60.8,37.2z M65.4,36.1c0.5-0.4,0.8-0.9,1-1.6c0.1-0.5,0.2-1.3,0.2-2.2
				c0-1-0.1-1.7-0.2-2.2c-0.2-0.7-0.5-1.2-1-1.6s-1.1-0.6-1.8-0.6s-1.3,0.2-1.8,0.6s-0.8,0.9-1,1.6c-0.1,0.5-0.2,1.3-0.2,2.2
				c0,1,0.1,1.7,0.2,2.2c0.2,0.7,0.5,1.2,1,1.6c0.5,0.4,1.1,0.6,1.9,0.6C64.3,36.7,64.9,36.5,65.4,36.1z"/>
		</g>
		<g class="st2">
			<path class="st3" d="M72.8,37.2c-0.8-0.5-1.3-1.3-1.6-2.2c-0.2-0.6-0.3-1.6-0.3-2.7c0-1.1,0.1-2,0.3-2.7c0.3-0.9,0.8-1.6,1.5-2.2
				c0.8-0.5,1.7-0.8,2.7-0.8c1.1,0,2,0.3,2.8,0.8s1.3,1.2,1.5,2c0.1,0.3,0.1,0.5,0.1,0.7l0,0c0,0.1-0.1,0.2-0.2,0.2l-1.1,0.2l0,0
				c-0.1,0-0.2-0.1-0.2-0.2L78.2,30c-0.1-0.6-0.5-1-1-1.4S76.1,28,75.3,28s-1.3,0.2-1.8,0.6s-0.8,0.9-1,1.6
				c-0.1,0.6-0.2,1.3-0.2,2.2c0,1,0.1,1.7,0.2,2.2c0.1,0.7,0.5,1.2,1,1.6c0.5,0.4,1.1,0.6,1.8,0.6c0.7,0,1.3-0.2,1.9-0.6
				s0.8-0.9,1-1.4v-0.1v-0.1c0-0.1,0.1-0.2,0.3-0.2l1.1,0.2c0.1,0,0.2,0.1,0.2,0.2l-0.1,0.4c-0.2,0.9-0.7,1.5-1.5,2.1
				c-0.8,0.5-1.7,0.8-2.8,0.8C74.4,38.1,73.5,37.8,72.8,37.2z"/>
		</g>
		<g class="st2">
			<path class="st3" d="M91.3,32v0.7c0,0.1-0.1,0.2-0.2,0.2H84c-0.1,0-0.1,0-0.1,0.1c0,0.8,0.1,1.3,0.1,1.6c0.2,0.7,0.5,1.2,1,1.6
				c0.5,0.4,1.2,0.6,2,0.6c0.6,0,1.2-0.1,1.6-0.4c0.5-0.3,0.8-0.7,1.1-1.2c0.1-0.1,0.2-0.2,0.3-0.1l0.9,0.5c0.1,0.1,0.1,0.2,0.1,0.3
				c-0.4,0.7-0.9,1.3-1.6,1.7s-1.6,0.6-2.5,0.6c-1,0-1.9-0.3-2.6-0.7c-0.7-0.5-1.2-1.2-1.5-2c-0.3-0.7-0.4-1.7-0.4-3
				c0-0.6,0-1.1,0-1.5s0.1-0.7,0.2-1c0.2-1,0.8-1.7,1.5-2.3s1.7-0.9,2.7-0.9c1.3,0,2.4,0.3,3.1,1s1.2,1.6,1.3,2.9
				C91.3,30.9,91.3,31.4,91.3,32z M85,28.5c-0.5,0.4-0.8,0.9-0.9,1.5c-0.1,0.3-0.1,0.8-0.2,1.5c0,0.1,0,0.1,0.1,0.1h5.7
				c0.1,0,0.1,0,0.1-0.1c0-0.7-0.1-1.1-0.1-1.4c-0.2-0.7-0.5-1.2-1-1.6s-1.1-0.6-1.9-0.6C86.1,27.9,85.5,28.1,85,28.5z"/>
			<path class="st3" d="M112.7,27.6c0.6,0.7,1,1.6,1,2.7v7.4c0,0.1-0.1,0.2-0.2,0.2h-1.1c-0.1,0-0.2-0.1-0.2-0.2v-7.1
				c0-0.8-0.2-1.4-0.7-1.9s-1.1-0.7-1.8-0.7c-0.8,0-1.4,0.2-1.9,0.7s-0.7,1.1-0.7,1.9v7.1c0,0.1-0.1,0.2-0.2,0.2h-1.1
				c-0.1,0-0.2-0.1-0.2-0.2v-7.1c0-0.8-0.2-1.4-0.7-1.9s-1.1-0.7-1.8-0.7c-0.8,0-1.4,0.2-1.9,0.7s-0.7,1.1-0.7,1.9v7.1
				c0,0.1-0.1,0.2-0.2,0.2H99c-0.1,0-0.2-0.1-0.2-0.2V27c0-0.1,0.1-0.2,0.2-0.2h1.1c0.1,0,0.2,0.1,0.2,0.2v0.9c0,0,0,0,0,0.1
				c0,0,0,0,0.1,0c0.3-0.4,0.7-0.7,1.2-1c0.5-0.2,1.1-0.3,1.7-0.3c0.8,0,1.4,0.2,2,0.5c0.5,0.3,1,0.8,1.2,1.3c0,0.1,0.1,0.1,0.1,0
				c0.3-0.6,0.8-1.1,1.4-1.4s1.3-0.5,2-0.5C111.2,26.6,112,26.9,112.7,27.6z"/>
			<path class="st3" d="M123.9,27.6c0.7,0.7,1.1,1.6,1.1,2.7v7.4c0,0.1-0.1,0.2-0.2,0.2h-1.1c-0.1,0-0.2-0.1-0.2-0.2v-0.9v-0.1
				c0,0,0,0-0.1,0c-0.4,0.4-0.8,0.8-1.4,1s-1.2,0.3-2,0.3c-1,0-1.9-0.3-2.6-0.8s-1.1-1.3-1.1-2.4c0-1.1,0.4-2,1.2-2.6
				c0.8-0.6,1.9-1,3.3-1h2.6c0.1,0,0.1,0,0.1-0.1v-0.8c0-0.7-0.2-1.3-0.6-1.8s-1.1-0.6-1.9-0.6c-0.7,0-1.3,0.1-1.7,0.4
				s-0.7,0.6-0.8,1.1c0,0.1-0.1,0.2-0.3,0.2l-1.2-0.2c-0.2,0-0.2-0.1-0.2-0.2c0.1-0.8,0.6-1.5,1.3-2c0.8-0.5,1.7-0.8,2.9-0.8
				C122.2,26.6,123.2,26.9,123.9,27.6z M122.5,36.1c0.6-0.4,0.9-1,0.9-1.7v-1.7c0-0.1,0-0.1-0.1-0.1H121c-1,0-1.7,0.2-2.3,0.6
				c-0.6,0.4-0.9,0.9-0.9,1.7c0,0.6,0.2,1.1,0.7,1.5c0.4,0.3,1,0.5,1.7,0.5C121.1,36.7,121.8,36.5,122.5,36.1z M119.9,25.2
				c0-0.1,0-0.1,0-0.2l1.3-2.4c0-0.1,0.1-0.2,0.3-0.2h1c0.1,0,0.1,0,0.2,0.1c0,0.1,0,0.1,0,0.2l-1.5,2.4c-0.1,0.1-0.2,0.2-0.3,0.2
				h-0.8C120,25.3,120,25.3,119.9,25.2z"/>
			<path class="st3" d="M129.7,37.6c-0.6-0.3-1.1-0.6-1.5-1.1c-0.3-0.4-0.5-0.9-0.5-1.5v-0.3c0-0.1,0.1-0.2,0.2-0.2h1.1
				c0.1,0,0.2,0.1,0.2,0.2V35c0,0.5,0.3,0.9,0.8,1.3s1.1,0.5,1.9,0.5c0.8,0,1.4-0.2,1.8-0.5c0.5-0.3,0.7-0.8,0.7-1.3
				c0-0.4-0.1-0.7-0.4-0.9c-0.2-0.2-0.5-0.4-0.9-0.5c-0.3-0.1-0.8-0.3-1.5-0.5c-0.8-0.2-1.5-0.5-2-0.7s-1-0.6-1.3-1
				s-0.5-0.9-0.5-1.6c0-0.9,0.4-1.7,1.1-2.2c0.7-0.6,1.7-0.8,2.9-0.8c0.8,0,1.5,0.1,2.1,0.4s1.1,0.6,1.4,1.1c0.3,0.5,0.5,1,0.5,1.6
				V30c0,0.1-0.1,0.2-0.2,0.2h-1c-0.1,0-0.2-0.1-0.2-0.2v-0.1c0-0.5-0.2-0.9-0.7-1.3c-0.5-0.3-1.1-0.5-1.9-0.5
				c-0.7,0-1.3,0.2-1.8,0.5s-0.7,0.7-0.7,1.2s0.2,0.9,0.7,1.1c0.4,0.3,1.1,0.5,2,0.8c0.9,0.2,1.5,0.5,2.1,0.7s1,0.5,1.4,1
				c0.4,0.4,0.6,1,0.6,1.6c0,1-0.4,1.7-1.1,2.3s-1.7,0.9-3,0.9C131,38,130.3,37.9,129.7,37.6z"/>
		</g>
	</g>
</g>
</svg>
