<?xml version="1.0" encoding="utf-8"?>
<!-- Generator: Adobe Illustrator 28.2.0, SVG Export Plug-In . SVG Version: 6.00 Build 0)  -->
<svg version="1.1" id="Capa_1" xmlns="http://www.w3.org/2000/svg" xmlns:xlink="http://www.w3.org/1999/xlink" x="0px" y="0px"
	 viewBox="0 0 500 500" style="enable-background:new 0 0 500 500;" xml:space="preserve">
<style type="text/css">
	.st0{fill:#591A46;}
	.st1{opacity:0.87;fill:#C8133C;enable-background:new    ;}
	.st2{fill:#C8133C;}
	.st3{opacity:0.87;fill:#FBBF0B;enable-background:new    ;}
	.st4{fill:#FBBF0B;}
	.st5{opacity:0.87;fill:#921444;enable-background:new    ;}
	.st6{fill:#921444;}
	.st7{opacity:0.87;fill:#591A46;enable-background:new    ;}
</style>
<g>
	<path class="st0" d="M227.87,301.44v140.26l43.63,39.49c2.5,2.25,6.52,2.25,9.02,0l41.29-37.37V301.44H227.87z"/>
	<path class="st1" d="M199.33,166.33v202.76l43.63,57.08c2.5,3.26,6.52,3.26,9.02,0l41.29-54.01V166.33H199.33z"/>
	<path class="st2" d="M293.24,217.25V62.3l-43.63-43.63c-2.5-2.5-6.52-2.5-9.02,0l-41.26,41.26v157.32H293.24z"/>
	<path class="st3" d="M321.79,207.53V88.78l-43.63-33.41c-2.5-1.9-6.52-1.9-9.02,0l-41.29,31.64v120.55h93.94V207.53z"/>
	<path class="st4" d="M293.24,301.44h117.58l33.1-43.63c1.9-2.5,1.9-6.52,0-9.02L412.6,207.5H293.24V301.44z"/>
	<path class="st5" d="M227.87,328.4h128.02l36.04-43.63c2.06-2.5,2.06-6.52,0-9.02l-34.11-41.29H227.87V328.4z"/>
	<path class="st6" d="M293.24,207.53H109.32l-51.76,43.63c-2.94,2.5-2.94,6.52,0,9.02l48.98,41.29h186.71V207.53z"/>
	<path class="st7" d="M293.24,182.06H135.7l-44.36,43.63c-2.53,2.5-2.53,6.52,0,9.02L133.3,276h159.95V182.06z"/>
</g>
</svg>
