<svg viewBox="0 0 1540 493.96" xmlns="http://www.w3.org/2000/svg"><path d="m0 424.52h287.29v69.44h-287.29z" fill="#005faa"/><path d="m287.29 424.52h351.41v69.44h-351.41z" fill="#d84047"/><g fill="#005faa"><path d="m204.82 260.2c-6.27.99-12.15 1.35-17.52 1.35-42.66 0-71.57-19.86-78.86-26.49-15.6-13.72-30.17-36.89-30.17-69.53 0-30.27 13.52-55.81 32.78-72.84 18.21-16.08 45.56-24.59 74.69-24.59 7.28 0 14.15.66 20.63 1.83 17.58 2.32 37.38 7.49 60.53 17.04v-69.46c-33.82-13.25-60.35-17.51-83.24-17.51-54.11 0-98.85 18.45-129.55 45.4-31.22 27.44-54.11 69.06-54.11 118.72s22.89 92.22 54.11 119.66c29.14 26.01 72.32 45.87 136.31 45.87 20.81 0 45.78-2.83 76.48-17.03v-69.66c-23.83 9.83-44.12 15.01-62.08 17.23"/><path d="m409.3 94.12c-13.03 13.24-26.51 36.42-26.51 71.41 0 28.85 8.99 52.03 27.41 70.94 19.32 19.39 40.89 26.02 64.26 26.02 30.56 0 52.13-11.83 66.51-26.96 11.68-11.82 26.06-34.06 26.06-70.47 0-32.63-12.58-56.76-26.06-70.94-14.83-15.13-38.64-26.96-66.06-26.96s-49.43 9.93-65.61 26.96m182-48.24c28.31 28.85 46.73 70.47 46.73 119.19 0 42.09-14.37 85.13-46.73 118.24-27.86 28.37-65.61 46.34-115.93 46.34-56.17 0-94.37-23.65-116.84-46.34-28.76-28.38-46.73-70.94-46.73-117.29s19.32-91.28 46.28-119.67c20.22-21.28 57.52-46.35 117.28-46.35 46.73 0 85.83 15.13 115.93 45.87"/><path d="m765.14 150.41h16.55c13.25 0 31.22-1.42 43.52-13.72 5.21-5.2 11.83-15.13 11.83-30.74 0-17.98-8.52-27.43-14.66-32.16-11.83-8.99-30.75-9.93-40.2-9.93h-17.02v86.55zm37.84-143.31c40.2 0 65.27 13.24 80.4 27.43 13.24 12.78 27.43 35.48 27.43 70.47 0 19.86-4.26 44.46-24.59 64.33-10.88 10.4-26.49 19.86-43.99 24.12l96.95 129.12h-88.91l-85.13-124.39v124.39h-72.84v-315.47h110.67z"/><path d="m1182.89 68.58h-121.83v61.01h106.39v61.49h-106.39v131.48h-72.84v-315.46h194.67z"/><path d="m1311.27 94.12c-13.03 13.24-26.51 36.42-26.51 71.41 0 28.85 8.99 52.03 27.41 70.94 19.32 19.39 40.89 26.02 64.26 26.02 30.56 0 52.12-11.83 66.5-26.96 11.69-11.82 26.07-34.06 26.07-70.47 0-32.63-12.58-56.76-26.07-70.94-14.83-15.13-38.64-26.96-66.05-26.96s-49.43 9.93-65.61 26.96m182-48.24c28.31 28.85 46.73 70.47 46.73 119.19 0 42.09-14.38 85.13-46.73 118.24-27.87 28.37-65.61 46.34-115.93 46.34-56.18 0-94.37-23.65-116.84-46.34-28.76-28.38-46.74-70.94-46.74-117.29s19.33-91.28 46.29-119.67c20.22-21.28 57.52-46.35 117.28-46.35 46.73 0 85.83 15.13 115.93 45.87"/></g></svg>