<svg enable-background="new 0 0 120 24.5" viewBox="0 0 120 24.5" xmlns="http://www.w3.org/2000/svg"><g fill="#fff"><path d="m4.7 1h2.2v11.1h-2.2z"/><path d="m14.7 12.1-3.5-8.8.1 8.8h-1.9v-11.1h3.3l3.5 8.9h.1l-.2-8.9h2v11.1z"/><path d="m24.5 12.2c-1.6 0-2.9-.3-4-.6v-10.6h3.7c3.2 0 5.3 1.3 5.3 5.5 0 3.5-1.6 5.7-5 5.7m-.4-9.5h-1.5v7.5c.4.1 1.1.2 1.9.2 1.5 0 2.6-.8 2.6-4 .1-2.7-.7-3.7-3-3.7"/><path d="m32.3 12.1h-2.1l3-11.1h3.6l2.9 11.1h-2.4l-.6-2.5h-3.8zm2.3-9.3-1.2 5h3l-1.1-5z"/><path d="m44.4 8.2h-1.2v3.9h-2.2v-11.1h3.4c2.3 0 4.2 1.1 4.2 3.5 0 2.1-1.6 3.7-4.2 3.7m-.1-5.4h-1.2v3.7h1.2c1.3 0 2-.8 2-2 0-1.1-.7-1.7-2-1.7"/><path d="m4.7 14.5h17.5v2.6h-17.5z"/><path d="m23.2 14.5h25.5v2.6h-25.5z"/><path d="m47.7 21.1c-.1.1-.2.1-.4.1s-.3-.1-.3-.3c0-.1.1-.3.3-.3h.3v.5zm.6.4v-1.3c0-.5-.2-.8-.8-.8-.3 0-.6.1-.8.2l.1.4c.2-.1.4-.1.6-.1s.3.1.3.3v.1h-.4c-.5 0-.7.2-.7.6s.3.6.7.6c.3 0 .5-.1.6-.3l.1.2h.3zm-1.9-2s-.1 0-.2 0c-.2 0-.4.2-.5.3l-.1-.3h-.4v2h.5v-1.4c.2-.1.3-.1.4-.1h.2zm-1.6 2v-2h-.5v1.5c-.1.1-.2.1-.4.1s-.3-.1-.3-.4v-1.2h-.5v1.2c0 .5.2.8.7.8.3 0 .5-.2.6-.3l.1.2h.3zm-2-.1-.1-.4c-.1 0-.2.1-.3.1s-.2-.1-.2-.2v-1h.5v-.4h-.5v-.5l-.5.2v.3h-.3v.4h.3v1c0 .5.2.7.6.7.1 0 .3-.1.5-.2m-1.9.2h.3v-.4c-.2 0-.3 0-.3-.2v-2.2h-.5v2.2c-.1.4 0 .6.5.6m-1-.1v-2h-.5v1.5c-.1.1-.2.1-.4.1s-.3-.1-.3-.4v-1.2h-.5v1.2c0 .5.2.8.7.8.3 0 .5-.2.6-.3l.1.2h.3zm-2.2-.5c-.1.1-.3.1-.5.1-.3 0-.5-.2-.5-.6s.2-.6.4-.6.4 0 .5.1l.1-.4c-.2-.1-.4-.2-.7-.2-.6 0-.9.4-.9 1 0 .7.4 1 .9 1 .3 0 .6-.1.7-.2zm-2.5-1.8h.5v-.5h-.5zm.5 2.3v-2h-.7v.3h.2v1.6h.5zm-1-2s-.1 0-.2 0c-.2 0-.4.2-.5.3l-.1-.3h-.4v2h.5v-1.4c.1-.1.2-.1.4-.1h.2zm-2.5 1c-.2 0-.4-.1-.4-.3s.2-.3.4-.3.4.1.4.3-.2.3-.4.3m.4 1.2c0 .2-.2.3-.4.3s-.4-.1-.4-.3.1-.3.3-.3c.4 0 .5.1.5.3m-.4-2.2c-.3 0-.8.1-.8.7 0 .3.2.4.4.6-.2 0-.4.1-.4.3s.2.3.5.3c-.3 0-.5.2-.5.4 0 .4.4.5.8.5.5 0 .9-.3.9-.7 0-.7-1.3-.5-1.3-.7 0-.1 0-.1.1-.1h.3c.3 0 .8-.2.8-.7 0-.1-.1-.2-.2-.3.1 0 .3.1.4.1v-.4c-.3-0-.7-0-1-0m-2.2-.2.3 1.2h-.7l.3-1.2zm-.5 1.6h.9l.1.6h.6l-.7-2.7h-.9l-.7 2.7h.5zm-2.3-.5h-.7c0-.2.1-.5.4-.5.2 0 .3.2.3.5m.5.3v-.2c0-.5-.2-.9-.8-.9s-.9.4-.9 1c0 .7.4 1 1 1 .3 0 .6-.1.7-.2l-.1-.4c-.2.1-.4.2-.6.2-.3 0-.5-.2-.5-.5zm-2.7.3c-.1.1-.2.2-.4.2-.3 0-.4-.2-.4-.7s.2-.6.4-.6.3 0 .4.1zm-.4-1.5c-.5 0-.9.4-.9 1 0 .7.4 1 .8 1 .3 0 .4-.1.5-.3l.1.2h.4v-2.8h-.5v.6.4s-.2-.1-.4-.1m-3 1.7c-.3 0-.4-.2-.4-.6 0-.5.1-.6.4-.6.2 0 .4.2.4.6s-.2.6-.4.6m0-1.7c-.6 0-.9.4-.9 1 0 .7.3 1 .9 1s.9-.4.9-1c0-.5-.3-1-.9-1m-1.9-.3h.5v-.5h-.5zm.5 2.3v-2h-.8v.3h.2v1.6h.6zm-1-2s-.1 0-.2 0c-.2 0-.4.2-.5.3l-.1-.3h-.4v2h.5v-1.4c.2-.1.3-.1.5-.1h.2zm-2 .9h-.7c0-.2.1-.5.4-.5.2 0 .3.2.3.5m.5.3v-.2c0-.5-.2-.9-.8-.9s-.9.4-.9 1c0 .7.4 1 1 1 .3 0 .6-.1.7-.2l-.1-.4c-.2.1-.4.2-.6.2-.3 0-.5-.2-.5-.5zm-1.9.7-.1-.4c-.1 0-.2.1-.3.1s-.2-.1-.2-.2v-1h.5v-.4h-.5v-.5l-.5.2v.3h-.3v.4h.3v1c0 .5.2.7.6.7.2 0 .4-.1.5-.2m-2.3-1.5c.2 0 .3 0 .5.1l.1-.4c-.1-.1-.4-.1-.6-.1-.5 0-.8.3-.8.6 0 .7.8.6.8.9 0 .1-.1.2-.3.2s-.4-.1-.5-.1l-.1.4c.1.1.4.1.6.1.5 0 .8-.3.8-.6 0-.6-.9-.6-.9-.9.1-.1.2-.2.4-.2m-1.7-.7h.5v-.5h-.5zm.5 2.3v-2h-.8v.3h.2v1.6h.6zm-1.1 0v-1.2c0-.5-.2-.8-.7-.8-.3 0-.5.1-.6.3l-.1-.2h-.4v2h.5v-1.6c.1-.1.2-.1.3-.1.2 0 .4.1.4.4v1.2zm-2.8-2.3h.5v-.5h-.5zm.5 2.3v-2h-.7v.3h.2v1.6h.5zm-1.1 0-.1-2.7h-.9s-.4 1.4-.5 2.3c-.2-.9-.5-2.3-.5-2.3h-.9l-.1 2.7h.5v-2.3c.1.3.1.5.1.7l.4 1.6h.8l.4-1.6c0-.2.1-.4.1-.7l.1 2.3z"/><path d="m58.6 3.9h-2.2v-1.5h6.3v1.5h-2.2v5.8h-1.8v-5.8z"/><path d="m63 4.4h1.7v.9.3c.2-.7.9-1.3 1.7-1.3h.2v1.7s-.1 0-.4 0c-.4 0-1.1.1-1.4.9-.1.2-.1.4-.1.7v2h-1.7z"/><path d="m70.1 6.4c.1-.5-.3-.7-.7-.7-.7 0-1.4.5-1.4.5l-.6-1.2s.9-.7 2.2-.7c1.5 0 2.4.8 2.4 2.2v3.3h-1.6v-.4c0-.2 0-.3 0-.3s-.4.8-1.5.8c-1 0-1.8-.7-1.8-1.7-0-1.6 2.2-1.8 3-1.8zm-.7 2.1c.5 0 .9-.5.9-.9v-.2h-.2c-.6 0-1.2.2-1.2.6 0 .3.1.5.5.5z"/><path d="m73.2 4.4h1.7v.5.3c.2-.4.7-.9 1.7-.9 1.1 0 1.9.5 1.9 2v3.4h-1.8v-3.1c0-.5-.2-.7-.6-.7-.6 0-.9.3-1 .8-.1.2-.1.4-.1.7v2.3h-1.8z"/><path d="m80.1 7.9s.6.5 1.3.5c.3 0 .5-.1.5-.2 0-.5-2.5-.5-2.5-2.2 0-1 1-1.6 2.2-1.6s1.9.6 1.9.6l-.6 1.3s-.5-.4-1.3-.4c-.3 0-.5.1-.5.3 0 .4 2.5.5 2.5 2.2 0 .9-.8 1.7-2.2 1.7-1.3 0-2.1-.8-2.1-.8z"/><path d="m84.9 5.9h-.6v-1.4h.6v-.2c0-1.7 1.6-2 2.4-2h.5v1.5s-.1 0-.3 0c-.3 0-.9.1-.9.5v.2h1v1.4h-1v3.8h-1.8v-3.8z"/><path d="m91.1 4.3c1.7 0 3 1.1 3 2.8s-1.3 2.8-3 2.8-3-1.1-3-2.8 1.4-2.8 3-2.8zm0 4.1c.6 0 1.2-.5 1.2-1.3s-.6-1.3-1.2-1.3-1.2.5-1.2 1.3.6 1.3 1.2 1.3z"/><path d="m95 4.4h1.7v.9.3c.2-.7.9-1.3 1.7-1.3h.2v1.7s-.1 0-.4 0c-.4 0-1.1.1-1.4.9-.1.2-.1.4-.1.7v2h-1.7z"/><path d="m99.5 4.4h1.7v.5.3c.2-.4.7-.9 1.6-.9.7 0 1.2.3 1.5.9.3-.4.9-.9 1.7-.9 1 0 1.7.5 1.7 2v3.4h-1.8v-3.1c0-.4-.1-.7-.4-.7-.6 0-.9.4-1 1v.6 2.2h-1.8v-3.1c0-.4-.1-.7-.4-.7-.6 0-.8.4-1 1 0 .2-.1.4-.1.7v2.2h-1.8v-5.4z"/><path d="m111.6 6.4c.1-.5-.3-.7-.7-.7-.7 0-1.4.5-1.4.5l-.7-1.2s.9-.7 2.2-.7c1.5 0 2.4.8 2.4 2.2v3.3h-1.6v-.4c0-.2 0-.3 0-.3s-.4.8-1.5.8c-1 0-1.8-.7-1.8-1.7-0-1.6 2.2-1.8 3.1-1.8zm-.8 2.1c.5 0 .9-.5.9-.9v-.2h-.2c-.6 0-1.2.2-1.2.6 0 .3.1.5.5.5z"/><path d="m61 13.8c1.9 0 2.9 1.4 2.9 3.2v.6h-4.9c.1 1.5 1.1 2.2 2.3 2.2s2-.8 2-.8l.5 1s-1 1-2.6 1c-2.1 0-3.6-1.5-3.6-3.6.1-2.2 1.5-3.6 3.4-3.6zm1.7 2.8c0-1.2-.8-1.7-1.6-1.7-1 0-1.8.6-2 1.7z"/><path d="m65.5 11.3h1.3v7.4c0 .8.3 1 .7 1h.2v1.2s-.2 0-.4 0c-.7 0-1.8-.2-1.8-1.9z"/><path d="m75.7 13.8c1.7 0 2.5 1 2.5 1l-.6.9s-.7-.8-1.9-.8c-1.4 0-2.4 1-2.4 2.4s1 2.4 2.4 2.4c1.3 0 2.1-.9 2.1-.9l.5 1s-.9 1.1-2.7 1.1c-2.1 0-3.6-1.5-3.6-3.6.1-1.9 1.6-3.5 3.7-3.5z"/><path d="m83.4 16.5h.3v-.1c0-1.1-.6-1.5-1.5-1.5-1 0-1.9.7-1.9.7l-.5-1s1-.8 2.5-.8c1.7 0 2.7.9 2.7 2.7v4.3h-1.2v-.6c0-.3 0-.5 0-.5s-.5 1.3-2.2 1.3c-1.2 0-2.3-.7-2.3-2.1.1-2.3 3-2.4 4.1-2.4zm-1.5 3.4c1.1 0 1.8-1.2 1.8-2.2v-.2h-.3c-1 0-2.7.1-2.7 1.3 0 .5.4 1.1 1.2 1.1z"/><path d="m87 14h1.3v.9.5c.3-.8 1.3-1.6 2.3-1.6 1.1 0 1.8.5 2 1.5.4-.8 1.3-1.5 2.4-1.5 1.5 0 2.2.9 2.2 2.6v4.3h-1.2v-4.1c0-1-.2-1.7-1.2-1.7s-1.7.8-1.9 1.7c-.1.3-.1.6-.1.9v3.1h-1.3v-4.1c0-.9-.1-1.7-1.2-1.7-1 0-1.7.8-1.9 1.8-.1.3-.1.6-.1.9v3.1h-1.3z"/><path d="m99.2 14h1.2v.6.5s.6-1.2 2.3-1.2c1.8 0 3 1.4 3 3.6s-1.3 3.6-3.1 3.6c-1.5 0-2.1-1.1-2.1-1.1v.6 3h-1.3zm3.2 5.8c1.1 0 2-.9 2-2.4s-.8-2.4-1.9-2.4c-1 0-2 .7-2 2.4 0 1.2.7 2.4 1.9 2.4z"/><path d="m110.4 13.8c2 0 3.7 1.5 3.7 3.5 0 2.1-1.6 3.6-3.7 3.6s-3.7-1.5-3.7-3.6c.1-2 1.7-3.5 3.7-3.5zm0 6c1.3 0 2.3-1 2.3-2.4s-1-2.4-2.3-2.4-2.3 1-2.3 2.4 1.1 2.4 2.3 2.4z"/><path d="m52.1 1.1h.7v20.2h-.7z"/></g></svg>