<svg viewBox="0 0 120 74" xmlns="http://www.w3.org/2000/svg"><path d="m26.8 48.9v11.3l.2.3v-11.6z" fill="#e3e3e0"/><path d="m22.6 44.8v10.1l4.2 5.6v-.3l-4-5.3v-10.1z" fill="#fff"/><path d="m36.5 26.7h.2v-16.9l-.1-.1-.1-.1z" fill="#e3e3e0"/><path d="m36.7 9.8 4 3.1v17.6h.2v-17.7l-4.2-3.3z" fill="#fff"/><path d="m33.7 7.5c-.3 0-.5 0-.7.2l-6.1 4.7v14.2h.2v-14.1l6.1-4.7c.2-.1.4-.2.6-.2s.4 0 .6.2l2.2 1.7v-.3l-2.1-1.6c-.2-.2-.5-.2-.7-.2" fill="#fff"/><path d="m54.3 30.6s-17.6 0-17.6 0h-.2v-3.6 3.6h-13.7v-3.6 3.6h-.2 13.9v14.1h-27.4l-7.2-6.2c-.2-.2-.3-.4-.3-.6s.1-.4.3-.6l6.1-5.2s0 0 0 0l1.5-1.3.2-.2h-.4l-7.7 6.6c-.2.2-.4.5-.4.8s.1.6.4.8l7.2 6.2s13.6 0 13.6 0h4.4v4 11.6l-.2-.3v5.6l6.5 6c.2.2.5.3.7.3s.5 0 .7-.3l6.1-5.6v-21.3 3.8h-.2v17.4l-6.1 5.6c-.3.3-.9.3-1.2 0l-6.4-5.9v-20.9h9.7v-.2h12.4l-.2.2h5.1l4.9-6.6c.3-.4.3-1.1 0-1.5l-4.6-6.2zm-17.6 14v-13.9h17.5l4.6 6.2c.3.3.3.9 0 1.2l-4.9 6.5h-4.6z" fill="#fff"/><path d="m36.5 48.7h.2v-3.9h-.2.2-.2z" fill="#e5e5e4"/><path d="m36.5 44.9h.2" fill="none"/><path d="m48.9 44.8.2-.2h-12.4v.2h4v3.9h.2v-3.9z" fill="#e3e3e0"/><path d="m48.9 44.9-3.1 3.8h-4.9v.2h5l3.3-4z" fill="#fff"/><path d="m36.7 48.9h-.2v6.4l-6.1 8.1c-.2.2-.4.3-.6.3s-.4-.1-.6-.3l-2.2-2.9v.3l2 2.7c.2.3.5.4.7.4s.5-.1.7-.4l6.1-8.1v-6.5h4v-.2h-4v.2z" fill="#fff"/><path d="m27 44.8v3.9" fill="none"/><path d="m27 48.7h9.5v.2h-9.5z" fill="#fff"/><path d="m26.8 44.8h.2v4h-.2z" fill="#fff"/><path d="m46.1 34.8 5 6.2c.3.3.3.9 0 1.2l-2 2.5h.3l1.9-2.3c.3-.4.3-1.1 0-1.5l-5.1-6.2h-9.5v.2h9.4z" fill="#fff"/><path d="m22.6 26.9h.2v3.6h-.2z" fill="#e3e3e0"/><path d="m26.8 26.9v3.6h.2v-3.6z" fill="#e5e5e4"/><path d="m22.6 30.5h-12.8l-.3.3h27v-.3h-9.5-.2-4z" fill="#e3e3e0"/><path d="m36.5 40.8v-10" fill="none"/><g fill="#fff"><path d="m13.3 26.7-3.8 3.8h.3l3.6-3.6h9.2v-.2z"/><path d="m26.8 26.9v-.2h-4v.2z"/><path d="m22.6 26.9h.2v-.2-18.2l6.1-6.2c.2-.2.4-.2.6-.2s.4 0 .6.2l6.4 6.5v17.8-17s.1.2.1.2v-.3-.7l-6.5-6.6c-.2-.2-.5-.3-.7-.3s-.5.1-.7.3l-6.1 6.2z"/><path d="m36.5 26.7h-9.5v.2h9.5z"/><path d="m36.7 26.7h-.2v.2 3.6h.2z"/><path d="m13 40.8-6.2-6.2c-.2-.2-.2-.4-.2-.6s0-.4.2-.6l2.7-2.7-1.5 1.3-1.3 1.3c-.2.2-.3.5-.3.7 0 .3.1.5.3.8l6.2 6.2h23.6v-.2z"/><path d="m62.3 26.1c.2 0 .3 0 .3-.2v-2h1c.9 0 1.6-.5 1.6-1.7 0-1.3-.7-1.7-1.6-1.7h-1.4c-.2 0-.3.1-.3.2v5.1c0 .2.2.2.3.2m.4-4.9h1c.6 0 1 .3 1 1.1 0 .8-.4 1.2-1 1.2h-1z"/><path d="m66.4 21.1h1.2v4.8c0 .2.2.2.3.2s.3 0 .3-.2v-4.8h1.2c.2 0 .2-.2.2-.3s0-.3-.2-.3h-3.1c-.2 0-.2.2-.2.3s0 .3.2.3"/><path d="m71.2 26.1c.2 0 .3 0 .3-.2v-5.1c0-.2-.2-.2-.3-.2s-.3 0-.3.2v5.1c0 .2.2.2.3.2"/><path d="m62 29.6v5.4c0 .2.2.2.3.2s.3 0 .3-.2v-5.4c0-.2-.2-.2-.3-.2s-.3 0-.3.2"/><path d="m67.7 33.6v-1.1c0-.1 0-.2-.2-.2h-1.4c-.2 0-.2.1-.2.3s0 .3.2.3h.9v.8c0 .8-.4 1.1-1 1.1s-1-.4-1-1.1v-2.4c0-.8.4-1.1 1-1.1s1 .4 1 .9c0 .2.2.2.3.2s.3 0 .3-.3c0-.8-.7-1.4-1.7-1.4s-1.7.5-1.7 1.7v2.4c0 1.3.7 1.7 1.7 1.7s1.7-.5 1.7-1.7"/><path d="m69.3 29.6v5.4c0 .2.1.2.3.2h2.5c.1 0 .2-.2.2-.3s0-.3-.2-.3h-2.2v-5c0-.2-.2-.2-.3-.2s-.3 0-.3.2"/><path d="m74 35.3h2.8c.2 0 .2-.2.2-.3s0-.3-.2-.3h-2.4v-2h1.2c.2 0 .2-.1.2-.3s0-.3-.2-.3h-1.2v-2h2.4c.1 0 .2-.1.2-.3s0-.3-.2-.3h-2.8c-.2 0-.3 0-.3.2v5.4c0 .2.2.2.3.2"/><path d="m79.7 35.3c1 0 1.7-.5 1.7-1.7 0-2.2-2.6-1.5-2.6-2.8s.5-.8 1.1-.8.9.3 1.1.3.3-.2.3-.4c0-.4-.8-.5-1.4-.5s-1.7.3-1.7 1.5c0 1.9 2.6 1.2 2.6 2.8s-.4 1-1.1 1-1.1-.6-1.3-.6-.3.2-.3.4c0 .3.7.9 1.7.9"/><path d="m83.3 35.3c.2 0 .3 0 .3-.2v-5.4c0-.2-.2-.2-.3-.2s-.3 0-.3.2v5.4c0 .2.2.2.3.2"/><path d="m85.3 35.3c.1 0 .2 0 .2-.2l.3-1.2h2.1l.3 1.2c0 .1.1.2.2.2.2 0 .4-.1.4-.3s0 0 0 0l-1.6-5.3c0-.2-.2-.2-.4-.2s-.4 0-.4.2l-1.6 5.3s0 0 0 0c0 .2.2.3.4.3m1.8-5 .9 3h-1.8z"/><path d="m91.7 35.3c1 0 1.7-.5 1.7-1.7 0-2.2-2.6-1.5-2.6-2.8s.5-.8 1.1-.8.9.3 1.1.3.3-.2.3-.4c0-.4-.8-.5-1.4-.5s-1.7.3-1.7 1.5c0 1.9 2.6 1.2 2.6 2.8s-.4 1-1.1 1-1.1-.6-1.3-.6-.3.2-.3.4c0 .3.7.9 1.7.9"/><path d="m63.7 39h-1.5c-.2 0-.3.1-.3.2v5.4c0 .2.2.2.3.2s.3 0 .3-.2v-2.1h1.1c1 0 1.7-.5 1.7-1.7 0-1.3-.7-1.8-1.7-1.8m1.1 1.9c0 .8-.4 1.1-1 1.1h-1.1v-2.4h1.1c.6 0 1 .4 1 1.1z"/><path d="m69.2 43.5.3 1.2c0 .1.1.2.2.2.2 0 .4-.1.4-.3s0 0 0 0l-1.6-5.3c0-.2-.2-.2-.4-.2s-.4 0-.4.2l-1.6 5.3s0 0 0 0c0 .2.2.3.4.3s.2 0 .2-.2l.3-1.2h2.1zm-1.1-3.5.9 3h-1.8z"/><path d="m74.3 39.3c0-.2 0-.3-.2-.3h-3.2c-.2 0-.2.2-.2.3s0 .3.2.3h1.3v5c0 .2.2.2.3.2s.3 0 .3-.2v-5h1.3c.2 0 .2-.2.2-.3"/><path d="m79 44.5s0 0 0-.1l-1.2-2.3c.7-.1 1.2-.6 1.2-1.6s-.8-1.6-1.7-1.6h-1.4c-.1 0-.2.1-.2.2v5.4c0 .2.2.2.3.2s.3 0 .3-.2v-2.4h.9l1.2 2.3c0 .1.2.3.3.3s.4-.2.4-.3m-2.9-2.7v-2.1h1c.7 0 1.1.3 1.1 1s-.4 1-1.1 1h-1z"/><path d="m80.5 39.2v5.4c0 .2.2.2.3.2s.3 0 .3-.2v-5.4c0-.2-.2-.2-.3-.2s-.3 0-.3.2"/><path d="m86.5 44.6c0 .2.2.2.3.2s.3 0 .3-.2v-5.3c0-.2-.2-.3-.3-.3s-.4.1-.5.4l-1.2 2.4-1.2-2.4c-.1-.3-.3-.4-.5-.4s-.3 0-.3.3v5.3c0 .2.2.2.3.2s.3 0 .3-.2v-4.2l1.2 2.3c0 .1.2.2.2.2s.2 0 .3-.2l1.2-2.3v4.2z"/><path d="m92.2 43.2v-2.4c0-1.3-.7-1.7-1.7-1.7s-1.7.5-1.7 1.7v2.4c0 1.3.7 1.7 1.7 1.7s1.7-.5 1.7-1.7m-.6 0c0 .8-.4 1.1-1 1.1s-1-.4-1-1.1v-2.4c0-.8.4-1.1 1-1.1s1 .4 1 1.1z"/><path d="m97 44.9c.2 0 .3 0 .3-.2v-5.4c0-.2-.2-.2-.3-.2s-.3 0-.3.2v4.1l-2-3.9c-.1-.3-.3-.4-.5-.4s-.3 0-.3.2v5.4c0 .2.2.2.3.2s.3 0 .3-.2v-4.1l2 4c0 .2.2.3.4.3"/><path d="m99.5 39c-.2 0-.3 0-.3.2v5.4c0 .2.2.2.3.2s.3 0 .3-.2v-5.4c0-.2-.2-.2-.3-.2"/><path d="m103.6 39.2c0-.2-.2-.2-.4-.2s-.4 0-.4.2l-1.6 5.3s0 0 0 0c0 .2.2.3.4.3s.2 0 .2-.2l.3-1.2h2.1l.3 1.2c0 .1.1.2.2.2.2 0 .4-.1.4-.3s0 0 0 0l-1.6-5.3zm-1.3 3.8.9-3 .9 3z"/><path d="m109.3 44.3h-2.2v-5c0-.2-.2-.2-.3-.2s-.3 0-.3.2v5.4c0 .2.2.2.3.2h2.5c.1 0 .2-.2.2-.3s0-.3-.2-.3"/><path d="m114 39.6c.1 0 .2-.1.2-.3s0-.3-.2-.3h-2.8c-.1 0-.3 0-.3.2v5.4c0 .2.2.2.3.2h2.8c.2 0 .2-.2.2-.3s0-.3-.2-.3h-2.4v-2h1.2c.2 0 .2-.1.2-.3s0-.3-.2-.3h-1.2v-2z"/><path d="m116 40.4c0-.6.5-.8 1.1-.8s.9.3 1.1.3.3-.2.3-.4c0-.4-.8-.5-1.4-.5s-1.7.3-1.7 1.5c0 1.9 2.6 1.2 2.6 2.8s-.4 1-1.1 1-1.1-.6-1.3-.6-.3.2-.3.4c0 .3.7.9 1.7.9s1.7-.5 1.7-1.7c0-2.2-2.6-1.5-2.6-2.8"/><path d="m63.7 48.6h-1.4c-.2 0-.3.1-.3.2v5.4c0 .1.1.2.3.2h1.4c1 0 1.7-.5 1.7-1.7v-2.4c0-1.3-.7-1.7-1.7-1.7m1 4.1c0 .8-.4 1.1-1 1.1h-1v-4.6h1c.6 0 1 .4 1 1.1z"/><path d="m70.2 49.2c.1 0 .2-.1.2-.3s0-.3-.2-.3h-2.8c-.1 0-.3 0-.3.2v5.4c0 .2.2.2.3.2h2.8c.2 0 .2-.2.2-.3s0-.3-.2-.3h-2.4v-2h1.2c.2 0 .2-.1.2-.3s0-.3-.2-.3h-1.2v-2z"/><path d="m75.6 49.2c.9 0 1 .6 1 .9 0 .1.1.2.3.2s.3 0 .3-.4c0-.8-.6-1.4-1.7-1.4s-1.7.5-1.7 1.7v2.4c0 1.3.8 1.7 1.7 1.7s1.7-.6 1.7-1.4-.1-.4-.3-.4-.3 0-.3.2c0 .4-.1 1-1 1s-1.1-.4-1.1-1.1v-2.4c0-.8.4-1.1 1-1.1"/><path d="m81.9 48.6c-.2 0-.3 0-.3.2v2.3h-2.1v-2.3c0-.2-.2-.2-.3-.2s-.3 0-.3.2v5.4c0 .2.2.2.3.2s.3 0 .3-.2v-2.5h2.1v2.5c0 .2.2.2.3.2s.3 0 .3-.2v-5.4c0-.2-.2-.2-.3-.2"/><path d="m84.3 48.6c-.2 0-.3 0-.3.2v5.4c0 .2.2.2.3.2s.3 0 .3-.2v-5.4c0-.2-.2-.2-.3-.2"/><path d="m89.2 53.9h-2.2v-5c0-.2-.2-.2-.3-.2s-.3 0-.3.2v5.4c0 .2.2.2.3.2h2.5c.1 0 .2-.2.2-.3s0-.3-.2-.3"/><path d="m92.3 48.6c-1 0-1.7.5-1.7 1.7v2.4c0 1.3.7 1.7 1.7 1.7s1.7-.5 1.7-1.7v-2.4c0-1.3-.7-1.7-1.7-1.7m1 4.2c0 .8-.4 1.1-1 1.1s-1-.4-1-1.1v-2.4c0-.8.4-1.1 1-1.1s1 .4 1 1.1z"/><path d="m96.8 47.5c0 .1.1.3.2.3s0 0 0 0l.9-.5s.1-.1.1-.2 0-.3-.2-.3 0 0 0 0l-.9.5s-.1.1-.1.2"/><path d="m98.8 49.2c.1 0 .2-.1.2-.3s0-.3-.2-.3h-2.8c-.2 0-.3 0-.3.2v5.4c0 .2.2.2.3.2h2.8c.2 0 .2-.2.2-.3s0-.3-.2-.3h-2.4v-2h1.2c.2 0 .2-.1.2-.3s0-.3-.2-.3h-1.2v-2z"/></g></svg>