<?xml version="1.0" encoding="utf-8"?>
<!-- Generator: Adobe Illustrator 28.3.0, SVG Export Plug-In . SVG Version: 6.00 Build 0)  -->
<svg version="1.1" id="Capa_1" xmlns="http://www.w3.org/2000/svg" xmlns:xlink="http://www.w3.org/1999/xlink" x="0px" y="0px"
	 viewBox="0 0 120 60" style="enable-background:new 0 0 120 60;" xml:space="preserve">
<style type="text/css">
	.st0{fill:#FFFFFF;}
</style>
<g>
	<path class="st0" d="M25.2,58.5H3.6v-5.7h21.6V58.5z M4.2,57.8h20.3v-4.4H4.2V57.8z"/>
	<path class="st0" d="M50.9,58.5H24.6v-5.7h26.3V58.5z M25.2,57.8h25v-4.4h-25V57.8z"/>
	<path class="st0" d="M17.8,46.5c-4.2,0-7.6-1.2-10.2-3.4c-2.6-2.3-4.1-5.5-4.1-9c0-3.4,1.5-6.6,4.1-8.9c2.5-2.2,5.9-3.4,9.7-3.4
		c1.9,0,4,0.4,6.2,1.3l0.2,0.1v5.8l-0.5-0.2c-1.6-0.6-3-1-4.3-1.2l0,0c-0.5-0.1-1-0.1-1.4-0.1c-2.1,0-4,0.6-5.2,1.7
		c-1.5,1.3-2.3,3.1-2.3,5.1c0,2.6,1.3,4.1,2.1,4.8c0,0,2.1,1.9,5.5,1.9c0.4,0,0.8,0,1.2-0.1l0,0c1.4-0.2,2.9-0.6,4.4-1.2l0.5-0.2
		v5.8l-0.2,0.1C21.1,46.3,19.2,46.5,17.8,46.5z M17.3,22.4c-3.6,0-6.9,1.1-9.2,3.2c-2.4,2.1-3.8,5.2-3.8,8.4c0,3.3,1.4,6.3,3.8,8.5
		c2.4,2.2,5.7,3.3,9.7,3.3c1.3,0,3-0.1,5.3-1.1v-4.4c-1.5,0.6-2.8,0.9-4.2,1.1c-0.4,0.1-0.9,0.1-1.3,0.1c-3,0-5.2-1.3-6-2
		c-0.9-0.8-2.3-2.5-2.3-5.3c0-2.1,0.9-4.2,2.5-5.6c1.4-1.2,3.4-1.9,5.7-1.9c0.5,0,1,0,1.6,0.1c1.3,0.2,2.6,0.5,4,1.1v-4.4
		C21,22.8,19.1,22.4,17.3,22.4z"/>
	<path class="st0" d="M38.6,46.5c-4.6,0-7.5-2.2-8.8-3.5c-2.2-2.2-3.5-5.4-3.5-8.8c0-3.3,1.3-6.7,3.5-9c1.2-1.3,4-3.5,8.8-3.5
		c3.5,0,6.5,1.2,8.7,3.4l0,0c2.3,2.3,3.5,5.5,3.5,8.9c0,3.4-1.2,6.6-3.5,8.9C45.1,45.3,42.1,46.5,38.6,46.5z M38.6,22.4
		c-4.3,0-6.9,1.8-8.3,3.3c-2,2.1-3.3,5.4-3.3,8.5c0,3.2,1.2,6.3,3.3,8.3c1.2,1.2,3.9,3.3,8.3,3.3c3.3,0,6.1-1.1,8.2-3.3
		c2.1-2.2,3.3-5.2,3.3-8.4c0-3.3-1.2-6.3-3.3-8.5l0,0C44.7,23.5,42,22.4,38.6,22.4z M38.6,41.6c-2,0-3.6-0.7-4.9-2
		c-1.4-1.5-2.1-3.2-2.1-5.4c0-2.9,1.3-4.7,2-5.4c1.3-1.3,3.1-2.1,5-2.1c1.9,0,3.8,0.8,5.1,2.1c1.3,1.3,2,3.3,2,5.4
		c0,2.8-1.1,4.5-2,5.4C42.8,40.4,41.1,41.6,38.6,41.6z M38.6,27.3c-1.8,0-3.4,0.7-4.6,1.9l0,0c-0.7,0.7-1.8,2.3-1.8,5
		c0,2,0.6,3.6,1.9,5c1.2,1.2,2.6,1.8,4.5,1.8c1.9,0,3.5-0.6,4.6-1.9c0.8-0.8,1.8-2.4,1.8-4.9c0-2.8-1.3-4.4-1.8-5
		C42,28,40.3,27.3,38.6,27.3z"/>
	<path class="st0" d="M73.2,46h-7.3l-5.7-8.4V46h-6V22.3h8.4c3.2,0,5.1,1.1,6.1,2.1c0.8,0.8,2.1,2.5,2.1,5.4c0,2.1-0.6,3.7-1.9,4.9
		C68.1,35.4,67,36,66,36.4L73.2,46z M66.2,45.3h5.7l-7-9.3l0.5-0.1c1.1-0.3,2.2-0.9,3.1-1.7c1.1-1.1,1.7-2.6,1.7-4.5
		c0-2.7-1.2-4.2-1.9-4.9c-1.3-1.2-3.3-1.9-5.6-1.9h-7.8v22.4h4.7v-9.8L66.2,45.3z M61,33.4h-1.5v-7H61c1,0,2.3,0.1,3.1,0.8
		c0.8,0.6,1.2,1.5,1.2,2.6c0,1.3-0.6,2.1-1,2.5C63.4,33.3,62.1,33.4,61,33.4z M60.1,32.7H61c1,0,2.1-0.1,2.9-0.9
		c0.3-0.3,0.8-0.9,0.8-2c0-0.9-0.3-1.6-0.9-2.1c-0.6-0.4-1.5-0.7-2.7-0.7h-0.9V32.7z"/>
	<path class="st0" d="M81.7,46h-6V22.3h14.9v5.1h-8.9v3.8h7.8v5.1h-7.8V46z M76.4,45.3h4.7v-9.6h7.8v-3.8h-7.8v-5.1H90v-3.8H76.4
		V45.3z"/>
	<path class="st0" d="M104.5,46.5c-4.6,0-7.5-2.2-8.8-3.5c-2.2-2.2-3.5-5.4-3.5-8.8c0-3.3,1.3-6.7,3.5-9c1.2-1.3,4-3.5,8.8-3.5
		c3.5,0,6.5,1.2,8.7,3.4c2.3,2.3,3.5,5.5,3.5,8.9c0,3.4-1.2,6.6-3.5,8.9C110.9,45.3,108,46.5,104.5,46.5z M104.5,22.4
		c-4.3,0-6.9,1.8-8.3,3.3c-2,2.1-3.3,5.4-3.3,8.5c0,3.2,1.2,6.3,3.3,8.3c1.5,1.5,4.1,3.3,8.3,3.3c3.3,0,6.1-1.1,8.2-3.3
		c2.1-2.2,3.3-5.2,3.3-8.4c0-3.3-1.2-6.3-3.3-8.5l0,0C110.6,23.5,107.9,22.4,104.5,22.4z M104.4,41.6c-2,0-3.6-0.7-4.9-2
		c-1.4-1.5-2.1-3.2-2.1-5.4c0-2.9,1.3-4.7,2-5.4c1.3-1.3,3.1-2.1,5-2.1c1.9,0,3.8,0.8,5.1,2.1c1.3,1.3,2,3.3,2,5.4
		c0,2.8-1.1,4.5-2,5.4C108.3,40.9,106.5,41.6,104.4,41.6z M104.5,27.3c-1.8,0-3.4,0.7-4.6,1.9l0,0c-0.7,0.7-1.8,2.3-1.8,5
		c0,2,0.6,3.6,1.9,5c1.2,1.2,2.6,1.8,4.5,1.8c1.9,0,3.5-0.6,4.6-1.9c0.8-0.8,1.8-2.4,1.8-4.9c0-2.8-1.3-4.4-1.8-5
		C107.9,28,106.2,27.3,104.5,27.3z"/>
</g>
<g>
	<path class="st0" d="M3.3,1.9c0.4-0.1,0.9-0.1,1.5-0.1c0.8,0,1.3,0.2,1.7,0.5C6.8,2.6,7,3,7,3.6c0,0.5-0.2,1-0.5,1.3
		C6.1,5.3,5.5,5.5,4.7,5.5c-0.2,0-0.5,0-0.6-0.1v2.4H3.3V1.9z M4.1,4.8c0.2,0,0.4,0.1,0.6,0.1c0.9,0,1.5-0.5,1.5-1.3
		c0-0.8-0.6-1.2-1.4-1.2c-0.3,0-0.6,0-0.7,0.1V4.8z"/>
	<path class="st0" d="M7.9,4.9c0-0.5,0-1,0-1.4h0.7l0,0.9h0c0.2-0.6,0.7-1,1.2-1c0.1,0,0.1,0,0.2,0v0.7c-0.1,0-0.2,0-0.3,0
		c-0.6,0-1,0.4-1.1,1c0,0.1,0,0.2,0,0.4v2.3H7.9V4.9z"/>
	<path class="st0" d="M14.7,5.7c0,1.6-1.1,2.3-2.2,2.3c-1.2,0-2.1-0.9-2.1-2.2c0-1.4,1-2.3,2.2-2.3C13.8,3.5,14.7,4.4,14.7,5.7z
		 M11.2,5.7c0,1,0.5,1.7,1.3,1.7c0.8,0,1.3-0.7,1.3-1.7c0-0.7-0.4-1.7-1.3-1.7C11.7,4.1,11.2,4.9,11.2,5.7z"/>
	<path class="st0" d="M15.9,3.6l0.9,2.6C17,6.4,17.1,6.8,17.1,7h0c0.1-0.3,0.2-0.6,0.3-0.9l0.9-2.6h0.8L18,6.7
		c-0.6,1.5-1,2.2-1.5,2.7c-0.4,0.3-0.8,0.5-1,0.5l-0.2-0.7C15.5,9.2,15.8,9,16,8.9c0.2-0.2,0.5-0.5,0.7-0.9c0-0.1,0.1-0.1,0.1-0.2
		s0-0.1-0.1-0.2l-1.6-4H15.9z"/>
	<path class="st0" d="M20.2,5.9c0,1.1,0.7,1.5,1.5,1.5c0.6,0,0.9-0.1,1.2-0.2l0.1,0.6C22.8,7.9,22.3,8,21.6,8
		c-1.3,0-2.1-0.9-2.1-2.2s0.8-2.3,2-2.3c1.4,0,1.8,1.2,1.8,2c0,0.2,0,0.3,0,0.4H20.2z M22.5,5.3c0-0.5-0.2-1.3-1.1-1.3
		c-0.8,0-1.2,0.7-1.2,1.3H22.5z"/>
	<path class="st0" d="M27.4,7.8C27.2,7.9,26.7,8,26.1,8C24.8,8,24,7.1,24,5.8c0-1.3,0.9-2.3,2.3-2.3c0.5,0,0.9,0.1,1.1,0.2l-0.2,0.6
		c-0.2-0.1-0.5-0.2-0.9-0.2c-1,0-1.5,0.7-1.5,1.6c0,1,0.6,1.6,1.5,1.6c0.4,0,0.7-0.1,1-0.2L27.4,7.8z"/>
	<path class="st0" d="M29.4,2.5v1h1.1v0.6h-1.1v2.3c0,0.5,0.2,0.8,0.6,0.8c0.2,0,0.3,0,0.5-0.1l0,0.6C30.3,8,30.1,8,29.8,8
		c-0.4,0-0.7-0.1-0.9-0.3c-0.2-0.2-0.3-0.6-0.3-1.1V4.2h-0.7V3.6h0.7V2.7L29.4,2.5z"/>
	<path class="st0" d="M35.3,5.7c0,1.6-1.1,2.3-2.2,2.3C32,8,31,7.1,31,5.8c0-1.4,1-2.3,2.2-2.3C34.5,3.5,35.3,4.4,35.3,5.7z
		 M31.9,5.7c0,1,0.5,1.7,1.3,1.7c0.8,0,1.3-0.7,1.3-1.7c0-0.7-0.4-1.7-1.3-1.7C32.3,4.1,31.9,4.9,31.9,5.7z"/>
	<path class="st0" d="M41.3,6.9c0,0.4,0,0.7,0.1,1h-0.7l-0.1-0.5h0C40.3,7.7,39.8,8,39.2,8c-0.9,0-1.3-0.6-1.3-1.3
		c0-1.1,0.9-1.6,2.6-1.6V5.1c0-0.4-0.1-1-1-1c-0.4,0-0.8,0.1-1.1,0.3l-0.2-0.5c0.4-0.2,0.9-0.4,1.4-0.4c1.3,0,1.7,0.9,1.7,1.8V6.9z
		 M40.5,5.7c-0.9,0-1.8,0.1-1.8,1c0,0.5,0.3,0.8,0.7,0.8c0.6,0,0.9-0.4,1.1-0.7c0-0.1,0-0.2,0-0.3V5.7z"/>
	<path class="st0" d="M42.5,5c0-0.6,0-1,0-1.4h0.7l0,0.7h0c0.3-0.5,0.8-0.8,1.5-0.8c1.1,0,1.9,0.9,1.9,2.2c0,1.6-1,2.3-2,2.3
		c-0.6,0-1.1-0.3-1.3-0.7h0v2.4h-0.8V5z M43.3,6.1c0,0.1,0,0.2,0,0.3C43.5,7,44,7.4,44.6,7.4c0.8,0,1.3-0.7,1.3-1.7
		c0-0.9-0.5-1.6-1.3-1.6c-0.5,0-1.1,0.4-1.2,1c0,0.1-0.1,0.2-0.1,0.3V6.1z"/>
	<path class="st0" d="M51.6,5.7c0,1.6-1.1,2.3-2.2,2.3c-1.2,0-2.1-0.9-2.1-2.2c0-1.4,1-2.3,2.2-2.3C50.8,3.5,51.6,4.4,51.6,5.7z
		 M48.2,5.7c0,1,0.5,1.7,1.3,1.7c0.8,0,1.3-0.7,1.3-1.7c0-0.7-0.4-1.7-1.3-1.7C48.6,4.1,48.2,4.9,48.2,5.7z"/>
	<path class="st0" d="M52.8,3.6l0.9,2.6C53.9,6.4,54,6.8,54.1,7h0c0.1-0.3,0.2-0.6,0.3-0.9l0.9-2.6h0.8l-1.2,3.1
		c-0.6,1.5-1,2.2-1.5,2.7c-0.4,0.3-0.8,0.5-1,0.5l-0.2-0.7c0.2-0.1,0.5-0.2,0.7-0.4c0.2-0.2,0.5-0.5,0.7-0.9c0-0.1,0.1-0.1,0.1-0.2
		s0-0.1-0.1-0.2l-1.6-4H52.8z"/>
	<path class="st0" d="M59.8,6.9c0,0.4,0,0.7,0.1,1h-0.7l-0.1-0.5h0C58.8,7.7,58.4,8,57.7,8c-0.9,0-1.3-0.6-1.3-1.3
		c0-1.1,0.9-1.6,2.6-1.6V5.1c0-0.4-0.1-1-1-1c-0.4,0-0.8,0.1-1.1,0.3l-0.2-0.5c0.4-0.2,0.9-0.4,1.4-0.4c1.3,0,1.7,0.9,1.7,1.8V6.9z
		 M59,5.7c-0.9,0-1.8,0.1-1.8,1c0,0.5,0.3,0.8,0.7,0.8c0.6,0,0.9-0.4,1.1-0.7c0-0.1,0-0.2,0-0.3V5.7z"/>
	<path class="st0" d="M64.8,1.5v5.3c0,0.4,0,0.8,0,1.1h-0.7l0-0.8h0C63.9,7.6,63.4,8,62.6,8c-1.1,0-1.9-0.9-1.9-2.2
		c0-1.5,0.9-2.3,2-2.3c0.7,0,1.1,0.3,1.3,0.7h0V1.5H64.8z M64.1,5.3c0-0.1,0-0.2,0-0.3c-0.1-0.5-0.5-0.9-1.1-0.9
		c-0.8,0-1.3,0.7-1.3,1.7c0,0.9,0.4,1.6,1.3,1.6c0.5,0,1-0.4,1.2-0.9c0-0.1,0-0.2,0-0.3V5.3z"/>
	<path class="st0" d="M70.1,5.7C70.1,7.3,69,8,67.9,8c-1.2,0-2.1-0.9-2.1-2.2c0-1.4,1-2.3,2.2-2.3C69.3,3.5,70.1,4.4,70.1,5.7z
		 M66.7,5.7c0,1,0.5,1.7,1.3,1.7c0.8,0,1.3-0.7,1.3-1.7c0-0.7-0.4-1.7-1.3-1.7C67.1,4.1,66.7,4.9,66.7,5.7z"/>
	<path class="st0" d="M73,5c0-0.6,0-1,0-1.4h0.7l0,0.7h0c0.3-0.5,0.8-0.8,1.5-0.8c1.1,0,1.9,0.9,1.9,2.2c0,1.6-1,2.3-2,2.3
		c-0.6,0-1.1-0.3-1.3-0.7h0v2.4H73V5z M73.8,6.1c0,0.1,0,0.2,0,0.3C74,7,74.5,7.4,75,7.4c0.8,0,1.3-0.7,1.3-1.7
		c0-0.9-0.5-1.6-1.3-1.6c-0.5,0-1.1,0.4-1.2,1c0,0.1-0.1,0.2-0.1,0.3V6.1z"/>
	<path class="st0" d="M82.1,5.7c0,1.6-1.1,2.3-2.2,2.3c-1.2,0-2.1-0.9-2.1-2.2c0-1.4,1-2.3,2.2-2.3C81.2,3.5,82.1,4.4,82.1,5.7z
		 M78.6,5.7c0,1,0.5,1.7,1.3,1.7c0.8,0,1.3-0.7,1.3-1.7c0-0.7-0.4-1.7-1.3-1.7C79,4.1,78.6,4.9,78.6,5.7z"/>
	<path class="st0" d="M83.1,4.9c0-0.5,0-1,0-1.4h0.7l0,0.9h0c0.2-0.6,0.7-1,1.2-1c0.1,0,0.1,0,0.2,0v0.7c-0.1,0-0.2,0-0.3,0
		c-0.6,0-1,0.4-1.1,1c0,0.1,0,0.2,0,0.4v2.3h-0.8V4.9z"/>
</g>
</svg>
