<?xml version="1.0" encoding="UTF-8"?>
<svg id="Capa_2" data-name="Capa 2" xmlns="http://www.w3.org/2000/svg" viewBox="0 0 183.51 59.19">
  <defs>
    <style>
      .cls-1 {
        fill: #fff;
        stroke-width: 0px;
      }
    </style>
  </defs>
  <g id="Capa_1-2" data-name="Capa 1">
    <g>
      <path class="cls-1" d="M34.62,59.19H0v-8.73h34.62v8.73ZM.48,58.71h33.67v-7.78H.48v7.78Z"/>
      <path class="cls-1" d="M76.39,59.18h-42.24v-8.73h42.24v8.73ZM34.62,58.71h41.29v-7.78h-41.29v7.78Z"/>
      <path class="cls-1" d="M22.87,39.66c-6.76,0-12.26-1.85-16.36-5.51C2.31,30.45,0,25.34,0,19.74S2.37,9.09,6.51,5.46C10.52,1.94,16.04,0,22.07,0c3.16,0,6.33.67,9.98,2.1l.15.06v8.77l-.33-.14c-2.56-1.06-4.89-1.71-7.14-2.01-.8-.14-1.61-.22-2.42-.22-3.48,0-6.66,1.04-8.72,2.86-2.42,2.14-3.82,5.24-3.82,8.48,0,4.35,2.2,6.93,3.51,8.09,1.18,1.07,4.61,3.09,9.22,3.09.7,0,1.38-.05,2.05-.16h0c2.3-.29,4.69-.95,7.32-2.03l.33-.14v8.79l-.14.06c-3.92,1.81-6.97,2.05-9.19,2.05ZM22.07.48c-5.91,0-11.32,1.9-15.24,5.34C2.79,9.36.48,14.44.48,19.74s2.26,10.44,6.35,14.04c4.01,3.58,9.41,5.39,16.04,5.39,2.14,0,5.08-.22,8.85-1.94v-7.77c-2.54,1.02-4.86,1.65-7.11,1.93-.69.11-1.4.16-2.12.16-4.75,0-8.31-2.1-9.53-3.21-1.37-1.2-3.66-3.9-3.66-8.44,0-3.38,1.45-6.6,3.98-8.84,2.15-1.9,5.44-2.98,9.04-2.98.84,0,1.68.07,2.49.22,2.18.29,4.44.91,6.91,1.91V2.48c-3.53-1.37-6.6-2.01-9.66-2.01Z"/>
      <path class="cls-1" d="M56.74,39.66c-7.43,0-11.99-3.5-14.06-5.58-3.57-3.53-5.62-8.67-5.62-14.11s2.18-10.83,5.57-14.39C44.61,3.5,49.07,0,56.74,0,62.4,0,67.1,1.86,70.69,5.52h0c3.63,3.69,5.62,8.79,5.62,14.33s-2,10.51-5.62,14.22c-3.64,3.7-8.33,5.58-13.95,5.58ZM56.74.48c-7.11,0-11.41,2.96-13.77,5.43-3.3,3.48-5.44,8.99-5.44,14.06,0,5.31,2,10.33,5.48,13.77,2.01,2.03,6.47,5.44,13.72,5.44,5.49,0,10.07-1.83,13.61-5.44,3.54-3.62,5.49-8.55,5.49-13.89s-1.95-10.39-5.49-14h0c-3.5-3.57-8.08-5.38-13.61-5.38ZM56.63,31.67c-3.18,0-5.66-1-7.81-3.16-2.24-2.3-3.33-5.11-3.33-8.6,0-4.68,2.02-7.43,3.22-8.65,2.01-2.11,4.84-3.28,7.97-3.28s6.01,1.22,8.02,3.28c2.01,2.12,3.17,5.25,3.17,8.6,0,4.41-1.72,7.08-3.17,8.54-2.04,2.14-4.83,3.27-8.07,3.27ZM56.68,8.46c-3,0-5.71,1.11-7.63,3.13h0c-1.15,1.17-3.08,3.81-3.08,8.32,0,3.36,1.04,6.06,3.19,8.27,2.05,2.06,4.43,3.02,7.47,3.02s5.79-1.08,7.73-3.13c1.39-1.4,3.03-3.96,3.03-8.21,0-4.58-2.12-7.31-3.03-8.27-1.92-1.96-4.79-3.13-7.68-3.13Z"/>
      <path class="cls-1" d="M112.34,38.81h-11.17l-9.76-14.25v14.25h-9.13V.84h13.39c5.1,0,8.1,1.81,9.72,3.32,1.25,1.2,3.34,3.91,3.34,8.55,0,3.29-.98,5.85-2.99,7.82-1.37,1.31-3.17,2.33-4.99,2.84l11.6,15.44ZM101.42,38.34h9.97l-11.45-15.25.35-.09c1.86-.45,3.73-1.48,5.12-2.81,1.92-1.87,2.85-4.32,2.85-7.47,0-4.46-2-7.06-3.19-8.21-2.82-2.64-6.66-3.19-9.39-3.19h-12.92v37.02h8.18v-15.32l10.48,15.32ZM93.15,18.35h-2.2V7.59h2.26c2.16,0,3.86.42,4.92,1.23,1.2.93,1.84,2.31,1.84,4.01,0,2.04-.92,3.27-1.48,3.82-1.51,1.51-3.65,1.7-5.34,1.7ZM91.42,17.88h1.73c1.6,0,3.62-.18,5-1.56.5-.5,1.34-1.61,1.34-3.49,0-1.57-.56-2.79-1.65-3.63-.97-.74-2.58-1.13-4.63-1.13h-1.79v9.81Z"/>
      <path class="cls-1" d="M126.59,38.81h-9.13V.84h23.61v7.78h-14.48v6.78h12.65v7.78h-12.65v15.63ZM117.93,38.34h8.18v-15.63h12.65v-6.83h-12.65v-7.73h14.48V1.32h-22.66v37.02Z"/>
      <path class="cls-1" d="M163.94,39.66c-7.43,0-11.99-3.5-14.06-5.58-3.57-3.53-5.62-8.67-5.62-14.11s2.19-10.83,5.57-14.39C151.81,3.5,156.28,0,163.94,0c5.67,0,10.36,1.86,13.95,5.52h0c3.63,3.69,5.62,8.79,5.62,14.33s-2,10.51-5.62,14.22c-3.64,3.7-8.33,5.58-13.95,5.58ZM163.94.48c-7.11,0-11.41,2.96-13.77,5.43-3.3,3.48-5.44,9-5.44,14.06,0,5.31,2,10.33,5.48,13.77,2.01,2.03,6.47,5.44,13.72,5.44,5.49,0,10.07-1.83,13.61-5.44,3.54-3.62,5.49-8.55,5.49-13.89s-1.95-10.39-5.49-14h0c-3.5-3.57-8.08-5.38-13.61-5.38ZM163.84,31.67c-3.18,0-5.66-1-7.81-3.16-2.24-2.3-3.33-5.11-3.33-8.6,0-4.68,2.02-7.43,3.22-8.65,2.01-2.11,4.84-3.28,7.97-3.28s6.01,1.22,8.02,3.28c2.01,2.12,3.17,5.25,3.17,8.6,0,4.41-1.72,7.08-3.17,8.54-2.04,2.14-4.83,3.27-8.07,3.27ZM163.89,8.46c-3,0-5.71,1.11-7.63,3.13h0c-1.15,1.17-3.08,3.81-3.08,8.32,0,3.36,1.04,6.06,3.19,8.27,2.05,2.06,4.43,3.02,7.47,3.02s5.79-1.08,7.73-3.13c1.39-1.4,3.03-3.96,3.03-8.21,0-4.58-2.12-7.31-3.03-8.27-1.92-1.96-4.79-3.13-7.68-3.13Z"/>
    </g>
  </g>
</svg>