<?xml version="1.0" encoding="utf-8"?>
<!-- Generator: Adobe Illustrator 28.3.0, SVG Export Plug-In . SVG Version: 6.00 Build 0)  -->
<svg version="1.1" id="Capa_2" xmlns="http://www.w3.org/2000/svg" xmlns:xlink="http://www.w3.org/1999/xlink" x="0px" y="0px"
	 viewBox="0 0 120 24.5" style="enable-background:new 0 0 120 24.5;" xml:space="preserve">
<style type="text/css">
	.st0{fill:#FFFFFF;}
</style>
<g>
	<g>
		<rect x="4.7" y="1" class="st0" width="2.2" height="11.1"/>
		<polygon class="st0" points="14.7,12.1 11.2,3.3 11.2,3.3 11.3,12.1 9.4,12.1 9.4,1 12.7,1 16.2,9.9 16.3,9.9 16.1,1 18.1,1 
			18.1,12.1 		"/>
		<path class="st0" d="M24.5,12.2c-1.6,0-2.9-0.3-4-0.6V1h3.7c3.2,0,5.3,1.3,5.3,5.5C29.5,10,27.9,12.2,24.5,12.2 M24.1,2.7h-1.5
			v7.5c0.4,0.1,1.1,0.2,1.9,0.2c1.5,0,2.6-0.8,2.6-4C27.2,3.7,26.4,2.7,24.1,2.7"/>
		<path class="st0" d="M32.3,12.1h-2.1l3-11.1h3.6l2.9,11.1h-2.4l-0.6-2.5h-3.8L32.3,12.1z M34.6,2.8l-1.2,5h3l-1.1-5H34.6z"/>
		<path class="st0" d="M44.4,8.2h-1.2v3.9H41V1h3.4c2.3,0,4.2,1.1,4.2,3.5C48.6,6.6,47,8.2,44.4,8.2 M44.3,2.8h-1.2v3.7h1.2
			c1.3,0,2-0.8,2-2C46.3,3.4,45.6,2.8,44.3,2.8"/>
		<rect x="4.7" y="14.5" class="st0" width="17.5" height="2.6"/>
		<rect x="23.2" y="14.5" class="st0" width="25.5" height="2.6"/>
		<path class="st0" d="M47.7,21.1c-0.1,0.1-0.2,0.1-0.4,0.1c-0.2,0-0.3-0.1-0.3-0.3c0-0.1,0.1-0.3,0.3-0.3h0.3V21.1z M48.3,21.5
			v-1.3c0-0.5-0.2-0.8-0.8-0.8c-0.3,0-0.6,0.1-0.8,0.2l0.1,0.4c0.2-0.1,0.4-0.1,0.6-0.1c0.2,0,0.3,0.1,0.3,0.3v0.1h-0.4
			c-0.5,0-0.7,0.2-0.7,0.6c0,0.4,0.3,0.6,0.7,0.6c0.3,0,0.5-0.1,0.6-0.3l0.1,0.2H48.3z M46.4,19.5c0,0-0.1,0-0.2,0
			c-0.2,0-0.4,0.2-0.5,0.3h0l-0.1-0.3h-0.4v2h0.5v-1.4C45.9,20,46,20,46.1,20c0.1,0,0.2,0,0.2,0L46.4,19.5z M44.8,21.5v-2h-0.5V21
			c-0.1,0.1-0.2,0.1-0.4,0.1c-0.2,0-0.3-0.1-0.3-0.4v-1.2h-0.5v1.2c0,0.5,0.2,0.8,0.7,0.8c0.3,0,0.5-0.2,0.6-0.3l0.1,0.2H44.8z
			 M42.8,21.4L42.7,21c-0.1,0-0.2,0.1-0.3,0.1c-0.1,0-0.2-0.1-0.2-0.2v-1h0.5v-0.4h-0.5V19l-0.5,0.2v0.3h-0.3v0.4h0.3v1
			c0,0.5,0.2,0.7,0.6,0.7C42.4,21.6,42.6,21.5,42.8,21.4 M40.9,21.6c0.1,0,0.3,0,0.3,0v-0.4c-0.2,0-0.3,0-0.3-0.2v-2.2h-0.5V21
			C40.3,21.4,40.4,21.6,40.9,21.6 M39.9,21.5v-2h-0.5V21c-0.1,0.1-0.2,0.1-0.4,0.1c-0.2,0-0.3-0.1-0.3-0.4v-1.2h-0.5v1.2
			c0,0.5,0.2,0.8,0.7,0.8c0.3,0,0.5-0.2,0.6-0.3l0.1,0.2H39.9z M37.7,21c-0.1,0.1-0.3,0.1-0.5,0.1c-0.3,0-0.5-0.2-0.5-0.6
			c0-0.4,0.2-0.6,0.4-0.6c0.2,0,0.4,0,0.5,0.1l0.1-0.4c-0.2-0.1-0.4-0.2-0.7-0.2c-0.6,0-0.9,0.4-0.9,1c0,0.7,0.4,1,0.9,1
			c0.3,0,0.6-0.1,0.7-0.2L37.7,21z M35.2,19.2h0.5v-0.5h-0.5V19.2z M35.7,21.5v-2H35v0.3l0.2,0v1.6H35.7z M34.7,19.5
			c0,0-0.1,0-0.2,0c-0.2,0-0.4,0.2-0.5,0.3h0l-0.1-0.3h-0.4v2h0.5v-1.4c0.1-0.1,0.2-0.1,0.4-0.1c0.1,0,0.2,0,0.2,0L34.7,19.5z
			 M32.2,20.5c-0.2,0-0.4-0.1-0.4-0.3c0-0.2,0.2-0.3,0.4-0.3c0.2,0,0.4,0.1,0.4,0.3C32.6,20.4,32.4,20.5,32.2,20.5 M32.6,21.7
			c0,0.2-0.2,0.3-0.4,0.3c-0.2,0-0.4-0.1-0.4-0.3c0-0.2,0.1-0.3,0.3-0.3C32.5,21.4,32.6,21.5,32.6,21.7 M32.2,19.5
			c-0.3,0-0.8,0.1-0.8,0.7c0,0.3,0.2,0.4,0.4,0.6c-0.2,0-0.4,0.1-0.4,0.3c0,0.2,0.2,0.3,0.5,0.3c-0.3,0-0.5,0.2-0.5,0.4
			c0,0.4,0.4,0.5,0.8,0.5c0.5,0,0.9-0.3,0.9-0.7c0-0.7-1.3-0.5-1.3-0.7c0-0.1,0-0.1,0.1-0.1c0.1,0,0.2,0,0.3,0
			c0.3,0,0.8-0.2,0.8-0.7c0-0.1-0.1-0.2-0.2-0.3c0.1,0,0.3,0.1,0.4,0.1l0-0.4C32.9,19.5,32.5,19.5,32.2,19.5 M30,19.3l0.3,1.2h-0.7
			l0.3-1.2H30z M29.5,20.9h0.9l0.1,0.6h0.6l-0.7-2.7h-0.9l-0.7,2.7h0.5L29.5,20.9z M27.2,20.4h-0.7c0-0.2,0.1-0.5,0.4-0.5
			C27.1,19.9,27.2,20.1,27.2,20.4 M27.7,20.7v-0.2c0-0.5-0.2-0.9-0.8-0.9c-0.6,0-0.9,0.4-0.9,1c0,0.7,0.4,1,1,1
			c0.3,0,0.6-0.1,0.7-0.2L27.6,21c-0.2,0.1-0.4,0.2-0.6,0.2c-0.3,0-0.5-0.2-0.5-0.5H27.7z M25,21c-0.1,0.1-0.2,0.2-0.4,0.2
			c-0.3,0-0.4-0.2-0.4-0.7c0-0.5,0.2-0.6,0.4-0.6c0.2,0,0.3,0,0.4,0.1V21z M24.6,19.5c-0.5,0-0.9,0.4-0.9,1c0,0.7,0.4,1,0.8,1
			c0.3,0,0.4-0.1,0.5-0.3l0.1,0.2h0.4v-2.8H25v0.6c0,0.1,0,0.3,0,0.4C25,19.6,24.8,19.5,24.6,19.5 M21.6,21.2
			c-0.3,0-0.4-0.2-0.4-0.6c0-0.5,0.1-0.6,0.4-0.6c0.2,0,0.4,0.2,0.4,0.6C22,21,21.8,21.2,21.6,21.2 M21.6,19.5c-0.6,0-0.9,0.4-0.9,1
			c0,0.7,0.3,1,0.9,1c0.6,0,0.9-0.4,0.9-1C22.5,20,22.2,19.5,21.6,19.5 M19.7,19.2h0.5v-0.5h-0.5V19.2z M20.2,21.5v-2h-0.8v0.3
			l0.2,0v1.6H20.2z M19.2,19.5c0,0-0.1,0-0.2,0c-0.2,0-0.4,0.2-0.5,0.3h0l-0.1-0.3h-0.4v2h0.5v-1.4C18.7,20,18.8,20,19,20
			c0.1,0,0.2,0,0.2,0L19.2,19.5z M17.2,20.4h-0.7c0-0.2,0.1-0.5,0.4-0.5C17.1,19.9,17.2,20.1,17.2,20.4 M17.7,20.7v-0.2
			c0-0.5-0.2-0.9-0.8-0.9c-0.6,0-0.9,0.4-0.9,1c0,0.7,0.4,1,1,1c0.3,0,0.6-0.1,0.7-0.2L17.6,21c-0.2,0.1-0.4,0.2-0.6,0.2
			c-0.3,0-0.5-0.2-0.5-0.5H17.7z M15.8,21.4L15.7,21c-0.1,0-0.2,0.1-0.3,0.1c-0.1,0-0.2-0.1-0.2-0.2v-1h0.5v-0.4h-0.5V19l-0.5,0.2
			v0.3h-0.3v0.4h0.3v1c0,0.5,0.2,0.7,0.6,0.7C15.5,21.6,15.7,21.5,15.8,21.4 M13.5,19.9c0.2,0,0.3,0,0.5,0.1l0.1-0.4
			c-0.1-0.1-0.4-0.1-0.6-0.1c-0.5,0-0.8,0.3-0.8,0.6c0,0.7,0.8,0.6,0.8,0.9c0,0.1-0.1,0.2-0.3,0.2c-0.2,0-0.4-0.1-0.5-0.1l-0.1,0.4
			c0.1,0.1,0.4,0.1,0.6,0.1c0.5,0,0.8-0.3,0.8-0.6c0-0.6-0.9-0.6-0.9-0.9C13.2,20,13.3,19.9,13.5,19.9 M11.8,19.2h0.5v-0.5h-0.5
			V19.2z M12.3,21.5v-2h-0.8v0.3l0.2,0v1.6H12.3z M11.2,21.5v-1.2c0-0.5-0.2-0.8-0.7-0.8c-0.3,0-0.5,0.1-0.6,0.3l-0.1-0.2H9.4v2h0.5
			V20c0.1-0.1,0.2-0.1,0.3-0.1c0.2,0,0.4,0.1,0.4,0.4v1.2H11.2z M8.4,19.2h0.5v-0.5H8.4V19.2z M8.9,21.5v-2H8.2v0.3l0.2,0v1.6H8.9z
			 M7.8,21.5l-0.1-2.7H6.8c0,0-0.4,1.4-0.5,2.3h0c-0.2-0.9-0.5-2.3-0.5-2.3H4.9l-0.1,2.7h0.5l0-2.3h0c0.1,0.3,0.1,0.5,0.1,0.7
			l0.4,1.6h0.8L7,19.9c0-0.2,0.1-0.4,0.1-0.7h0l0.1,2.3H7.8z"/>
	</g>
	<g>
		<path class="st0" d="M58.6,3.9h-2.2V2.4h6.3v1.5h-2.2v5.8h-1.8V3.9z"/>
		<path class="st0" d="M63,4.4h1.7v0.9c0,0.2,0,0.3,0,0.3h0c0.2-0.7,0.9-1.3,1.7-1.3c0.1,0,0.2,0,0.2,0v1.7c0,0-0.1,0-0.4,0
			c-0.4,0-1.1,0.1-1.4,0.9c-0.1,0.2-0.1,0.4-0.1,0.7v2H63V4.4z"/>
		<path class="st0" d="M70.1,6.4L70.1,6.4L70.1,6.4c0.1-0.5-0.3-0.7-0.7-0.7c-0.7,0-1.4,0.5-1.4,0.5L67.4,5c0,0,0.9-0.7,2.2-0.7
			c1.5,0,2.4,0.8,2.4,2.2v3.3h-1.6V9.4c0-0.2,0-0.3,0-0.3h0c0,0-0.4,0.8-1.5,0.8c-1,0-1.8-0.7-1.8-1.7C67.1,6.6,69.3,6.4,70.1,6.4z
			 M69.4,8.5c0.5,0,0.9-0.5,0.9-0.9V7.4h-0.2c-0.6,0-1.2,0.2-1.2,0.6C68.9,8.3,69,8.5,69.4,8.5z"/>
		<path class="st0" d="M73.2,4.4h1.7v0.5c0,0.2,0,0.3,0,0.3h0c0.2-0.4,0.7-0.9,1.7-0.9c1.1,0,1.9,0.5,1.9,2v3.4h-1.8V6.6
			c0-0.5-0.2-0.7-0.6-0.7c-0.6,0-0.9,0.3-1,0.8C75,6.9,75,7.1,75,7.4v2.3h-1.8V4.4z"/>
		<path class="st0" d="M80.1,7.9c0,0,0.6,0.5,1.3,0.5c0.3,0,0.5-0.1,0.5-0.2c0-0.5-2.5-0.5-2.5-2.2c0-1,1-1.6,2.2-1.6
			c1.2,0,1.9,0.6,1.9,0.6l-0.6,1.3c0,0-0.5-0.4-1.3-0.4c-0.3,0-0.5,0.1-0.5,0.3c0,0.4,2.5,0.5,2.5,2.2c0,0.9-0.8,1.7-2.2,1.7
			c-1.3,0-2.1-0.8-2.1-0.8L80.1,7.9z"/>
		<path class="st0" d="M84.9,5.9h-0.6V4.5h0.6V4.3c0-1.7,1.6-2,2.4-2c0.3,0,0.5,0,0.5,0v1.5c0,0-0.1,0-0.3,0c-0.3,0-0.9,0.1-0.9,0.5
			v0.2h1v1.4h-1v3.8h-1.8V5.9z"/>
		<path class="st0" d="M91.1,4.3c1.7,0,3,1.1,3,2.8c0,1.7-1.3,2.8-3,2.8c-1.7,0-3-1.1-3-2.8C88.1,5.4,89.5,4.3,91.1,4.3z M91.1,8.4
			c0.6,0,1.2-0.5,1.2-1.3c0-0.8-0.6-1.3-1.2-1.3c-0.6,0-1.2,0.5-1.2,1.3C89.9,7.9,90.5,8.4,91.1,8.4z"/>
		<path class="st0" d="M95,4.4h1.7v0.9c0,0.2,0,0.3,0,0.3h0c0.2-0.7,0.9-1.3,1.7-1.3c0.1,0,0.2,0,0.2,0v1.7c0,0-0.1,0-0.4,0
			c-0.4,0-1.1,0.1-1.4,0.9c-0.1,0.2-0.1,0.4-0.1,0.7v2H95V4.4z"/>
		<path class="st0" d="M99.5,4.4h1.7v0.5c0,0.2,0,0.3,0,0.3h0c0.2-0.4,0.7-0.9,1.6-0.9c0.7,0,1.2,0.3,1.5,0.9h0
			c0.3-0.4,0.9-0.9,1.7-0.9c1,0,1.7,0.5,1.7,2v3.4h-1.8V6.6c0-0.4-0.1-0.7-0.4-0.7c-0.6,0-0.9,0.4-1,1c0,0.2,0,0.4,0,0.6v2.2h-1.8
			V6.6c0-0.4-0.1-0.7-0.4-0.7c-0.6,0-0.8,0.4-1,1c0,0.2-0.1,0.4-0.1,0.7v2.2h-1.8V4.4z"/>
		<path class="st0" d="M111.6,6.4L111.6,6.4L111.6,6.4c0.1-0.5-0.3-0.7-0.7-0.7c-0.7,0-1.4,0.5-1.4,0.5L108.8,5c0,0,0.9-0.7,2.2-0.7
			c1.5,0,2.4,0.8,2.4,2.2v3.3h-1.6V9.4c0-0.2,0-0.3,0-0.3h0c0,0-0.4,0.8-1.5,0.8c-1,0-1.8-0.7-1.8-1.7
			C108.5,6.6,110.7,6.4,111.6,6.4z M110.8,8.5c0.5,0,0.9-0.5,0.9-0.9V7.4h-0.2c-0.6,0-1.2,0.2-1.2,0.6
			C110.3,8.3,110.4,8.5,110.8,8.5z"/>
	</g>
	<g>
		<path class="st0" d="M61,13.8c1.9,0,2.9,1.4,2.9,3.2c0,0.2,0,0.6,0,0.6H59c0.1,1.5,1.1,2.2,2.3,2.2c1.2,0,2-0.8,2-0.8l0.5,1
			c0,0-1,1-2.6,1c-2.1,0-3.6-1.5-3.6-3.6C57.7,15.2,59.1,13.8,61,13.8z M62.7,16.6c0-1.2-0.8-1.7-1.6-1.7c-1,0-1.8,0.6-2,1.7H62.7z"
			/>
		<path class="st0" d="M65.5,11.3h1.3v7.4c0,0.8,0.3,1,0.7,1c0.1,0,0.2,0,0.2,0v1.2c0,0-0.2,0-0.4,0c-0.7,0-1.8-0.2-1.8-1.9V11.3z"
			/>
		<path class="st0" d="M75.7,13.8c1.7,0,2.5,1,2.5,1l-0.6,0.9c0,0-0.7-0.8-1.9-0.8c-1.4,0-2.4,1-2.4,2.4c0,1.4,1,2.4,2.4,2.4
			c1.3,0,2.1-0.9,2.1-0.9l0.5,1c0,0-0.9,1.1-2.7,1.1c-2.1,0-3.6-1.5-3.6-3.6C72.1,15.4,73.6,13.8,75.7,13.8z"/>
		<path class="st0" d="M83.4,16.5h0.3v-0.1c0-1.1-0.6-1.5-1.5-1.5c-1,0-1.9,0.7-1.9,0.7l-0.5-1c0,0,1-0.8,2.5-0.8
			c1.7,0,2.7,0.9,2.7,2.7v4.3h-1.2v-0.6c0-0.3,0-0.5,0-0.5h0c0,0-0.5,1.3-2.2,1.3c-1.2,0-2.3-0.7-2.3-2.1
			C79.4,16.6,82.3,16.5,83.4,16.5z M81.9,19.9c1.1,0,1.8-1.2,1.8-2.2v-0.2h-0.3c-1,0-2.7,0.1-2.7,1.3C80.7,19.3,81.1,19.9,81.9,19.9
			z"/>
		<path class="st0" d="M87,14h1.3v0.9c0,0.3,0,0.5,0,0.5h0c0.3-0.8,1.3-1.6,2.3-1.6c1.1,0,1.8,0.5,2,1.5h0c0.4-0.8,1.3-1.5,2.4-1.5
			c1.5,0,2.2,0.9,2.2,2.6v4.3H96v-4.1c0-1-0.2-1.7-1.2-1.7c-1,0-1.7,0.8-1.9,1.7c-0.1,0.3-0.1,0.6-0.1,0.9v3.1h-1.3v-4.1
			c0-0.9-0.1-1.7-1.2-1.7c-1,0-1.7,0.8-1.9,1.8c-0.1,0.3-0.1,0.6-0.1,0.9v3.1H87V14z"/>
		<path class="st0" d="M99.2,14h1.2v0.6c0,0.3,0,0.5,0,0.5h0c0,0,0.6-1.2,2.3-1.2c1.8,0,3,1.4,3,3.6c0,2.2-1.3,3.6-3.1,3.6
			c-1.5,0-2.1-1.1-2.1-1.1h0c0,0,0,0.2,0,0.6v3h-1.3V14z M102.4,19.8c1.1,0,2-0.9,2-2.4c0-1.5-0.8-2.4-1.9-2.4c-1,0-2,0.7-2,2.4
			C100.5,18.6,101.2,19.8,102.4,19.8z"/>
		<path class="st0" d="M110.4,13.8c2,0,3.7,1.5,3.7,3.5c0,2.1-1.6,3.6-3.7,3.6s-3.7-1.5-3.7-3.6C106.8,15.3,108.4,13.8,110.4,13.8z
			 M110.4,19.8c1.3,0,2.3-1,2.3-2.4c0-1.4-1-2.4-2.3-2.4c-1.3,0-2.3,1-2.3,2.4C108.1,18.8,109.2,19.8,110.4,19.8z"/>
	</g>
	<rect x="52.1" y="1.1" class="st0" width="0.7" height="20.2"/>
</g>
</svg>
