<?xml version="1.0" encoding="utf-8"?>
<!-- Generator: Adobe Illustrator 28.2.0, SVG Export Plug-In . SVG Version: 6.00 Build 0)  -->
<svg version="1.1" id="Capa_1" xmlns="http://www.w3.org/2000/svg" xmlns:xlink="http://www.w3.org/1999/xlink" x="0px" y="0px"
	 viewBox="0 0 260 160" style="enable-background:new 0 0 260 160;" xml:space="preserve">
<style type="text/css">
	.st0{fill:#581945;}
	.st1{opacity:0.87;fill:#C7143B;enable-background:new    ;}
	.st2{fill:#C7143B;}
	.st3{opacity:0.87;fill:#FBBF07;enable-background:new    ;}
	.st4{fill:#FBBF07;}
	.st5{opacity:0.87;fill:#911443;enable-background:new    ;}
	.st6{fill:#911443;}
	.st7{opacity:0.87;fill:#581945;enable-background:new    ;}
	.st8{fill:#FFFFFF;}
</style>
<g>
	<g>
		<path class="st0" d="M59.2,96.31v44.33l13.79,12.48c0.79,0.71,2.06,0.71,2.85,0l13.05-11.81v-45H59.2z"/>
		<path class="st1" d="M50.18,53.61v64.08l13.79,18.04c0.79,1.03,2.06,1.03,2.85,0l13.05-17.07V53.61H50.18z"/>
		<path class="st2" d="M79.86,69.7V20.73L66.07,6.94c-0.79-0.79-2.06-0.79-2.85,0L50.18,19.98V69.7H79.86z"/>
		<path class="st3" d="M88.88,66.63V29.1L75.09,18.54c-0.79-0.6-2.06-0.6-2.85,0l-13.05,10v38.1h29.69V66.63z"/>
		<path class="st4" d="M79.86,96.31h37.16l10.46-13.79c0.6-0.79,0.6-2.06,0-2.85l-9.9-13.05H79.86V96.31z"/>
		<path class="st5" d="M59.2,104.83h40.46l11.39-13.79c0.65-0.79,0.65-2.06,0-2.85l-10.78-13.05H59.2V104.83z"/>
		<path class="st6" d="M79.86,66.63H21.73L5.37,80.42c-0.93,0.79-0.93,2.06,0,2.85l15.48,13.05h59.01V66.63z"/>
		<path class="st7" d="M79.86,58.58H30.07L16.05,72.37c-0.8,0.79-0.8,2.06,0,2.85l13.26,13.05h50.55V58.58z"/>
	</g>
	<g>
		<g>
			<path class="st8" d="M134.82,55.55c-0.16,0-0.31-0.04-0.46-0.12s-0.22-0.2-0.22-0.36V44.24c0-0.13,0.05-0.24,0.15-0.32
				c0.1-0.09,0.23-0.13,0.39-0.14h3.04c0.64,0,1.22,0.12,1.74,0.35s0.92,0.6,1.22,1.1s0.45,1.18,0.45,2.03v0.15
				c0,0.85-0.15,1.53-0.46,2.04c-0.31,0.51-0.72,0.88-1.25,1.11s-1.12,0.35-1.77,0.35h-2.17v4.17c0,0.16-0.07,0.28-0.21,0.36
				C135.15,55.51,134.99,55.55,134.82,55.55z M135.5,49.77h2.17c0.67,0,1.19-0.19,1.56-0.56c0.38-0.38,0.56-0.95,0.56-1.72V47.3
				c0-0.78-0.19-1.36-0.56-1.73c-0.38-0.37-0.9-0.56-1.56-0.56h-2.17V49.77z"/>
			<path class="st8" d="M146.82,55.55c-0.17,0-0.33-0.04-0.47-0.12c-0.14-0.08-0.21-0.2-0.21-0.36V45.03h-2.61
				c-0.14,0-0.25-0.06-0.34-0.19c-0.09-0.13-0.13-0.28-0.13-0.45c0-0.15,0.04-0.29,0.11-0.42c0.08-0.13,0.19-0.19,0.35-0.19h6.57
				c0.16,0,0.28,0.06,0.35,0.19c0.08,0.13,0.11,0.27,0.11,0.42c0,0.16-0.04,0.31-0.11,0.44c-0.08,0.13-0.19,0.2-0.35,0.2h-2.61
				v10.03c0,0.16-0.07,0.28-0.21,0.36C147.15,55.51,146.99,55.55,146.82,55.55z"/>
			<path class="st8" d="M153.89,55.55c-0.16,0-0.31-0.04-0.46-0.12s-0.22-0.2-0.22-0.36V44.24c0-0.16,0.07-0.28,0.22-0.35
				c0.15-0.08,0.3-0.11,0.46-0.11c0.17,0,0.33,0.04,0.47,0.11c0.14,0.08,0.21,0.19,0.21,0.35v10.82c0,0.16-0.07,0.28-0.21,0.36
				C154.22,55.51,154.06,55.55,153.89,55.55z"/>
		</g>
	</g>
	<g>
		<path class="st8" d="M134.91,75.57c-0.17,0-0.33-0.04-0.48-0.13c-0.15-0.08-0.23-0.21-0.23-0.38V63.73c0-0.17,0.08-0.29,0.23-0.37
			c0.15-0.08,0.31-0.12,0.48-0.12c0.18,0,0.34,0.04,0.49,0.12c0.15,0.08,0.22,0.2,0.22,0.37v11.34c0,0.17-0.07,0.3-0.22,0.38
			C135.25,75.53,135.09,75.57,134.91,75.57z"/>
		<path class="st8" d="M142.9,75.67c-0.69,0-1.3-0.12-1.85-0.36s-0.98-0.63-1.3-1.17s-0.48-1.25-0.48-2.14v-5.08
			c0-0.89,0.16-1.6,0.48-2.14c0.32-0.54,0.75-0.93,1.3-1.17c0.55-0.24,1.15-0.36,1.81-0.36c0.74,0,1.39,0.13,1.93,0.38
			c0.55,0.25,0.97,0.6,1.28,1.05s0.46,0.98,0.46,1.59c0,0.27-0.06,0.45-0.19,0.55c-0.12,0.1-0.3,0.14-0.52,0.14
			c-0.19,0-0.35-0.04-0.49-0.11c-0.13-0.07-0.21-0.2-0.22-0.38c-0.05-0.39-0.15-0.73-0.3-1.02c-0.16-0.29-0.39-0.51-0.71-0.67
			c-0.32-0.16-0.72-0.24-1.21-0.24c-0.7,0-1.24,0.19-1.63,0.58s-0.58,0.99-0.58,1.81v5.08c0,0.82,0.19,1.43,0.58,1.81
			c0.39,0.39,0.93,0.58,1.63,0.58c0.7,0,1.24-0.19,1.64-0.58c0.39-0.39,0.59-0.99,0.59-1.81v-1.72h-2.01
			c-0.16,0-0.28-0.06-0.36-0.19c-0.08-0.12-0.13-0.26-0.13-0.4c0-0.15,0.04-0.28,0.13-0.4c0.08-0.12,0.2-0.19,0.36-0.19h2.94
			c0.16,0,0.28,0.05,0.36,0.15s0.13,0.23,0.13,0.37v2.38c0,0.89-0.16,1.6-0.48,2.14c-0.32,0.54-0.76,0.93-1.31,1.17
			C144.21,75.55,143.59,75.67,142.9,75.67z"/>
		<path class="st8" d="M150.65,75.57c-0.16,0-0.3-0.04-0.44-0.13c-0.13-0.08-0.2-0.21-0.2-0.38V63.73c0-0.17,0.08-0.29,0.23-0.37
			c0.15-0.08,0.31-0.12,0.48-0.12c0.18,0,0.34,0.04,0.49,0.12c0.15,0.08,0.22,0.2,0.22,0.37v10.56h4.62c0.16,0,0.27,0.06,0.35,0.19
			c0.07,0.13,0.11,0.28,0.11,0.45c0,0.16-0.04,0.3-0.11,0.44s-0.19,0.2-0.35,0.2H150.65z"/>
		<path class="st8" d="M159.91,75.57c-0.16,0-0.3-0.04-0.44-0.13c-0.13-0.08-0.2-0.21-0.2-0.38V63.74c0-0.17,0.07-0.3,0.2-0.38
			c0.14-0.08,0.28-0.13,0.44-0.13h6.01c0.18,0,0.31,0.07,0.38,0.2c0.07,0.14,0.11,0.28,0.11,0.42c0,0.17-0.04,0.32-0.13,0.46
			c-0.08,0.13-0.21,0.2-0.36,0.2h-5.23v4.29h2.63c0.16,0,0.28,0.06,0.36,0.19c0.08,0.12,0.13,0.26,0.13,0.42
			c0,0.14-0.04,0.26-0.11,0.39c-0.07,0.12-0.2,0.19-0.38,0.19h-2.63v4.3h5.23c0.16,0,0.28,0.06,0.36,0.19
			c0.08,0.13,0.13,0.28,0.13,0.46c0,0.15-0.04,0.29-0.11,0.42c-0.07,0.14-0.2,0.2-0.38,0.2h-6.01V75.57z"/>
		<path class="st8" d="M172.24,75.71c-0.72,0-1.35-0.11-1.89-0.33s-0.96-0.48-1.25-0.78c-0.29-0.3-0.44-0.57-0.44-0.8
			c0-0.11,0.03-0.23,0.09-0.35c0.06-0.12,0.14-0.22,0.24-0.3s0.19-0.13,0.3-0.13c0.13,0,0.27,0.07,0.4,0.2
			c0.13,0.13,0.29,0.3,0.49,0.48c0.2,0.19,0.45,0.35,0.77,0.48c0.31,0.13,0.73,0.2,1.23,0.2c0.47,0,0.88-0.08,1.23-0.23
			c0.35-0.15,0.62-0.38,0.82-0.69c0.2-0.31,0.3-0.7,0.3-1.17c0-0.48-0.1-0.88-0.3-1.18s-0.47-0.56-0.8-0.76
			c-0.33-0.2-0.69-0.38-1.08-0.54s-0.78-0.32-1.18-0.48s-0.76-0.37-1.09-0.61s-0.59-0.55-0.79-0.94c-0.2-0.38-0.3-0.87-0.3-1.45
			c0-0.62,0.11-1.13,0.34-1.54c0.22-0.41,0.52-0.73,0.89-0.96s0.77-0.4,1.21-0.5c0.43-0.1,0.86-0.14,1.27-0.14
			c0.3,0,0.62,0.02,0.96,0.07c0.34,0.05,0.66,0.11,0.96,0.2s0.55,0.21,0.74,0.35s0.29,0.31,0.29,0.5c0,0.09-0.02,0.19-0.07,0.31
			c-0.05,0.12-0.11,0.23-0.2,0.32c-0.09,0.1-0.2,0.14-0.34,0.14c-0.12,0-0.28-0.05-0.46-0.16c-0.18-0.11-0.42-0.21-0.72-0.32
			s-0.69-0.16-1.17-0.16c-0.4,0-0.78,0.06-1.14,0.17c-0.35,0.11-0.64,0.3-0.84,0.56c-0.21,0.26-0.31,0.6-0.31,1.03
			c0,0.4,0.1,0.74,0.3,1s0.47,0.47,0.79,0.64c0.33,0.17,0.69,0.32,1.08,0.46s0.79,0.3,1.18,0.49c0.39,0.19,0.76,0.41,1.09,0.68
			s0.6,0.62,0.8,1.05s0.3,0.98,0.3,1.63c0,0.81-0.16,1.48-0.48,2c-0.32,0.52-0.76,0.91-1.31,1.16
			C173.6,75.58,172.96,75.71,172.24,75.71z"/>
		<path class="st8" d="M179.85,75.57c-0.17,0-0.33-0.04-0.48-0.13c-0.15-0.08-0.23-0.21-0.23-0.38V63.73c0-0.17,0.08-0.29,0.23-0.37
			c0.15-0.08,0.31-0.12,0.48-0.12c0.18,0,0.34,0.04,0.49,0.12c0.15,0.08,0.22,0.2,0.22,0.37v11.34c0,0.17-0.07,0.3-0.22,0.38
			C180.2,75.53,180.03,75.57,179.85,75.57z"/>
		<path class="st8" d="M184.27,75.57c-0.11,0-0.24-0.03-0.38-0.08s-0.25-0.12-0.34-0.21c-0.08-0.09-0.13-0.19-0.13-0.3
			c0-0.04,0.01-0.09,0.02-0.13l3.46-11.22c0.04-0.17,0.15-0.29,0.32-0.37c0.17-0.08,0.35-0.12,0.54-0.12c0.2,0,0.39,0.04,0.56,0.13
			c0.17,0.08,0.28,0.21,0.32,0.36l3.44,11.22c0.02,0.05,0.03,0.08,0.03,0.12c0,0.11-0.05,0.21-0.14,0.3
			c-0.1,0.09-0.21,0.16-0.35,0.22c-0.13,0.06-0.26,0.08-0.39,0.08c-0.12,0-0.23-0.03-0.32-0.08c-0.09-0.05-0.15-0.13-0.19-0.24
			l-0.76-2.51h-4.44l-0.73,2.51c-0.03,0.11-0.1,0.19-0.19,0.24C184.52,75.55,184.41,75.57,184.27,75.57z M185.88,71.57h3.78
			l-1.89-6.34L185.88,71.57z"/>
		<path class="st8" d="M197.89,75.71c-0.72,0-1.35-0.11-1.89-0.33s-0.96-0.48-1.25-0.78c-0.29-0.3-0.44-0.57-0.44-0.8
			c0-0.11,0.03-0.23,0.09-0.35c0.06-0.12,0.14-0.22,0.24-0.3s0.19-0.13,0.3-0.13c0.13,0,0.27,0.07,0.4,0.2
			c0.13,0.13,0.29,0.3,0.49,0.48c0.2,0.19,0.45,0.35,0.77,0.48c0.31,0.13,0.73,0.2,1.23,0.2c0.47,0,0.88-0.08,1.23-0.23
			c0.35-0.15,0.62-0.38,0.82-0.69c0.2-0.31,0.3-0.7,0.3-1.17c0-0.48-0.1-0.88-0.3-1.18s-0.47-0.56-0.8-0.76
			c-0.33-0.2-0.69-0.38-1.08-0.54s-0.78-0.32-1.18-0.48s-0.76-0.37-1.09-0.61s-0.59-0.55-0.79-0.94c-0.2-0.38-0.3-0.87-0.3-1.45
			c0-0.62,0.11-1.13,0.34-1.54c0.22-0.41,0.52-0.73,0.89-0.96s0.77-0.4,1.21-0.5c0.43-0.1,0.86-0.14,1.27-0.14
			c0.3,0,0.62,0.02,0.96,0.07c0.34,0.05,0.66,0.11,0.96,0.2s0.55,0.21,0.74,0.35s0.29,0.31,0.29,0.5c0,0.09-0.02,0.19-0.07,0.31
			c-0.05,0.12-0.11,0.23-0.2,0.32c-0.09,0.1-0.2,0.14-0.34,0.14c-0.12,0-0.28-0.05-0.46-0.16c-0.18-0.11-0.42-0.21-0.72-0.32
			s-0.69-0.16-1.17-0.16c-0.4,0-0.78,0.06-1.14,0.17c-0.35,0.11-0.64,0.3-0.84,0.56c-0.21,0.26-0.31,0.6-0.31,1.03
			c0,0.4,0.1,0.74,0.3,1s0.47,0.47,0.79,0.64c0.33,0.17,0.69,0.32,1.08,0.46s0.79,0.3,1.18,0.49c0.39,0.19,0.76,0.41,1.09,0.68
			s0.6,0.62,0.8,1.05s0.3,0.98,0.3,1.63c0,0.81-0.16,1.48-0.48,2c-0.32,0.52-0.76,0.91-1.31,1.16
			C199.24,75.58,198.61,75.71,197.89,75.71z"/>
		<path class="st8" d="M134.91,96.38c-0.17,0-0.33-0.04-0.48-0.13c-0.15-0.08-0.23-0.21-0.23-0.38V84.53c0-0.13,0.05-0.25,0.16-0.34
			s0.24-0.14,0.41-0.15h3.19c0.67,0,1.28,0.12,1.82,0.36c0.54,0.24,0.97,0.63,1.28,1.16c0.31,0.53,0.47,1.24,0.47,2.13v0.15
			c0,0.89-0.16,1.6-0.48,2.13s-0.76,0.92-1.31,1.16c-0.55,0.24-1.17,0.36-1.86,0.36h-2.28v4.37c0,0.17-0.07,0.3-0.22,0.38
			C135.25,96.34,135.09,96.38,134.91,96.38z M135.62,90.32h2.28c0.7,0,1.24-0.2,1.64-0.59c0.39-0.39,0.59-1,0.59-1.81v-0.2
			c0-0.82-0.2-1.43-0.59-1.81c-0.39-0.39-0.94-0.58-1.64-0.58h-2.28V90.32z"/>
		<path class="st8" d="M143.83,96.38c-0.11,0-0.24-0.03-0.38-0.08s-0.25-0.12-0.34-0.21c-0.08-0.09-0.13-0.19-0.13-0.3
			c0-0.05,0.01-0.09,0.02-0.14l3.46-11.22c0.04-0.17,0.15-0.29,0.32-0.37c0.17-0.08,0.35-0.12,0.54-0.12c0.2,0,0.39,0.04,0.56,0.13
			c0.17,0.08,0.28,0.21,0.32,0.36l3.44,11.22c0.02,0.05,0.03,0.08,0.03,0.12c0,0.11-0.05,0.21-0.14,0.3
			c-0.1,0.09-0.21,0.16-0.35,0.22c-0.13,0.06-0.26,0.08-0.39,0.08c-0.12,0-0.23-0.03-0.32-0.08s-0.15-0.13-0.19-0.24l-0.76-2.51
			h-4.44l-0.73,2.51c-0.03,0.11-0.1,0.19-0.19,0.24C144.08,96.35,143.97,96.38,143.83,96.38z M145.44,92.38h3.78l-1.89-6.34
			L145.44,92.38z"/>
		<path class="st8" d="M156.47,96.38c-0.18,0-0.34-0.04-0.49-0.13c-0.15-0.08-0.22-0.21-0.22-0.38V85.36h-2.73
			c-0.15,0-0.26-0.07-0.35-0.2c-0.09-0.13-0.13-0.29-0.13-0.47c0-0.16,0.04-0.3,0.12-0.44c0.08-0.13,0.2-0.2,0.37-0.2h6.88
			c0.17,0,0.29,0.07,0.37,0.2s0.12,0.28,0.12,0.44c0,0.17-0.04,0.32-0.12,0.46s-0.2,0.21-0.37,0.21h-2.73v10.51
			c0,0.17-0.07,0.3-0.22,0.38C156.81,96.34,156.65,96.38,156.47,96.38z"/>
		<path class="st8" d="M169.71,96.41c-0.13,0-0.26-0.06-0.36-0.17c-0.11-0.11-0.2-0.24-0.28-0.39l-2.53-4.94h-1.96v4.96
			c0,0.17-0.07,0.3-0.22,0.38c-0.15,0.08-0.31,0.13-0.49,0.13c-0.17,0-0.33-0.04-0.48-0.13c-0.15-0.08-0.23-0.21-0.23-0.38V84.53
			c0-0.13,0.05-0.25,0.14-0.34c0.1-0.09,0.22-0.14,0.36-0.15h3.09c0.69,0,1.31,0.1,1.88,0.31s1.02,0.56,1.36,1.05
			c0.34,0.49,0.51,1.16,0.51,2.02c0,0.69-0.11,1.25-0.33,1.7s-0.52,0.8-0.9,1.05c-0.38,0.25-0.81,0.43-1.28,0.53l2.5,4.74
			c0.02,0.05,0.04,0.09,0.05,0.13c0.01,0.04,0.02,0.08,0.02,0.11c0,0.12-0.04,0.24-0.13,0.35c-0.08,0.11-0.19,0.2-0.32,0.27
			C169.98,96.38,169.85,96.41,169.71,96.41z M164.58,89.73h2.18c0.7,0,1.26-0.17,1.69-0.51c0.43-0.34,0.64-0.91,0.64-1.7
			c0-0.8-0.21-1.36-0.64-1.7c-0.43-0.33-0.99-0.5-1.69-0.5h-2.18V89.73z"/>
		<path class="st8" d="M174.34,96.38c-0.17,0-0.33-0.04-0.48-0.13c-0.15-0.08-0.23-0.21-0.23-0.38V84.53c0-0.17,0.08-0.29,0.23-0.37
			s0.31-0.12,0.48-0.12c0.18,0,0.34,0.04,0.49,0.12c0.15,0.08,0.22,0.2,0.22,0.37v11.34c0,0.17-0.07,0.3-0.22,0.38
			C174.68,96.34,174.52,96.38,174.34,96.38z"/>
		<path class="st8" d="M179.53,96.38c-0.17,0-0.33-0.04-0.48-0.13c-0.15-0.08-0.23-0.21-0.23-0.38V84.74c0-0.26,0.08-0.44,0.23-0.54
			s0.31-0.15,0.48-0.15c0.18,0,0.33,0.03,0.46,0.1s0.25,0.17,0.35,0.3c0.11,0.13,0.21,0.3,0.31,0.5l2.67,5.08l2.67-5.08
			c0.11-0.2,0.22-0.37,0.33-0.5s0.23-0.23,0.35-0.3c0.13-0.07,0.28-0.1,0.45-0.1c0.19,0,0.36,0.05,0.5,0.15s0.21,0.28,0.21,0.54
			v11.14c0,0.17-0.07,0.3-0.22,0.38c-0.15,0.08-0.31,0.13-0.49,0.13c-0.18,0-0.34-0.04-0.49-0.13c-0.15-0.08-0.22-0.21-0.22-0.38
			v-8.86l-2.56,4.79c-0.08,0.13-0.16,0.23-0.25,0.3c-0.09,0.06-0.19,0.09-0.29,0.09c-0.08,0-0.17-0.03-0.26-0.08
			c-0.1-0.06-0.18-0.16-0.26-0.3l-2.55-4.86v8.92c0,0.17-0.07,0.3-0.22,0.38C179.88,96.34,179.71,96.38,179.53,96.38z"/>
		<path class="st8" d="M195.12,96.48c-0.69,0-1.3-0.12-1.85-0.36s-0.98-0.63-1.3-1.16c-0.32-0.53-0.48-1.25-0.48-2.15v-5.08
			c0-0.9,0.16-1.62,0.48-2.15c0.32-0.53,0.75-0.92,1.3-1.16c0.55-0.24,1.16-0.36,1.85-0.36s1.3,0.12,1.86,0.36
			c0.55,0.24,0.99,0.63,1.31,1.16c0.32,0.53,0.48,1.25,0.48,2.15v5.08c0,0.9-0.16,1.62-0.48,2.15c-0.32,0.53-0.76,0.92-1.31,1.16
			C196.43,96.36,195.81,96.48,195.12,96.48z M195.12,95.2c0.7,0,1.24-0.19,1.64-0.58c0.39-0.39,0.59-0.99,0.59-1.81v-5.08
			c0-0.82-0.2-1.43-0.59-1.81c-0.39-0.39-0.94-0.58-1.64-0.58s-1.24,0.19-1.63,0.58s-0.58,0.99-0.58,1.81v5.08
			c0,0.82,0.19,1.43,0.58,1.81C193.88,95,194.42,95.2,195.12,95.2z"/>
		<path class="st8" d="M203.12,96.38c-0.17,0-0.33-0.04-0.48-0.13c-0.15-0.08-0.23-0.21-0.23-0.38V84.53c0-0.18,0.08-0.31,0.23-0.38
			s0.31-0.11,0.48-0.11c0.18,0,0.33,0.03,0.46,0.1c0.12,0.07,0.24,0.17,0.34,0.3c0.1,0.13,0.2,0.3,0.3,0.5l4.18,8.22v-8.62
			c0-0.17,0.08-0.29,0.23-0.37s0.31-0.12,0.48-0.12c0.18,0,0.34,0.04,0.49,0.12c0.15,0.08,0.22,0.2,0.22,0.37v11.34
			c0,0.17-0.07,0.3-0.22,0.38c-0.15,0.08-0.31,0.13-0.49,0.13c-0.18,0-0.35-0.06-0.5-0.19c-0.15-0.12-0.28-0.28-0.38-0.46l-4.4-8.49
			v8.62c0,0.17-0.07,0.3-0.22,0.38C203.46,96.34,203.3,96.38,203.12,96.38z"/>
		<path class="st8" d="M214.3,96.38c-0.17,0-0.33-0.04-0.48-0.13c-0.15-0.08-0.23-0.21-0.23-0.38V84.53c0-0.17,0.08-0.29,0.23-0.37
			s0.31-0.12,0.48-0.12c0.18,0,0.34,0.04,0.49,0.12c0.15,0.08,0.22,0.2,0.22,0.37v11.34c0,0.17-0.07,0.3-0.22,0.38
			C214.65,96.34,214.48,96.38,214.3,96.38z"/>
		<path class="st8" d="M218.72,96.38c-0.11,0-0.24-0.03-0.38-0.08s-0.25-0.12-0.34-0.21c-0.08-0.09-0.13-0.19-0.13-0.3
			c0-0.05,0.01-0.09,0.02-0.14l3.46-11.22c0.04-0.17,0.15-0.29,0.32-0.37c0.17-0.08,0.35-0.12,0.54-0.12c0.2,0,0.39,0.04,0.56,0.13
			c0.17,0.08,0.28,0.21,0.32,0.36l3.44,11.22c0.02,0.05,0.03,0.08,0.03,0.12c0,0.11-0.05,0.21-0.14,0.3
			c-0.1,0.09-0.21,0.16-0.35,0.22c-0.13,0.06-0.26,0.08-0.39,0.08c-0.12,0-0.23-0.03-0.32-0.08c-0.09-0.05-0.15-0.13-0.19-0.24
			l-0.76-2.51h-4.44l-0.73,2.51c-0.03,0.11-0.1,0.19-0.19,0.24C218.97,96.35,218.86,96.38,218.72,96.38z M220.33,92.38h3.78
			l-1.89-6.34L220.33,92.38z"/>
		<path class="st8" d="M230.04,96.38c-0.16,0-0.3-0.04-0.44-0.13c-0.13-0.08-0.2-0.21-0.2-0.38V84.53c0-0.17,0.08-0.29,0.23-0.37
			s0.31-0.12,0.48-0.12c0.18,0,0.34,0.04,0.49,0.12c0.15,0.08,0.22,0.2,0.22,0.37V95.1h4.62c0.16,0,0.27,0.06,0.35,0.19
			c0.07,0.13,0.11,0.28,0.11,0.45c0,0.16-0.04,0.3-0.11,0.44c-0.07,0.13-0.19,0.2-0.35,0.2H230.04z"/>
		<path class="st8" d="M239.31,96.38c-0.16,0-0.3-0.04-0.44-0.13c-0.13-0.08-0.2-0.21-0.2-0.38V84.55c0-0.17,0.07-0.3,0.2-0.38
			c0.14-0.08,0.28-0.13,0.44-0.13h6.01c0.18,0,0.31,0.07,0.38,0.2s0.11,0.28,0.11,0.42c0,0.17-0.04,0.32-0.13,0.46
			c-0.08,0.13-0.21,0.2-0.36,0.2h-5.23v4.29h2.63c0.16,0,0.28,0.06,0.36,0.19c0.08,0.12,0.13,0.26,0.13,0.42
			c0,0.13-0.04,0.26-0.11,0.39c-0.07,0.12-0.2,0.19-0.38,0.19h-2.63v4.3h5.23c0.16,0,0.28,0.06,0.36,0.19
			c0.08,0.13,0.13,0.28,0.13,0.46c0,0.15-0.04,0.29-0.11,0.42s-0.2,0.2-0.38,0.2L239.31,96.38L239.31,96.38z"/>
		<path class="st8" d="M251.64,96.51c-0.72,0-1.35-0.11-1.89-0.33s-0.96-0.48-1.25-0.78c-0.29-0.3-0.44-0.57-0.44-0.8
			c0-0.11,0.03-0.23,0.09-0.35c0.06-0.12,0.14-0.22,0.24-0.3s0.19-0.13,0.3-0.13c0.13,0,0.27,0.07,0.4,0.2
			c0.13,0.14,0.29,0.3,0.49,0.48c0.2,0.19,0.45,0.35,0.77,0.48c0.31,0.14,0.73,0.2,1.23,0.2c0.47,0,0.88-0.08,1.23-0.23
			c0.35-0.15,0.62-0.38,0.82-0.69c0.2-0.31,0.3-0.7,0.3-1.17c0-0.48-0.1-0.88-0.3-1.18s-0.47-0.56-0.8-0.76
			c-0.33-0.2-0.69-0.38-1.08-0.54s-0.78-0.32-1.18-0.48s-0.76-0.37-1.09-0.61s-0.59-0.55-0.79-0.94c-0.2-0.38-0.3-0.87-0.3-1.45
			c0-0.62,0.11-1.13,0.34-1.54c0.22-0.41,0.52-0.73,0.89-0.96c0.37-0.24,0.77-0.4,1.21-0.5c0.43-0.1,0.86-0.14,1.27-0.14
			c0.3,0,0.62,0.02,0.96,0.07c0.34,0.05,0.66,0.11,0.96,0.2s0.55,0.21,0.74,0.35s0.29,0.31,0.29,0.5c0,0.09-0.02,0.19-0.07,0.31
			c-0.05,0.12-0.11,0.23-0.2,0.32c-0.09,0.1-0.2,0.14-0.34,0.14c-0.12,0-0.28-0.05-0.46-0.16c-0.18-0.11-0.42-0.21-0.72-0.32
			s-0.69-0.16-1.17-0.16c-0.4,0-0.78,0.06-1.14,0.17c-0.35,0.11-0.64,0.3-0.84,0.56c-0.21,0.26-0.31,0.6-0.31,1.03
			c0,0.41,0.1,0.74,0.3,1s0.47,0.47,0.79,0.64s0.69,0.32,1.08,0.46s0.79,0.3,1.18,0.49c0.39,0.19,0.76,0.41,1.09,0.68
			s0.6,0.62,0.8,1.05s0.3,0.98,0.3,1.63c0,0.81-0.16,1.48-0.48,2c-0.32,0.52-0.76,0.91-1.31,1.16
			C252.99,96.39,252.36,96.51,251.64,96.51z"/>
		<path class="st8" d="M134.84,117.19c-0.19,0-0.35-0.05-0.46-0.14c-0.12-0.1-0.18-0.21-0.18-0.35v-11.35
			c0-0.13,0.06-0.25,0.18-0.35s0.27-0.14,0.46-0.14h2.99c0.69,0,1.3,0.12,1.86,0.36c0.55,0.24,0.99,0.63,1.31,1.16
			c0.32,0.53,0.48,1.25,0.48,2.15v4.98c0,0.9-0.16,1.62-0.48,2.15c-0.32,0.53-0.76,0.92-1.31,1.16c-0.55,0.24-1.17,0.36-1.86,0.36
			L134.84,117.19L134.84,117.19z M135.62,115.9h2.21c0.7,0,1.24-0.19,1.64-0.58c0.39-0.39,0.59-0.99,0.59-1.81v-4.98
			c0-0.82-0.2-1.43-0.59-1.81c-0.39-0.39-0.94-0.58-1.64-0.58h-2.21V115.9z"/>
		<path class="st8" d="M145.76,117.19c-0.16,0-0.3-0.04-0.44-0.13c-0.13-0.08-0.2-0.21-0.2-0.38v-11.32c0-0.17,0.07-0.3,0.2-0.38
			c0.14-0.08,0.28-0.13,0.44-0.13h6.01c0.18,0,0.31,0.07,0.38,0.2s0.11,0.28,0.11,0.42c0,0.17-0.04,0.32-0.13,0.46
			c-0.08,0.13-0.21,0.2-0.36,0.2h-5.23v4.29h2.63c0.16,0,0.28,0.06,0.36,0.19c0.08,0.12,0.13,0.26,0.13,0.42
			c0,0.13-0.04,0.26-0.11,0.39c-0.07,0.12-0.2,0.19-0.38,0.19h-2.63v4.3h5.23c0.16,0,0.28,0.06,0.36,0.19
			c0.08,0.13,0.13,0.28,0.13,0.46c0,0.15-0.04,0.29-0.11,0.42s-0.2,0.2-0.38,0.2L145.76,117.19L145.76,117.19z"/>
		<path class="st8" d="M163.39,117.29c-0.65,0-1.25-0.12-1.81-0.36c-0.55-0.24-0.99-0.63-1.32-1.17s-0.49-1.25-0.49-2.14v-5.08
			c0-0.89,0.17-1.6,0.5-2.14s0.77-0.93,1.32-1.17s1.15-0.36,1.81-0.36c0.76,0,1.42,0.13,1.96,0.39c0.54,0.26,0.96,0.61,1.25,1.05
			s0.44,0.94,0.44,1.49c0,0.32-0.06,0.52-0.18,0.62c-0.12,0.1-0.3,0.15-0.53,0.15s-0.4-0.04-0.51-0.13
			c-0.12-0.09-0.18-0.21-0.19-0.35c-0.01-0.17-0.04-0.36-0.09-0.58s-0.15-0.43-0.3-0.64c-0.15-0.21-0.37-0.38-0.66-0.51
			c-0.29-0.13-0.67-0.2-1.14-0.2c-0.72,0-1.27,0.19-1.66,0.58s-0.58,0.99-0.58,1.81v5.08c0,0.82,0.2,1.43,0.59,1.81
			c0.39,0.39,0.96,0.58,1.7,0.58c0.47,0,0.85-0.07,1.12-0.2c0.28-0.13,0.48-0.3,0.62-0.51c0.13-0.2,0.23-0.42,0.29-0.65
			s0.1-0.45,0.12-0.65c0.01-0.17,0.08-0.29,0.2-0.37s0.29-0.12,0.51-0.12c0.24,0,0.41,0.05,0.53,0.16s0.18,0.32,0.18,0.63
			c0,0.55-0.15,1.05-0.45,1.51s-0.72,0.82-1.27,1.08C164.79,117.15,164.14,117.29,163.39,117.29z"/>
		<path class="st8" d="M170.94,117.19c-0.17,0-0.33-0.04-0.48-0.13c-0.15-0.08-0.23-0.21-0.23-0.38v-11.34
			c0-0.17,0.08-0.29,0.23-0.37s0.31-0.12,0.48-0.12c0.18,0,0.34,0.04,0.49,0.12c0.15,0.08,0.22,0.2,0.22,0.37v4.86h4.57v-4.86
			c0-0.17,0.08-0.29,0.23-0.37s0.31-0.12,0.48-0.12c0.18,0,0.34,0.04,0.49,0.12c0.15,0.08,0.22,0.2,0.22,0.37v11.34
			c0,0.17-0.07,0.3-0.22,0.38c-0.15,0.08-0.31,0.13-0.49,0.13c-0.17,0-0.33-0.04-0.48-0.13c-0.15-0.08-0.23-0.21-0.23-0.38v-5.3
			h-4.57v5.3c0,0.17-0.07,0.3-0.22,0.38C171.29,117.14,171.12,117.19,170.94,117.19z"/>
		<path class="st8" d="M182.13,117.19c-0.17,0-0.33-0.04-0.48-0.13c-0.15-0.08-0.23-0.21-0.23-0.38v-11.34
			c0-0.17,0.08-0.29,0.23-0.37s0.31-0.12,0.48-0.12c0.18,0,0.34,0.04,0.49,0.12c0.15,0.08,0.22,0.2,0.22,0.37v11.34
			c0,0.17-0.07,0.3-0.22,0.38C182.47,117.14,182.31,117.19,182.13,117.19z"/>
		<path class="st8" d="M187.26,117.19c-0.16,0-0.3-0.04-0.44-0.13c-0.13-0.08-0.2-0.21-0.2-0.38v-11.34c0-0.17,0.08-0.29,0.23-0.37
			s0.31-0.12,0.48-0.12c0.18,0,0.34,0.04,0.49,0.12c0.15,0.08,0.22,0.2,0.22,0.37v10.56h4.62c0.16,0,0.27,0.06,0.35,0.19
			c0.07,0.13,0.11,0.28,0.11,0.45c0,0.16-0.04,0.3-0.11,0.44c-0.07,0.13-0.19,0.2-0.35,0.2L187.26,117.19L187.26,117.19z"/>
		<path class="st8" d="M199.09,117.29c-0.69,0-1.3-0.12-1.85-0.36s-0.98-0.63-1.3-1.16c-0.32-0.53-0.48-1.25-0.48-2.15v-5.08
			c0-0.9,0.16-1.62,0.48-2.15c0.32-0.53,0.75-0.92,1.3-1.16c0.55-0.24,1.16-0.36,1.85-0.36s1.3,0.12,1.86,0.36
			c0.55,0.24,0.99,0.63,1.31,1.16c0.32,0.53,0.48,1.25,0.48,2.15v5.08c0,0.9-0.16,1.62-0.48,2.15c-0.32,0.53-0.76,0.92-1.31,1.16
			C200.39,117.17,199.77,117.29,199.09,117.29z M199.09,116c0.7,0,1.24-0.19,1.64-0.58c0.39-0.39,0.59-0.99,0.59-1.81v-5.08
			c0-0.82-0.2-1.43-0.59-1.81c-0.39-0.39-0.94-0.58-1.64-0.58s-1.24,0.19-1.63,0.58s-0.58,0.99-0.58,1.81v5.08
			c0,0.82,0.19,1.43,0.58,1.81C197.85,115.81,198.39,116,199.09,116z"/>
		<path class="st8" d="M207.02,117.19c-0.16,0-0.3-0.04-0.44-0.13c-0.13-0.08-0.2-0.21-0.2-0.38v-11.32c0-0.17,0.07-0.3,0.2-0.38
			c0.14-0.08,0.28-0.13,0.44-0.13h6.01c0.18,0,0.31,0.07,0.38,0.2s0.11,0.28,0.11,0.42c0,0.17-0.04,0.32-0.13,0.46
			c-0.08,0.13-0.21,0.2-0.36,0.2h-5.23v4.29h2.63c0.16,0,0.28,0.06,0.36,0.19c0.08,0.12,0.13,0.26,0.13,0.42
			c0,0.13-0.04,0.26-0.11,0.39c-0.07,0.12-0.2,0.19-0.38,0.19h-2.63v4.3h5.23c0.16,0,0.28,0.06,0.36,0.19
			c0.08,0.13,0.13,0.28,0.13,0.46c0,0.15-0.04,0.29-0.11,0.42s-0.2,0.2-0.38,0.2L207.02,117.19L207.02,117.19z M209.23,103.1
			c-0.13,0-0.25-0.06-0.35-0.19c-0.1-0.12-0.15-0.25-0.15-0.39c0-0.18,0.07-0.3,0.22-0.37l1.97-1.05c0.07-0.02,0.12-0.03,0.17-0.03
			c0.15,0,0.26,0.06,0.35,0.18c0.08,0.12,0.13,0.25,0.13,0.4c0,0.18-0.08,0.31-0.24,0.4l-1.91,0.98c-0.03,0.01-0.06,0.03-0.09,0.04
			C209.29,103.09,209.26,103.1,209.23,103.1z"/>
	</g>
</g>
</svg>
