<svg enable-background="new 0 0 80 70" viewBox="0 0 80 70" xmlns="http://www.w3.org/2000/svg"><g fill="#fff"><path d="m33.3 69h-30.5v-66.7h30.6v66.7zm-29.7-.8h28.9v-65.1h-28.9z"/><path d="m19.2 12.1c.1 0 .2-.1.1-.3 0-.1-.2-.1-.1-.1.6-.1 1-1.1 1-1.4.3.3 1.1.4 1.6-.1.3-.3.5-1.2-.1-1.6-.3-.2-.8-.2-1.2 0-.1-.2-.3-.3-.5-.3 0-.1 0-.5-.2-.8-.3-.3-1.2-.4-1.5 0-.6-.2-1.5.1-1.4 1.1-.5-.2-.7-.2-.9-.2s-.5.2-.6.4c0 .1-.1.1-.1.2-.1.1-.1.3-.1.5 0 .4.2.7.5.8.4.2.8.2 1 .1.1 0 .3-.1.4-.2 0 0 .1-.1.1-.1 0 .1 0 .6.5.8v.1c.2.7.6.6.6.6-.2.1-.1.3-.1.4.3-.1.5-.1.6-.1-.1.1.1.2.4.2"/><path d="m20.7 14.2c0-.7.4-1.2.5-1.2 0-.1.1-.1.1-.1 0-.1-.1-.1-.1-.1-.1-.1-.4-.3-.4-.3h-.1c-.1.1-.2.2-.5.2h-.1c-.1 0-.4-.1-.4-.1-.1 0-.2-.1-.2-.1-.4-.2-.7-.2-.8-.2s-.4 0-.8.2h-.1l-.2.1c-.1 0-.2.1-.2.1h-.1c-.3 0-.4-.1-.5-.2h-.1s-.3.2-.4.3c0 0-.1 0-.1.1 0 0 0 .1.1.1 0 0 .5.5.5 1.2 0 .1 0 .5-.3 1.1 0 0-.4.7 0 1.3 0 0 .3.6 1.2.6.1 0 .7 0 1 .4 0 0 .1.2.2.3l.1.1.1-.1c0-.1.1-.3.2-.3.2-.4.9-.4 1-.4.9 0 1.2-.6 1.2-.6.4-.6 0-1.3 0-1.3-.8-.7-.8-1.1-.8-1.1m-.3-.1-1.2.9.4 1.3-1.1-.8-1.1.8.4-1.3-1.2-.8h1.4l.4-1.3.4 1.3h1.6z"/><path d="m21 12.3s0 .1 0 0z"/><path d="m21.4 12.7s-.1-.1-.1-.1.1 0 .1.1"/><path d="m21.1 12.4s.1.1.1.1-.1 0-.1-.1"/><path d="m28.5 19.7c-.1-.2-.5-.1-.5-.1.2-.6-.4-.8-.4-.8-.2-.1-.3 0-.4 0-.1.1-.2.2-.2.3 0 .2.1.3.3.3.1 0 .1 0 .2-.1.1 0 .1-.1.1-.2.1 0 .1.1.1.1.2.5-.4.7-.4.7-1.3.4-2.1-.3-2.1-.3l.2-.1h.2c0 .1.1.3.3.3.1 0 .3-.1.3-.3 0-.1-.1-.2-.1-.2-.2-.2-.7-.1-.7-.1.2-.4 0-.7 0-.7-.2-.5-.8-.3-.8-.3-.2.1-.2.2-.2.2-.1.4.3.4.3.4.2 0 .2-.2.2-.2 0-.2-.2-.2-.2-.2.2-.4.9.2.5.8 0 .1-.1 0-.1 0-.8-.4-1.2-.7-1.4-.8 0-.2-.2-.3-.2-.4 0 0 .1 0 .2-.1 0 0 .1-.4.1-.6.7.3 1.3.2 1.5.2.1 0 .1-.1.1-.2 0-.3-.7-1.9-.7-2.5.3.2.5-.3.6-.5.5.2.6 4.4 1 4.5.2.1.2-.2.3-.3.6-1.9.6-3.7.5-4.3-.1-1-.1-1.8-.4-2.6-.1-.5-.4-1.5-1.1-1.6-.3-.1-.5.2-.5.5 0 .2.2.3.1.5-.1.1-.2.3-.2.4 0 .2.1.2.1.4-.2 0-.3.1-.6.1.2-.1.2-.7 0-.8 0 0-.1 0-.1-.1 0 0 .1-.1.1-.2.1-.3.1-.6 0-.8.1 0 .2-.2.2-.3s0-.2.1-.3v-.1h-.1c-.1.1-.2.1-.1-.1v-.1h-.1c-.1.1-.2.1-.1-.1v-.1h-.1c-.1.1-.2.1-.1-.1v-.1h-.1c-.1.1-.1.2-.2.3-.1 0-.1.2-.1.3-.3-.1-.5.1-.5.3-.2 0-.4.1-.4.3 0 .1.1.3.2.3 0 0 0-.1.1-.1s.3.1.3.2-.1.4.3.4v.1c-.1 0-.2 0-.3 0-.2 0-.5.2-.6.4v.2.2s-.1.1-.1.1c-.1.1-.3.2-.4.2-.2 0-.3-.1-.4-.2-.2-.3.1-.8.1-1 0-.5-.7-.2-.9-.1-.3.2-.6.4-.8.7-.1.1-.2.3-.3.5 0 0 0 0-.1 0 .1.1.4.1.6.2 0 0 .4 0 .6-.2h.1.1s0 0 .1.1c0 0 .1 0 .1.1s.1.1.1.1c.1 0 .1.1.1.1.1 0 .1.1.1.1v.1s0 0-.1.1-.2.3-.3.6c.1.2.3.5.6.5.2 0 .3-.1.4-.3s.2.7.3.9c-.2.1-.4.3-.3 1-.1-.1-.4-.3-.5-.4s-.2-.5-.6-.5c.1.2.1.4.3.6 0 0 .2.5.2 1 .2-.2.1-.6.1-.6s.2.3.5.4c.4.6.8 1 1.2 1.3 0 .2 0 .5-.1.5-.3.1-.6-.1-.9-.1-1.2-.6-2.8.7-3.1.9-.1.1-.3 0-.3 0-.1-.1-.2-.2-.3-.2s-.2 0-.3.2c0 0-.2.2-.3 0-.3-.2-1.7-1.3-2.9-1 0-.1-.2-.1-.2-.1-.1 0-.2-.1-.2-.1-.1-.1-.3 0-.5 0-.1 0-.1 0-.2-.1-.2-.1-.4-.3-.5-.4 0 0-.1-.1-.1-.1-.1-.1-.1-.1-.1-.3-.1-.2 0-.5.1-.7 0-.2 0-.2 0-.4.8-.3 1.1-.8 1.2-1.1 0 0 .1-.1.1-.1h.1c.3 0 .5-.2.8-.1 0 0 0 .2.3.2 0 .2 0 .4.1.6 0 0 0 .1.1.1.1-.3.2-.6.2-.8 0 0 0 0 0-.1-.1-.4-.2-.5-.4-.6-.1 0-.2-.1-.2-.1-.1-.1-.2-.2-.3-.3 0 0 0 0 .1-.1.2-.2.3-.5.4-.9.2-.2.6-.1.8-.1h.2s.1.1.1.1h.2s0 .1.1.1c0 0 0 0 .1.1.2 0 .5-.1.6-.2-.1-.1-.2-.3-.4-.3s-.2-.2-.4-.2h-.2c-.4 0-.6-.1-.9-.1s-.3.2-.4.4c0 .1-.1.1-.1.2-.1.1-.2.1-.3.2v-.1c0-.1-.1-.2-.1-.3-.2-.3-.4-.5-.7-.6-.1 0-.1 0-.1-.1-.1 0 0-.1 0-.1.1-.1.3 0 .4-.1.3-.1.2-.4.1-.4-.2 0-.4-.1-.5-.1s-.2-.3-.3-.3-.1-.3-.2-.3-.1 0-.2.1c0 0 0-.3-.2-.4-.1-.1-.1 0-.1.1s.1.1.2.4c0 0 0 0-.1 0 0-.1-.1-.2-.2-.3s-.1 0-.1.1c0 0 .1.1.2.3 0 0-.1 0-.1.1-.2-.1-.3-.2-.3-.2-.1 0-.1 0-.1.1s.2.2.3.2c0 0 0 0-.1.1-.2 0-.3-.2-.3-.2-.1 0-.2 0-.1.1s.3.2.4.2c0 .1-.1.1-.1.2-.2 0-.5.1-.4.3.1 0 .3-.1.5 0 .1.2.3.2.4.2.1.1.1.2.1.3.1.2.2.3.3.5s.2.4.3.5v.1c-.1.2-.5.5-.7.6-.2.2-1.7 1.3-1.9 1.9 0 .1-.1.3-.1.4-.1.1-.3.1-.4 0-.1-.2.1-.3.1-.5 0-.1-.1-.1-.2-.1-.4.3-.2.8.1.9s.3-.2.5-.1c0 0 .5.5.5.8v.1c-.1.1-.3.2-.4.4-.3.2.2 1.2.2 1.7 0 .2.2.2.3.5-.1 0-.2 0-.3.1 0 0-.1.1-.1.2s.1.3.3.3c.1 0 .3-.1.3-.3h.2l.2.1s-.8.7-2.1.3c0 0-.6-.2-.4-.7 0 0 0-.1.1-.1 0 .1.1.1.1.2 0 0 .1.1.2.1.2 0 .3-.1.3-.3 0-.1 0-.2-.1-.2-.1-.1-.2-.1-.4 0 0 0-.6.2-.4.8 0 0-.4-.1-.5.1v.1.1c0 .1.1.1.2.1s.1 0 .2-.1h.1c.9.9 2.3.5 3.1-.1 0 0 .4-.4.9-.7.2.1.4.1.6.2 0 .3 0 .7.4 1.2 0 0-.2.4-.6.2 0 0-.3-.2 0-.5 0 0 .2-.1.2 0-.1 0-.1.1-.1.2s.1.2.2.2.1-.1.2-.1c0-.1 0-.2-.1-.3 0 0-.1-.1-.3-.1-.3.1-.5.7.1 1 0 0 .5.2.8-.1 0 0 0-.1.1 0 .5.5 1.7.4 2.2 0 0 0 .1-.1.3-.1 0 .2.2.4.4.4s.4-.2.4-.4-.1-.3-.3-.4c0 0-.2-.1-.6.1 0 0-.4.2-.3.2.1-.2.2-.5.3-.7.5.1 1.1.1 1.6.1 0 .2 0 .4-.1.5 0 0-.2.1-.2.2 0 0 0 .1.2.2 0 0 .1.1.2.3 0 0 0 .2.2.2.2 0 .2-.2.2-.2 0-.1.2-.3.2-.3.2-.1.2-.2.2-.2 0-.1-.2-.2-.2-.2-.1-.2-.1-.4-.1-.5.6 0 1.1-.1 1.6-.1.1.3.1.5.3.7 0 0-.3-.2-.3-.2-.4-.2-.6-.1-.6-.1-.2 0-.3.2-.3.4s.2.4.4.4.4-.2.4-.4c.1.1.3.1.3.1.5.4 1.7.5 2.2 0 .1-.1.1 0 .1 0 .3.4.8.1.8.1.6-.3.5-1 .1-1-.2 0-.3.1-.3.1-.1.1-.1.3-.1.3 0 .1.1.1.1.1.1 0 .2-.1.2-.2s-.1-.1-.1-.2c.1-.2.2 0 .2 0 .2.3 0 .5 0 .5-.4.2-.6-.2-.6-.2.3-.5.4-.9.4-1.2.2-.1.4-.1.6-.2.5.3.9.7.9.7.8.6 2.2 1 3.1.1.1-.1.1 0 .1 0 0 .1.1.1.2.1s.1 0 .2-.1v-.1c-2 0-2 0-2 0m-16.2-.3c-.5-.6.2-1.2.4-.8 0 0-.3 0-.2.2 0 0 0 .2.2.2 0 0 .3 0 .3-.4 0 0 0-.2-.2-.2 0 0-.6-.2-.8.3 0 0 0 .1-.1.3-.1-.1-.1-.1-.2-.1-.1-.1-.3-1-.2-1.5.9-.2 1.2-.9 1.2-1.1.2.1.3.3.3.4v.3c.1.1.3.3.5.4 0 0 .7.5.8.5h.2.1s0 0 .1.1c-.2.1-.4.3-.7.5-.1-.1-.3.2-1.7.9m2.2.6s-.1.2-.1.3c0 0-.2-.3-.2-.8.1 0 .3.1.4.1-.1.2-.1.3-.1.4m1.7.9s-.9.4-1.5-.3c0 0 0-.4.2-.8.5.1 1 .2 1.6.3-.1.3-.2.7-.3.8m-.9-1.8c.2-.2.4-.3.7-.3 0 0 .4 0 .5.5-.5-.1-.9-.2-1.2-.2m.9-.6s-.7 0-1.2.5c-.3-.1-.5-.1-.7-.2 0-.1.1-.2.1-.2s.8-.9 2.2-.4c.1-0 0 .2-.4.3m.6.8c.1-.6.1-1 .3-1 0 0 .1 0 .2.1.2.2.6.5.9 1-.5-0-.9-0-1.4-.1m2.2.1c.2-.4.7-.7.9-1 .1-.1.2-.1.2-.1.2 0 .2.5.3 1-.4.1-.8.1-1.4.1m1.7-1.2c1.4-.5 2.2.4 2.2.4.1.1.1.2.1.2-.2.1-.4.1-.7.2-.5-.5-1.1-.5-1.2-.5-.4-.1-.5-.3-.4-.3m.6.6c.3 0 .5.1.7.3-.3.1-.8.2-1.2.2.1-.5.5-.5.5-.5m-.2 2.1c-.1 0-.2-.5-.3-.8.5-.1 1.1-.2 1.6-.3.2.4.2.8.2.8-.6.6-1.5.3-1.5.3m1.8-.6c0-.1-.1-.3-.1-.3 0-.1-.1-.2-.1-.4.1 0 .3-.1.4-.1 0 .5-.2.8-.2.8"/><path d="m76.4 69h-43.9v-66.7h43.9zm-43.1-.8h42.2v-65.1h-42.2z"/><g clip-rule="evenodd" fill-rule="evenodd"><path d="m39.6 56.1-.1-2.5h-.8s-.3 1.3-.5 2.1c-.1-.8-.4-2.1-.4-2.1h-.8l-.1 2.5h.4v-2.1c0 .3.1.5.1.6l.3 1.5h.7l.4-1.5c0-.1.1-.3.1-.6l.1 2.1z"/><path d="m40.6 56.1v-1.8h-.7v.3h.2v1.5zm-.5-2.2h.5v-.4h-.5z"/><path d="m42.7 56.1v-1.1c0-.5-.2-.7-.7-.7-.3 0-.5.1-.6.2l-.1-.2h-.3v1.8h.5v-1.4c.1-.1.2-.1.3-.1.2 0 .3.1.3.4v1.1z"/><path d="m43.8 56.1v-1.8h-.7v.3h.2v1.5zm-.5-2.2h.5v-.4h-.5z"/><path d="m44.9 54.5c.2 0 .3 0 .4.1l.1-.4c-.1-.1-.3-.1-.5-.1-.5 0-.7.2-.7.5 0 .6.8.5.8.8 0 .1-.1.2-.3.2s-.3-.1-.4-.1l-.1.5c.1.1.3.1.6.1.5 0 .7-.3.7-.6 0-.6-.8-.5-.8-.8-.1-.1-0-.2.2-.2"/><path d="m47 56-.1-.4c-.1 0-.2.1-.3.1s-.2-.1-.2-.2v-.9h.5v-.3h-.5v-.5l-.4.1v.3h-.3v.3h.3v.9c0 .5.2.6.5.6.2.1.4 0 .5 0"/><path d="m48.8 55.3v-.2c0-.5-.2-.9-.8-.9s-.9.4-.9 1 .3 1 .9 1c.3 0 .5-.1.7-.2l-.1-.3c-.2.1-.4.2-.5.2-.3 0-.5-.2-.5-.5h1.2zm-.5-.3h-.7c0-.2.1-.4.3-.4.3-.1.4.2.4.4"/><path d="m50.2 54.2s-.1 0-.2 0c-.2 0-.4.2-.4.3l-.1-.2h-.3v1.8h.5v-1.3c.1-.1.2-.1.3-.1h.2z"/><path d="m51.1 56.1v-1.8h-.7v.3h.2v1.5zm-.5-2.2h.5v-.4h-.5z"/><path d="m52.4 54.2c-.6 0-.9.4-.9 1s.3 1 .9 1c.5 0 .9-.3.9-1-.1-.6-.4-1-.9-1m0 1.5c-.2 0-.4-.2-.4-.6s.1-.6.4-.6.4.2.4.6c-.1.5-.2.6-.4.6"/><path d="m55.1 54.2c-.4 0-.8.3-.8 1s.3 1 .8 1c.2 0 .4-.1.5-.2l.1.2h.3v-2.6h-.5v.4.3s-.2-.1-.4-.1m.5 1.4c-.1.1-.2.2-.3.2-.2 0-.4-.2-.4-.6s.1-.6.4-.6c.1 0 .3 0 .3.1z"/><path d="m58.1 55.3v-.2c0-.5-.2-.9-.8-.9s-.9.4-.9 1 .3 1 .9 1c.3 0 .5-.1.7-.2l-.1-.3c-.2.1-.4.2-.5.2-.3 0-.5-.2-.5-.5h1.2zm-.5-.3h-.7c0-.2.1-.4.3-.4.3-.1.4.2.4.4"/><path d="m38.4 60.7v-.4h-1.1v-.7h.8v-.4h-.8v-.6h1.1v-.4h-1.6v2.5z"/><path d="m40 60.2c-.1.1-.3.1-.5.1-.3 0-.4-.2-.4-.6s.2-.6.4-.6.3 0 .5.1l.1-.3c-.2-.1-.4-.1-.6-.1-.5 0-.9.4-.9 1s.3 1 .9 1c.3 0 .5-.1.6-.2z"/><path d="m41.2 58.8c-.6 0-.9.4-.9 1s.3 1 .9 1c.5 0 .9-.3.9-1 0-.6-.3-1-.9-1m0 1.6c-.2 0-.4-.2-.4-.6s.1-.6.4-.6c.2 0 .4.2.4.6s-.2.6-.4.6"/><path d="m44.1 60.7v-1.1c0-.5-.2-.7-.6-.7-.3 0-.5.1-.6.2l-.1-.2h-.3v1.8h.5v-1.4c.1-.1.2-.1.3-.1.2 0 .3.1.3.4v1.1z"/><path d="m45.3 58.8c-.6 0-.9.4-.9 1s.3 1 .9 1c.5 0 .9-.3.9-1-.1-.6-.4-1-.9-1m0 1.6c-.2 0-.4-.2-.4-.6s.1-.6.4-.6c.2 0 .4.2.4.6-.1.4-.2.6-.4.6"/><path d="m48.1 59.3c.1-.1.2-.1.3-.1.2 0 .3.1.3.4v1.1h.5v-1.1c0-.5-.2-.7-.7-.7-.3 0-.4.1-.6.3-.1-.2-.3-.3-.6-.3s-.4.1-.5.3l-.1-.2h-.3v1.8h.6v-1.4c.1-.1.2-.1.3-.1.2 0 .3.1.3.4v1.1h.5v-1.1c0-.2 0-.3 0-.4"/><path d="m50.5 58.4-.1-.4-.9.3v.3zm-.2 2.3v-1.8h-.7v.3h.2v1.5z"/><path d="m52.2 60.7v-1.2c0-.5-.2-.7-.7-.7-.3 0-.5.1-.7.1l.1.3c.1-.1.3-.1.6-.1.2 0 .3.1.3.3v.1h-.4c-.4 0-.7.2-.7.5 0 .4.2.6.6.6.3 0 .4-.1.5-.3l.1.2h.3zm-.5-.4c-.1.1-.2.1-.3.1-.2 0-.3-.1-.3-.3 0-.1.1-.2.3-.2h.3z"/><path d="m52.6 60.7.1.1c0 .2 0 .2-.1.3v.3c.3 0 .5-.2.5-.5v-.6h-.5z"/><path d="m55.9 58.6v-.4h-1.6v2.5h.5v-1h.8v-.4h-.8v-.7z"/><path d="m56.7 58.8c-.6 0-.9.4-.9 1s.3 1 .9 1c.5 0 .9-.3.9-1 0-.6-.3-1-.9-1m0 1.6c-.2 0-.4-.2-.4-.6s.1-.6.4-.6c.2 0 .4.2.4.6s-.1.6-.4.6"/><path d="m59.6 59.3c.1-.1.2-.1.3-.1.2 0 .3.1.3.4v1.1h.5v-1.1c0-.5-.2-.7-.7-.7-.3 0-.4.1-.6.3-.1-.2-.3-.3-.6-.3s-.4.1-.5.3l-.1-.2h-.3v1.8h.5v-1.4c.1-.1.2-.1.3-.1.2 0 .3.1.3.4v1.1h.5v-1.1c.1-.2.1-.3.1-.4"/><path d="m62.7 59.9v-.2c0-.5-.2-.9-.8-.9s-.9.4-.9 1 .3 1 .9 1c.3 0 .5-.1.7-.2l-.1-.3c-.2.1-.4.2-.5.2-.3 0-.5-.2-.5-.5h1.2zm-.5-.3h-.7c0-.2.1-.4.3-.4.3 0 .4.2.4.4"/><path d="m64.7 60.7v-1.1c0-.5-.2-.7-.6-.7-.3 0-.5.1-.6.2l-.1-.2h-.4v1.8h.5v-1.4c.1-.1.2-.1.3-.1.2 0 .3.1.3.4v1.1z"/><path d="m66.3 60.6-.1-.4c-.1 0-.2.1-.3.1s-.2-.1-.2-.2v-.9h.5v-.3h-.5v-.5l-.5.2v.3h-.3v.3h.3v.9c0 .5.2.6.5.6s.4 0 .6-.1"/><path d="m67.3 58.8c-.6 0-.9.4-.9 1s.3 1 .9 1c.5 0 .9-.3.9-1-.1-.6-.4-1-.9-1m0 1.6c-.2 0-.4-.2-.4-.6s.1-.6.4-.6c.2 0 .4.2.4.6-.1.4-.2.6-.4.6"/><path d="m37.7 65.4c-.1.2-.2.4-.4.4s-.3-.1-.4-.1l-.2.3c.1.1.3.2.5.2.4 0 .7-.2.8-.7l.6-1.9h-.5l-.4 1.4-.4-1.6h-.6l.6 1.9z"/><path d="m42.2 63.2v-.4h-1.7v.4h.6v2.1h.5v-2.1z"/><path d="m43.8 65.3v-1.8h-.5v1.4c-.1.1-.2.1-.4.1s-.3-.1-.3-.4v-1.1h-.5v1.1c0 .5.2.8.7.8.3 0 .5-.1.6-.3l.1.2z"/><path d="m45.2 63.5s-.1 0-.2 0c-.2 0-.4.1-.4.3l-.1-.2h-.3v1.8h.5v-1.4c.1-.1.2-.1.3-.1h.2z"/><path d="m46.1 65.3v-1.8h-.7v.3h.2v1.5zm-.5-2.1h.5v-.4h-.5z"/><path d="m47.3 63.8c.2 0 .3 0 .4.1l.1-.4c-.1-.1-.3-.1-.5-.1-.5 0-.7.2-.7.5 0 .6.8.5.8.8 0 .1-.1.2-.3.2s-.3-.1-.4-.1l-.1.3c.1.1.3.1.6.1.5 0 .7-.3.7-.6 0-.6-.8-.5-.8-.8-.1.1 0-0 .2-0"/><path d="m49.8 64c.1-.1.2-.1.3-.1.2 0 .3.1.3.4v1.1h.6v-1.1c0-.5-.2-.7-.7-.7-.3 0-.4.1-.6.3-.1-.2-.3-.3-.6-.3s-.4.1-.5.3l-.1-.2h-.3v1.8h.5v-1.5c.1-.1.2-.1.3-.1.2 0 .3.1.3.4v1.1h.5v-1.1c0-.2 0-.3 0-.3"/><path d="m52.1 63.5c-.6 0-.9.4-.9 1s.3 1 .9 1c.5 0 .9-.3.9-1 0-.6-.3-1-.9-1m0 1.5c-.2 0-.4-.2-.4-.6s.1-.6.4-.6c.2 0 .4.2.4.6 0 .5-.1.6-.4.6"/><path d="m39.2 11.7c0-1.4-1.9-1.1-1.9-1.8 0-.3.2-.4.6-.4s.7.1.9.2l.3-.7c-.3-.2-.7-.3-1.2-.3-.9 0-1.4.5-1.4 1.1 0 1.4 1.9 1 1.9 1.9 0 .3-.3.5-.6.5-.4 0-.8-.2-1-.4l-.3.6c.3.2.8.4 1.3.4.9.1 1.4-.5 1.4-1.1"/><path d="m42.3 12.9v-.7h-1.7v-1h1.3v-.7h-1.3v-1h1.7v-.7h-2.5v4.1z"/><path d="m44.9 10c0 .5-.2.7-.7.7h-.4v-1.3h.4c.4 0 .7.2.7.6m-1.2 1.3h.5l.7 1.5h.9c-.3-.6-.6-1.1-.9-1.7.5-.2.8-.6.8-1.2 0-.8-.6-1.2-1.4-1.2h-1.3v4h.8v-1.4z"/><path d="m49.5 12.9v-4.1h-.7v3.3l-1.3-3.3h-1.2v4.1h.7v-3.2l1.3 3.2z"/><path d="m51.8 9.5.4 1.8h-1.1l.4-1.8zm-.8 2.5h1.4l.2.9h.9l-1.1-4h-1.3l-1.1 4h.8z"/><path d="m56 9.5v-.7h-2.8v.7h.9v3.4h.9v-3.4z"/><path d="m59.5 8.8h-.8v2.5c0 .6-.2 1-.7 1s-.7-.4-.7-1v-2.5h-.8v2.5c0 .9.5 1.6 1.5 1.6 1.1 0 1.5-.7 1.5-1.6z"/><path d="m62.2 10c0 .5-.2.7-.7.7h-.4v-1.3h.4c.4 0 .7.2.7.6m-1.1 1.3h.5l.7 1.5h.9c-.3-.6-.6-1.1-.9-1.7.4-.1.7-.5.7-1.1 0-.8-.6-1.2-1.4-1.2h-1.3v4h.8z"/></g><path d="m36.9 16.8v.9h-.5v-2.5h.8c.5 0 .9.2.9.7 0 .3-.2.6-.5.7.2.3.3.7.5 1h-.6l-.4-.9h-.2zm.3-1.2h-.2v.8h.2c.3 0 .4-.1.4-.4s-.1-.4-.4-.4"/><path d="m38.8 17c0 .3.2.4.5.4.2 0 .4-.1.5-.2l.1.3c-.1.1-.4.2-.7.2-.6 0-.9-.3-.9-.9 0-.5.3-.9.8-.9s.7.4.7.8v.3zm.3-.7c-.2 0-.3.2-.3.4h.6c-0-.3-0-.4-.3-.4"/><path d="m41.5 15.9h.3v1.7c0 .5-.3.8-.9.8-.3 0-.5-.1-.7-.2l.1-.4c.1.1.3.2.6.2s.4-.2.4-.4v-.2c-.1.1-.2.2-.5.2-.4 0-.7-.3-.7-.9s.3-.9.8-.9c.2 0 .4.1.5.2zm-.2.5c-.1-.1-.2-.1-.3-.1-.2 0-.4.2-.4.6s.1.6.4.6c.1 0 .2-.1.3-.2z"/><path d="m42.4 17.7v-1.4h-.2v-.3h.7v1.8h-.5zm0-2.5h.5v.4h-.5z"/><path d="m44.9 16.8c0 .6-.3.9-.8.9s-.8-.3-.8-.9c0-.5.3-.9.8-.9s.8.4.8.9m-1.3-1.1v-.3l.9-.3s0 .3.1.3zm.8 1.1c0-.4-.1-.6-.3-.6s-.3.2-.3.6.1.6.3.6.3-.2.3-.6"/><path d="m46.3 17.7v-1.1c0-.3-.1-.4-.3-.4-.1 0-.2.1-.3.1v1.3h-.5v-1.8h.3l.1.2c.1-.1.3-.2.6-.2.4 0 .6.3.6.7v1.1h-.5z"/><path d="m49.1 16.1c0-.1 0-.2 0-.3v-.5h.5v2.5h-.4l-.1-.2c-.1.1-.2.2-.5.2-.4 0-.7-.3-.7-.9s.3-.9.8-.9c.2-.1.3-0 .4.1m0 .2c-.1 0-.2-.1-.3-.1-.2 0-.4.2-.4.6s.1.6.4.6c.1 0 .2-.1.3-.2z"/><path d="m50.4 17c0 .3.2.4.5.4.2 0 .4-.1.5-.2l.1.3c-.1.1-.4.2-.7.2-.6 0-.9-.3-.9-.9 0-.5.3-.9.8-.9s.8.4.8.8v.3zm.3-.7c-.2 0-.3.2-.3.4h.6c0-.3 0-.4-.3-.4"/><path d="m52.6 17.2v-2h.5v2c0 .1.1.2.3.2v.3s-.1 0-.3 0c-.3 0-.5-.1-.5-.5"/><path d="m55.3 16.8c0 .6-.3.9-.8.9s-.8-.3-.8-.9c0-.5.3-.9.8-.9s.8.4.8.9m-.5 0c0-.4-.1-.6-.3-.6s-.3.2-.3.6.1.6.3.6.3-.2.3-.6"/><path d="m56.1 16.4c0 .3.8.2.8.8 0 .3-.2.6-.7.6-.2 0-.4-.1-.5-.1l.1-.3c.1.1.3.1.4.1.2 0 .3-.1.3-.2 0-.3-.8-.2-.8-.8 0-.3.2-.5.7-.5.2 0 .4 0 .5.1l-.1.3c-.1-.1-.3-.1-.4-.1-.3-.1-.3 0-.3.1"/><path d="m58 17.7v-2.4h.5v2h1v.4z"/><path d="m60.9 17.7-.1-.2c-.1.1-.3.2-.5.2-.4 0-.6-.2-.6-.6 0-.3.2-.5.7-.5h.4v-.1c0-.2-.1-.3-.3-.3s-.4.1-.5.1l-.2-.3c.2-.1.4-.1.7-.1.5 0 .7.2.7.7v1.1zm-.1-.8h-.3c-.2 0-.3.1-.3.2 0 .2.1.3.3.3.1 0 .2-.1.3-.1z"/><path d="m62.9 15.9h.3v1.7c0 .5-.3.8-.9.8-.3 0-.6-.1-.7-.2l.1-.4c.1.1.3.2.6.2s.4-.2.4-.4v-.2c-.1.1-.3.2-.5.2-.4 0-.7-.3-.7-.9s.3-.9.8-.9c.2 0 .4.1.5.2zm-.2.5c-.1-.1-.2-.1-.3-.1-.2 0-.4.2-.4.6s.1.6.4.6c.1 0 .2-.1.3-.2z"/><path d="m65.2 16.8c0 .6-.3.9-.8.9s-.8-.3-.8-.9c0-.5.3-.9.8-.9s.8.4.8.9m-.5 0c0-.4-.1-.6-.3-.6s-.3.2-.3.6.1.6.3.6.3-.2.3-.6"/><path d="m66 16.4c0 .3.8.2.8.8 0 .3-.2.6-.7.6-.2 0-.4-.1-.5-.1l.1-.3c.1.1.3.1.4.1.2 0 .3-.1.3-.2 0-.3-.8-.2-.8-.8 0-.3.2-.5.7-.5.2 0 .4 0 .5.1l-.1.3c-.1-.1-.3-.1-.4-.1-.3-.1-.3 0-.3.1"/></g></svg>