<?xml version="1.0" encoding="UTF-8"?>
<svg id="Capa_1" data-name="Capa 1" xmlns="http://www.w3.org/2000/svg" version="1.1" viewBox="0 0 100 110">
  <defs>
    <style>
      .cls-1 {
        fill: #fff;
        stroke-width: 0px;
      }
    </style>
  </defs>
  <path class="cls-1" d="M69.5,38.3c.2,0,.4,0,.7,0,.3,0,.5,0,.8,0,.5,0,1,0,1.5,0,1,0,2.1,0,3.1,0,.1,0,.3,0,.4,0,0,0,0-.1,0-.2,0-.3,0-.5,0-.8-.6,0-1.3,0-1.9,0-.7,0-1.3,0-1.9,0-.6,0-1.3,0-1.9,0-.2,0-.6,0-.7.1,0,.1,0,.3,0,.4,0,.2,0,.3,0,.5,0,0,0-.3,0,0M69.5,36.3c.2.2.4.1.6.1.3,0,.6,0,.9,0,.6,0,1.2,0,1.7,0,1.1,0,2.2,0,3.3,0,.1-.3,0-.7,0-1-1.1,0-2.2,0-3.4,0-.6,0-1.1,0-1.7,0-.3,0-.6,0-.9,0-.2,0-.5,0-.7,0v.8c.2.1,0-.3,0,0M76.1,43.3c-.2,0-.5,0-.8,0h-.9c-.6,0-1.1,0-1.7,0-.6,0-1.1,0-1.7,0-.3,0-.6,0-.9,0-.2,0-.5,0-.8,0,0,.3,0,.7,0,1.1,1.1,0,2.2,0,3.3,0h1.7c.5,0,1.1,0,1.6,0,0-.4,0-.7,0-1,0,0,0,.3,0,0M69.5,40.3c.2,0,.5,0,.7,0,.4,0,.9,0,1.3,0,1.1,0,2.1,0,3.2,0,.5,0,.9,0,1.3,0,0-.4,0-.7,0-1.1-.5,0-1.1,0-1.6,0h-1.7c-.6,0-1.1,0-1.7,0-.3,0-.6,0-.9,0-.2,0-.6,0-.8,0,0,.3,0,.7,0,1,.4,0,0-.4,0,0M69.5,42.4c.5,0,1.1,0,1.6,0h1.7c.6,0,1.1,0,1.7,0h.9c.3,0,.6,0,.8,0,0-.4,0-.7,0-1.1-.2,0-.5,0-.8,0-.3,0-.6,0-.9,0-.6,0-1.1,0-1.7,0-.6,0-1.1,0-1.7,0s-1.1,0-1.6,0c0,.4,0,.7,0,1.1.1,0,0-.4,0,0M55.7,40.2c0,1,0,2.1,0,3.1,0,1.1,0,2.1,0,3.2,0,2.1,0,4.2,0,6.4,0,.6,0,1.2,0,1.8s0,.6,0,.9c0,.2,0,.3,0,.5,0,.1,0,.2,0,.4.4,0,.9,0,1.3,0,.2,0,.4,0,.7,0,0,0,.2,0,.3,0,.1,0,.2,0,.3,0v-14.7c0-.2,0-.3,0-.5,0-.1,0-.3,0-.4-.2-.2-.5,0-.7-.2-.3-.1-.6-.1-.9-.2-.2,0-.3,0-.5-.1-.2,0-.3,0-.5,0,0,.1,0,0,0,0M43.9,56.2c.6.1,1.2,0,1.8,0s.3,0,.5,0c.1,0,.2,0,.3,0,.2,0,.1-.3.1-.5,0-1.3,0-2.5,0-3.8,0-2.5,0-5.1,0-7.6v-2.2c0-.3,0-.7,0-1,0-.4,0-.7,0-1.1,0,0-.1,0-.2,0,0,0-.2,0-.2,0-.2,0-.3,0-.5,0-.3,0-.6,0-.8.1-.1,0-.2,0-.3.1-.1,0-.2,0-.3,0-.1,0-.2,0-.3.1,0,.1,0,.3,0,.5v10.7c0,1.4,0,2.8,0,4.3.1,0,0-.2,0,0M47.5,40c0,1.6,0,3.2,0,4.7,0,1.6,0,3.2,0,4.9,0,1.6,0,3.2,0,4.9,0,.4,0,.8,0,1.2,0,.1,0,.5,0,.6,0,0,.1,0,.2,0,.2,0,.3,0,.5,0,.4,0,.8,0,1.2,0,1.6,0,3.2,0,4.9,0,.1,0,.3,0,.4,0s.1-.2.1-.4c0-.4,0-.8,0-1.2v-2.4c0-3.2,0-6.5,0-9.7v-1.2c0-.4,0-.8,0-1.1,0-.2-.1-.2-.3-.3-.4,0-.7,0-1.1,0h-4.9c-.4,0-.7,0-1.1,0,0,.2.2,0,0,0M51,25.2c-.2.5-.3.9-.4,1.4-.2.5-.3.9-.4,1.4-.1.5-.3,1-.5,1.5-.2.5-.3,1-.5,1.5-.4,1-.8,2-1.3,2.9-.5.9-1,1.8-1.5,2.6-.3.5-.6.9-1,1.4-.2.2-.3.4-.5.6-.2.2-.4.4-.5.6.2,0,.3,0,.5,0,.2,0,.4,0,.6-.1.1,0,.2,0,.3,0,0,0,.2,0,.3,0,0,0,.2,0,.3-.1,0,0,.2,0,.3,0,.9,0,1.9,0,2.8,0,1.9,0,3.7,0,5.6,0,.2,0,.4,0,.6,0,.1,0,.2,0,.3.1,0,0,.2,0,.3,0,.3,0,.5,0,.8.1.2,0,.4.2.6.1-.1-.4-.4-.6-.7-.9-.3-.4-.6-.8-.9-1.2-.6-.9-1.1-1.8-1.6-2.7-1-1.9-1.7-3.9-2.4-5.9-.2-.6-.4-1.1-.5-1.7,0-.3-.2-.6-.2-.8,0-.1,0-.3-.1-.4,0,0-.1-.2-.2-.3-.1.4,0,.1,0,0M79.1,34c-.3-.5-.6-.9-.8-1.4-.3-.5-.6-1.1-.8-1.6-.5-1.1-1-2.3-1.4-3.4-.2-.6-.4-1.1-.5-1.7-.2-.6-.4-1.2-.5-1.8-.1-.6-.3-1.2-.5-1.7-.2-.6-.3-1.1-.5-1.7-.1-.3-.2-.6-.3-1,0-.3-.2-.7-.3-1-.2-.6-.3-1.2-.6-1.8,0,.1-.1.2-.2.3,0,.1,0,.3-.1.4,0,.3-.2.6-.2.9-.2.6-.3,1.2-.5,1.8-.4,1.1-.7,2.3-1,3.4,0,.1-.1.2-.1.4,0,.1,0,.3,0,.4,0,.3-.2.5-.2.8,0,.3-.2.6-.3.9,0,.3-.2.6-.3.9-.4,1.2-.8,2.4-1.4,3.6-.3.6-.6,1.2-.9,1.8-.2.3-.3.6-.5.9,0,.1-.2.3-.3.4,0,0-.1.1-.1.2,0,0,0,.1,0,.2.4,0,.8,0,1.2,0,.8,0,1.7,0,2.5,0,2.1,0,4.1,0,6.2,0,.9,0,1.8,0,2.6,0,0-.2-.2,0,0,0M29.5,22.5c-.3,0-.6,0-.8,0-.2,0-.4,0-.6,0,0,0,0,.1-.1.2,0,.1-.1.3-.2.4-.1.3-.2.5-.4.8-.5,1.1-1,2.3-1.4,3.4-1,2.3-2,4.6-2.9,6.9-.3.6-.5,1.3-.8,1.9-.1.3-.3.6-.4.9,0,.2-.1.3-.2.5,0,.1-.1.3,0,.4.2,0,.4,0,.7,0h.7c.5,0,.9,0,1.4,0,.9,0,1.9,0,2.8,0,1.9,0,3.8,0,5.7,0,.5,0,1.1,0,1.6,0,.3,0,.6,0,.8,0,.2,0,.5,0,.6,0-2.2-5.1-4.3-10.3-6.5-15.4-.1,0,2.2,5.2,0,0M22.5,56.3c1.7,0,3.4,0,5,0,1.7,0,3.5,0,5.2,0,.5,0,.9,0,1.4,0,.2,0,.5,0,.7,0,.2,0,.3,0,.4-.2,0-2.2,0-4.4,0-6.6,0-2.2,0-4.4,0-6.6s0-1.2,0-1.9c0-.6,0-1.2,0-1.8-.2,0-.4,0-.6,0-.2,0-.5,0-.7,0-.4,0-.8,0-1.2,0-.9,0-1.7,0-2.6,0-1.7,0-3.4,0-5,0s-.9,0-1.4,0c-.2,0-.5,0-.7,0-.2,0-.4,0-.6,0,0,.1,0,.3,0,.4,0,.3,0,.7,0,1,0,1.1,0,2.1,0,3.2,0,1.4,0,2.8,0,4.2,0,1.4,0,2.8,0,4.2,0,1.1,0,2.3,0,3.4,0,.2,0,.4,0,.5.2,0,0-.2,0,0M79.3,35.4c-.7,0-1.9,0-2.2,0,0,.2,0,.4,0,.6v.7c0,.5,0,1,0,1.5,0,1,0,2,0,3v3c0,.3,0,.6,0,.9,0,.2-.2.2-.4.2-.4,0-.8,0-1.2,0h-1.5c-1,0-2,0-3,0s-1,0-1.5,0c-.2,0-.4,0-.5,0-.2-.1-.3-.3-.3-.5,0-.5,0-1,0-1.4v-6.4c0-.3,0-.5,0-.8s0-.3,0-.4c0-.1,0-.2,0-.3-.4,0-1.6,0-1.9,0,0,2.7,0,5.5,0,8.2v11.6c0,.3,0,.7,0,1,1.1,0,2.2,0,3.3,0,1.1,0,2.2,0,3.3,0,1.1,0,2.2,0,3.4,0,.6,0,1.1,0,1.7,0,.3,0,.5,0,.8,0,.1,0,.2,0,.2-.2,0-.2,0-.5,0-.7,0-.3,0-.6,0-.8,0-.6,0-1.1,0-1.7,0-1.1,0-2.2,0-3.3,0-2.2,0-4.5,0-6.7,0-2.2,0-4.5,0-6.7,0-.2,0-.5,0-.7-.7,0,0,.1,0,0M29.4,10.2c0,1,0,2.1,0,3.1,0,1.1,0,2.1,0,3.2,0,.5,0,1.1,0,1.6,0,.3,0,.5,0,.8,0,.2.2.5.3.7.2.5.4,1,.6,1.5,0,.1,0,.2.1.3,0,.1,0,.2,0,.4,0,.2.1.4.2.7.2.5.4.9.6,1.4.2.5.4,1,.6,1.4.4,1,.8,2,1.3,2.9.8,1.9,1.7,3.9,2.5,5.8.4,1,.8,2,1.2,2.9.2.5.4.9.6,1.4.2.3,0,.7-.3.9-.2,0-.5,0-.7,0-.2.2,0,.6,0,.8,0,.3,0,.7,0,1v13.8c0,.3,0,.6,0,1,0,.2,0,.5.2.5.1,0,.2,0,.4,0,.2,0,.3,0,.5,0,.3,0,.6,0,1,0,.7,0,1.3,0,2,0,.6,0,1.2,0,1.9,0,.1,0,.3,0,.3-.1,0-.1,0-.3,0-.4,0-.7,0-1.3,0-2,0-1.3,0-2.6,0-3.9,0-2.6,0-5.3,0-7.9,0-.3,0-.7,0-.9-.1,0-.3,0-.5,0-.1,0-.3,0-.4-.1-.2-.2-.3-.5-.2-.8,0-.2.3-.3.4-.4.2-.2.4-.3.6-.5.4-.3.7-.7,1-1.1.6-.7,1.2-1.5,1.7-2.3,1.1-1.6,1.9-3.4,2.6-5.2.3-.9.7-1.9.9-2.8.1-.5.3-.9.4-1.3.1-.5.3-.9.4-1.4,0-.2.2-.4.2-.7,0-.1,0-.2,0-.3,0-.1,0-.2,0-.4,0-.2.1-.4.2-.6,0-.2.2-.4.3-.5.2-.2.1-.3.1-.5,0-.2,0-.5,0-.7,0-.4-.4-.7-.4-1.1,0-.2,0-.5,0-.7,0-.2.3-.4.3-.6,0-.3,0-.6,0-.8,0-.3,0-.6,0-.9,0-.6,0-1.2,0-1.7,0-.5,0-1.1,0-1.6-.7,0-1.4,0-2.1,0-.3,0-.6,0-.9-.1-.2-.1-.4-.4-.3-.6,0-.2.2-.4.4-.5.3,0,.6,0,.9,0,.3,0,.6,0,1,0s.3,0,.5,0c.1,0,.3,0,.4,0,.1-.1,0-.2,0-.4,0-.2,0-.4,0-.6,0-.4,0-.8,0-1.2,0-.3,0-.6.2-.8.2-.2.5-.2.7-.1.4.2.3.8.3,1.2,0,.5,0,1.1,0,1.6,0,.1,0,.3.1.3.2,0,.4,0,.6,0,.5,0,1,0,1.5,0,.2,0,.5,0,.7.2.2.1.3.3.2.5,0,.2-.2.4-.4.5-.2.1-.6,0-.8,0-.6,0-1.3,0-1.9,0-.1.2,0,.5,0,.7v.8c0,.6,0,1.1,0,1.7,0,.3,0,.6,0,.9s0,.5,0,.8c0,.5.4.8.4,1.3,0,.2-.1.5-.2.7-.1.2-.2.4-.2.7,0,.3,0,.7,0,1,.2.4.4.8.6,1.2,0,.1,0,.2,0,.3,0,.1,0,.2,0,.4,0,.2,0,.5.2.7,0,.2.1.5.2.8,0,.2.2.5.2.7.2.5.3,1,.5,1.5.4,1,.7,2.1,1.2,3.1.8,2,1.8,3.9,3.1,5.6.3.4.6.8,1,1.2.4.4.8.8,1.1,1.2.2.2.4.4.6.5.2,0,.3.2.4.4,0,0,0,.2,0,.3,0,.1,0,.2,0,.3-.1.2-.2.3-.4.3-.2,0-.4,0-.6,0,0,.3,0,.7,0,1.1,0,.3,0,.7,0,1,0,.7,0,1.4,0,2.2,0,1.4,0,2.9,0,4.3,0,1.4,0,2.9,0,4.3,0,.7,0,1.3,0,2,0,.1,0,.2.2.3.2,0,.5,0,.7,0,1.4,0,2.9,0,4.3,0,.2,0,.4,0,.6,0,.1,0,.1-.2.1-.4,0-.7,0-1.4,0-2.1,0-2.9,0-5.8,0-8.6,0-2.9,0-5.8,0-8.6v-1.1c-.2,0-.5-.1-.7-.3-.1-.1-.2-.3-.2-.5,0-.2,0-.4.2-.5.2-.1.3-.3.4-.5.6-.8,1.1-1.7,1.5-2.6.2-.5.5-1,.7-1.5.2-.5.4-1,.6-1.5.2-.5.3-1,.5-1.5.2-.5.3-1,.4-1.5,0-.1,0-.2.1-.3,0,0,0-.2,0-.3,0-.2.2-.5.2-.7.1-.5.3-1,.4-1.5,0-.2.2-.5.2-.7,0-.1,0-.2,0-.4,0-.1,0-.2.1-.4,0-.2.1-.5.2-.7,0-.2.2-.5.2-.7.1-.5.3-1,.4-1.5.2-.5.3-1,.5-1.5,0-.3.2-.5.2-.8,0-.2.2-.5.2-.7,0-.2-.1-.4-.1-.7,0-.3,0-.6,0-.8,0-.3,0-.5,0-.8,0-.1,0-.2,0-.4,0-.1,0-.2,0-.4,0-.2,0-.5,0-.7,0-.2,0-.5,0-.7,0-1.1,0-2.2,0-3.4,0-.3,0-.5,0-.8-.2-.1-.5,0-.7,0-.2,0-.4.1-.6.2,0,0-.2.1-.3.1,0,0-.2,0-.3,0-.2,0-.4-.1-.5-.3-.3-.3-.5-.7-.2-1,.3-.3.7-.5,1.1-.5.1,0,.2,0,.3.1,0,0,.2.1.3.2.3,0,.6,0,.8,0,0-.2,0-.5,0-.7,0-.2,0-.4-.1-.6-.1-.2-.2-.3-.2-.6,0-.2.2-.4.3-.6.2-.3.6-.5.9-.3.2.1.3.3.4.5.1.2.3.4.2.7,0,.1-.1.2-.2.3,0,.1,0,.2,0,.3,0,.3,0,.6,0,.9.2,0,.4,0,.6,0,0,0,.2,0,.3,0,0,0,.1,0,.2-.1.2-.2.7-.2.9,0,.3.2.5.3.6.6,0,.3,0,.5-.3.7-.2.1-.4.2-.6.3-.2,0-.4,0-.6,0,0,0-.2-.1-.3-.2,0,0-.2,0-.3,0-.2,0-.4,0-.6,0-.1.1-.1.3-.1.5,0,.2,0,.5,0,.7,0,.5,0,.9,0,1.3,0,.9,0,1.7.1,2.6,0,.4,0,.8.1,1.2,0,.4,0,.8,0,1.2,0,.2,0,.3,0,.5,0,.2-.2.3-.1.5,0,.4.2.8.4,1.1,0,.2,0,.4.1.6,0,.2.1.4.2.5,0,.2.1.4.2.6,0,.2,0,.3.1.5,0,0,0,.1,0,.2,0,0,0,.2,0,.3,0,.2.1.4.2.6.1.4.2.8.3,1.2.1.4.3.8.4,1.3.1.4.2.8.4,1.2.1.4.3.8.3,1.3,0,.2,0,.4.1.6,0,0,0,.2.1.3s0,.2,0,.2c0,0,0,.1,0,.2,0,0,0,.2.1.3,0,.2.1.4.2.6.1.4.3.8.4,1.2.2.4.3.8.4,1.2.2.4.3.8.5,1.2.4.8.7,1.6,1.2,2.3.2.4.4.7.7,1,.1.1.2.3.4.4.1.1.3.3.4.5.2.3,0,.6-.2.8-.1,0-.2.1-.3.3,0,.2,0,.4,0,.6,0,.9,0,1.8,0,2.7,0,1.8,0,3.6,0,5.5,0,3.6,0,7.2,0,10.9,0,.2,0,.4,0,.7,0,.2,0,.4,0,.6.7,0,1.3,0,2,0h2c.6,0,1.3,0,1.9,0,.1,0,.2,0,.3.2,0,.1,0,.2,0,.3-.2.2-.6.1-.8.1h-8c-2.7,0-5.3,0-8,0-2.7,0-5.3,0-8,0-2.7,0-5.3,0-8,0h-8c-2.7,0-5.3,0-8,0-2.6,0-5.3,0-7.9,0-2.7,0-5.3,0-8,0-2.6,0-5.3,0-7.9,0s-.6,0-.9,0c-.2,0-.5-.1-.4-.4,0-.2.2-.1.4-.1.2,0,.4,0,.7,0,.4,0,.8,0,1.3,0h2.6c.8,0,1.7,0,2.5,0,.2,0,.4,0,.6,0,.1,0,.3,0,.4,0,0-.1,0-.3,0-.4v-15.8c0-.2,0-.5,0-.7-.2,0-.5,0-.7,0-.2,0-.4-.2-.5-.3-.2-.4.1-.9.3-1.3.4-1,.8-1.9,1.2-2.9.8-1.9,1.6-3.9,2.5-5.8.8-1.9,1.7-3.9,2.5-5.8.1-.2.2-.5.3-.7,0-.2.2-.4.2-.7,0-.1,0-.2,0-.3,0-.1,0-.2.1-.4.1-.2.2-.5.3-.7.2-.5.4-.9.6-1.4,0-.2,0-.5,0-.7v-.8c0-2.1,0-4.3,0-6.4,0-.2,0-.5,0-.7-.2,0-.4,0-.6,0-.2,0-.4,0-.6,0-.2,0-.3,0-.5,0-.2,0-.3.2-.5.2-.6.2-1.2-.3-1.2-.9,0-.5.4-.9.9-.9.3,0,.5.2.8.3.3.1.6,0,.9,0,.2,0,.6,0,.7-.1,0-.1,0-.3,0-.4,0-.2,0-.4,0-.6,0-.2,0-.3,0-.5,0-.2-.1-.3-.2-.5-.1-.3-.2-.6,0-.8.2-.6,1-.7,1.5-.3.2.2.3.4.3.7,0,.3-.2.4-.2.7,0,.3,0,.6,0,.9,0,.3,0,.6,0,.9.4,0,.8,0,1.1,0,.2,0,.3,0,.5,0,.2,0,.3-.2.5-.2.6-.2,1.3.3,1.2,1,0,.4-.3.7-.7.8-.2,0-.4,0-.6,0-.2,0-.3-.2-.5-.2-.2,0-.5,0-.7,0-.3,0-.5,0-.8,0,0,.2.3,0,0,0"/>
  <path class="cls-1" d="M44,71.3c.3,0,.5-.1.7-.3.4-.2.6-.6.6-1,0-.4-.2-.9-.6-1.1-.2-.1-.4-.2-.7-.2-.3,0-.5,0-.8,0,0,.4,0,2.1,0,2.6.2,0,.5,0,.8,0M49.4,77.6c-.6,0-1.1,0-1.7,0s-.6,0-.9,0c-.3,0-.5,0-.8,0-.2,0-.3-.1-.4-.3,0-.1-.2-.2-.2-.3,0-.1-.1-.2-.2-.4-.3-.5-.6-.9-.9-1.4-.3-.5-.6-1.1-1.1-1.6,0,.3,0,.6,0,.9,0,.3,0,.7,0,1s0,.7,0,1c0,.3,0,.7,0,1-.2,0-.5,0-.7,0-.2,0-.5,0-.7,0-.2,0-.5,0-.7,0-.2,0-.5,0-.7,0-.1-.4,0-.9,0-1.4v-1.4c0-.9,0-1.9,0-2.8v-4.3c0-.2,0-.5,0-.7,0-.2,0-.4.1-.5.1-.1.3-.1.5-.1.2,0,.5,0,.7,0,.5,0,.9,0,1.4,0,.5,0,.9,0,1.4,0,.1,0,1.5.1,1.7.2.3.1.7.2,1,.4.2.1.3.2.5.4.2.1.2.3.4.5,0,.1.2.2.3.4,0,.2.1.4.2.5,0,.2.1.4.1.6,0,.3,0,.5,0,.8,0,.5-.1,1-.3,1.4,0,.2-.2.4-.3.5,0,0-.1.2-.2.2,0,0-.2.1-.3.2-.2.1-.3.3-.5.3-.2,0-.4.1-.6.2,0,.2.6.9.6.9,0,0,.4.5.6.7.2.2.8.9.9,1.1.2.2.3.4.5.6.2.2.3.4.5.6,0,0,.2.2.3.3,0,0,0,.2,0,.3-.2,0,0-.1,0,0"/>
  <path class="cls-1" d="M53.6,66.4c0,.2,0,.4,0,.5,0,.3,0,.5,0,.8,0,.5,0,1,0,1.5,0,1,.1,4.2.1,4.3,0,.3.1.6.2.9.3.7,1.1,1,1.7.9.4,0,.8-.2,1.1-.4.2-.2.4-.5.5-.8.1-.4.2-2.2.2-2.6v-3c0-.5,0-1,0-1.5,0-.2,0-.4.1-.5.2,0,.5,0,.7,0,.5,0,1,0,1.5,0s.4,0,.5,0c.1.1,0,.4,0,.5,0,1,0,2,0,3v3.7c0,.2,0,.5,0,.7,0,0-.1.5-.1.6,0,.2-.1.4-.2.6-.2.4-.4.8-.7,1.1-.1.1-.3.3-.4.4-.1.2-.4.3-.6.4-.4.2-.8.4-1.3.4-.1,0-.2,0-.3,0,0,0-.2,0-.3,0-.2,0-.5,0-.7,0h-.7c-.2,0-.5,0-.7,0,0,0-.1,0-.2,0-.1,0-.2,0-.3,0-.2,0-.4-.1-.6-.2-.4-.2-.8-.3-1.1-.6-.1-.1-.3-.3-.4-.4,0,0-.1-.1-.2-.2,0,0-.1-.2-.2-.3-.2-.4-.6-1.7-.6-1.8,0-.2,0-2.7,0-3.6,0-1,0-2,0-3s0-.4,0-.7c0-.2,0-.4.1-.5.1-.1.4,0,.6,0,.2,0,.5,0,.7,0,.5,0,.9,0,1.4,0,.1.2-.1,0,0,0"/>
  <path class="cls-1" d="M74.9,71.8c0,.3-.2.6-.3.8,0,.1,0,.3-.1.4,0,.1-.1.2,0,.4.4,0,1.7,0,2.1,0,0,0,0-.1,0-.2,0,0,0-.2,0-.2,0-.1,0-.3-.1-.4,0-.3-.2-.5-.3-.8-.2-.6-.4-1.1-.6-1.7-.5,1-.4,1.1-.6,1.7M81.2,77.6c-.8,0-1.6,0-2.4,0-.2,0-.3,0-.5,0,0,0-.2,0-.2,0,0,0,0-.2-.1-.3,0-.2-.1-.4-.2-.6,0-.2-.1-.4-.2-.5,0,0,0-.2-.1-.3,0,0,0,0,0-.1,0,0,0,0,0,0,0,0,0,0,0,0-.4,0-.8,0-1.2,0s-.8,0-1.2,0h-.6c-.2,0-.4,0-.6,0-.1,0-.2.1-.3.3,0,.2,0,.3-.2.5,0,.2-.1.3-.2.5,0,.2-.2.4-.3.6-.4,0-2.7,0-3.1,0,0,0,0-.2,0-.3,0,0,0-.1.1-.2,0-.2.1-.4.2-.6.2-.4.3-.9.5-1.3.3-.9.7-1.7,1-2.6.3-.8.7-1.7,1-2.5.3-.8.6-1.7,1-2.5,0-.2.2-.4.2-.6,0-.2.1-.5.3-.5.2,0,.4,0,.6,0,.2,0,.5,0,.7,0,.5,0,.9,0,1.4,0,0,0,.2,0,.3,0,0,0,0,0,0,0,0,0,0,.1,0,.1,0,.2.2.4.2.6.1.4.3.8.5,1.2.2.4.3.9.5,1.3.3.8.6,1.7.9,2.5.2.5.4.9.6,1.4.2.4.3.9.5,1.4.2.4.3.9.5,1.3,0,.2.2.4.2.6,0,0,0,.2.1.3,0,.1,0,.2,0,.3-.1,0,0-.1,0,0"/>
  <path class="cls-1" d="M62.1,68.9c0,0,0-.2,0-.3,0-.1,0-.2,0-.3,0-.2,0-.5,0-.7s0-.4,0-.6c0-.2,0-.4,0-.5.1-.3.6-.2.8-.2.4,0,.9,0,1.3,0,.9,0,1.8,0,2.7,0,.4,0,.9,0,1.3,0,.4,0,.9,0,1.3,0,.2,0,.3,0,.3.3,0,.2,0,.5,0,.7,0,.5,0,1,0,1.5-.1.1-.3.1-.4.1-.2,0-.5,0-.7,0s-.4,0-.7,0c-.2,0-.4,0-.6,0,0,.2,0,.5,0,.8s0,2,0,2.6v4.4c0,.3,0,.6,0,.9-.2,0-.3,0-.5,0-.2,0-.4,0-.6,0-.4,0-.8,0-1.1,0-.2,0-.4,0-.5,0-.2,0-.2-.2-.2-.4,0-.4,0-.8,0-1.1,0-1.6,0-3.1,0-4.7,0-.8,0-1.6,0-2.5-.8,0-1.5,0-2.3,0"/>
  <path class="cls-1" d="M29.5,71.5c0-.1-.3-.9-.4-1.1,0-.1-.1-.2-.1-.3,0-.1,0-.2,0-.3,0,0,0-.2-.1-.3,0,0,0,0-.2-.1,0,.2-.2.3-.2.5,0,.2-.1.4-.2.6,0,.2-.2.4-.2.6,0,.1,0,.2-.1.3,0,.1,0,.2,0,.3.6,0,1.1,0,1.7,0,0-.1,0-.2,0-.3M28.7,66.4h.5c.2,0,.4,0,.5,0,.1,0,.2.1.2.2,0,.2.1.3.2.5.3.7,2.1,5.7,2.2,6,.1.3.2.7.4,1,0,.2.4.6,0,.7-.1,0-.3,0-.5,0-.2,0-.4,0-.6,0-.2,0-.4,0-.5,0-.2,0-.3,0-.5,0-.1,0-.1-.1-.2-.2,0-.2-.1-.3-.2-.5-.1-.2-.1-.5-.4-.6-.2,0-.4,0-.5,0-.2,0-.4,0-.6,0-.4,0-.8,0-1.1,0-.2,0-.3,0-.5,0-.1,0-.2.3-.2.4,0,.2-.2.4-.2.6,0,.1-.1.2-.2.3-.2,0-.3,0-.5,0-.2,0-.4,0-.6,0-.2,0-.4,0-.6,0-.1,0-.3,0-.4,0,0-.1,0-.2,0-.4,0-.2.1-.4.2-.5.1-.3.3-.7.4-1,.3-.6,2-5.2,2.2-5.9,0-.2.1-.5.4-.6.1,0,.3,0,.4,0,.2,0,.4,0,.7,0h0c.3,0,0,0,0,0"/>
  <path class="cls-1" d="M57.7,85.3c-.2-.2-.4-.4-.6-.6-.2-.2-.5-.4-.8-.5-.3-.1-.6-.2-.9-.3-.3,0-.7,0-1,0-.6,0-1.2.4-1.7.8-.2.2-.5.5-.6.7,0,.1-.4.7-.4.8-.1.3-.2.6-.2,1-.1,1.7.6,2.3.7,2.5.4.5.8.8,1.3,1.1.1,0,1.4.4,1.7.3.1,0,.7-.2.9-.3.3-.1.6-.3.8-.6.2-.2.4-.5.6-.8.2-.3.2-.6.2-.9-.1,0-.3,0-.4,0-.2,0-.3,0-.5,0-.3,0-.6,0-1,0-.2,0-.4,0-.4-.2,0-.1,0-.2,0-.4,0-.1,0-.3,0-.4.1-.2.4-.2.7-.2.3,0,.6,0,1,0h1c.2,0,.8,0,.9,0,.2,0,.2.4.2.6,0,.3-.1.5-.2.8,0,.6-.3,1.1-.6,1.6-.3.5-.7.9-1.1,1.2-.2.2-.5.3-.8.4-.1,0-.3.1-.4.2-.1,0-.3,0-.4,0-.3,0-1.6,0-1.8,0-.5,0-1.1-.4-1.5-.7-.2-.2-.5-.3-.7-.5-.2-.2-.4-.4-.5-.7-.2-.2-.3-.5-.4-.8-.1-.3-.3-.6-.4-.9-.1-.6,0-1.7,0-1.8,0-.6.3-1.1.5-1.6.3-.5.6-.9,1-1.3.5-.6,1.9-1,2.6-1.2.3,0,.9,0,1.2,0,0,0,.1,0,.2,0,0,0,.4.1.6.1.3,0,.5.2.8.3.2.1.5.3.7.4.2.2.4.3.6.6,0,0,.2.2.2.3,0,.1,0,.2-.2.3-.2.2-.4.4-.6.6,0,0,.2-.2,0,0"/>
  <path class="cls-1" d="M70.9,107.2c-.1-.2-.1-.5,0-.7,0-.3.4-1.3.5-1.5,0-.2.2-.5,0-.7-.2-.2-.4-.3-.6-.5-.2-.2-.4-.3-.6-.5-.2-.2-.9-.5-.7-.9,0,0,0-.2.1-.2,0,0,.3,0,.4,0,.3,0,1.4,0,1.7,0,.2,0,.4,0,.5,0,.1,0,.2-.2.2-.3,0-.2.4-1.2.5-1.5,0-.2.2-.5.3-.7.2-.2.4,0,.6.1,0,0,.1.2.2.3,0,.1,0,.2.1.4.1.3.3,1.1.4,1.2,0,.1,0,.3,0,.4.3,0,2.1.2,2.3.2.2,0,.4,0,.5.2.2.4-.3.6-.6.8-.4.3-.7.5-1.1.8-.2.2-.5.4-.4.7,0,.2.1.3.2.5,0,.2.5,1.4.4,1.8,0,.1-.1.2-.2.3-.2,0-.4,0-.5-.1-.4-.2-.7-.5-1.1-.8-.3-.2-.6-.6-1-.4-.2,0-.4.3-.6.4-.2.1-.4.3-.6.4-.2.1-.4.3-.6.4-.2.1-.4,0-.6,0-.2-.3.2,0,0,0"/>
  <path class="cls-1" d="M29.9,103c-.3.2-.7.5-1,.7-.2.1-.3.2-.5.4,0,0-.2.1-.2.2,0,0-.2.1-.3.2,0,0,0,.2,0,.3,0,.1,0,.2,0,.3,0,.2.3,1,.4,1.2,0,.2.1.4.2.6,0,.3-.1.6-.5.5-.2,0-.3-.2-.5-.3-.2-.1-.4-.3-.5-.4-.2-.1-.3-.2-.5-.4-.2-.1-.3-.3-.5-.3-.2,0-.3,0-.5.2-.2.1-.4.2-.6.4-.2.1-.4.3-.6.4-.2.1-.4.3-.6.4-.3.1-.6,0-.5-.4,0-.2.1-.5.2-.7,0-.2.4-1.2.5-1.4,0-.2,0-.4-.2-.5-.2-.1-.4-.3-.5-.4-.2-.2-.4-.3-.5-.4-.2-.1-.4-.3-.6-.4-.2-.1-.1-.3-.1-.5,0-.1.2-.2.3-.2.2,0,1.6,0,2.1,0,.2,0,.3,0,.4-.2.1-.2.2-.3.2-.5.1-.4.3-.8.5-1.3.1-.3.3-.8.7-.6.3.1.4.7.5,1,.1.4.3.8.4,1.3,0,.1.1.3.3.3.2,0,1.6.2,2.1.2.2,0,.4,0,.5.2,0,.2,0,.3,0,.5-.2.1,0,0,0,0"/>
  <path class="cls-1" d="M4.1,90.8c.3,0,.6,0,1,0,.3,0,.7,0,1-.1.5-.1,1.1-.4,1.6-.8.4-.4.7-.9.9-1.4,0-.3.1-.7.1-1,0-.2,0-.3,0-.5,0,0,0-.2,0-.3,0,0,0-.2,0-.3,0-.3-.2-.6-.3-.8-.1-.2-.3-.5-.5-.7-.4-.4-1.1-.7-1.6-.8-.1,0-.3,0-.4,0-.2,0-.3,0-.5-.1-.2,0-.3,0-.5,0-.2,0-.3,0-.5,0-.2,0-.1.2-.1.3s0,.4,0,.6c0,.4,0,.7,0,1.1,0,.8,0,1.7,0,2.5,0,.4,0,.8,0,1.2,0,.4,0,.8,0,1.1.1,0,0-.1,0,0M2.9,91.9c0-.2,0-.5,0-.8,0-.3,0-.6,0-.9,0-.6,0-1.2,0-1.8,0-1.2,0-5.2,0-5.5.3,0,.6,0,1,0,.3,0,.7,0,1,0,.3,0,.6.1.9.1.2,0,.3,0,.5,0,.2,0,.3,0,.5.1,1.1.4,2.2,1.1,2.7,2.2.3.6.5,1.2.5,1.9,0,.3,0,.6,0,1,0,.3-.1.6-.2.9,0,.3-.2.5-.3.8,0,.1-.2.2-.3.3,0,.1-.2.2-.2.3-.2.2-.4.4-.7.5-.2.2-.5.3-.7.4-.3.2-.7.2-1,.3-.2,0-.4,0-.5.1-.2,0-.4,0-.6,0-.4,0-.8,0-1.2,0-.4,0-.8,0-1.1,0,0-.2,0,0,0,0"/>
  <path class="cls-1" d="M29.4,88.5c.3,0,.6,0,.9,0h.9c.2,0,.3,0,.5,0,.1,0,.3,0,.4,0,.1,0,.2,0,.1-.2,0-.1-.1-.2-.2-.4,0-.2-.2-.5-.3-.7-.1-.2-.2-.5-.3-.7,0-.3-.2-.5-.3-.7,0-.1-.1-.2-.1-.3,0,0,0-.1,0-.2,0,0-.1,0-.1,0-.2.6-.5,1.1-.7,1.7-.1.3-.2.5-.4.8-.1.2-.3.6-.3.8,0,0,0,0,0,0M35.1,91.9c-.2,0-.4,0-.6,0-.2,0-.4,0-.6,0-.2,0-.2-.1-.3-.3,0-.2-.2-.4-.3-.5-.2-.3-.3-.7-.4-1,0-.1-.1-.2-.2-.3-.2,0-.3,0-.5,0-.9,0-1.7,0-2.6,0-.2,0-.4,0-.6,0s-.3,0-.3.1c-.1.1-.2.3-.2.5,0,.2-.2.4-.3.6,0,.2-.2.4-.3.6,0,.1-.1.3-.2.3-.2,0-.4,0-.5,0-.2,0-.5,0-.7,0,.2-.6.5-1.2.8-1.8.3-.6.6-1.2.8-1.8.6-1.2,1.1-2.5,1.7-3.7.3-.7.6-1.4.9-2.1,0,0,.1,0,.2,0,0,0,0,.1,0,.2,0,.2,2,4.4,2.3,5,.3.7.6,1.3.9,2,.3.7.7,1.4.9,2.1-.4,0,0-.2,0,0"/>
  <path class="cls-1" d="M86.3,85.2c-.1,0-.2.1-.2.3,0,.1-.1.3-.2.4-.1.3-.3.6-.4.9-.1.3-.3.6-.4.9,0,.1-.1.3-.2.4,0,.1-.1.3-.1.4.2,0,.5,0,.7,0,.3,0,.5,0,.8,0,.2,0,.5,0,.7,0,.2,0,.5,0,.7,0,0-.3-.2-.6-.3-.8-.1-.3-.2-.5-.3-.8-.2-.6-.5-1.1-.7-1.7,0,0,.5,1.1,0,0M82,91.9c0-.3.2-.6.3-.8.1-.3.3-.6.4-.9.3-.6.6-1.3.9-1.9.6-1.3,1.2-2.5,1.7-3.8.2-.4.3-.7.5-1.1,0-.2.2-.4.2-.5,0,0,0-.2,0-.2,0,0,.1,0,.2-.1.6,1.2,1.1,2.4,1.6,3.6.5,1.2,1.1,2.4,1.7,3.6.3.7.6,1.4.9,2.1,0,.1-.3.1-.4.1-.2,0-.4,0-.6,0-.4,0-.4-.4-.6-.7-.2-.4-.3-.7-.5-1.1,0-.1-.1-.3-.3-.4-.2,0-.4,0-.5,0-.8,0-1.7,0-2.5,0-.2,0-.4,0-.6,0-.2,0-.3,0-.4.1-.1.1-.2.3-.2.4,0,.2-.1.3-.2.5,0,.2-.2.4-.3.5,0,0,0,.2-.1.3,0,0,0,.2,0,.3-.1.1-.4,0-.5,0-.2,0-.5,0-.7,0,0-.2.4,0,0,0"/>
  <path class="cls-1" d="M19.1,66.5c.4,0,1.7,0,2,0,.1.2,0,.5,0,.7,0,.3,0,.6,0,.9v1.6c0,.5,0,3,0,3.3.7,0,1.5,0,2.2,0,.1,0,.3,0,.3.1,0,.2,0,.4,0,.5,0,.4,0,.8,0,1.1-.1.2-.3.2-.5.2-.2,0-.5,0-.7,0h-2.9c-.2,0-.6,0-.7-.1,0,0,0-.2,0-.3,0-.2,0-.5,0-.7,0-.5,0-6.4,0-6.7,0-.2,0-.5.2-.6.4,0-.1,0,0,0"/>
  <path class="cls-1" d="M70.6,82.8c0,.4,0,.7,0,1.1-.2.1-.5,0-.8,0-.3,0-.6,0-1,0-.6,0-1.2,0-1.8,0,0,.2,0,.4,0,.6,0,.2,0,.4,0,.6,0,.4,0,.8,0,1.2,1.2,0,2.3,0,3.5,0,0,.3.1.6,0,.9,0,.4-.6.3-.9.3-.9,0-1.8,0-2.7,0-.1.5,0,1.1,0,1.6s0,1,0,1.6c.6,0,1.2,0,1.7,0,.6,0,1.2,0,1.8,0,.1.4,0,.7,0,1.1-.9,0-1.8,0-2.8,0-.5,0-.9,0-1.4,0-.2,0-.4,0-.6,0-.2-.1-.1-.4-.1-.6,0-.9,0-1.9,0-2.8,0-.9,0-1.8,0-2.8,0-.5,0-1,0-1.6,0-.3,0-.5,0-.8,0-.2,0-.5.1-.7.2,0,.5,0,.7,0,.4,0,.8,0,1.2,0,.5,0,.9,0,1.4,0,.5,0,.9,0,1.4,0,0,.4-.1,0,0,0"/>
  <path class="cls-1" d="M16.2,86.4c0,.4,0,.7,0,1.1-.1,0-.2,0-.4,0-.2,0-.3,0-.5,0h-1.9c-.2,0-.3,0-.5,0-.1,0-.3,0-.4,0,0,.6,0,1.2,0,1.8,0,.3,0,.6,0,.9,0,.2,0,.5.2.5.3,0,.6,0,.8,0,.3,0,.6,0,.9,0h.9c.2,0,.6,0,.8.1,0,.3,0,.6,0,1-.6,0-1.2,0-1.8,0-.6,0-1.2,0-1.9,0s-.6,0-.9,0c0,0-.2,0-.3-.1,0-.1,0-.3,0-.5,0-.6,0-1.3,0-1.9,0-1.2,0-2.5,0-3.7,0-.6,0-1.3,0-1.9,0-.1,0-.3,0-.4s0-.3,0-.5c0-.2.5-.1.7-.1.7,0,1.4,0,2.1,0s1.4,0,2.1,0c.1.4,0,.7,0,1.1-.1,0-.2,0-.4,0-.2,0-.3,0-.5,0-.3,0-.7,0-1,0s-.7,0-1,0c-.3,0-.6,0-.9,0,0,.5,0,1.1,0,1.6v.4c0,0,0,.2,0,.3,0,.2.3.1.4.1,1,0,2.1,0,3.1,0,0,.4-.2,0,0,0"/>
  <path class="cls-1" d="M77.6,84.1c-.3.2-.6.4-.9.6-.3-.2-.5-.5-.8-.7-.3-.2-.6-.2-1-.1-.2,0-.3.1-.5.2-.1,0-.3.1-.4.2,0,0-.2.2-.2.3,0,0,0,.1,0,.2,0,0,0,.1-.1.2,0,.3.2.6.4.8.2.2.5.4.8.5.7.3,1.4.5,2,.9,1.1.8,1.4,2.5.6,3.6,0,.1-.2.3-.3.4-.1.2-.2.2-.4.3-.3.2-.5.4-.8.5,0,0-.2,0-.3,0,0,0-.2,0-.3,0-.2,0-.3,0-.5,0-.3,0-.7-.1-1-.2-.2,0-.3-.2-.5-.3-.2-.1-.3-.2-.5-.3-.3-.3-.5-.6-.6-1,0-.2-.4-.7-.1-.9,0,0,.2,0,.3,0,0,0,.2,0,.3,0,.1,0,.2,0,.3,0,.1,0,.2,0,.3,0,0,.3,0,.6.2.8.1.2.3.4.5.5.1,0,.2.1.3.2.1,0,.2,0,.3.1,0,0,.1,0,.2,0,0,0,.1,0,.2,0,.2,0,.3-.1.5-.2.3-.1.5-.3.6-.6.2-.3.2-.6.2-.9s0-.6-.2-.8c-.1-.2-.4-.4-.6-.5-.3-.2-.6-.3-.9-.5-.3-.1-.6-.2-.9-.4-.3-.2-.5-.3-.8-.5-.2-.2-.4-.5-.5-.7,0-.1-.1-.2-.1-.4,0-.2,0-.3,0-.5,0-.3.1-.6.3-.9,0-.1.1-.3.2-.4,0-.1.2-.2.3-.3.2-.2.5-.3.7-.4.2,0,.3,0,.5-.1.2,0,.3,0,.5,0,.4,0,.7,0,1,.1.3.1.7.3.9.5.1,0,.2.2.3.4,0,0,.2.3.3.4-.2.1-.1-.1,0,0"/>
  <path class="cls-1" d="M37.1,89.4c0,.1,0,.3,0,.4,0,.2,0,.3.2.4.1.2.3.5.6.6.1,0,.3,0,.4.1.1,0,.2.1.4.1.1,0,.3,0,.4,0,.2,0,.3,0,.5-.2.6-.3.8-1,.8-1.6,0-.1,0-.2,0-.3,0,0,0-.2-.1-.3-.1-.2-.3-.4-.5-.5-.3-.2-.6-.3-.9-.5-.3-.1-.6-.3-1-.4-.6-.3-1-.7-1.3-1.2,0-.1-.1-.3-.2-.4,0-.2,0-.3,0-.5,0-.2,0-.3,0-.5,0-.2.1-.3.2-.4,0-.1,0-.2.2-.3,0-.1.1-.3.2-.4,0,0,.2-.2.3-.2.1,0,.2-.2.4-.3.1,0,.3-.1.4-.2.1,0,.2,0,.3,0,0,0,.2,0,.2,0,.3,0,.7,0,1.1,0,.4,0,.7.3,1,.5.1,0,.3.2.4.3.1.2.2.3.3.5,0,.2-.2.2-.3.3,0,0-.1.1-.2.2-.1,0-.2.1-.3.2-.3-.2-.5-.5-.8-.7-.1,0-.3-.1-.4-.1-.2,0-.3,0-.5,0-.1,0-.3,0-.4.1-.1,0-.3.1-.4.2-.1.1-.2.2-.2.4,0,.2-.2.3-.2.5,0,.3.3.6.5.8.2.2.5.3.8.5.7.2,1.4.5,1.9.9.5.4.8,1.1.9,1.7,0,.2,0,.4,0,.5,0,.2,0,.3-.1.5,0,.2,0,.3-.2.4,0,.2-.1.3-.2.5-.4.6-.9.9-1.5,1.1-.1,0-.3,0-.4,0-.2,0-.3.1-.5,0-.3,0-.7,0-1-.2-.2,0-.4-.2-.5-.3-.2-.1-.3-.2-.5-.3-.2-.2-.4-.6-.6-.9,0-.2-.2-.4-.2-.6,0-.1,0-.3.1-.3,0,0,.2,0,.2,0,.1,0,.2,0,.3,0,0,0,.2,0,.3,0,0,0,.2,0,.3,0,0,.1,0,0,0,0"/>
  <path class="cls-1" d="M91.4,89.7c0-.1.2-.2.3-.2.2,0,.3,0,.5,0,.1,0,.3,0,.4,0,0,0,0,.2,0,.2,0,0,0,.2,0,.2.1.3.3.6.5.8.3.2.6.3.9.4.6,0,1.3-.3,1.6-.8,0-.1.1-.3.1-.4,0-.2,0-.3,0-.5,0-.2,0-.3,0-.5,0,0,0-.1,0-.2,0,0-.1-.2-.2-.2-.5-.5-1.1-.7-1.7-1-.3-.1-.6-.3-.9-.5-.3-.2-.6-.4-.8-.7-.2-.3-.3-.6-.3-.9,0-.3,0-.6,0-.9.2-.6.5-1.1,1.1-1.4.7-.4,1.5-.6,2.3-.4.6.2,1.3.7,1.6,1.3,0,.2-.3.2-.4.3,0,0-.1.1-.2.1-.1,0-.2,0-.3,0,0-.1-.1-.2-.2-.3,0-.1-.2-.2-.3-.2-.3-.2-.6-.2-.9-.2-.1,0-.3,0-.4,0-.1,0-.2.1-.4.2-.2.1-.4.3-.5.6,0,.3-.1.7,0,.9.2.2.4.4.7.6.6.3,1.3.5,1.8.8.5.3,1,.7,1.2,1.3.3.6.3,1.3.1,1.9,0,.3-.2.5-.4.8,0,.1-.1.3-.2.4,0,.1-.2.2-.4.3-.3.2-.5.3-.8.4-.1,0-.3,0-.4.1-.2,0-.3,0-.5,0-.7,0-1.4-.3-2-.8-.2-.2-.4-.5-.6-.8-.2-.3-.2-.6-.3-1,0-.1,0,.1,0,0"/>
  <path class="cls-1" d="M62.4,90.8c.3,0,1.3,0,1.6,0,.2,0,.4,0,.6.1,0,.3,0,.6,0,.9,0,0-.2.1-.3.1-.2,0-.3,0-.5,0-.3,0-.7,0-1,0-.7,0-1.3,0-2,0,0-.5,0-1.1,0-1.7v-7.4c.4-.1.7,0,1.1,0,0,.5,0,1,0,1.5v4.7c0,.6,0,1.2,0,1.8.2.1.4,0,.6,0"/>
  <path class="cls-1" d="M44.7,107.5c0-.3,0-.7,0-1,0-.2.6-2.2.6-2.4,0,0,0-.1,0-.2,0,0,0-.2,0-.2-.3-.4-.8-.2-1.1,0-.4.3-.6.7-.8,1.1-.2.3-.3.7-.4,1.1,0,.2-.1.5-.2.7,0,.2-.1.5-.2.7,0,.2-.1.3-.3.3-.2,0-.5,0-.6,0-.1,0,0-.1,0-.2,0-.1,0-.3,0-.4,0-.3.1-.5.2-.7,0-.2.8-3.5.9-3.6,0-.3.2-1.1.3-1.2,0-.1,0-.2.1-.4,0-.1,0-.3,0-.4,0-.1,0-.2,0-.4-.2,0-.4,0-.6,0-.1-.1-.1-.2,0-.3.3,0,1.3,0,1.7,0,0,.2,0,.3,0,.5,0,0-.1.4-.1.5,0,.3-.6,2.6-.7,2.7,0,0,0,.1,0,.2.7-.4,1.7-1.2,2.4-.4.1.2.2.3.2.5,0,.2-.4,1.7-.5,2,0,.3-.2.5-.2.8,0,.2-.2.5,0,.7.3.2.6-.3.8-.5,0-.2.2-.3.2-.5,0-.1.1-.3.3-.2.2,0-.1.6-.2.7-.1.3-.3.5-.5.7-.2.2-.5.3-.8.4-.3,0-.6,0-.8-.3,0-.4.2.2,0,0"/>
  <path class="cls-1" d="M23.4,82.8c0,2,0,4.1,0,6.1s0,1.2,0,1.8c.2.2.4.1.6.1.3,0,.5,0,.8,0,.3,0,.5,0,.8,0,.2,0,.4,0,.6.1,0,.3,0,.6,0,.9-.3,0-.6,0-.9,0-.3,0-.7,0-1,0-.6,0-1.3,0-1.9,0,0-.5,0-1.1,0-1.7v-7.4c.4-.1.7,0,1.2,0,0,.7-.4,0,0,0"/>
  <path class="cls-1" d="M39.7,107.5c-.2,0-.3-.2-.5-.2-.1,0-.2.1-.3.2,0,0,0,0-.1,0,0,0-.1,0-.2,0-.1,0-.3,0-.4,0-.2,0-.3,0-.4,0-.3,0-.6,0-.8-.1-.6-.2-1-.5-1.4-1-.2-.2-.4-.5-.4-.8,0-.3-.2-.6-.1-1,0-.3,0-.7.1-1,0-.3.2-.7.3-1,.2-.6.6-1.1.9-1.6.4-.5.9-.8,1.4-1.1.1,0,.3-.2.4-.2,0,0,.1,0,.2,0,0,0,.2,0,.3,0,.3,0,.7,0,1,0,.2,0,.3,0,.4.2.1,0,.3.2.4.3,0,0,0,0,0,0,0,0,.1,0,.1,0,0,0,.2,0,.2-.1,0,0,.3-.1.3,0,0,0,0,.2,0,.2,0,0-.2,1.1-.2,1.3,0,.2-.1.4-.2.5-.3,0-.4-.2-.4-.5,0-.3,0-.5-.2-.8,0-.1-.2-.2-.3-.3-.1-.1-.2-.2-.4-.3-.3-.2-.6-.2-.9,0-.6.2-1,.7-1.3,1.2-.3.6-.6,1.2-.8,1.9,0,.2-.2.8-.2.9,0,.1-.1.7-.1.9,0,.6,0,1.4.3,1.9.3.4.8.6,1.3.5.6-.1,1.1-.5,1.4-.9.2-.3.5-.5.6-.9,0-.1.1-.3.3-.2.2,0,.2.1.2.3,0,.1-.5,1.7-.7,1.9-.2,0,.1-.1,0,0"/>
  <path class="cls-1" d="M80.7,91.9c-.5,0-.8,0-1.2,0,0-.1,0-.3,0-.4,0-.2,0-.3,0-.5v-3c0-1.3,0-2.6,0-4,0-.3,0-.6,0-.9,0-.3.3-.3.5-.3.2,0,.6,0,.7,0,.2.2,0,.5,0,.7,0,1.3,0,2.7,0,4s0,2.9,0,4.3c-.5,0,0-.2,0,0"/>
  <path class="cls-1" d="M47.4,82.9c.2,0,.3,0,.5,0,.1,0,.4,0,.5,0,.3,0,.2.6.2.8,0,.8,0,1.6,0,2.4,0,1.6,0,3.1,0,4.7,0,.2,0,.4,0,.6,0,.1,0,.4,0,.5,0,0-.2,0-.3,0-.1,0-.2,0-.3,0-.1,0-.2,0-.3,0-.1,0-.2,0-.2,0,0-.3,0-.6,0-.9,0-.6,0-1.2,0-1.8,0-1.5,0-2.9,0-4.4,0-.7,0-1.4,0-2,.3-.1,0,.1,0,0"/>
  <path class="cls-1" d="M57.8,103.3c-.3,0-.6.3-.8.6-.2.3-.3.7-.4,1.1,0,.2,0,.4-.2.6,0,0-.2.9-.2,1.1,0,.2,0,.4.2.5.2.2.4.3.7.3.7,0,1-.8,1.2-1.4,0-.2.5-1.7.2-2.5,0-.2-.6-.4-.9-.3M56,107.4c-.4-.3-.6-.8-.6-1.3,0-.3,0-.5,0-.8,0-.3.2-.5.3-.7.2-.4.6-.9.9-1.2.2-.2.6-.3.8-.4.2,0,.5-.2.7-.1.2,0,.4.1.6.2.4.2.7.6.9,1.1,0,.2.1.5,0,.8,0,.1-.1.6-.2.7-.2.5-.5,1-.9,1.4-.4.4-.9.7-1.6.7-.4,0-.9,0-1.2-.3"/>
  <path class="cls-1" d="M52.2,107.7c-.1,0-.2-.2-.3-.3,0-.1,0-.3,0-.4,0-.3.1-.7.2-1,0-.3.2-.6.3-1,0-.2,1.3-4.8,1.2-4.9-.2-.2-.7.1-.8-.3,0-.3.6-.2.7-.2.4,0,.7,0,1.1,0,.2.2,0,.7,0,.8,0,0-1.4,5.2-1.4,5.4,0,.1,0,.3-.1.4,0,.1,0,.3,0,.4,0,.2,0,.3,0,.5.3.1.6-.1.8-.4.2-.3.4-.7.6-1,.3,0,.3,0,.3.2,0,.2-.1.4-.3.6-.1.2-.3.5-.5.7-.2.2-.4.3-.6.3-.3,0-.5,0-.8,0,0,0,.3,0,0,0"/>
  <path class="cls-1" d="M62.5,104.1c0,.1-.5.8-.3.9.2,0,.5,0,.8,0,0,0,.4-.1.6-.4.1-.2.3-.5.2-.7,0-.1,0-.3-.2-.4-.1,0-.5,0-.7,0-.3.2-.4.4-.6.7M62.2,107.7c-.6-.3-.9-.6-1.1-.9-.1-.3-.2-.6-.2-1,0-.2.2-.8.2-.9.1-.3.2-.5.5-.8.2-.3.5-.6.8-.7.1,0,.6-.3.7-.3.5-.1.8-.2,1.1,0,.2.1.5.3.6.6,0,.3,0,.6,0,.8-.1.3-.4.5-.7.6-.2,0-.3.1-.5.2-.2,0-.9.1-1.1.1-.1,0-.3,0-.4,0-.1,0-.2.2-.2.3,0,.2,0,.3,0,.5,0,.1,0,.5.1.6,0,.1.2.4.6.4.3,0,.7-.1.7-.2.4-.1.4-.3.6-.6,0,0,.1-.1.2-.2,0,0,0,0,.1-.1.2,0,.2.2.1.3,0,.3-.4.6-.6.8-.1,0-.3.2-.4.2-.4.1-1,0-1.1,0"/>
  <path class="cls-1" d="M48.3,107.4c0-.3.5-2.6.6-3,.1-.3.1-.7.2-1,0,0-.2,0-.3,0-.1,0-.3,0-.4,0,0,0-.1,0,0-.2,0-.1.2,0,.3,0,.2,0,.5,0,.7,0,.1,0,.2,0,.3-.1,0,0,.2,0,.3,0,.2,0,.2.2.1.4,0,.2-.1.5-.2.7,0,.2-.1.5-.2.7,0,.1,0,.2,0,.3,0,.1,0,.2,0,.4,0,.3-.1.6-.2.8,0,.3-.1.6-.2.8.2.4.6.2.8,0,.2-.3.4-.6.5-1,.1,0,.2,0,.3,0,0,.3-.1.6-.3.8-.2.2-.3.5-.5.7-.2.2-.5.2-.8.2-.3,0-.5,0-.8-.3,0-.3.2.2,0,0"/>
  <path class="cls-1" d="M63.1,102.6c.3-.4.7-.8,1.1-1.2.3-.3.7-.9,1.1-.6.3.1.2.5,0,.7-.1.1-.3.2-.4.3-.2,0-.3.2-.5.3-.3.2-.5.3-.8.5-.2.1-.4,0-.6,0,.1-.2.4,0,0,0"/>
  <path class="cls-1" d="M49.6,100.8c0-.2,0-.4.2-.6.2-.2.6-.1.8.1.2.2.1.6,0,.8-.2.2-.4.2-.6.1,0,0-.2-.1-.2-.2,0,0,0-.1,0-.2,0-.2,0,0,0,0"/>
  <path class="cls-1" d="M26.8,48.6c.5,0,.9,0,1.4,0,.2,0,.3-.1.3-.3,0-.2,0-.5,0-.7,0-.2,0-.5,0-.7,0-.1,0-.2,0-.2,0,0-.2,0-.3,0-.2,0-.5,0-.7,0-.2,0-.4,0-.6,0,0,.4,0,1.6,0,2,.5,0,0-.4,0,0M28.4,51.5c0-.3,0-.6,0-.9,0-.2,0-.3,0-.4,0-.1,0-.3,0-.5,0,0,0-.1-.1-.1,0,0-.1,0-.2,0-.2,0-.3,0-.5,0h-.5c-.2,0-.3,0-.4,0,0,.3,0,.7,0,1,0,.3,0,.6,0,.9.5,0,1,0,1.6,0,0-.6-.6,0,0,0M29.3,51.5c.4,0,1.3,0,1.6,0,0-.3,0-.7,0-1,0-.3,0-.7,0-1-.6,0-1.3,0-1.6,0,0,.4,0,1.6,0,2,.4,0,0-.4,0,0M30.9,46.6c-.5,0-1.3,0-1.6,0,0,.1,0,.3,0,.5,0,.2,0,.3,0,.5s0,.3,0,.5c0,.2,0,.3,0,.5.4,0,1.3,0,1.6,0,0-.4,0-1.6,0-2-.5,0,0,.4,0,0M26.8,45.7c.4,0,.8,0,1.2,0,0,0,.4,0,.4,0,0,0,0-.3,0-.4,0-.1,0-.3,0-.4,0-.3,0-.6,0-.9,0,0,0-.2,0-.3,0,0-.2,0-.3,0-.3,0-.6,0-.8,0-.2,0-.4,0-.4.2,0,.3,0,.6,0,.9s0,.6,0,.9c.5,0,0-.2,0,0M30.9,45.7c0-.3,0-.6,0-1,0-.4,0-.8,0-1.1-.3,0-.6,0-.8,0-.1,0-.3,0-.4,0-.1,0-.2,0-.4,0,0,.3,0,.7,0,1,0,.3,0,.7,0,1h1.6c0-.3-.5,0,0,0M25.9,47.6c0-1.1,0-2.1,0-3.2,0-.3,0-.5,0-.8s0-.4,0-.6c0-.2.3-.2.4-.2.3,0,.5,0,.8,0,1.1,0,2.1,0,3.2,0,.3,0,.5,0,.8,0,.1,0,.3,0,.4,0,.3.2.2.6.2.9,0,2.1,0,4.3,0,6.4,0,.5,0,1.1,0,1.6,0,.2,0,.4-.2.5-.2.1-.5,0-.7,0-1.1,0-2.1,0-3.2,0s-.5,0-.8,0c-.2,0-.5,0-.8,0-.4,0-.4-.4-.4-.7,0-1.1,0-2.1,0-3.2v-.8h0c0-1.3,0,0,0,0"/>
  <path class="cls-1" d="M50,45.3c-.1-.3-.7-.9-1-1.1-.1.3-.3.7-.1,1.1.4,0,.7,0,1.1,0-.1-.3-.4,0,0,0M53.2,44.1c-.1,0-.2,0-.3.2-.1.1-.2.2-.3.3-.2.2-.4.4-.4.7.4,0,.8,0,1.2,0,.2-.4,0-.8-.2-1.2,0,0,.1.4,0,0M51.5,44.4c.4-.2.8-.8,1-1.1,0-.2-.2-.3-.4-.4,0,0-.2,0-.2-.1-.1,0-.2,0-.3,0,0,.6,0,1.1,0,1.7.4-.2,0-.6,0,0M50.6,44.5c0-.4,0-1.3,0-1.7-.1,0-.2,0-.3,0-.1,0-.2.1-.3.2-.2.1-.4.2-.5.4.4.4.7.7,1.1,1.1,0-.4-.4-.4,0,0M53.4,46.2c-.1-.1-.3,0-.5,0-.2,0-.4,0-.6,0-.4,0-.8,0-1.2,0-.4,0-.8,0-1.2,0s-.4,0-.6,0c-.2,0-.4,0-.5,0,0,.5,0,.7,0,1,.4,0,.8,0,1.1,0s.8,0,1.2,0c.4,0,.8,0,1.1,0s.8,0,1.1,0c0-.3,0-.6,0-.9-.2-.1,0,0,0,0M48.8,49c.3,0,.7,0,1.1,0h1.2c.4,0,.8,0,1.2,0,.4,0,.8,0,1.1,0,0-.3,0-.6,0-.9-.4,0-.7,0-1.1,0-.4,0-.8,0-1.2,0-.4,0-.8,0-1.1,0-.4,0-.8,0-1.1,0,0,.3,0,.6,0,.9,0,0,0-.3,0,0M53.4,52c-.1,0-.3,0-.5,0-.2,0-.4,0-.6,0-.4,0-.8,0-1.2,0-.4,0-.8,0-1.2,0-.2,0-.4,0-.6,0-.2,0-.3,0-.4.1,0,.3,0,.6,0,.9.5,0,1,0,1.5,0,.7,0,1.4,0,2.2,0,.3,0,.6,0,1,0,0-.3,0-.6,0-1-.2-.1,0,.3,0,0M48.8,51c.7,0,1.5,0,2.3,0,.4,0,.8,0,1.1,0s.8,0,1.1,0c0-.2,0-.4,0-.6,0-.2,0-.3,0-.5-.4,0-.7,0-1.1,0h-2.3c-.4,0-.8,0-1.1,0,0,.4,0,.7,0,1,.1,0,0-.4,0,0M54.3,49v3.6c0,.4,0,.9-.3,1.1-.2.1-.5,0-.7,0-.3,0-.6,0-.9,0-1.2,0-2.4,0-3.6,0-.2,0-.5,0-.6-.1-.1-.1-.2-.3-.2-.5,0-.3,0-.6,0-.9v-4.5c0-.6,0-1.2,0-1.9,0-.3,0-.6,0-.9,0-.1,0-.2,0-.4,0-.1,0-.2.1-.4,0-.1,0-.3,0-.4,0-.1,0-.3.1-.4.1-.2.3-.4.4-.6.1-.2.3-.4.5-.5.2-.2.4-.3.7-.5.1,0,.2-.1.4-.2.1,0,.2,0,.4,0,.3,0,.6-.1.9,0,.2,0,.5,0,.8.2.2.1.4.2.6.3.4.3.8.6,1,1.1.1.2.2.4.3.7,0,.1,0,.2,0,.3,0,.1.1.2.1.3,0,.2,0,.5,0,.8v3.6h0c0,1.3,0,0,0,0"/>
</svg>