<svg enable-background="new 0 0 120 60" viewBox="0 0 120 60" xmlns="http://www.w3.org/2000/svg"><g fill="#fff"><path d="m25.2 58.5h-21.6v-5.7h21.6zm-21-.7h20.3v-4.4h-20.3z"/><path d="m50.9 58.5h-26.3v-5.7h26.3zm-25.7-.7h25v-4.4h-25z"/><path d="m17.8 46.5c-4.2 0-7.6-1.2-10.2-3.4-2.6-2.3-4.1-5.5-4.1-9 0-3.4 1.5-6.6 4.1-8.9 2.5-2.2 5.9-3.4 9.7-3.4 1.9 0 4 .4 6.2 1.3l.2.1v5.8l-.5-.2c-1.6-.6-3-1-4.3-1.2-.5-.1-1-.1-1.4-.1-2.1 0-4 .6-5.2 1.7-1.5 1.3-2.3 3.1-2.3 5.1 0 2.6 1.3 4.1 2.1 4.8 0 0 2.1 1.9 5.5 1.9.4 0 .8 0 1.2-.1 1.4-.2 2.9-.6 4.4-1.2l.5-.2v5.8l-.2.1c-2.4.9-4.3 1.1-5.7 1.1zm-.5-24.1c-3.6 0-6.9 1.1-9.2 3.2-2.4 2.1-3.8 5.2-3.8 8.4 0 3.3 1.4 6.3 3.8 8.5s5.7 3.3 9.7 3.3c1.3 0 3-.1 5.3-1.1v-4.4c-1.5.6-2.8.9-4.2 1.1-.4.1-.9.1-1.3.1-3 0-5.2-1.3-6-2-.9-.8-2.3-2.5-2.3-5.3 0-2.1.9-4.2 2.5-5.6 1.4-1.2 3.4-1.9 5.7-1.9.5 0 1 0 1.6.1 1.3.2 2.6.5 4 1.1v-4.4c-2.1-.7-4-1.1-5.8-1.1z"/><path d="m38.6 46.5c-4.6 0-7.5-2.2-8.8-3.5-2.2-2.2-3.5-5.4-3.5-8.8 0-3.3 1.3-6.7 3.5-9 1.2-1.3 4-3.5 8.8-3.5 3.5 0 6.5 1.2 8.7 3.4 2.3 2.3 3.5 5.5 3.5 8.9s-1.2 6.6-3.5 8.9c-2.2 2.4-5.2 3.6-8.7 3.6zm0-24.1c-4.3 0-6.9 1.8-8.3 3.3-2 2.1-3.3 5.4-3.3 8.5 0 3.2 1.2 6.3 3.3 8.3 1.2 1.2 3.9 3.3 8.3 3.3 3.3 0 6.1-1.1 8.2-3.3s3.3-5.2 3.3-8.4c0-3.3-1.2-6.3-3.3-8.5-2.1-2.1-4.8-3.2-8.2-3.2zm0 19.2c-2 0-3.6-.7-4.9-2-1.4-1.5-2.1-3.2-2.1-5.4 0-2.9 1.3-4.7 2-5.4 1.3-1.3 3.1-2.1 5-2.1s3.8.8 5.1 2.1 2 3.3 2 5.4c0 2.8-1.1 4.5-2 5.4-.9.8-2.6 2-5.1 2zm0-14.3c-1.8 0-3.4.7-4.6 1.9-.7.7-1.8 2.3-1.8 5 0 2 .6 3.6 1.9 5 1.2 1.2 2.6 1.8 4.5 1.8s3.5-.6 4.6-1.9c.8-.8 1.8-2.4 1.8-4.9 0-2.8-1.3-4.4-1.8-5-1.2-1.2-2.9-1.9-4.6-1.9z"/><path d="m73.2 46h-7.3l-5.7-8.4v8.4h-6v-23.7h8.4c3.2 0 5.1 1.1 6.1 2.1.8.8 2.1 2.5 2.1 5.4 0 2.1-.6 3.7-1.9 4.9-.8.7-1.9 1.3-2.9 1.7zm-7-.7h5.7l-7-9.3.5-.1c1.1-.3 2.2-.9 3.1-1.7 1.1-1.1 1.7-2.6 1.7-4.5 0-2.7-1.2-4.2-1.9-4.9-1.3-1.2-3.3-1.9-5.6-1.9h-7.8v22.4h4.7v-9.8zm-5.2-11.9h-1.5v-7h1.5c1 0 2.3.1 3.1.8.8.6 1.2 1.5 1.2 2.6 0 1.3-.6 2.1-1 2.5-.9 1-2.2 1.1-3.3 1.1zm-.9-.7h.9c1 0 2.1-.1 2.9-.9.3-.3.8-.9.8-2 0-.9-.3-1.6-.9-2.1-.6-.4-1.5-.7-2.7-.7h-.9v5.7z"/><path d="m81.7 46h-6v-23.7h14.9v5.1h-8.9v3.8h7.8v5.1h-7.8zm-5.3-.7h4.7v-9.6h7.8v-3.8h-7.8v-5.1h8.9v-3.8h-13.6z"/><path d="m104.5 46.5c-4.6 0-7.5-2.2-8.8-3.5-2.2-2.2-3.5-5.4-3.5-8.8 0-3.3 1.3-6.7 3.5-9 1.2-1.3 4-3.5 8.8-3.5 3.5 0 6.5 1.2 8.7 3.4 2.3 2.3 3.5 5.5 3.5 8.9s-1.2 6.6-3.5 8.9c-2.3 2.4-5.2 3.6-8.7 3.6zm0-24.1c-4.3 0-6.9 1.8-8.3 3.3-2 2.1-3.3 5.4-3.3 8.5 0 3.2 1.2 6.3 3.3 8.3 1.5 1.5 4.1 3.3 8.3 3.3 3.3 0 6.1-1.1 8.2-3.3s3.3-5.2 3.3-8.4c0-3.3-1.2-6.3-3.3-8.5-2.1-2.1-4.8-3.2-8.2-3.2zm-.1 19.2c-2 0-3.6-.7-4.9-2-1.4-1.5-2.1-3.2-2.1-5.4 0-2.9 1.3-4.7 2-5.4 1.3-1.3 3.1-2.1 5-2.1s3.8.8 5.1 2.1 2 3.3 2 5.4c0 2.8-1.1 4.5-2 5.4-1.2 1.3-3 2-5.1 2zm.1-14.3c-1.8 0-3.4.7-4.6 1.9-.7.7-1.8 2.3-1.8 5 0 2 .6 3.6 1.9 5 1.2 1.2 2.6 1.8 4.5 1.8s3.5-.6 4.6-1.9c.8-.8 1.8-2.4 1.8-4.9 0-2.8-1.3-4.4-1.8-5-1.2-1.2-2.9-1.9-4.6-1.9z"/><path d="m3.3 1.9c.4-.1.9-.1 1.5-.1.8 0 1.3.2 1.7.5.3.3.5.7.5 1.3 0 .5-.2 1-.5 1.3-.4.4-1 .6-1.8.6-.2 0-.5 0-.6-.1v2.4h-.8zm.8 2.9c.2 0 .4.1.6.1.9 0 1.5-.5 1.5-1.3s-.6-1.2-1.4-1.2c-.3 0-.6 0-.7.1z"/><path d="m7.9 4.9c0-.5 0-1 0-1.4h.7v.9c.2-.6.7-1 1.2-1h.2v.7c-.1 0-.2 0-.3 0-.6 0-1 .4-1.1 1v.4 2.3h-.7z"/><path d="m14.7 5.7c0 1.6-1.1 2.3-2.2 2.3-1.2 0-2.1-.9-2.1-2.2 0-1.4 1-2.3 2.2-2.3s2.1.9 2.1 2.2zm-3.5 0c0 1 .5 1.7 1.3 1.7s1.3-.7 1.3-1.7c0-.7-.4-1.7-1.3-1.7-.8.1-1.3.9-1.3 1.7z"/><path d="m15.9 3.6.9 2.6c.2.2.3.6.3.8.1-.3.2-.6.3-.9l.9-2.6h.8l-1.1 3.2c-.6 1.5-1 2.2-1.5 2.7-.4.3-.8.5-1 .5l-.2-.7c.2-0 .5-.2.7-.3.2-.2.5-.5.7-.9 0-.1.1-.1.1-.2s0-.1-.1-.2l-1.6-4z"/><path d="m20.2 5.9c0 1.1.7 1.5 1.5 1.5.6 0 .9-.1 1.2-.2l.1.6c-.2.1-.7.2-1.4.2-1.3 0-2.1-.9-2.1-2.2s.8-2.3 2-2.3c1.4 0 1.8 1.2 1.8 2v.4zm2.3-.6c0-.5-.2-1.3-1.1-1.3-.8 0-1.2.7-1.2 1.3z"/><path d="m27.4 7.8c-.2.1-.7.2-1.3.2-1.3 0-2.1-.9-2.1-2.2s.9-2.3 2.3-2.3c.5 0 .9.1 1.1.2l-.2.6c-.2-.1-.5-.2-.9-.2-1 0-1.5.7-1.5 1.6 0 1 .6 1.6 1.5 1.6.4 0 .7-.1 1-.2z"/><path d="m29.4 2.5v1h1.1v.6h-1.1v2.3c0 .5.2.8.6.8.2 0 .3 0 .5-.1v.6c-.2.3-.4.3-.7.3-.4 0-.7-.1-.9-.3s-.3-.6-.3-1.1v-2.4h-.7v-.6h.7v-.9z"/><path d="m35.3 5.7c0 1.6-1.1 2.3-2.2 2.3s-2.1-.9-2.1-2.2c0-1.4 1-2.3 2.2-2.3 1.3 0 2.1.9 2.1 2.2zm-3.4 0c0 1 .5 1.7 1.3 1.7s1.3-.7 1.3-1.7c0-.7-.4-1.7-1.3-1.7-.9.1-1.3.9-1.3 1.7z"/><path d="m41.3 6.9c0 .4 0 .7.1 1h-.7l-.1-.5c-.3.3-.8.6-1.4.6-.9 0-1.3-.6-1.3-1.3 0-1.1.9-1.6 2.6-1.6 0-.4-.1-1-1-1-.4 0-.8.1-1.1.3l-.2-.5c.4-.2.9-.4 1.4-.4 1.3 0 1.7.9 1.7 1.8zm-.8-1.2c-.9 0-1.8.1-1.8 1 0 .5.3.8.7.8.6 0 .9-.4 1.1-.7 0-.1 0-.2 0-.3z"/><path d="m42.5 5c0-.6 0-1 0-1.4h.7v.7c.3-.5.8-.8 1.5-.8 1.1 0 1.9.9 1.9 2.2 0 1.6-1 2.3-2 2.3-.6 0-1.1-.3-1.3-.7v2.4h-.8zm.8 1.1v.3c.2.6.7 1 1.3 1 .8 0 1.3-.7 1.3-1.7 0-.9-.5-1.6-1.3-1.6-.5 0-1.1.4-1.2 1 0 .1-.1.2-.1.3z"/><path d="m51.6 5.7c0 1.6-1.1 2.3-2.2 2.3-1.2 0-2.1-.9-2.1-2.2 0-1.4 1-2.3 2.2-2.3 1.3 0 2.1.9 2.1 2.2zm-3.4 0c0 1 .5 1.7 1.3 1.7s1.3-.7 1.3-1.7c0-.7-.4-1.7-1.3-1.7-.9.1-1.3.9-1.3 1.7z"/><path d="m52.8 3.6.9 2.6c.2.2.3.6.4.8.1-.3.2-.6.3-.9l.9-2.6h.8l-1.2 3.1c-.6 1.5-1 2.2-1.5 2.7-.4.3-.8.5-1 .5l-.2-.7c.2-.1.5-.2.7-.4s.5-.5.7-.9c0-.1.1-.1.1-.2s0-.1-.1-.2l-1.6-4h.8z"/><path d="m59.8 6.9c0 .4 0 .7.1 1h-.7l-.1-.5c-.3.3-.7.6-1.4.6-.9 0-1.3-.6-1.3-1.3 0-1.1.9-1.6 2.6-1.6 0-.4-.1-1-1-1-.4 0-.8.1-1.1.3l-.2-.5c.4-.2.9-.4 1.4-.4 1.3 0 1.7.9 1.7 1.8zm-.8-1.2c-.9 0-1.8.1-1.8 1 0 .5.3.8.7.8.6 0 .9-.4 1.1-.7 0-.1 0-.2 0-.3z"/><path d="m64.8 1.5v5.3 1.1h-.7v-.8c-.2.5-.7.9-1.5.9-1.1 0-1.9-.9-1.9-2.2 0-1.5.9-2.3 2-2.3.7 0 1.1.3 1.3.7v-2.7zm-.7 3.8c0-.1 0-.2 0-.3-.1-.5-.5-.9-1.1-.9-.8 0-1.3.7-1.3 1.7 0 .9.4 1.6 1.3 1.6.5 0 1-.4 1.2-.9 0-.1 0-.2 0-.3v-.9z"/><path d="m70.1 5.7c0 1.6-1.1 2.3-2.2 2.3-1.2 0-2.1-.9-2.1-2.2 0-1.4 1-2.3 2.2-2.3 1.3 0 2.1.9 2.1 2.2zm-3.4 0c0 1 .5 1.7 1.3 1.7s1.3-.7 1.3-1.7c0-.7-.4-1.7-1.3-1.7-.9.1-1.3.9-1.3 1.7z"/><path d="m73 5c0-.6 0-1 0-1.4h.7v.7c.3-.5.8-.8 1.5-.8 1.1 0 1.9.9 1.9 2.2 0 1.6-1 2.3-2 2.3-.6 0-1.1-.3-1.3-.7v2.4h-.8zm.8 1.1v.3c.2.6.7 1 1.2 1 .8 0 1.3-.7 1.3-1.7 0-.9-.5-1.6-1.3-1.6-.5 0-1.1.4-1.2 1 0 .1-.1.2-.1.3v.7z"/><path d="m82.1 5.7c0 1.6-1.1 2.3-2.2 2.3-1.2 0-2.1-.9-2.1-2.2 0-1.4 1-2.3 2.2-2.3s2.1.9 2.1 2.2zm-3.5 0c0 1 .5 1.7 1.3 1.7s1.3-.7 1.3-1.7c0-.7-.4-1.7-1.3-1.7-.9.1-1.3.9-1.3 1.7z"/><path d="m83.1 4.9c0-.5 0-1 0-1.4h.7v.9c.2-.6.7-1 1.2-1h.2v.7c-.1 0-.2 0-.3 0-.6 0-1 .4-1.1 1v.4 2.3h-.8v-2.9z"/></g></svg>