<?xml version="1.0" encoding="utf-8"?>
<!-- Generator: Adobe Illustrator 28.3.0, SVG Export Plug-In . SVG Version: 6.00 Build 0)  -->
<svg version="1.1" id="Capa_1" xmlns="http://www.w3.org/2000/svg" xmlns:xlink="http://www.w3.org/1999/xlink" x="0px" y="0px"
	 viewBox="0 0 80 70" style="enable-background:new 0 0 80 70;" xml:space="preserve">
<style type="text/css">
	.st0{fill:#FFFFFF;}
	.st1{fill-rule:evenodd;clip-rule:evenodd;fill:#FFFFFF;}
</style>
<g>
	<path class="st0" d="M33.3,69H2.8V2.3h30.6V69z M3.6,68.2h28.9V3.1H3.6V68.2z"/>
	<path class="st0" d="M19.2,12.1c0.1,0,0.2-0.1,0.1-0.3c0-0.1-0.2-0.1-0.1-0.1c0.6-0.1,1-1.1,1-1.4c0.3,0.3,1.1,0.4,1.6-0.1
		c0.3-0.3,0.5-1.2-0.1-1.6c-0.3-0.2-0.8-0.2-1.2,0c-0.1-0.2-0.3-0.3-0.5-0.3c0-0.1,0-0.5-0.2-0.8c-0.3-0.3-1.2-0.4-1.5,0
		c-0.6-0.2-1.5,0.1-1.4,1.1c-0.5-0.2-0.7-0.2-0.9-0.2c-0.2,0-0.5,0.2-0.6,0.4c0,0.1-0.1,0.1-0.1,0.2c-0.1,0.1-0.1,0.3-0.1,0.5
		c0,0.4,0.2,0.7,0.5,0.8c0.4,0.2,0.8,0.2,1,0.1c0.1,0,0.3-0.1,0.4-0.2c0,0,0.1-0.1,0.1-0.1c0,0.1,0,0.6,0.5,0.8c0,0,0,0,0,0.1
		c0.2,0.7,0.6,0.6,0.6,0.6c-0.2,0.1-0.1,0.3-0.1,0.4c0.3-0.1,0.5-0.1,0.6-0.1C18.7,12,18.9,12.1,19.2,12.1"/>
	<path class="st0" d="M20.7,14.2c0-0.7,0.4-1.2,0.5-1.2c0-0.1,0.1-0.1,0.1-0.1c0-0.1-0.1-0.1-0.1-0.1c-0.1-0.1-0.4-0.3-0.4-0.3l0,0
		h0c0,0-0.1,0-0.1,0c-0.1,0.1-0.2,0.2-0.5,0.2c0,0-0.1,0-0.1,0c-0.1,0-0.4-0.1-0.4-0.1c-0.1,0-0.2-0.1-0.2-0.1l0,0
		c-0.4-0.2-0.7-0.2-0.8-0.2c-0.1,0-0.4,0-0.8,0.2l0,0c0,0-0.1,0-0.1,0l-0.2,0.1c-0.1,0-0.2,0.1-0.2,0.1c0,0-0.1,0-0.1,0
		c-0.3,0-0.4-0.1-0.5-0.2c0,0-0.1,0-0.1,0l0,0l0,0c0,0-0.3,0.2-0.4,0.3c0,0-0.1,0-0.1,0.1c0,0,0,0.1,0.1,0.1c0,0,0.5,0.5,0.5,1.2
		c0,0.1,0,0.5-0.3,1.1c0,0-0.4,0.7,0,1.3c0,0,0.3,0.6,1.2,0.6c0.1,0,0.7,0,1,0.4c0,0,0.1,0.2,0.2,0.3l0.1,0.1l0.1-0.1
		c0-0.1,0.1-0.3,0.2-0.3c0.2-0.4,0.9-0.4,1-0.4c0.9,0,1.2-0.6,1.2-0.6c0.4-0.6,0-1.3,0-1.3C20.7,14.6,20.7,14.2,20.7,14.2
		 M20.4,14.1L19.2,15l0.4,1.3l-1.1-0.8l-1.1,0.8l0.4-1.3l-1.2-0.8h0h1.4l0.4-1.3l0.4,1.3H20.4L20.4,14.1z"/>
	<path class="st0" d="M21,12.3C21,12.3,21,12.4,21,12.3C21,12.4,21,12.3,21,12.3"/>
	<path class="st0" d="M21.4,12.7c0,0-0.1-0.1-0.1-0.1C21.3,12.6,21.4,12.6,21.4,12.7"/>
	<path class="st0" d="M21.1,12.4c0,0,0.1,0.1,0.1,0.1C21.2,12.5,21.1,12.5,21.1,12.4"/>
	<path class="st0" d="M28.5,19.7c-0.1-0.2-0.5-0.1-0.5-0.1c0.2-0.6-0.4-0.8-0.4-0.8c-0.2-0.1-0.3,0-0.4,0c0,0,0,0,0,0c0,0,0,0,0,0
		c0,0,0,0,0,0C27.1,18.9,27,19,27,19.1c0,0.2,0.1,0.3,0.3,0.3c0.1,0,0.1,0,0.2-0.1c0.1,0,0.1-0.1,0.1-0.2c0.1,0,0.1,0.1,0.1,0.1
		c0.2,0.5-0.4,0.7-0.4,0.7c-1.3,0.4-2.1-0.3-2.1-0.3l0.2-0.1c0.1,0,0.1,0,0.2,0c0,0,0,0,0,0c0,0.1,0.1,0.3,0.3,0.3
		c0.1,0,0.3-0.1,0.3-0.3c0-0.1-0.1-0.2-0.1-0.2c-0.2-0.2-0.7-0.1-0.7-0.1c0.2-0.4,0-0.7,0-0.7c-0.2-0.5-0.8-0.3-0.8-0.3
		c-0.2,0.1-0.2,0.2-0.2,0.2c-0.1,0.4,0.3,0.4,0.3,0.4c0.2,0,0.2-0.2,0.2-0.2c0-0.2-0.2-0.2-0.2-0.2c0.2-0.4,0.9,0.2,0.5,0.8
		c0,0.1-0.1,0-0.1,0c-0.8-0.4-1.2-0.7-1.4-0.8c0-0.2-0.2-0.3-0.2-0.4c0,0,0.1,0,0.2-0.1c0,0,0.1-0.4,0.1-0.6
		c0.7,0.3,1.3,0.2,1.5,0.2c0.1,0,0.1-0.1,0.1-0.2c0-0.3-0.7-1.9-0.7-2.5c0.3,0.2,0.5-0.3,0.6-0.5c0.5,0.2,0.6,4.4,1,4.5
		c0.2,0.1,0.2-0.2,0.3-0.3c0.6-1.9,0.6-3.7,0.5-4.3c-0.1-1-0.1-1.8-0.4-2.6c-0.1-0.5-0.4-1.5-1.1-1.6c-0.3-0.1-0.5,0.2-0.5,0.5
		c0,0.2,0.2,0.3,0.1,0.5c-0.1,0.1-0.2,0.3-0.2,0.4c0,0.2,0.1,0.2,0.1,0.4c-0.2,0-0.3,0.1-0.6,0.1c0.2-0.1,0.2-0.7,0-0.8
		c0,0-0.1,0-0.1-0.1c0,0,0.1-0.1,0.1-0.2c0.1-0.3,0.1-0.6,0-0.8c0.1,0,0.2-0.2,0.2-0.3l0,0v0v0c0,0,0-0.2,0.1-0.3c0,0,0-0.1,0-0.1
		c0,0-0.1,0-0.1,0c-0.1,0.1-0.2,0.1-0.1-0.1c0,0,0-0.1,0-0.1c0,0-0.1,0-0.1,0c-0.1,0.1-0.2,0.1-0.1-0.1c0,0,0-0.1,0-0.1
		c0,0-0.1,0-0.1,0c-0.1,0.1-0.2,0.1-0.1-0.1c0,0,0-0.1,0-0.1c0,0-0.1,0-0.1,0c-0.1,0.1-0.1,0.2-0.2,0.3c-0.1,0-0.1,0.2-0.1,0.3
		c-0.3-0.1-0.5,0.1-0.5,0.3h0c-0.2,0-0.4,0.1-0.4,0.3c0,0.1,0.1,0.3,0.2,0.3c0,0,0-0.1,0.1-0.1c0.1,0,0.3,0.1,0.3,0.2
		c0,0.1-0.1,0.4,0.3,0.4c0,0,0,0.1,0,0.1c-0.1,0-0.2,0-0.3,0c-0.2,0-0.5,0.2-0.6,0.4c0,0,0,0.1,0,0.2c0,0,0,0.1,0,0.2
		c0,0-0.1,0.1-0.1,0.1c-0.1,0.1-0.3,0.2-0.4,0.2c-0.2,0-0.3-0.1-0.4-0.2c-0.2-0.3,0.1-0.8,0.1-1c0-0.5-0.7-0.2-0.9-0.1
		c-0.3,0.2-0.6,0.4-0.8,0.7c-0.1,0.1-0.2,0.3-0.3,0.5c0,0,0,0-0.1,0c0.1,0.1,0.4,0.1,0.6,0.2c0,0,0.4,0,0.6-0.2c0,0,0,0,0.1,0
		c0,0,0.1,0,0.1,0c0,0,0,0,0.1,0.1c0,0,0.1,0,0.1,0.1c0,0,0,0,0,0c0,0,0.1,0.1,0.1,0.1c0,0,0,0,0,0c0.1,0,0.1,0.1,0.1,0.1
		c0.1,0,0.1,0.1,0.1,0.1l0,0c0,0,0,0,0,0c0,0,0,0,0,0.1c0,0,0,0-0.1,0.1c-0.1,0.1-0.2,0.3-0.3,0.6c0.1,0.2,0.3,0.5,0.6,0.5
		c0.2,0,0.3-0.1,0.4-0.3c0,0,0,0,0,0c0,0,0.2,0.7,0.3,0.9c-0.2,0.1-0.4,0.3-0.3,1c-0.1-0.1-0.4-0.3-0.5-0.4
		c-0.1-0.1-0.2-0.5-0.6-0.5c0.1,0.2,0.1,0.4,0.3,0.6c0,0,0.2,0.5,0.2,1c0.2-0.2,0.1-0.6,0.1-0.6c0,0,0,0,0,0c0,0,0.2,0.3,0.5,0.4
		c0.4,0.6,0.8,1,1.2,1.3c0,0.2,0,0.5-0.1,0.5c-0.3,0.1-0.6-0.1-0.9-0.1c0,0,0,0,0,0c-1.2-0.6-2.8,0.7-3.1,0.9c-0.1,0.1-0.3,0-0.3,0
		c-0.1-0.1-0.2-0.2-0.3-0.2c-0.1,0-0.2,0-0.3,0.2c0,0-0.2,0.2-0.3,0c-0.3-0.2-1.7-1.3-2.9-1c0-0.1-0.2-0.1-0.2-0.1
		c-0.1,0-0.2-0.1-0.2-0.1c-0.1-0.1-0.3,0-0.5,0c-0.1,0-0.1,0-0.2-0.1c-0.2-0.1-0.4-0.3-0.5-0.4c0,0-0.1-0.1-0.1-0.1
		c-0.1-0.1-0.1-0.1-0.1-0.3c-0.1-0.2,0-0.5,0.1-0.7c0-0.2,0-0.2,0-0.4c0.8-0.3,1.1-0.8,1.2-1.1c0,0,0.1-0.1,0.1-0.1c0,0,0.1,0,0.1,0
		c0.3,0,0.5-0.2,0.8-0.1c0,0,0,0.2,0.3,0.2c0,0.2,0,0.4,0.1,0.6c0,0,0,0.1,0.1,0.1c0.1-0.3,0.2-0.6,0.2-0.8c0,0,0,0,0-0.1
		c-0.1-0.4-0.2-0.5-0.4-0.6c-0.1,0-0.2-0.1-0.2-0.1c-0.1-0.1-0.2-0.2-0.3-0.3c0,0,0,0,0.1-0.1c0.2-0.2,0.3-0.5,0.4-0.9
		c0.2-0.2,0.6-0.1,0.8-0.1c0,0,0.1,0,0.2,0c0,0,0.1,0.1,0.1,0.1c0.1,0,0.2,0,0.2,0c0,0,0,0.1,0.1,0.1c0,0,0,0,0.1,0.1
		c0.2,0,0.5-0.1,0.6-0.2c0,0,0,0,0,0c-0.1-0.1-0.2-0.3-0.4-0.3c-0.2,0-0.2-0.2-0.4-0.2c0,0-0.2,0-0.2,0c-0.4,0-0.6-0.1-0.9-0.1
		c-0.3,0-0.3,0.2-0.4,0.4c0,0.1-0.1,0.1-0.1,0.2c-0.1,0.1-0.2,0.1-0.3,0.2l0-0.1c0-0.1-0.1-0.2-0.1-0.3c-0.2-0.3-0.4-0.5-0.7-0.6
		c-0.1,0-0.1,0-0.1-0.1c-0.1,0,0-0.1,0-0.1c0.1-0.1,0.3,0,0.4-0.1c0.3-0.1,0.2-0.4,0.1-0.4c-0.2,0-0.4-0.1-0.5-0.1
		c-0.1,0-0.2-0.3-0.3-0.3c-0.1,0-0.1-0.3-0.2-0.3c-0.1,0-0.1,0-0.2,0.1c0,0,0-0.3-0.2-0.4c-0.1-0.1-0.1,0-0.1,0.1
		c0,0.1,0.1,0.1,0.2,0.4c0,0,0,0-0.1,0c0-0.1-0.1-0.2-0.2-0.3c-0.1-0.1-0.1,0-0.1,0.1c0,0,0.1,0.1,0.2,0.3c0,0-0.1,0-0.1,0.1
		c-0.2-0.1-0.3-0.2-0.3-0.2c-0.1,0-0.1,0-0.1,0.1c0,0.1,0.2,0.2,0.3,0.2c0,0,0,0-0.1,0.1c-0.2,0-0.3-0.2-0.3-0.2
		c-0.1,0-0.2,0-0.1,0.1c0.1,0.1,0.3,0.2,0.4,0.2c0,0.1-0.1,0.1-0.1,0.2c-0.2,0-0.5,0.1-0.4,0.3c0.1,0,0.3-0.1,0.5,0
		c0.1,0.2,0.3,0.2,0.4,0.2c0.1,0.1,0.1,0.2,0.1,0.3c0.1,0.2,0.2,0.3,0.3,0.5c0.1,0.2,0.2,0.4,0.3,0.5c0,0,0,0.1,0,0.1
		c-0.1,0.2-0.5,0.5-0.7,0.6c-0.2,0.2-1.7,1.3-1.9,1.9c0,0.1-0.1,0.3-0.1,0.4c-0.1,0.1-0.3,0.1-0.4,0c-0.1-0.2,0.1-0.3,0.1-0.5
		c0-0.1-0.1-0.1-0.2-0.1c-0.4,0.3-0.2,0.8,0.1,0.9c0.3,0.1,0.3-0.2,0.5-0.1c0,0,0.5,0.5,0.5,0.8c0,0,0,0.1,0,0.1
		c-0.1,0.1-0.3,0.2-0.4,0.4c-0.3,0.2,0.2,1.2,0.2,1.7c0,0.2,0.2,0.2,0.3,0.5c-0.1,0-0.2,0-0.3,0.1c0,0-0.1,0.1-0.1,0.2
		c0,0.1,0.1,0.3,0.3,0.3c0.1,0,0.3-0.1,0.3-0.3c0,0,0,0,0,0c0.1,0,0.1,0,0.2,0l0.2,0.1c0,0-0.8,0.7-2.1,0.3c0,0-0.6-0.2-0.4-0.7
		c0,0,0-0.1,0.1-0.1c0,0.1,0.1,0.1,0.1,0.2c0,0,0.1,0.1,0.2,0.1c0.2,0,0.3-0.1,0.3-0.3c0-0.1,0-0.2-0.1-0.2c0,0,0,0,0,0l0,0
		c0,0,0,0,0,0c-0.1-0.1-0.2-0.1-0.4,0c0,0-0.6,0.2-0.4,0.8c0,0-0.4-0.1-0.5,0.1c0,0,0,0.1,0,0.1v0v0c0,0,0,0.1,0,0.1
		c0,0.1,0.1,0.1,0.2,0.1c0.1,0,0.1,0,0.2-0.1h0c0,0,0.1,0,0.1,0c0.9,0.9,2.3,0.5,3.1-0.1c0,0,0.4-0.4,0.9-0.7
		c0.2,0.1,0.4,0.1,0.6,0.2c0,0.3,0,0.7,0.4,1.2c0,0-0.2,0.4-0.6,0.2c0,0-0.3-0.2,0-0.5c0,0,0.2-0.1,0.2,0c-0.1,0-0.1,0.1-0.1,0.2
		c0,0.1,0.1,0.2,0.2,0.2c0.1,0,0.1-0.1,0.2-0.1c0-0.1,0-0.2-0.1-0.3c0,0-0.1-0.1-0.3-0.1c-0.3,0.1-0.5,0.7,0.1,1
		c0,0,0.5,0.2,0.8-0.1c0,0,0-0.1,0.1,0c0.5,0.5,1.7,0.4,2.2,0c0,0,0.1-0.1,0.3-0.1c0,0.2,0.2,0.4,0.4,0.4c0.2,0,0.4-0.2,0.4-0.4
		c0-0.2-0.1-0.3-0.3-0.4c0,0-0.2-0.1-0.6,0.1c0,0-0.4,0.2-0.3,0.2c0.1-0.2,0.2-0.5,0.3-0.7c0.5,0.1,1.1,0.1,1.6,0.1
		c0,0.2,0,0.4-0.1,0.5c0,0-0.2,0.1-0.2,0.2c0,0,0,0.1,0.2,0.2c0,0,0.1,0.1,0.2,0.3c0,0,0,0.2,0.2,0.2c0,0,0,0,0,0c0,0,0,0,0,0
		c0.2,0,0.2-0.2,0.2-0.2c0-0.1,0.2-0.3,0.2-0.3c0.2-0.1,0.2-0.2,0.2-0.2c0-0.1-0.2-0.2-0.2-0.2c-0.1-0.2-0.1-0.4-0.1-0.5
		c0.6,0,1.1-0.1,1.6-0.1c0.1,0.3,0.1,0.5,0.3,0.7c0,0-0.3-0.2-0.3-0.2c-0.4-0.2-0.6-0.1-0.6-0.1c-0.2,0-0.3,0.2-0.3,0.4
		c0,0.2,0.2,0.4,0.4,0.4c0.2,0,0.4-0.2,0.4-0.4c0.1,0.1,0.3,0.1,0.3,0.1c0.5,0.4,1.7,0.5,2.2,0c0.1-0.1,0.1,0,0.1,0
		c0.3,0.4,0.8,0.1,0.8,0.1c0.6-0.3,0.5-1,0.1-1c-0.2,0-0.3,0.1-0.3,0.1c-0.1,0.1-0.1,0.3-0.1,0.3c0,0.1,0.1,0.1,0.1,0.1
		c0.1,0,0.2-0.1,0.2-0.2c0-0.1-0.1-0.1-0.1-0.2c0.1-0.2,0.2,0,0.2,0c0.2,0.3,0,0.5,0,0.5c-0.4,0.2-0.6-0.2-0.6-0.2
		c0.3-0.5,0.4-0.9,0.4-1.2c0.2-0.1,0.4-0.1,0.6-0.2c0.5,0.3,0.9,0.7,0.9,0.7c0.8,0.6,2.2,1,3.1,0.1c0.1-0.1,0.1,0,0.1,0h0
		c0,0.1,0.1,0.1,0.2,0.1c0.1,0,0.1,0,0.2-0.1c0,0,0-0.1,0-0.1v0v0C28.5,19.7,28.5,19.7,28.5,19.7 M12.3,19.4
		C12.3,19.4,12.3,19.4,12.3,19.4c-0.5-0.6,0.2-1.2,0.4-0.8c0,0-0.3,0-0.2,0.2c0,0,0,0.2,0.2,0.2c0,0,0.3,0,0.3-0.4
		c0,0,0-0.2-0.2-0.2c0,0-0.6-0.2-0.8,0.3c0,0,0,0.1-0.1,0.3c-0.1-0.1-0.1-0.1-0.2-0.1c-0.1-0.1-0.3-1-0.2-1.5
		c0.9-0.2,1.2-0.9,1.2-1.1c0.2,0.1,0.3,0.3,0.3,0.4c0,0.1,0,0.2,0,0.3c0.1,0.1,0.3,0.3,0.5,0.4c0,0,0.7,0.5,0.8,0.5
		c0.1,0,0.1,0,0.2,0c0,0,0,0,0.1,0c0,0,0,0,0.1,0.1c-0.2,0.1-0.4,0.3-0.7,0.5C13.9,18.4,13.7,18.7,12.3,19.4 M14.5,20
		c0,0-0.1,0.2-0.1,0.3c0,0-0.2-0.3-0.2-0.8c0.1,0,0.3,0.1,0.4,0.1C14.5,19.8,14.5,19.9,14.5,20 M16.2,20.9c0,0-0.9,0.4-1.5-0.3
		c0,0,0-0.4,0.2-0.8c0.5,0.1,1,0.2,1.6,0.3C16.4,20.4,16.3,20.8,16.2,20.9 M15.3,19.1c0.2-0.2,0.4-0.3,0.7-0.3c0,0,0.4,0,0.5,0.5
		C16,19.2,15.6,19.1,15.3,19.1 M16.2,18.5c0,0-0.7,0-1.2,0.5c-0.3-0.1-0.5-0.1-0.7-0.2c0-0.1,0.1-0.2,0.1-0.2c0,0,0.8-0.9,2.2-0.4
		C16.7,18.2,16.6,18.4,16.2,18.5 M16.8,19.3c0.1-0.6,0.1-1,0.3-1c0,0,0.1,0,0.2,0.1c0.2,0.2,0.6,0.5,0.9,1
		C17.7,19.4,17.3,19.4,16.8,19.3 M19,19.4c0.2-0.4,0.7-0.7,0.9-1c0.1-0.1,0.2-0.1,0.2-0.1c0.2,0,0.2,0.5,0.3,1
		C20,19.4,19.6,19.4,19,19.4 M20.7,18.2c1.4-0.5,2.2,0.4,2.2,0.4c0.1,0.1,0.1,0.2,0.1,0.2c-0.2,0.1-0.4,0.1-0.7,0.2
		c-0.5-0.5-1.1-0.5-1.2-0.5C20.7,18.4,20.6,18.2,20.7,18.2 M21.3,18.8c0.3,0,0.5,0.1,0.7,0.3c-0.3,0.1-0.8,0.2-1.2,0.2
		C20.9,18.8,21.3,18.8,21.3,18.8 M21.1,20.9c-0.1,0-0.2-0.5-0.3-0.8c0.5-0.1,1.1-0.2,1.6-0.3c0.2,0.4,0.2,0.8,0.2,0.8
		C22,21.2,21.1,20.9,21.1,20.9 M22.9,20.3c0-0.1-0.1-0.3-0.1-0.3c0-0.1-0.1-0.2-0.1-0.4c0.1,0,0.3-0.1,0.4-0.1
		C23.1,20,22.9,20.3,22.9,20.3"/>
	<path class="st0" d="M76.4,69H32.5V2.3h43.9V69z M33.3,68.2h42.2V3.1H33.3V68.2z"/>
	<path class="st1" d="M39.6,56.1l-0.1-2.5h-0.8c0,0-0.3,1.3-0.5,2.1h0c-0.1-0.8-0.4-2.1-0.4-2.1h-0.8l-0.1,2.5h0.4l0-2.1h0
		c0,0.3,0.1,0.5,0.1,0.6l0.3,1.5h0.7l0.4-1.5c0-0.1,0.1-0.3,0.1-0.6h0l0.1,2.1H39.6z"/>
	<path class="st1" d="M40.6,56.1v-1.8h-0.7v0.3l0.2,0v1.5H40.6z M40.1,53.9h0.5v-0.4h-0.5V53.9z"/>
	<path class="st1" d="M42.7,56.1v-1.1c0-0.5-0.2-0.7-0.7-0.7c-0.3,0-0.5,0.1-0.6,0.2l-0.1-0.2h-0.3v1.8h0.5v-1.4
		c0.1-0.1,0.2-0.1,0.3-0.1c0.2,0,0.3,0.1,0.3,0.4v1.1H42.7z"/>
	<path class="st1" d="M43.8,56.1v-1.8h-0.7v0.3l0.2,0v1.5H43.8z M43.3,53.9h0.5v-0.4h-0.5V53.9z"/>
	<path class="st1" d="M44.9,54.5c0.2,0,0.3,0,0.4,0.1l0.1-0.4c-0.1-0.1-0.3-0.1-0.5-0.1c-0.5,0-0.7,0.2-0.7,0.5
		c0,0.6,0.8,0.5,0.8,0.8c0,0.1-0.1,0.2-0.3,0.2c-0.2,0-0.3-0.1-0.4-0.1L44.2,56c0.1,0.1,0.3,0.1,0.6,0.1c0.5,0,0.7-0.3,0.7-0.6
		c0-0.6-0.8-0.5-0.8-0.8C44.6,54.6,44.7,54.5,44.9,54.5"/>
	<path class="st1" d="M47,56l-0.1-0.4c-0.1,0-0.2,0.1-0.3,0.1c-0.1,0-0.2-0.1-0.2-0.2v-0.9h0.5v-0.3h-0.5v-0.5L46,53.9v0.3h-0.3v0.3
		H46v0.9c0,0.5,0.2,0.6,0.5,0.6C46.7,56.1,46.9,56,47,56"/>
	<path class="st1" d="M48.8,55.3v-0.2c0-0.5-0.2-0.9-0.8-0.9c-0.6,0-0.9,0.4-0.9,1c0,0.6,0.3,1,0.9,1c0.3,0,0.5-0.1,0.7-0.2
		l-0.1-0.3c-0.2,0.1-0.4,0.2-0.5,0.2c-0.3,0-0.5-0.2-0.5-0.5H48.8z M48.3,55h-0.7c0-0.2,0.1-0.4,0.3-0.4
		C48.2,54.5,48.3,54.8,48.3,55"/>
	<path class="st1" d="M50.2,54.2c0,0-0.1,0-0.2,0c-0.2,0-0.4,0.2-0.4,0.3h0l-0.1-0.2h-0.3v1.8h0.5v-1.3c0.1-0.1,0.2-0.1,0.3-0.1
		c0.1,0,0.2,0,0.2,0L50.2,54.2z"/>
	<path class="st1" d="M51.1,56.1v-1.8h-0.7v0.3l0.2,0v1.5H51.1z M50.6,53.9h0.5v-0.4h-0.5V53.9z"/>
	<path class="st1" d="M52.4,54.2c-0.6,0-0.9,0.4-0.9,1c0,0.6,0.3,1,0.9,1c0.5,0,0.9-0.3,0.9-1C53.2,54.6,52.9,54.2,52.4,54.2
		 M52.4,55.7c-0.2,0-0.4-0.2-0.4-0.6c0-0.4,0.1-0.6,0.4-0.6s0.4,0.2,0.4,0.6C52.7,55.6,52.6,55.7,52.4,55.7"/>
	<path class="st1" d="M55.1,54.2c-0.4,0-0.8,0.3-0.8,1c0,0.7,0.3,1,0.8,1c0.2,0,0.4-0.1,0.5-0.2l0.1,0.2H56v-2.6h-0.5V54
		c0,0.1,0,0.2,0,0.3C55.5,54.3,55.3,54.2,55.1,54.2 M55.6,55.6c-0.1,0.1-0.2,0.2-0.3,0.2c-0.2,0-0.4-0.2-0.4-0.6
		c0-0.4,0.1-0.6,0.4-0.6c0.1,0,0.3,0,0.3,0.1V55.6z"/>
	<path class="st1" d="M58.1,55.3v-0.2c0-0.5-0.2-0.9-0.8-0.9c-0.6,0-0.9,0.4-0.9,1c0,0.6,0.3,1,0.9,1c0.3,0,0.5-0.1,0.7-0.2
		l-0.1-0.3c-0.2,0.1-0.4,0.2-0.5,0.2c-0.3,0-0.5-0.2-0.5-0.5H58.1z M57.6,55h-0.7c0-0.2,0.1-0.4,0.3-0.4
		C57.5,54.5,57.6,54.8,57.6,55"/>
	<polygon class="st1" points="38.4,60.7 38.4,60.3 37.3,60.3 37.3,59.6 38.1,59.6 38.1,59.2 37.3,59.2 37.3,58.6 38.4,58.6 
		38.4,58.2 36.8,58.2 36.8,60.7 	"/>
	<path class="st1" d="M40,60.2c-0.1,0.1-0.3,0.1-0.5,0.1c-0.3,0-0.4-0.2-0.4-0.6c0-0.4,0.2-0.6,0.4-0.6c0.2,0,0.3,0,0.5,0.1l0.1-0.3
		c-0.2-0.1-0.4-0.1-0.6-0.1c-0.5,0-0.9,0.4-0.9,1c0,0.6,0.3,1,0.9,1c0.3,0,0.5-0.1,0.6-0.2L40,60.2z"/>
	<path class="st1" d="M41.2,58.8c-0.6,0-0.9,0.4-0.9,1c0,0.6,0.3,1,0.9,1c0.5,0,0.9-0.3,0.9-1C42.1,59.2,41.8,58.8,41.2,58.8
		 M41.2,60.4c-0.2,0-0.4-0.2-0.4-0.6c0-0.4,0.1-0.6,0.4-0.6c0.2,0,0.4,0.2,0.4,0.6C41.6,60.2,41.4,60.4,41.2,60.4"/>
	<path class="st1" d="M44.1,60.7v-1.1c0-0.5-0.2-0.7-0.6-0.7c-0.3,0-0.5,0.1-0.6,0.2l-0.1-0.2h-0.3v1.8h0.5v-1.4
		c0.1-0.1,0.2-0.1,0.3-0.1c0.2,0,0.3,0.1,0.3,0.4v1.1H44.1z"/>
	<path class="st1" d="M45.3,58.8c-0.6,0-0.9,0.4-0.9,1c0,0.6,0.3,1,0.9,1c0.5,0,0.9-0.3,0.9-1C46.1,59.2,45.8,58.8,45.3,58.8
		 M45.3,60.4c-0.2,0-0.4-0.2-0.4-0.6c0-0.4,0.1-0.6,0.4-0.6c0.2,0,0.4,0.2,0.4,0.6C45.6,60.2,45.5,60.4,45.3,60.4"/>
	<path class="st1" d="M48.1,59.3c0.1-0.1,0.2-0.1,0.3-0.1c0.2,0,0.3,0.1,0.3,0.4v1.1h0.5v-1.1c0-0.5-0.2-0.7-0.7-0.7
		c-0.3,0-0.4,0.1-0.6,0.3c-0.1-0.2-0.3-0.3-0.6-0.3c-0.3,0-0.4,0.1-0.5,0.3l-0.1-0.2h-0.3v1.8H47v-1.4c0.1-0.1,0.2-0.1,0.3-0.1
		c0.2,0,0.3,0.1,0.3,0.4v1.1h0.5v-1.1C48.1,59.5,48.1,59.4,48.1,59.3"/>
	<path class="st1" d="M50.5,58.4L50.4,58l-0.9,0.3l0,0.3L50.5,58.4z M50.3,60.7v-1.8h-0.7v0.3l0.2,0v1.5H50.3z"/>
	<path class="st1" d="M52.2,60.7v-1.2c0-0.5-0.2-0.7-0.7-0.7c-0.3,0-0.5,0.1-0.7,0.1l0.1,0.3c0.1-0.1,0.3-0.1,0.6-0.1
		c0.2,0,0.3,0.1,0.3,0.3v0.1h-0.4c-0.4,0-0.7,0.2-0.7,0.5c0,0.4,0.2,0.6,0.6,0.6c0.3,0,0.4-0.1,0.5-0.3l0.1,0.2H52.2z M51.7,60.3
		c-0.1,0.1-0.2,0.1-0.3,0.1c-0.2,0-0.3-0.1-0.3-0.3c0-0.1,0.1-0.2,0.3-0.2h0.3V60.3z"/>
	<path class="st1" d="M52.6,60.7l0.1,0.1c0,0.2,0,0.2-0.1,0.3v0.3c0.3,0,0.5-0.2,0.5-0.5v-0.6h-0.5V60.7z"/>
	<polygon class="st1" points="55.9,58.6 55.9,58.2 54.3,58.2 54.3,60.7 54.8,60.7 54.8,59.7 55.6,59.7 55.6,59.3 54.8,59.3 
		54.8,58.6 	"/>
	<path class="st1" d="M56.7,58.8c-0.6,0-0.9,0.4-0.9,1c0,0.6,0.3,1,0.9,1c0.5,0,0.9-0.3,0.9-1C57.6,59.2,57.3,58.8,56.7,58.8
		 M56.7,60.4c-0.2,0-0.4-0.2-0.4-0.6c0-0.4,0.1-0.6,0.4-0.6c0.2,0,0.4,0.2,0.4,0.6C57.1,60.2,57,60.4,56.7,60.4"/>
	<path class="st1" d="M59.6,59.3c0.1-0.1,0.2-0.1,0.3-0.1c0.2,0,0.3,0.1,0.3,0.4v1.1h0.5v-1.1c0-0.5-0.2-0.7-0.7-0.7
		c-0.3,0-0.4,0.1-0.6,0.3c-0.1-0.2-0.3-0.3-0.6-0.3c-0.3,0-0.4,0.1-0.5,0.3l-0.1-0.2h-0.3v1.8h0.5v-1.4c0.1-0.1,0.2-0.1,0.3-0.1
		c0.2,0,0.3,0.1,0.3,0.4v1.1h0.5v-1.1C59.6,59.5,59.6,59.4,59.6,59.3"/>
	<path class="st1" d="M62.7,59.9v-0.2c0-0.5-0.2-0.9-0.8-0.9c-0.6,0-0.9,0.4-0.9,1c0,0.6,0.3,1,0.9,1c0.3,0,0.5-0.1,0.7-0.2
		l-0.1-0.3c-0.2,0.1-0.4,0.2-0.5,0.2c-0.3,0-0.5-0.2-0.5-0.5H62.7z M62.2,59.6h-0.7c0-0.2,0.1-0.4,0.3-0.4
		C62.1,59.2,62.2,59.4,62.2,59.6"/>
	<path class="st1" d="M64.7,60.7v-1.1c0-0.5-0.2-0.7-0.6-0.7c-0.3,0-0.5,0.1-0.6,0.2l-0.1-0.2H63v1.8h0.5v-1.4
		c0.1-0.1,0.2-0.1,0.3-0.1c0.2,0,0.3,0.1,0.3,0.4v1.1H64.7z"/>
	<path class="st1" d="M66.3,60.6l-0.1-0.4c-0.1,0-0.2,0.1-0.3,0.1c-0.1,0-0.2-0.1-0.2-0.2v-0.9h0.5v-0.3h-0.5v-0.5l-0.5,0.2v0.3
		h-0.3v0.3h0.3v0.9c0,0.5,0.2,0.6,0.5,0.6C66,60.7,66.1,60.7,66.3,60.6"/>
	<path class="st1" d="M67.3,58.8c-0.6,0-0.9,0.4-0.9,1c0,0.6,0.3,1,0.9,1c0.5,0,0.9-0.3,0.9-1C68.1,59.2,67.8,58.8,67.3,58.8
		 M67.3,60.4c-0.2,0-0.4-0.2-0.4-0.6c0-0.4,0.1-0.6,0.4-0.6c0.2,0,0.4,0.2,0.4,0.6C67.6,60.2,67.5,60.4,67.3,60.4"/>
	<path class="st1" d="M37.7,65.4c-0.1,0.2-0.2,0.4-0.4,0.4c-0.2,0-0.3-0.1-0.4-0.1h0l-0.2,0.3c0.1,0.1,0.3,0.2,0.5,0.2
		c0.4,0,0.7-0.2,0.8-0.7l0.6-1.9h-0.5L37.7,65h0l-0.4-1.6h-0.6l0.6,1.9L37.7,65.4L37.7,65.4z"/>
	<polygon class="st1" points="42.2,63.2 42.2,62.8 40.5,62.8 40.5,63.2 41.1,63.2 41.1,65.3 41.6,65.3 41.6,63.2 	"/>
	<path class="st1" d="M43.8,65.3v-1.8h-0.5v1.4C43.2,65,43.1,65,42.9,65c-0.2,0-0.3-0.1-0.3-0.4v-1.1h-0.5v1.1
		c0,0.5,0.2,0.8,0.7,0.8c0.3,0,0.5-0.1,0.6-0.3l0.1,0.2H43.8z"/>
	<path class="st1" d="M45.2,63.5c0,0-0.1,0-0.2,0c-0.2,0-0.4,0.1-0.4,0.3h0l-0.1-0.2h-0.3v1.8h0.5V64c0.1-0.1,0.2-0.1,0.3-0.1
		c0.1,0,0.2,0,0.2,0L45.2,63.5z"/>
	<path class="st1" d="M46.1,65.3v-1.8h-0.7v0.3l0.2,0v1.5H46.1z M45.6,63.2h0.5v-0.4h-0.5V63.2z"/>
	<path class="st1" d="M47.3,63.8c0.2,0,0.3,0,0.4,0.1l0.1-0.4c-0.1-0.1-0.3-0.1-0.5-0.1c-0.5,0-0.7,0.2-0.7,0.5
		c0,0.6,0.8,0.5,0.8,0.8c0,0.1-0.1,0.2-0.3,0.2c-0.2,0-0.3-0.1-0.4-0.1l-0.1,0.3c0.1,0.1,0.3,0.1,0.6,0.1c0.5,0,0.7-0.3,0.7-0.6
		c0-0.6-0.8-0.5-0.8-0.8C47,63.9,47.1,63.8,47.3,63.8"/>
	<path class="st1" d="M49.8,64c0.1-0.1,0.2-0.1,0.3-0.1c0.2,0,0.3,0.1,0.3,0.4v1.1H51v-1.1c0-0.5-0.2-0.7-0.7-0.7
		c-0.3,0-0.4,0.1-0.6,0.3c-0.1-0.2-0.3-0.3-0.6-0.3c-0.3,0-0.4,0.1-0.5,0.3l-0.1-0.2h-0.3v1.8h0.5V64c0.1-0.1,0.2-0.1,0.3-0.1
		c0.2,0,0.3,0.1,0.3,0.4v1.1h0.5v-1.1C49.8,64.1,49.8,64,49.8,64"/>
	<path class="st1" d="M52.1,63.5c-0.6,0-0.9,0.4-0.9,1c0,0.6,0.3,1,0.9,1c0.5,0,0.9-0.3,0.9-1C53,63.9,52.7,63.5,52.1,63.5 M52.1,65
		c-0.2,0-0.4-0.2-0.4-0.6c0-0.4,0.1-0.6,0.4-0.6c0.2,0,0.4,0.2,0.4,0.6C52.5,64.9,52.4,65,52.1,65"/>
	<path class="st1" d="M39.2,11.7c0-1.4-1.9-1.1-1.9-1.8c0-0.3,0.2-0.4,0.6-0.4c0.4,0,0.7,0.1,0.9,0.2L39.1,9
		c-0.3-0.2-0.7-0.3-1.2-0.3c-0.9,0-1.4,0.5-1.4,1.1c0,1.4,1.9,1,1.9,1.9c0,0.3-0.3,0.5-0.6,0.5c-0.4,0-0.8-0.2-1-0.4l-0.3,0.6
		c0.3,0.2,0.8,0.4,1.3,0.4C38.7,12.9,39.2,12.3,39.2,11.7"/>
	<polygon class="st1" points="42.3,12.9 42.3,12.2 40.6,12.2 40.6,11.2 41.9,11.2 41.9,10.5 40.6,10.5 40.6,9.5 42.3,9.5 42.3,8.8 
		39.8,8.8 39.8,12.9 	"/>
	<path class="st1" d="M44.9,10c0,0.5-0.2,0.7-0.7,0.7h-0.4V9.4h0.4C44.6,9.4,44.9,9.6,44.9,10 M43.7,11.3c0.2,0,0.3,0,0.5,0l0.7,1.5
		h0.9c-0.3-0.6-0.6-1.1-0.9-1.7c0.5-0.2,0.8-0.6,0.8-1.2c0-0.8-0.6-1.2-1.4-1.2H43v4h0.8V11.3z"/>
	<polygon class="st1" points="49.5,12.9 49.5,8.8 48.8,8.8 48.8,12.1 48.8,12.1 47.5,8.8 46.3,8.8 46.3,12.9 47,12.9 47,9.7 47,9.7 
		48.3,12.9 	"/>
	<path class="st1" d="M51.8,9.5l0.4,1.8h-1.1l0.4-1.8H51.8z M51,12h1.4l0.2,0.9h0.9l-1.1-4h-1.3l-1.1,4h0.8L51,12z"/>
	<polygon class="st1" points="56,9.5 56,8.8 53.2,8.8 53.2,9.5 54.1,9.5 54.1,12.9 55,12.9 55,9.5 	"/>
	<path class="st1" d="M59.5,8.8h-0.8v2.5c0,0.6-0.2,1-0.7,1c-0.5,0-0.7-0.4-0.7-1V8.8h-0.8v2.5c0,0.9,0.5,1.6,1.5,1.6
		c1.1,0,1.5-0.7,1.5-1.6V8.8z"/>
	<path class="st1" d="M62.2,10c0,0.5-0.2,0.7-0.7,0.7h-0.4V9.4h0.4C61.9,9.4,62.2,9.6,62.2,10 M61.1,11.3c0.2,0,0.3,0,0.5,0l0.7,1.5
		h0.9c-0.3-0.6-0.6-1.1-0.9-1.7C62.7,11,63,10.6,63,10c0-0.8-0.6-1.2-1.4-1.2h-1.3v4h0.8V11.3z"/>
	<path class="st0" d="M36.9,16.8v0.9h-0.5v-2.5h0.8c0.5,0,0.9,0.2,0.9,0.7c0,0.3-0.2,0.6-0.5,0.7c0.2,0.3,0.3,0.7,0.5,1h-0.6
		l-0.4-0.9c0,0,0,0,0,0H36.9z M37.2,15.6h-0.2v0.8h0.2c0.3,0,0.4-0.1,0.4-0.4C37.6,15.7,37.5,15.6,37.2,15.6"/>
	<path class="st0" d="M38.8,17c0,0.3,0.2,0.4,0.5,0.4c0.2,0,0.4-0.1,0.5-0.2l0.1,0.3c-0.1,0.1-0.4,0.2-0.7,0.2
		c-0.6,0-0.9-0.3-0.9-0.9c0-0.5,0.3-0.9,0.8-0.9c0.5,0,0.7,0.4,0.7,0.8V17H38.8z M39.1,16.3c-0.2,0-0.3,0.2-0.3,0.4h0.6
		C39.4,16.4,39.4,16.3,39.1,16.3"/>
	<path class="st0" d="M41.5,15.9h0.3v1.7c0,0.5-0.3,0.8-0.9,0.8c-0.3,0-0.5-0.1-0.7-0.2l0.1-0.4c0.1,0.1,0.3,0.2,0.6,0.2
		c0.3,0,0.4-0.2,0.4-0.4l0-0.2c-0.1,0.1-0.2,0.2-0.5,0.2c-0.4,0-0.7-0.3-0.7-0.9c0-0.6,0.3-0.9,0.8-0.9c0.2,0,0.4,0.1,0.5,0.2
		L41.5,15.9z M41.3,16.4c-0.1-0.1-0.2-0.1-0.3-0.1c-0.2,0-0.4,0.2-0.4,0.6c0,0.4,0.1,0.6,0.4,0.6c0.1,0,0.2-0.1,0.3-0.2V16.4z"/>
	<path class="st0" d="M42.4,17.7v-1.4l-0.2,0v-0.3h0.7v1.8H42.4z M42.4,15.2h0.5v0.4h-0.5V15.2z"/>
	<path class="st0" d="M44.9,16.8c0,0.6-0.3,0.9-0.8,0.9c-0.5,0-0.8-0.3-0.8-0.9c0-0.5,0.3-0.9,0.8-0.9
		C44.6,15.9,44.9,16.3,44.9,16.8 M43.6,15.7l0-0.3l0.9-0.3c0,0,0,0.3,0.1,0.3L43.6,15.7z M44.4,16.8c0-0.4-0.1-0.6-0.3-0.6
		c-0.2,0-0.3,0.2-0.3,0.6c0,0.4,0.1,0.6,0.3,0.6C44.3,17.4,44.4,17.2,44.4,16.8"/>
	<path class="st0" d="M46.3,17.7v-1.1c0-0.3-0.1-0.4-0.3-0.4c-0.1,0-0.2,0.1-0.3,0.1v1.3h-0.5v-1.8h0.3l0.1,0.2
		c0.1-0.1,0.3-0.2,0.6-0.2c0.4,0,0.6,0.3,0.6,0.7v1.1H46.3z"/>
	<path class="st0" d="M49.1,16.1c0-0.1,0-0.2,0-0.3v-0.5h0.5v2.5h-0.4l-0.1-0.2c-0.1,0.1-0.2,0.2-0.5,0.2c-0.4,0-0.7-0.3-0.7-0.9
		c0-0.6,0.3-0.9,0.8-0.9C48.9,15.9,49,16,49.1,16.1 M49.1,16.3c-0.1,0-0.2-0.1-0.3-0.1c-0.2,0-0.4,0.2-0.4,0.6
		c0,0.4,0.1,0.6,0.4,0.6c0.1,0,0.2-0.1,0.3-0.2V16.3z"/>
	<path class="st0" d="M50.4,17c0,0.3,0.2,0.4,0.5,0.4c0.2,0,0.4-0.1,0.5-0.2l0.1,0.3c-0.1,0.1-0.4,0.2-0.7,0.2
		c-0.6,0-0.9-0.3-0.9-0.9c0-0.5,0.3-0.9,0.8-0.9c0.5,0,0.8,0.4,0.8,0.8V17H50.4z M50.7,16.3c-0.2,0-0.3,0.2-0.3,0.4H51
		C51,16.4,51,16.3,50.7,16.3"/>
	<path class="st0" d="M52.6,17.2v-2h0.5v2c0,0.1,0.1,0.2,0.3,0.2v0.3c0,0-0.1,0-0.3,0C52.8,17.7,52.6,17.6,52.6,17.2"/>
	<path class="st0" d="M55.3,16.8c0,0.6-0.3,0.9-0.8,0.9c-0.5,0-0.8-0.3-0.8-0.9c0-0.5,0.3-0.9,0.8-0.9C55,15.9,55.3,16.3,55.3,16.8
		 M54.8,16.8c0-0.4-0.1-0.6-0.3-0.6c-0.2,0-0.3,0.2-0.3,0.6c0,0.4,0.1,0.6,0.3,0.6C54.7,17.4,54.8,17.2,54.8,16.8"/>
	<path class="st0" d="M56.1,16.4c0,0.3,0.8,0.2,0.8,0.8c0,0.3-0.2,0.6-0.7,0.6c-0.2,0-0.4-0.1-0.5-0.1l0.1-0.3
		c0.1,0.1,0.3,0.1,0.4,0.1c0.2,0,0.3-0.1,0.3-0.2c0-0.3-0.8-0.2-0.8-0.8c0-0.3,0.2-0.5,0.7-0.5c0.2,0,0.4,0,0.5,0.1l-0.1,0.3
		c-0.1-0.1-0.3-0.1-0.4-0.1C56.1,16.2,56.1,16.3,56.1,16.4"/>
	<polygon class="st0" points="58,17.7 58,15.3 58.5,15.3 58.5,17.3 59.5,17.3 59.5,17.7 	"/>
	<path class="st0" d="M60.9,17.7l-0.1-0.2c-0.1,0.1-0.3,0.2-0.5,0.2c-0.4,0-0.6-0.2-0.6-0.6c0-0.3,0.2-0.5,0.7-0.5h0.4v-0.1
		c0-0.2-0.1-0.3-0.3-0.3c-0.2,0-0.4,0.1-0.5,0.1L59.8,16c0.2-0.1,0.4-0.1,0.7-0.1c0.5,0,0.7,0.2,0.7,0.7v1.1H60.9z M60.8,16.9h-0.3
		c-0.2,0-0.3,0.1-0.3,0.2c0,0.2,0.1,0.3,0.3,0.3c0.1,0,0.2-0.1,0.3-0.1V16.9z"/>
	<path class="st0" d="M62.9,15.9h0.3v1.7c0,0.5-0.3,0.8-0.9,0.8c-0.3,0-0.6-0.1-0.7-0.2l0.1-0.4c0.1,0.1,0.3,0.2,0.6,0.2
		c0.3,0,0.4-0.2,0.4-0.4l0-0.2c-0.1,0.1-0.3,0.2-0.5,0.2c-0.4,0-0.7-0.3-0.7-0.9c0-0.6,0.3-0.9,0.8-0.9c0.2,0,0.4,0.1,0.5,0.2
		L62.9,15.9z M62.7,16.4c-0.1-0.1-0.2-0.1-0.3-0.1c-0.2,0-0.4,0.2-0.4,0.6c0,0.4,0.1,0.6,0.4,0.6c0.1,0,0.2-0.1,0.3-0.2V16.4z"/>
	<path class="st0" d="M65.2,16.8c0,0.6-0.3,0.9-0.8,0.9c-0.5,0-0.8-0.3-0.8-0.9c0-0.5,0.3-0.9,0.8-0.9
		C64.9,15.9,65.2,16.3,65.2,16.8 M64.7,16.8c0-0.4-0.1-0.6-0.3-0.6c-0.2,0-0.3,0.2-0.3,0.6c0,0.4,0.1,0.6,0.3,0.6
		C64.6,17.4,64.7,17.2,64.7,16.8"/>
	<path class="st0" d="M66,16.4c0,0.3,0.8,0.2,0.8,0.8c0,0.3-0.2,0.6-0.7,0.6c-0.2,0-0.4-0.1-0.5-0.1l0.1-0.3
		c0.1,0.1,0.3,0.1,0.4,0.1c0.2,0,0.3-0.1,0.3-0.2c0-0.3-0.8-0.2-0.8-0.8c0-0.3,0.2-0.5,0.7-0.5c0.2,0,0.4,0,0.5,0.1l-0.1,0.3
		c-0.1-0.1-0.3-0.1-0.4-0.1C66,16.2,66,16.3,66,16.4"/>
</g>
</svg>
