<?xml version="1.0" encoding="UTF-8"?>
<svg id="Capa_1" data-name="Capa 1" xmlns="http://www.w3.org/2000/svg" version="1.1" viewBox="0 0 120 74">
  <defs>
    <style>
      .cls-1 {
        stroke: #3c3b39;
      }

      .cls-1, .cls-2, .cls-3, .cls-4, .cls-5, .cls-6 {
        stroke-width: 0px;
      }

      .cls-1, .cls-3 {
        fill: none;
        stroke-linecap: round;
        stroke-linejoin: round;
      }

      .cls-2 {
        display: none;
        fill: #21211f;
      }

      .cls-3 {
        stroke: #e3e3e0;
      }

      .cls-4 {
        fill: #e5e5e4;
      }

      .cls-5 {
        fill: #e3e3e0;
      }

      .cls-6 {
        fill: #fff;
      }
    </style>
  </defs>
  <polygon class="cls-5" points="26.8 48.9 26.8 60.2 27 60.5 27 48.9 26.8 48.9"/>
  <polygon class="cls-6" points="22.6 44.8 22.6 54.9 26.8 60.5 26.8 60.2 22.8 54.9 22.8 44.8 22.6 44.8"/>
  <polygon class="cls-5" points="36.5 26.7 36.7 26.7 36.7 9.8 36.6 9.7 36.5 9.6 36.5 26.7"/>
  <polygon class="cls-6" points="36.7 9.8 36.7 9.8 40.7 12.9 40.7 30.5 40.9 30.5 40.9 12.8 36.7 9.5 36.7 9.5 36.7 9.8"/>
  <g>
    <path class="cls-6" d="M33.7,7.5c-.3,0-.5,0-.7.2l-6.1,4.7h0v14.2h.2v-14.1l6.1-4.7c.2-.1.4-.2.6-.2s.4,0,.6.2l2.2,1.7v-.3l-2.1-1.6c-.2-.2-.5-.2-.7-.2"/>
    <path class="cls-6" d="M54.3,30.6h0s-17.6,0-17.6,0h-.2v-3.6,3.6h-13.7v-3.6,3.6h-.2,13.9v14.1H9.1l-7.2-6.2c-.2-.2-.3-.4-.3-.6s.1-.4.3-.6l6.1-5.2h0s0,0,0,0l1.5-1.3h0l.2-.2h-.4l-7.7,6.6c-.2.2-.4.5-.4.8s.1.6.4.8l7.2,6.2h0s13.6,0,13.6,0h4.4v4h0v11.6l-.2-.3v5.6l6.5,6c.2.2.5.3.7.3s.5,0,.7-.3l6.1-5.6h0v-21.3h0v3.8h-.2v17.4l-6.1,5.6c-.3.3-.9.3-1.2,0l-6.4-5.9v-20.9h9.7v-.2h12.4l-.2.2h5.1l4.9-6.6c.3-.4.3-1.1,0-1.5l-4.6-6.2ZM36.7,44.6h0v-13.9h17.5l4.6,6.2c.3.3.3.9,0,1.2l-4.9,6.5h-4.6,0-12.6Z"/>
    <path class="cls-6" d="M36.7,44.9h0Z"/>
    <polygon class="cls-4" points="36.5 48.7 36.7 48.7 36.7 48.7 36.7 44.8 36.5 44.8 36.7 44.8 36.5 44.8 36.5 48.7"/>
    <line class="cls-3" x1="36.5" y1="44.9" x2="36.7" y2="44.9"/>
    <line class="cls-3" x1="36.7" y1="44.9" x2="36.7" y2="44.9"/>
    <polygon class="cls-5" points="48.9 44.8 48.9 44.8 49.1 44.6 36.7 44.6 36.7 44.8 40.7 44.8 40.7 48.7 40.7 48.7 40.9 48.7 40.9 44.8 48.9 44.8"/>
    <polygon class="cls-6" points="48.9 44.9 48.9 44.9 45.8 48.7 40.9 48.7 40.9 48.9 45.9 48.9 49.2 44.9 48.9 44.9"/>
    <path class="cls-6" d="M36.7,48.9h-.2v6.4l-6.1,8.1c-.2.2-.4.3-.6.3s-.4-.1-.6-.3l-2.2-2.9v.3l2,2.7c.2.3.5.4.7.4s.5-.1.7-.4l6.1-8.1h0v-6.5h4v-.2h-4v.2Z"/>
    <line class="cls-1" x1="27" y1="44.8" x2="27" y2="44.8"/>
    <line class="cls-1" x1="27" y1="44.8" x2="27" y2="48.7"/>
    <rect class="cls-6" x="27" y="48.7" width="9.5" height=".2"/>
    <rect class="cls-6" x="26.8" y="44.8" width=".2" height="4"/>
    <polygon class="cls-2" points="36.5 48.9 36.5 48.9 36.7 48.9 36.7 48.7 36.5 48.7 36.5 48.9"/>
    <path class="cls-6" d="M46.1,34.8l5,6.2c.3.3.3.9,0,1.2l-2,2.5h.3l1.9-2.3c.3-.4.3-1.1,0-1.5l-5.1-6.2h-9.5v.2h9.4Z"/>
    <rect class="cls-5" x="22.6" y="26.9" width=".2" height="3.6"/>
    <polygon class="cls-4" points="26.8 26.9 26.8 30.5 26.8 30.5 27 30.5 27 26.9 26.8 26.9 26.8 26.9"/>
    <polygon class="cls-5" points="22.6 30.5 9.8 30.5 9.5 30.8 9.5 30.8 36.5 30.8 36.5 30.8 36.5 30.5 27 30.5 26.8 30.5 22.8 30.5 22.6 30.5"/>
    <line class="cls-3" x1="36.5" y1="40.8" x2="36.5" y2="30.8"/>
    <polygon class="cls-6" points="13.3 26.7 9.5 30.5 9.8 30.5 13.4 26.9 22.6 26.9 22.6 26.7 13.3 26.7"/>
    <polygon class="cls-6" points="26.8 26.9 26.8 26.7 22.8 26.7 22.8 26.9 22.8 26.9 26.8 26.9"/>
    <path class="cls-6" d="M22.6,26.9h.2v-.2h0V8.5l6.1-6.2c.2-.2.4-.2.6-.2s.4,0,.6.2l6.4,6.5v17.8V9.6h0c0,0,.1.2.1.2v-.3h0v-.7l-6.5-6.6c-.2-.2-.5-.3-.7-.3s-.5.1-.7.3l-6.1,6.2v18.5Z"/>
    <polygon class="cls-6" points="36.5 26.7 36.5 26.7 27 26.7 27 26.9 36.5 26.9 36.5 26.7"/>
    <polygon class="cls-6" points="36.7 26.7 36.5 26.7 36.5 26.9 36.5 30.5 36.7 30.5 36.7 26.7"/>
    <polygon class="cls-2" points="26.8 26.9 27 26.9 27 26.7 26.8 26.7 26.8 26.9 26.8 26.9"/>
    <path class="cls-6" d="M13,40.8l-6.2-6.2c-.2-.2-.2-.4-.2-.6s0-.4.2-.6l2.7-2.7h0l-1.5,1.3-1.3,1.3c-.2.2-.3.5-.3.7,0,.3.1.5.3.8l6.2,6.2h23.6v-.2H13Z"/>
    <path class="cls-6" d="M62.3,26.1c.2,0,.3,0,.3-.2v-2h1c.9,0,1.6-.5,1.6-1.7h0c0-1.3-.7-1.7-1.6-1.7h-1.4c-.2,0-.3.1-.3.2v5.1c0,.2.2.2.3.2M62.6,21.1h1c.6,0,1,.3,1,1.1h0c0,.8-.4,1.2-1,1.2h-1v-2.3Z"/>
    <path class="cls-6" d="M66.4,21.1h1.2v4.8c0,.2.2.2.3.2s.3,0,.3-.2v-4.8h1.2c.2,0,.2-.2.2-.3s0-.3-.2-.3h-3.1c-.2,0-.2.2-.2.3s0,.3.2.3"/>
    <path class="cls-6" d="M71.2,26.1c.2,0,.3,0,.3-.2v-5.1c0-.2-.2-.2-.3-.2s-.3,0-.3.2v5.1c0,.2.2.2.3.2"/>
    <path class="cls-6" d="M62,29.6v5.4c0,.2.2.2.3.2s.3,0,.3-.2v-5.4c0-.2-.2-.2-.3-.2s-.3,0-.3.2"/>
    <path class="cls-6" d="M67.7,33.6v-1.1c0-.1,0-.2-.2-.2h-1.4c-.2,0-.2.1-.2.3s0,.3.2.3h.9v.8c0,.8-.4,1.1-1,1.1s-1-.4-1-1.1v-2.4c0-.8.4-1.1,1-1.1s1,.4,1,.9c0,.2.2.2.3.2s.3,0,.3-.3c0-.8-.7-1.4-1.7-1.4s-1.7.5-1.7,1.7v2.4c0,1.3.7,1.7,1.7,1.7s1.7-.5,1.7-1.7"/>
    <path class="cls-6" d="M69.3,29.6v5.4c0,.2.1.2.3.2h2.5c.1,0,.2-.2.2-.3s0-.3-.2-.3h-2.2v-5c0-.2-.2-.2-.3-.2s-.3,0-.3.2"/>
    <path class="cls-6" d="M74,35.3h2.8c.2,0,.2-.2.2-.3s0-.3-.2-.3h-2.4v-2h1.2c.2,0,.2-.1.2-.3s0-.3-.2-.3h-1.2v-2h2.4c.1,0,.2-.1.2-.3s0-.3-.2-.3h-2.8c-.2,0-.3,0-.3.2v5.4c0,.2.2.2.3.2"/>
    <path class="cls-6" d="M79.7,35.3c1,0,1.7-.5,1.7-1.7,0-2.2-2.6-1.5-2.6-2.8s.5-.8,1.1-.8.9.3,1.1.3.3-.2.3-.4c0-.4-.8-.5-1.4-.5s-1.7.3-1.7,1.5c0,1.9,2.6,1.2,2.6,2.8s-.4,1-1.1,1-1.1-.6-1.3-.6-.3.2-.3.4c0,.3.7.9,1.7.9"/>
    <path class="cls-6" d="M83.3,35.3c.2,0,.3,0,.3-.2v-5.4c0-.2-.2-.2-.3-.2s-.3,0-.3.2v5.4c0,.2.2.2.3.2"/>
    <path class="cls-6" d="M85.3,35.3c.1,0,.2,0,.2-.2l.3-1.2h2.1l.3,1.2c0,.1.1.2.2.2.2,0,.4-.1.4-.3s0,0,0,0l-1.6-5.3c0-.2-.2-.2-.4-.2s-.4,0-.4.2l-1.6,5.3s0,0,0,0c0,.2.2.3.4.3M87,30.3l.9,3h-1.8l.9-3Z"/>
    <path class="cls-6" d="M91.7,35.3c1,0,1.7-.5,1.7-1.7,0-2.2-2.6-1.5-2.6-2.8s.5-.8,1.1-.8.9.3,1.1.3.3-.2.3-.4c0-.4-.8-.5-1.4-.5s-1.7.3-1.7,1.5c0,1.9,2.6,1.2,2.6,2.8s-.4,1-1.1,1-1.1-.6-1.3-.6-.3.2-.3.4c0,.3.7.9,1.7.9"/>
    <path class="cls-6" d="M63.7,39h-1.5c-.2,0-.3.1-.3.2v5.4c0,.2.2.2.3.2s.3,0,.3-.2v-2.1h1.1c1,0,1.7-.5,1.7-1.7h0c0-1.3-.7-1.8-1.7-1.8M64.7,40.9c0,.8-.4,1.1-1,1.1h-1.1v-2.4h1.1c.6,0,1,.4,1,1.1h0Z"/>
    <path class="cls-6" d="M69.2,43.5l.3,1.2c0,.1.1.2.2.2.2,0,.4-.1.4-.3s0,0,0,0l-1.6-5.3c0-.2-.2-.2-.4-.2s-.4,0-.4.2l-1.6,5.3s0,0,0,0c0,.2.2.3.4.3s.2,0,.2-.2l.3-1.2h2.1ZM68.1,40l.9,3h-1.8l.9-3Z"/>
    <path class="cls-6" d="M74.3,39.3c0-.2,0-.3-.2-.3h-3.2c-.2,0-.2.2-.2.3s0,.3.2.3h1.3v5c0,.2.2.2.3.2s.3,0,.3-.2v-5h1.3c.2,0,.2-.2.2-.3"/>
    <path class="cls-6" d="M79,44.5s0,0,0-.1l-1.2-2.3c.7-.1,1.2-.6,1.2-1.6s-.8-1.6-1.7-1.6h-1.4c-.1,0-.2.1-.2.2v5.4c0,.2.2.2.3.2s.3,0,.3-.2v-2.4h.9l1.2,2.3c0,.1.2.3.3.3s.4-.2.4-.3M76.2,41.7v-2.1h1c.7,0,1.1.3,1.1,1s-.4,1-1.1,1h-1Z"/>
    <path class="cls-6" d="M80.5,39.2v5.4c0,.2.2.2.3.2s.3,0,.3-.2v-5.4c0-.2-.2-.2-.3-.2s-.3,0-.3.2"/>
    <path class="cls-6" d="M86.5,44.6c0,.2.2.2.3.2s.3,0,.3-.2v-5.3c0-.2-.2-.3-.3-.3s-.4.1-.5.4l-1.2,2.4-1.2-2.4c-.1-.3-.3-.4-.5-.4s-.3,0-.3.3v5.3c0,.2.2.2.3.2s.3,0,.3-.2v-4.2l1.2,2.3c0,.1.2.2.2.2s.2,0,.3-.2l1.2-2.3v4.2Z"/>
    <path class="cls-6" d="M92.2,43.2v-2.4c0-1.3-.7-1.7-1.7-1.7s-1.7.5-1.7,1.7v2.4c0,1.3.7,1.7,1.7,1.7s1.7-.5,1.7-1.7M91.6,43.2c0,.8-.4,1.1-1,1.1s-1-.4-1-1.1v-2.4c0-.8.4-1.1,1-1.1s1,.4,1,1.1v2.4Z"/>
    <path class="cls-6" d="M97,44.9c.2,0,.3,0,.3-.2v-5.4c0-.2-.2-.2-.3-.2s-.3,0-.3.2v4.1l-2-3.9c-.1-.3-.3-.4-.5-.4s-.3,0-.3.2v5.4c0,.2.2.2.3.2s.3,0,.3-.2v-4.1l2,4c0,.2.2.3.4.3"/>
    <path class="cls-6" d="M99.5,39c-.2,0-.3,0-.3.2v5.4c0,.2.2.2.3.2s.3,0,.3-.2v-5.4c0-.2-.2-.2-.3-.2"/>
    <path class="cls-6" d="M103.6,39.2c0-.2-.2-.2-.4-.2s-.4,0-.4.2l-1.6,5.3s0,0,0,0c0,.2.2.3.4.3s.2,0,.2-.2l.3-1.2h2.1l.3,1.2c0,.1.1.2.2.2.2,0,.4-.1.4-.3s0,0,0,0l-1.6-5.3ZM102.3,43l.9-3,.9,3h-1.8Z"/>
    <path class="cls-6" d="M109.3,44.3h-2.2v-5c0-.2-.2-.2-.3-.2s-.3,0-.3.2v5.4c0,.2.2.2.3.2h2.5c.1,0,.2-.2.2-.3s0-.3-.2-.3"/>
    <path class="cls-6" d="M114,39.6c.1,0,.2-.1.2-.3s0-.3-.2-.3h-2.8c-.1,0-.3,0-.3.2v5.4c0,.2.2.2.3.2h2.8c.2,0,.2-.2.2-.3s0-.3-.2-.3h-2.4v-2h1.2c.2,0,.2-.1.2-.3s0-.3-.2-.3h-1.2v-2h2.4Z"/>
    <path class="cls-6" d="M116,40.4c0-.6.5-.8,1.1-.8s.9.3,1.1.3.3-.2.3-.4c0-.4-.8-.5-1.4-.5s-1.7.3-1.7,1.5c0,1.9,2.6,1.2,2.6,2.8s-.4,1-1.1,1-1.1-.6-1.3-.6-.3.2-.3.4c0,.3.7.9,1.7.9s1.7-.5,1.7-1.7c0-2.2-2.6-1.5-2.6-2.8"/>
    <path class="cls-6" d="M63.7,48.6h-1.4c-.2,0-.3.1-.3.2v5.4c0,.1.1.2.3.2h1.4c1,0,1.7-.5,1.7-1.7v-2.4c0-1.3-.7-1.7-1.7-1.7M64.7,52.7c0,.8-.4,1.1-1,1.1h-1v-4.6h1c.6,0,1,.4,1,1.1v2.4Z"/>
    <path class="cls-6" d="M70.2,49.2c.1,0,.2-.1.2-.3s0-.3-.2-.3h-2.8c-.1,0-.3,0-.3.2v5.4c0,.2.2.2.3.2h2.8c.2,0,.2-.2.2-.3s0-.3-.2-.3h-2.4v-2h1.2c.2,0,.2-.1.2-.3s0-.3-.2-.3h-1.2v-2h2.4Z"/>
    <path class="cls-6" d="M75.6,49.2c.9,0,1,.6,1,.9,0,.1.1.2.3.2s.3,0,.3-.4c0-.8-.6-1.4-1.7-1.4s-1.7.5-1.7,1.7v2.4c0,1.3.8,1.7,1.7,1.7s1.7-.6,1.7-1.4-.1-.4-.3-.4-.3,0-.3.2c0,.4-.1,1-1,1s-1.1-.4-1.1-1.1v-2.4c0-.8.4-1.1,1-1.1"/>
    <path class="cls-6" d="M81.9,48.6c-.2,0-.3,0-.3.2v2.3h-2.1v-2.3c0-.2-.2-.2-.3-.2s-.3,0-.3.2v5.4c0,.2.2.2.3.2s.3,0,.3-.2v-2.5h2.1v2.5c0,.2.2.2.3.2s.3,0,.3-.2v-5.4c0-.2-.2-.2-.3-.2"/>
    <path class="cls-6" d="M84.3,48.6c-.2,0-.3,0-.3.2v5.4c0,.2.2.2.3.2s.3,0,.3-.2v-5.4c0-.2-.2-.2-.3-.2"/>
    <path class="cls-6" d="M89.2,53.9h-2.2v-5c0-.2-.2-.2-.3-.2s-.3,0-.3.2v5.4c0,.2.2.2.3.2h2.5c.1,0,.2-.2.2-.3s0-.3-.2-.3"/>
    <path class="cls-6" d="M92.3,48.6c-1,0-1.7.5-1.7,1.7v2.4c0,1.3.7,1.7,1.7,1.7s1.7-.5,1.7-1.7v-2.4c0-1.3-.7-1.7-1.7-1.7M93.3,52.8c0,.8-.4,1.1-1,1.1s-1-.4-1-1.1v-2.4c0-.8.4-1.1,1-1.1s1,.4,1,1.1v2.4Z"/>
    <path class="cls-6" d="M96.8,47.5c0,.1.1.3.2.3s0,0,0,0l.9-.5c0,0,.1-.1.1-.2,0-.1,0-.3-.2-.3s0,0,0,0l-.9.5c0,0-.1.1-.1.2"/>
    <path class="cls-6" d="M98.8,49.2c.1,0,.2-.1.2-.3s0-.3-.2-.3h-2.8c-.2,0-.3,0-.3.2v5.4c0,.2.2.2.3.2h2.8c.2,0,.2-.2.2-.3s0-.3-.2-.3h-2.4v-2h1.2c.2,0,.2-.1.2-.3s0-.3-.2-.3h-1.2v-2h2.4Z"/>
  </g>
</svg>