<svg viewBox="0 0 600 66" xmlns="http://www.w3.org/2000/svg"><path d="m4.4 2.6h501.4v60.8h-501.4z" fill="#591a44" stroke="#591a44" stroke-miterlimit="10"/><path d="m481.6 63.4h88l24.8-28.2c1.4-1.6 1.4-4.2 0-5.8l-23.4-26.7h-89.3v60.8z" fill="none" stroke="#591a44" stroke-miterlimit="10"/><g fill="#fff"><path d="m21.6 38.8c-.8-.4-1.5-1-1.9-1.7-.5-.7-.7-1.6-.7-2.6v-6.1c0-1 .2-1.8.7-2.5s1.1-1.3 1.9-1.7 1.8-.6 2.9-.6 2 .2 2.9.6 1.5 1 1.9 1.7c.5.7.7 1.5.7 2.5s0 .1 0 .2c0 0-.1 0-.2 0h-1.2c-.2 0-.2 0-.2-.1 0-1.1-.4-1.9-1.1-2.6s-1.6-.9-2.8-.9-2.1.3-2.8.9-1.1 1.5-1.1 2.5v6.2c0 1 .4 1.9 1.1 2.5s1.6.9 2.8.9 2.1-.3 2.8-.9 1.1-1.5 1.1-2.5c0-.2 0-.2.2-.2h1.2c.2 0 .2.1.2.3 0 1-.2 1.8-.7 2.5s-1.1 1.3-1.9 1.7-1.8.6-2.9.6-2-.2-2.9-.6z"/><path d="m34.9 38.5c-.8-.5-1.4-1.3-1.7-2.2-.2-.7-.3-1.6-.3-2.7s.1-2 .3-2.7c.3-.9.8-1.7 1.7-2.2.8-.5 1.8-.8 2.9-.8s2.1.3 2.9.8 1.4 1.3 1.6 2.2c.2.6.3 1.5.3 2.7s-.1 2.1-.3 2.7c-.3 1-.8 1.7-1.6 2.2s-1.8.8-2.9.8-2.1-.3-2.9-.8zm4.9-1.1c.5-.4.9-.9 1.1-1.6.1-.5.2-1.3.2-2.2s0-1.7-.2-2.2c-.2-.7-.5-1.2-1.1-1.6s-1.2-.6-2-.6-1.4.2-1.9.6-.9.9-1.1 1.6c-.1.5-.2 1.3-.2 2.2s0 1.7.2 2.2c.2.7.5 1.2 1.1 1.6.5.4 1.2.6 2 .6s1.4-.2 1.9-.6z"/><path d="m54 28.9c.7.7 1.1 1.6 1.1 2.8v7.3c0 .1 0 .2-.2.2h-1.2c-.2 0-.2 0-.2-.2v-7c0-.8-.3-1.5-.8-2s-1.2-.8-2-.8-1.6.2-2.1.7-.8 1.2-.8 2v7c0 .1 0 .2-.2.2h-1.2c-.2 0-.2 0-.2-.2v-10.7c0-.1 0-.2.2-.2h1.2c.2 0 .2 0 .2.2v.9s0 0 0 0c.7-.9 1.7-1.4 3.2-1.4s2.2.3 3 1z"/><path d="m60.1 38.5c-.8-.5-1.4-1.3-1.7-2.2-.2-.7-.3-1.6-.3-2.7s.1-2 .3-2.7c.3-.9.8-1.7 1.7-2.2.8-.5 1.8-.8 2.9-.8s2.1.3 2.9.8 1.4 1.3 1.6 2.2c.2.6.3 1.5.3 2.7s-.1 2.1-.3 2.7c-.3 1-.8 1.7-1.6 2.2s-1.8.8-2.9.8-2.1-.3-2.9-.8zm4.8-1.1c.5-.4.9-.9 1.1-1.6.1-.5.2-1.3.2-2.2s0-1.7-.2-2.2c-.2-.7-.5-1.2-1.1-1.6s-1.2-.6-2-.6-1.4.2-1.9.6-.9.9-1.1 1.6c-.1.5-.2 1.3-.2 2.2s0 1.7.2 2.2c.2.7.5 1.2 1.1 1.6.5.4 1.2.6 2 .6s1.4-.2 1.9-.6z"/><path d="m72.8 38.5c-.8-.5-1.4-1.3-1.6-2.2-.2-.6-.3-1.6-.3-2.7s.1-2 .3-2.7c.3-.9.8-1.6 1.6-2.2s1.8-.8 2.9-.8 2.1.3 3 .8c.8.5 1.4 1.2 1.6 2 0 .3.1.5.1.7 0 .1 0 .2-.2.2l-1.2.2c-.1 0-.2 0-.2-.2v-.3c-.2-.6-.6-1-1.1-1.4s-1.2-.6-2-.6-1.4.2-2 .6-.9.9-1 1.6c-.1.6-.2 1.3-.2 2.2s0 1.7.2 2.2c.2.7.5 1.2 1 1.6s1.2.6 2 .6 1.4-.2 2-.6.9-.9 1-1.4v-.2c0-.1.1-.2.3-.2l1.1.2c.2 0 .2.1.2.2v.4c-.3.9-.9 1.5-1.7 2.1-.8.5-1.8.8-3 .8s-2.1-.3-2.9-.8z"/><path d="m92.5 33.3v.7c0 .1 0 .2-.2.2h-7.5c0 .8 0 1.3.1 1.6.2.7.5 1.2 1.1 1.6s1.3.6 2.1.6 1.2-.1 1.7-.4.9-.7 1.2-1.2c0-.1.2-.2.3 0l.9.5c.1 0 .2.2 0 .3-.4.7-1 1.3-1.8 1.7s-1.7.6-2.7.6c-1.1 0-2-.3-2.8-.7-.7-.5-1.3-1.2-1.6-2-.3-.7-.4-1.7-.4-3s0-1.1 0-1.5 0-.7.2-1c.3-1 .8-1.7 1.6-2.3s1.8-.9 2.9-.9 2.5.3 3.3 1 1.2 1.6 1.4 2.9v1.5zm-6.7-3.5c-.5.4-.8.9-1 1.5 0 .3-.2.8-.2 1.5h6.1c0-.7 0-1.1-.1-1.4-.2-.7-.5-1.2-1-1.6s-1.2-.6-2-.6-1.4.2-1.9.6z"/><path d="m115.2 28.9c.7.7 1 1.6 1 2.7v7.4c0 .1 0 .2-.2.2h-1.2c-.2 0-.2 0-.2-.2v-7.1c0-.8-.2-1.4-.7-1.9s-1.1-.7-1.9-.7-1.5.2-2 .7-.8 1.1-.8 1.9v7.1c0 .1 0 .2-.2.2h-1.2c-.2 0-.2 0-.2-.2v-7.1c0-.8-.2-1.4-.7-1.9s-1.1-.7-1.9-.7-1.5.2-2 .7-.7 1.1-.7 1.9v7.1c0 .1 0 .2-.2.2h-1.2c-.2 0-.2 0-.2-.2v-10.7c0-.1 0-.2.2-.2h1.2c.2 0 .2 0 .2.2v.9s0 0 0 0c.3-.4.8-.7 1.3-1 .5-.2 1.1-.3 1.8-.3s1.5.2 2.1.5 1 .8 1.3 1.3h.1c.3-.6.8-1.1 1.4-1.4s1.3-.5 2.1-.5c1.2 0 2.1.3 2.8 1z"/><path d="m127.1 28.9c.8.7 1.1 1.6 1.1 2.7v7.4c0 .1 0 .2-.2.2h-1.2c-.2 0-.2 0-.2-.2v-.9s0 0 0 0c-.4.4-.9.8-1.5 1s-1.3.3-2.1.3c-1.1 0-2-.3-2.8-.8-.7-.5-1.1-1.3-1.1-2.4s.4-2 1.3-2.6c.8-.6 2-1 3.5-1h2.7v-.8c0-.7-.2-1.3-.7-1.8-.4-.4-1.1-.6-2.1-.6s-1.4.1-1.8.4c-.5.3-.8.6-.9 1.1 0 .1-.1.2-.3.2l-1.3-.2c-.2 0-.2 0-.2-.2.1-.8.6-1.5 1.4-2s1.8-.8 3-.8 2.5.3 3.2 1zm-1.5 8.5c.7-.4 1-1 1-1.7v-1.7h-2.5c-1 0-1.9.2-2.5.6s-.9.9-.9 1.6.2 1.1.7 1.5c.5.3 1.1.5 1.9.5s1.7-.2 2.4-.6zm-2.7-10.9s0-.1 0-.2l1.4-2.4c0-.1.1-.2.3-.2h1.1.2v.2l-1.6 2.4c0 .1-.2.2-.3.2h-.8-.2z"/><path d="m133.2 38.9c-.7-.3-1.2-.6-1.6-1.1-.4-.4-.5-.9-.5-1.5v-.3c0-.1 0-.2.2-.2h1.1c.2 0 .2 0 .2.2v.2c0 .5.3.9.8 1.3s1.2.5 2 .5 1.5-.2 2-.5.7-.8.7-1.3-.1-.7-.4-.9-.6-.4-.9-.5-.9-.3-1.6-.5c-.9-.2-1.6-.5-2.1-.7s-1-.6-1.4-1-.6-.9-.6-1.6c0-.9.4-1.7 1.2-2.2.8-.6 1.8-.8 3.1-.8s1.6.1 2.3.4 1.2.6 1.5 1.1c.4.5.5 1 .5 1.6 0 .2 0 .3-.2.3h-1.1c-.2 0-.2 0-.2-.2 0-.6-.3-1-.8-1.3s-1.2-.5-2-.5-1.4.2-1.9.5-.7.7-.7 1.2.2.9.7 1.1 1.2.5 2.2.8c.9.2 1.6.5 2.2.7s1 .5 1.4 1c.4.4.6 1 .6 1.6s-.4 1.7-1.2 2.3-1.8.9-3.2.9-1.6-.1-2.3-.4z"/><path d="m154.9 28.9c.8.7 1.1 1.6 1.1 2.7v7.4c0 .1 0 .2-.2.2h-1.2c-.2 0-.2 0-.2-.2v-.9s0 0 0 0c-.4.4-.9.8-1.5 1s-1.3.3-2.1.3c-1.1 0-2-.3-2.8-.8-.7-.5-1.1-1.3-1.1-2.4s.4-2 1.3-2.6c.8-.6 2-1 3.5-1h2.7v-.8c0-.7-.2-1.3-.7-1.8-.4-.4-1.1-.6-2.1-.6s-1.4.1-1.8.4c-.5.3-.8.6-.9 1.1 0 .1-.1.2-.3.2l-1.3-.2c-.2 0-.2 0-.2-.2.1-.8.6-1.5 1.4-2s1.8-.8 3-.8 2.5.3 3.2 1zm-1.5 8.5c.7-.4 1-1 1-1.7v-1.7h-2.5c-1 0-1.9.2-2.5.6s-.9.9-.9 1.6.2 1.1.7 1.5c.5.3 1.1.5 1.9.5s1.7-.2 2.4-.6z"/><path d="m164.5 29.3h-2.6v6.5c0 .7.2 1.2.5 1.5s.9.4 1.6.4h.6c.2 0 .2 0 .2.2v.9c0 .1 0 .2-.2.2s-.5 0-.9 0c-1.1 0-2-.2-2.5-.6-.6-.4-.9-1.1-.9-2.2v-7h-1.4c-.2 0-.2 0-.2-.2v-.9c0-.1 0-.2.2-.2h1.4v-2.6c0-.1 0-.2.2-.2h1.1c.2 0 .2 0 .2.2v2.6h2.6c.2 0 .2 0 .2.2v.9c0 .1 0 .2-.2.2z"/><path d="m174.1 28.2c.1 0 .2.2.1.3l-.3 1.1c0 .1-.1.2-.3.1-.3-.1-.6-.2-.9-.2h-.3c-.8 0-1.5.3-2 .9-.5.5-.8 1.2-.8 2v6.5c0 .1 0 .2-.2.2h-1.2c-.2 0-.2 0-.2-.2v-10.7c0-.1 0-.2.2-.2h1.2c.2 0 .2 0 .2.2v1.3s0 0 0 0c.3-.5.7-1 1.2-1.3s1.1-.5 1.8-.5 1 0 1.3.3z"/><path d="m183.8 28.9c.8.7 1.1 1.6 1.1 2.7v7.4c0 .1 0 .2-.2.2h-1.2c-.2 0-.2 0-.2-.2v-.9s0 0 0 0c-.4.4-.9.8-1.5 1s-1.3.3-2.1.3c-1.1 0-2-.3-2.8-.8-.7-.5-1.1-1.3-1.1-2.4s.4-2 1.3-2.6c.8-.6 2-1 3.5-1h2.7v-.8c0-.7-.2-1.3-.7-1.8-.4-.4-1.1-.6-2.1-.6s-1.4.1-1.8.4c-.5.3-.8.6-.9 1.1 0 .1-.1.2-.3.2l-1.3-.2c-.2 0-.2 0-.2-.2.1-.8.6-1.5 1.4-2s1.8-.8 3-.8 2.5.3 3.2 1zm-1.6 8.5c.7-.4 1-1 1-1.7v-1.7h-2.5c-1 0-1.9.2-2.5.6s-.9.9-.9 1.6.2 1.1.7 1.5c.5.3 1.1.5 1.9.5s1.7-.2 2.4-.6z"/><path d="m189.9 38.5c-.8-.5-1.4-1.3-1.6-2.2-.2-.6-.3-1.6-.3-2.7s.1-2 .3-2.7c.3-.9.8-1.6 1.6-2.2s1.8-.8 2.9-.8 2.1.3 3 .8c.8.5 1.4 1.2 1.6 2 0 .3.1.5.1.7 0 .1 0 .2-.2.2l-1.2.2c-.1 0-.2 0-.2-.2v-.3c-.2-.6-.6-1-1.1-1.4s-1.2-.6-2-.6-1.4.2-2 .6-.9.9-1 1.6c-.1.6-.2 1.3-.2 2.2s0 1.7.2 2.2c.2.7.5 1.2 1 1.6s1.2.6 2 .6 1.4-.2 2-.6.9-.9 1-1.4v-.2c0-.1.1-.2.3-.2l1.1.2c.2 0 .2.1.2.2v.4c-.3.9-.9 1.5-1.7 2.1-.8.5-1.8.8-3 .8s-2.1-.3-2.9-.8z"/><path d="m205.6 29.3h-2.6v6.5c0 .7.2 1.2.5 1.5s.9.4 1.6.4h.6c.2 0 .2 0 .2.2v.9c0 .1 0 .2-.2.2s-.5 0-.9 0c-1.1 0-2-.2-2.5-.6-.6-.4-.9-1.1-.9-2.2v-7h-1.4c-.2 0-.2 0-.2-.2v-.9c0-.1 0-.2.2-.2h1.4v-2.6c0-.1 0-.2.2-.2h1.1c.2 0 .2 0 .2.2v2.6h2.6c.2 0 .2 0 .2.2v.9c0 .1 0 .2-.2.2z"/><path d="m209.2 25.7c-.2-.2-.4-.5-.4-.9s.1-.7.4-.9c.2-.2.6-.3.9-.3s.7.1.9.3.4.5.4.9-.1.6-.4.9c-.2.2-.6.4-.9.4s-.7-.1-.9-.4zm.1 13.2v-10.7c0-.1 0-.2.2-.2h1.2c.2 0 .2 0 .2.2v10.7c0 .1 0 .2-.2.2h-1.2c-.2 0-.2 0-.2-.2z"/><path d="m217.7 39-3.8-10.7c0-.2 0-.2.2-.2h1.3c.1 0 .2 0 .3.2l2.9 8.6s0 0 0 0l2.9-8.6c0-.1.1-.2.3-.2h1.3c.2 0 .2.1.2.3l-3.8 10.7c0 .1-.1.2-.3.2h-1.4c-.1 0-.2 0-.3-.2z"/><path d="m227.3 38.5c-.8-.5-1.4-1.3-1.7-2.2-.2-.7-.3-1.6-.3-2.7s.1-2 .3-2.7c.3-.9.8-1.7 1.7-2.2.8-.5 1.8-.8 2.9-.8s2.1.3 2.9.8 1.4 1.3 1.6 2.2c.2.6.3 1.5.3 2.7s-.1 2.1-.3 2.7c-.3 1-.8 1.7-1.6 2.2s-1.8.8-2.9.8-2.1-.3-2.9-.8zm4.8-1.1c.5-.4.9-.9 1.1-1.6.1-.5.2-1.3.2-2.2s0-1.7-.2-2.2c-.2-.7-.5-1.2-1.1-1.6s-1.2-.6-2-.6-1.4.2-1.9.6-.9.9-1.1 1.6c-.1.5-.2 1.3-.2 2.2s0 1.7.2 2.2c.2.7.5 1.2 1.1 1.6.5.4 1.2.6 2 .6s1.4-.2 1.9-.6z"/><path d="m240 38.9c-.7-.3-1.2-.6-1.6-1.1-.4-.4-.5-.9-.5-1.5v-.3c0-.1 0-.2.2-.2h1.1c.2 0 .2 0 .2.2v.2c0 .5.3.9.8 1.3s1.2.5 2 .5 1.5-.2 2-.5.7-.8.7-1.3-.1-.7-.4-.9-.6-.4-.9-.5-.9-.3-1.6-.5c-.9-.2-1.6-.5-2.1-.7s-1-.6-1.4-1-.6-.9-.6-1.6c0-.9.4-1.7 1.2-2.2.8-.6 1.8-.8 3.1-.8s1.6.1 2.3.4 1.2.6 1.5 1.1c.4.5.5 1 .5 1.6 0 .2 0 .3-.2.3h-1.1c-.2 0-.2 0-.2-.2 0-.6-.3-1-.8-1.3s-1.2-.5-2-.5-1.4.2-1.9.5-.7.7-.7 1.2.2.9.7 1.1 1.2.5 2.2.8c.9.2 1.6.5 2.2.7s1 .5 1.4 1c.4.4.6 1 .6 1.6s-.4 1.7-1.2 2.3-1.8.9-3.2.9-1.6-.1-2.3-.4z"/><path d="m253.6 43.4v-.9c0-.1 0-.2.2-.2.6 0 1.1 0 1.4-.3.3-.2.6-.4.9-.9.2-.4.5-1.1.8-1.9v-.1l-3.9-10.8c0-.2 0-.2.2-.2h1.2c.1 0 .2 0 .3.2l3 8.9s0 0 0 0l3-8.9c0-.1.1-.2.3-.2h1.2c.2 0 .2 0 .2.2l-4.3 11.9c-.4 1-.7 1.7-1.1 2.2-.3.5-.7.8-1.2 1s-1.2.3-2.1.3h-.2c-.1 0-.2 0-.2-.2z"/><path d="m271.3 38.9c-.7-.3-1.2-.6-1.6-1.1-.4-.4-.5-.9-.5-1.5v-.3c0-.1 0-.2.2-.2h1.1c.2 0 .2 0 .2.2v.2c0 .5.3.9.8 1.3s1.2.5 2 .5 1.5-.2 2-.5.7-.8.7-1.3-.1-.7-.4-.9-.6-.4-.9-.5-.9-.3-1.6-.5c-.9-.2-1.6-.5-2.1-.7s-1-.6-1.4-1-.6-.9-.6-1.6c0-.9.4-1.7 1.2-2.2.8-.6 1.8-.8 3.1-.8s1.6.1 2.3.4 1.2.6 1.5 1.1c.4.5.5 1 .5 1.6 0 .2 0 .3-.2.3h-1.1c-.2 0-.2 0-.2-.2 0-.6-.3-1-.8-1.3s-1.2-.5-2-.5-1.4.2-1.9.5-.7.7-.7 1.2.2.9.7 1.1 1.2.5 2.2.8c.9.2 1.6.5 2.2.7s1 .5 1.4 1c.4.4.6 1 .6 1.6s-.4 1.7-1.2 2.3-1.8.9-3.2.9-1.6-.1-2.3-.4z"/><path d="m290.2 33.3v.7c0 .1 0 .2-.2.2h-7.5c0 .8 0 1.3.1 1.6.2.7.5 1.2 1.1 1.6s1.3.6 2.1.6 1.2-.1 1.7-.4.9-.7 1.2-1.2c0-.1.2-.2.3 0l.9.5c.1 0 .2.2 0 .3-.4.7-1 1.3-1.8 1.7s-1.7.6-2.7.6c-1.1 0-2-.3-2.8-.7-.7-.5-1.3-1.2-1.6-2-.3-.7-.4-1.7-.4-3s0-1.1 0-1.5 0-.7.2-1c.3-1 .8-1.7 1.6-2.3s1.8-.9 2.9-.9 2.5.3 3.3 1 1.2 1.6 1.4 2.9v1.5zm-6.7-3.5c-.5.4-.8.9-1 1.5 0 .3-.2.8-.2 1.5h6.1c0-.7 0-1.1-.1-1.4-.2-.7-.5-1.2-1-1.6s-1.2-.6-2-.6-1.4.2-1.9.6z"/><path d="m299.6 28.2c.1 0 .2.2.1.3l-.3 1.1c0 .1-.1.2-.3.1-.3-.1-.6-.2-.9-.2h-.3c-.8 0-1.5.3-2 .9-.5.5-.8 1.2-.8 2v6.5c0 .1 0 .2-.2.2h-1.2c-.2 0-.2 0-.2-.2v-10.7c0-.1 0-.2.2-.2h1.2c.2 0 .2 0 .2.2v1.3s0 0 0 0c.3-.5.7-1 1.2-1.3s1.1-.5 1.8-.5 1 0 1.3.3z"/><path d="m305.4 39-3.8-10.7c0-.2 0-.2.2-.2h1.3c.1 0 .2 0 .3.2l2.9 8.6s0 0 0 0l2.9-8.6c0-.1.1-.2.3-.2h1.3c.2 0 .2.1.2.3l-3.8 10.7c0 .1-.1.2-.3.2h-1.4c-.1 0-.2 0-.3-.2z"/><path d="m313.9 25.7c-.2-.2-.4-.5-.4-.9s.1-.7.4-.9c.2-.2.6-.3.9-.3s.7.1.9.3.4.5.4.9-.1.6-.4.9c-.2.2-.6.4-.9.4s-.7-.1-.9-.4zm.1 13.2v-10.7c0-.1 0-.2.2-.2h1.2c.2 0 .2 0 .2.2v10.7c0 .1 0 .2-.2.2h-1.2c-.2 0-.2 0-.2-.2z"/><path d="m321.3 38.5c-.8-.5-1.4-1.3-1.6-2.2-.2-.6-.3-1.6-.3-2.7s.1-2 .3-2.7c.3-.9.8-1.6 1.6-2.2s1.8-.8 2.9-.8 2.1.3 3 .8c.8.5 1.4 1.2 1.6 2 0 .3.1.5.1.7 0 .1 0 .2-.2.2l-1.2.2c-.1 0-.2 0-.2-.2v-.3c-.2-.6-.6-1-1.1-1.4s-1.2-.6-2-.6-1.4.2-2 .6-.9.9-1 1.6c-.1.6-.2 1.3-.2 2.2s0 1.7.2 2.2c.2.7.5 1.2 1 1.6s1.2.6 2 .6 1.4-.2 2-.6.9-.9 1-1.4v-.2c0-.1.1-.2.3-.2l1.1.2c.2 0 .2.1.2.2v.4c-.3.9-.9 1.5-1.7 2.1-.8.5-1.8.8-3 .8s-2.1-.3-2.9-.8z"/><path d="m332 25.7c-.2-.2-.4-.5-.4-.9s.1-.7.4-.9.6-.3.9-.3.7.1.9.3.4.5.4.9-.1.6-.4.9c-.2.2-.6.4-.9.4s-.7-.1-.9-.4zm.1 13.2v-10.7c0-.1 0-.2.2-.2h1.2c.2 0 .2 0 .2.2v10.7c0 .1 0 .2-.2.2h-1.2c-.2 0-.2 0-.2-.2z"/><path d="m339.4 38.5c-.8-.5-1.4-1.3-1.7-2.2-.2-.7-.3-1.6-.3-2.7s.1-2 .3-2.7c.3-.9.8-1.7 1.7-2.2.8-.5 1.8-.8 2.9-.8s2.1.3 2.9.8 1.4 1.3 1.6 2.2c.2.6.3 1.5.3 2.7s-.1 2.1-.3 2.7c-.3 1-.8 1.7-1.6 2.2s-1.8.8-2.9.8-2.1-.3-2.9-.8zm4.8-1.1c.5-.4.9-.9 1.1-1.6.1-.5.2-1.3.2-2.2s0-1.7-.2-2.2c-.2-.7-.5-1.2-1.1-1.6-.5-.4-1.2-.6-2-.6s-1.4.2-1.9.6-.9.9-1.1 1.6c-.1.5-.2 1.3-.2 2.2s0 1.7.2 2.2c.2.7.5 1.2 1.1 1.6.5.4 1.2.6 2 .6s1.4-.2 1.9-.6z"/><path d="m352.1 38.9c-.7-.3-1.2-.6-1.6-1.1-.4-.4-.5-.9-.5-1.5v-.3c0-.1 0-.2.2-.2h1.1c.2 0 .2 0 .2.2v.2c0 .5.3.9.8 1.3s1.2.5 2 .5 1.5-.2 2-.5.7-.8.7-1.3-.1-.7-.4-.9-.6-.4-.9-.5-.9-.3-1.6-.5c-.9-.2-1.6-.5-2.2-.7s-1-.6-1.4-1-.6-.9-.6-1.6c0-.9.4-1.7 1.2-2.2.8-.6 1.8-.8 3.1-.8s1.6.1 2.3.4 1.2.6 1.5 1.1c.4.5.5 1 .5 1.6 0 .2 0 .3-.2.3h-1.1c-.2 0-.2 0-.2-.2 0-.6-.3-1-.8-1.3s-1.2-.5-2-.5-1.4.2-1.9.5-.7.7-.7 1.2.2.9.7 1.1c.5.3 1.2.5 2.2.8.9.2 1.6.5 2.2.7s1 .5 1.4 1 .6 1 .6 1.6-.4 1.7-1.2 2.3-1.8.9-3.2.9-1.6-.1-2.3-.4z"/><path d="m374 23.8h1.2c.2 0 .2 0 .2.2v15c0 .1 0 .2-.2.2h-1.2c-.2 0-.2 0-.2-.2v-.9s0 0 0 0c-.3.4-.8.8-1.3 1s-1.1.4-1.7.4c-1.1 0-2-.3-2.7-.8s-1.2-1.2-1.5-2.2c-.2-.7-.3-1.6-.3-2.8s0-2.1.3-2.7c.3-.9.8-1.7 1.5-2.2s1.7-.8 2.8-.8 1.2.1 1.7.3.9.6 1.3 1v-5.2c0-.1 0-.2.2-.2zm-.3 11.5c0-.4 0-.9 0-1.6s0-1.3 0-1.7-.2-.8-.3-1.1c-.2-.5-.5-.9-.9-1.2s-.9-.5-1.5-.5-1.2.1-1.6.4-.8.7-1 1.2c-.2.3-.3.7-.4 1.1 0 .4-.1 1-.1 1.7s0 1.2 0 1.6.2.7.3 1c.2.5.5.9 1 1.3.5.3 1 .5 1.7.5s1.1-.2 1.6-.5c.4-.3.7-.7.9-1.2.1-.3.2-.6.3-1z"/><path d="m388.4 33.3v.7c0 .1 0 .2-.2.2h-7.5c0 .8 0 1.3.1 1.6.2.7.5 1.2 1.1 1.6s1.3.6 2.2.6 1.2-.1 1.7-.4.9-.7 1.2-1.2c0-.1.2-.2.3 0l.9.5c.1 0 .2.2 0 .3-.4.7-1 1.3-1.8 1.7s-1.7.6-2.7.6c-1.1 0-2-.3-2.8-.7-.7-.5-1.3-1.2-1.6-2-.3-.7-.4-1.7-.4-3s0-1.1 0-1.5 0-.7.2-1c.3-1 .8-1.7 1.6-2.3s1.8-.9 2.9-.9 2.5.3 3.3 1 1.2 1.6 1.4 2.9v1.5zm-6.7-3.5c-.5.4-.8.9-1 1.5 0 .3-.2.8-.2 1.5h6.1c0-.7 0-1.1-.1-1.4-.2-.7-.5-1.2-1-1.6s-1.2-.6-2-.6-1.4.2-1.9.6z"/><path d="m396.4 39v-15c0-.1 0-.2.2-.2h1.2c.2 0 .2 0 .2.2v15c0 .1 0 .2-.2.2h-1.2c-.2 0-.2 0-.2-.2z"/><path d="m409.1 28.9c.8.7 1.1 1.6 1.1 2.7v7.4c0 .1 0 .2-.2.2h-1.2c-.2 0-.2 0-.2-.2v-.9s0 0 0 0c-.4.4-.9.8-1.5 1s-1.3.3-2.1.3c-1.1 0-2-.3-2.8-.8-.7-.5-1.1-1.3-1.1-2.4s.4-2 1.3-2.6c.8-.6 2-1 3.5-1h2.7v-.8c0-.7-.2-1.3-.7-1.8-.4-.4-1.1-.6-2.1-.6s-1.4.1-1.8.4c-.5.3-.8.6-.9 1.1 0 .1-.1.2-.3.2l-1.3-.2c-.2 0-.2 0-.2-.2.1-.8.6-1.5 1.4-2s1.8-.8 3-.8 2.5.3 3.2 1zm-1.6 8.5c.7-.4 1-1 1-1.7v-1.7h-2.5c-1 0-1.9.2-2.5.6s-.9.9-.9 1.6.2 1.1.7 1.5c.5.3 1.1.5 1.9.5s1.7-.2 2.4-.6z"/><path d="m417.3 39v-1.1c0-.1 0-.2 0-.3l6.6-8.1s0 0 0 0h-6.4c-.2 0-.2 0-.2-.2v-1c0-.1 0-.2.2-.2h8.2c.2 0 .2 0 .2.2v1.1.3l-6.7 8.1s0 0 0 0h6.5c.2 0 .2 0 .2.2v1c0 .1 0 .2-.2.2h-8.3c-.2 0-.2 0-.2-.2z"/><path d="m430.4 38.5c-.8-.5-1.4-1.3-1.7-2.2-.2-.7-.3-1.6-.3-2.7s.1-2 .3-2.7c.3-.9.8-1.7 1.7-2.2.8-.5 1.8-.8 2.9-.8s2.1.3 2.9.8 1.4 1.3 1.6 2.2c.2.6.3 1.5.3 2.7s-.1 2.1-.3 2.7c-.3 1-.8 1.7-1.6 2.2s-1.8.8-2.9.8-2.1-.3-2.9-.8zm4.8-1.1c.5-.4.9-.9 1.1-1.6.1-.5.2-1.3.2-2.2s0-1.7-.2-2.2c-.2-.7-.5-1.2-1.1-1.6-.5-.4-1.2-.6-2-.6s-1.4.2-1.9.6-.9.9-1.1 1.6c-.1.5-.2 1.3-.2 2.2s0 1.7.2 2.2c.2.7.5 1.2 1.1 1.6.5.4 1.2.6 2 .6s1.4-.2 1.9-.6z"/><path d="m449.4 28.9c.7.7 1.1 1.6 1.1 2.8v7.3c0 .1 0 .2-.2.2h-1.2c-.2 0-.2 0-.2-.2v-7c0-.8-.3-1.5-.8-2s-1.2-.8-2-.8-1.6.2-2.1.7-.8 1.2-.8 2v7c0 .1 0 .2-.2.2h-1.2c-.2 0-.2 0-.2-.2v-10.7c0-.1 0-.2.2-.2h1.2c.2 0 .2 0 .2.2v.9s0 0 0 0c.7-.9 1.7-1.4 3.2-1.4s2.2.3 3 1z"/><path d="m461.4 28.9c.8.7 1.1 1.6 1.1 2.7v7.4c0 .1 0 .2-.2.2h-1.2c-.2 0-.2 0-.2-.2v-.9s0 0 0 0c-.4.4-.9.8-1.5 1s-1.3.3-2.1.3c-1.1 0-2-.3-2.8-.8-.7-.5-1.1-1.3-1.1-2.4s.4-2 1.3-2.6c.8-.6 2-1 3.5-1h2.7v-.8c0-.7-.2-1.3-.7-1.8-.4-.4-1.1-.6-2.1-.6s-1.4.1-1.8.4c-.5.3-.8.6-.9 1.1 0 .1-.1.2-.3.2l-1.3-.2c-.2 0-.2 0-.2-.2.1-.8.6-1.5 1.4-2s1.8-.8 3-.8 2.5.3 3.2 1zm-1.5 8.5c.7-.4 1-1 1-1.7v-1.7h-2.5c-1 0-1.9.2-2.5.6s-.9.9-.9 1.6.2 1.1.7 1.5c.5.3 1.1.5 1.9.5s1.7-.2 2.4-.6z"/></g></svg>