<?xml version="1.0" encoding="UTF-8"?>
<svg xmlns="http://www.w3.org/2000/svg" version="1.1" viewBox="0 0 600 66">
  <defs>
    <style>
      .cls-1 {
        font-family: Barlow-Regular, Barlow;
        font-size: 22px;
      }

      .cls-1, .cls-2 {
        fill: #fff;
      }

      .cls-3 {
        fill: none;
      }

      .cls-3, .cls-4 {
        stroke: #591a44;
        stroke-miterlimit: 10;
      }

      .cls-2 {
        stroke-width: 0px;
      }

      .cls-4 {
        fill: #591a44;
      }

      .cls-5 {
        display: none;
      }
    </style>
  </defs>
  <g id="Capa_1" data-name="Capa 1" class="cls-5">
    <g>
      <rect class="cls-4" x="4.4" y="2.6" width="501.4" height="60.8"/>
      <path class="cls-3" d="M481.6,63.4h88l24.8-28.2c1.4-1.6,1.4-4.2,0-5.8l-23.4-26.7h-89.3v60.8Z"/>
      <g>
        <path class="cls-2" d="M21.6,38.8c-.8-.4-1.5-1-1.9-1.7-.5-.7-.7-1.6-.7-2.6v-6.1c0-1,.2-1.8.7-2.5.5-.7,1.1-1.3,1.9-1.7.8-.4,1.8-.6,2.9-.6s2,.2,2.9.6,1.5,1,1.9,1.7c.5.7.7,1.5.7,2.5s0,.1,0,.2c0,0-.1,0-.2,0h-1.2c-.2,0-.2,0-.2-.1h0c0-1.1-.4-1.9-1.1-2.6s-1.6-.9-2.8-.9-2.1.3-2.8.9c-.7.6-1.1,1.5-1.1,2.5v6.2c0,1,.4,1.9,1.1,2.5s1.6.9,2.8.9,2.1-.3,2.8-.9c.7-.6,1.1-1.5,1.1-2.5h0c0-.2,0-.2.2-.2h1.2c.2,0,.2.1.2.3,0,1-.2,1.8-.7,2.5-.5.7-1.1,1.3-1.9,1.7-.8.4-1.8.6-2.9.6s-2-.2-2.9-.6Z"/>
        <path class="cls-2" d="M34.9,38.5c-.8-.5-1.4-1.3-1.7-2.2-.2-.7-.3-1.6-.3-2.7s.1-2,.3-2.7c.3-.9.8-1.7,1.7-2.2.8-.5,1.8-.8,2.9-.8s2.1.3,2.9.8c.8.5,1.4,1.3,1.6,2.2.2.6.3,1.5.3,2.7s-.1,2.1-.3,2.7c-.3,1-.8,1.7-1.6,2.2-.8.5-1.8.8-2.9.8s-2.1-.3-2.9-.8ZM39.8,37.4c.5-.4.9-.9,1.1-1.6.1-.5.2-1.3.2-2.2s0-1.7-.2-2.2c-.2-.7-.5-1.2-1.1-1.6s-1.2-.6-2-.6-1.4.2-1.9.6c-.5.4-.9.9-1.1,1.6-.1.5-.2,1.3-.2,2.2s0,1.7.2,2.2c.2.7.5,1.2,1.1,1.6.5.4,1.2.6,2,.6s1.4-.2,1.9-.6Z"/>
        <path class="cls-2" d="M54,28.9c.7.7,1.1,1.6,1.1,2.8v7.3c0,.1,0,.2-.2.2h-1.2c-.2,0-.2,0-.2-.2v-7c0-.8-.3-1.5-.8-2s-1.2-.8-2-.8-1.6.2-2.1.7-.8,1.2-.8,2v7c0,.1,0,.2-.2.2h-1.2c-.2,0-.2,0-.2-.2v-10.7c0-.1,0-.2.2-.2h1.2c.2,0,.2,0,.2.2v.9s0,0,0,0,0,0,0,0c.7-.9,1.7-1.4,3.2-1.4s2.2.3,3,1Z"/>
        <path class="cls-2" d="M60.1,38.5c-.8-.5-1.4-1.3-1.7-2.2-.2-.7-.3-1.6-.3-2.7s.1-2,.3-2.7c.3-.9.8-1.7,1.7-2.2.8-.5,1.8-.8,2.9-.8s2.1.3,2.9.8c.8.5,1.4,1.3,1.6,2.2.2.6.3,1.5.3,2.7s-.1,2.1-.3,2.7c-.3,1-.8,1.7-1.6,2.2-.8.5-1.8.8-2.9.8s-2.1-.3-2.9-.8ZM64.9,37.4c.5-.4.9-.9,1.1-1.6.1-.5.2-1.3.2-2.2s0-1.7-.2-2.2c-.2-.7-.5-1.2-1.1-1.6s-1.2-.6-2-.6-1.4.2-1.9.6c-.5.4-.9.9-1.1,1.6-.1.5-.2,1.3-.2,2.2s0,1.7.2,2.2c.2.7.5,1.2,1.1,1.6.5.4,1.2.6,2,.6s1.4-.2,1.9-.6Z"/>
        <path class="cls-2" d="M72.8,38.5c-.8-.5-1.4-1.3-1.6-2.2-.2-.6-.3-1.6-.3-2.7s.1-2,.3-2.7c.3-.9.8-1.6,1.6-2.2.8-.6,1.8-.8,2.9-.8s2.1.3,3,.8c.8.5,1.4,1.2,1.6,2,0,.3.1.5.1.7h0c0,.1,0,.2-.2.2l-1.2.2h0c-.1,0-.2,0-.2-.2v-.3c-.2-.6-.6-1-1.1-1.4-.5-.4-1.2-.6-2-.6s-1.4.2-2,.6-.9.9-1,1.6c-.1.6-.2,1.3-.2,2.2s0,1.7.2,2.2c.2.7.5,1.2,1,1.6.5.4,1.2.6,2,.6s1.4-.2,2-.6c.6-.4.9-.9,1-1.4h0c0,0,0-.2,0-.2,0-.1.1-.2.3-.2l1.1.2c.2,0,.2.1.2.2v.4c-.3.9-.9,1.5-1.7,2.1-.8.5-1.8.8-3,.8s-2.1-.3-2.9-.8Z"/>
        <path class="cls-2" d="M92.5,33.3v.7c0,.1,0,.2-.2.2h-7.5c0,0,0,0,0,0,0,.8,0,1.3.1,1.6.2.7.5,1.2,1.1,1.6.6.4,1.3.6,2.1.6s1.2-.1,1.7-.4c.5-.3.9-.7,1.2-1.2,0-.1.2-.2.3,0l.9.5c.1,0,.2.2,0,.3-.4.7-1,1.3-1.8,1.7-.8.4-1.7.6-2.7.6-1.1,0-2-.3-2.8-.7-.7-.5-1.3-1.2-1.6-2-.3-.7-.4-1.7-.4-3s0-1.1,0-1.5c0-.4,0-.7.2-1,.3-1,.8-1.7,1.6-2.3.8-.6,1.8-.9,2.9-.9s2.5.3,3.3,1c.8.7,1.2,1.6,1.4,2.9,0,.4,0,.9,0,1.5ZM85.8,29.8c-.5.4-.8.9-1,1.5,0,.3-.2.8-.2,1.5,0,0,0,0,0,0h6.1c0,0,0,0,0,0,0-.7,0-1.1-.1-1.4-.2-.7-.5-1.2-1-1.6s-1.2-.6-2-.6-1.4.2-1.9.6Z"/>
        <path class="cls-2" d="M115.2,28.9c.7.7,1,1.6,1,2.7v7.4c0,.1,0,.2-.2.2h-1.2c-.2,0-.2,0-.2-.2v-7.1c0-.8-.2-1.4-.7-1.9-.5-.5-1.1-.7-1.9-.7s-1.5.2-2,.7c-.5.5-.8,1.1-.8,1.9v7.1c0,.1,0,.2-.2.2h-1.2c-.2,0-.2,0-.2-.2v-7.1c0-.8-.2-1.4-.7-1.9-.5-.5-1.1-.7-1.9-.7s-1.5.2-2,.7-.7,1.1-.7,1.9v7.1c0,.1,0,.2-.2.2h-1.2c-.2,0-.2,0-.2-.2v-10.7c0-.1,0-.2.2-.2h1.2c.2,0,.2,0,.2.2v.9s0,0,0,0c0,0,0,0,0,0,.3-.4.8-.7,1.3-1,.5-.2,1.1-.3,1.8-.3s1.5.2,2.1.5c.6.3,1,.8,1.3,1.3,0,0,0,0,.1,0,.3-.6.8-1.1,1.4-1.4.6-.3,1.3-.5,2.1-.5,1.2,0,2.1.3,2.8,1Z"/>
        <path class="cls-2" d="M127.1,28.9c.8.7,1.1,1.6,1.1,2.7v7.4c0,.1,0,.2-.2.2h-1.2c-.2,0-.2,0-.2-.2v-.9s0,0,0,0c0,0,0,0,0,0-.4.4-.9.8-1.5,1s-1.3.3-2.1.3c-1.1,0-2-.3-2.8-.8-.7-.5-1.1-1.3-1.1-2.4s.4-2,1.3-2.6c.8-.6,2-1,3.5-1h2.7c0,0,0,0,0,0v-.8c0-.7-.2-1.3-.7-1.8-.4-.4-1.1-.6-2.1-.6s-1.4.1-1.8.4c-.5.3-.8.6-.9,1.1,0,.1-.1.2-.3.2l-1.3-.2c-.2,0-.2,0-.2-.2.1-.8.6-1.5,1.4-2,.8-.5,1.8-.8,3-.8s2.5.3,3.2,1ZM125.6,37.4c.7-.4,1-1,1-1.7v-1.7c0,0,0,0,0,0h-2.5c-1,0-1.9.2-2.5.6-.6.4-.9.9-.9,1.6s.2,1.1.7,1.5c.5.3,1.1.5,1.9.5s1.7-.2,2.4-.6ZM122.9,26.5c0,0,0-.1,0-.2l1.4-2.4c0-.1.1-.2.3-.2h1.1c0,0,.2,0,.2,0,0,0,0,.1,0,.2l-1.6,2.4c0,.1-.2.2-.3.2h-.8c0,0-.2,0-.2,0Z"/>
        <path class="cls-2" d="M133.2,38.9c-.7-.3-1.2-.6-1.6-1.1-.4-.4-.5-.9-.5-1.5v-.3c0-.1,0-.2.2-.2h1.1c.2,0,.2,0,.2.2v.2c0,.5.3.9.8,1.3s1.2.5,2,.5,1.5-.2,2-.5.7-.8.7-1.3-.1-.7-.4-.9c-.3-.2-.6-.4-.9-.5s-.9-.3-1.6-.5c-.9-.2-1.6-.5-2.1-.7s-1-.6-1.4-1-.6-.9-.6-1.6c0-.9.4-1.7,1.2-2.2.8-.6,1.8-.8,3.1-.8s1.6.1,2.3.4c.7.3,1.2.6,1.5,1.1.4.5.5,1,.5,1.6h0c0,.2,0,.3-.2.3h-1.1c-.2,0-.2,0-.2-.2h0c0-.6-.3-1-.8-1.3-.5-.3-1.2-.5-2-.5s-1.4.2-1.9.5c-.5.3-.7.7-.7,1.2s.2.9.7,1.1,1.2.5,2.2.8c.9.2,1.6.5,2.2.7.6.2,1,.5,1.4,1,.4.4.6,1,.6,1.6s-.4,1.7-1.2,2.3-1.8.9-3.2.9-1.6-.1-2.3-.4Z"/>
        <path class="cls-2" d="M154.9,28.9c.8.7,1.1,1.6,1.1,2.7v7.4c0,.1,0,.2-.2.2h-1.2c-.2,0-.2,0-.2-.2v-.9s0,0,0,0c0,0,0,0,0,0-.4.4-.9.8-1.5,1s-1.3.3-2.1.3c-1.1,0-2-.3-2.8-.8-.7-.5-1.1-1.3-1.1-2.4s.4-2,1.3-2.6c.8-.6,2-1,3.5-1h2.7c0,0,0,0,0,0v-.8c0-.7-.2-1.3-.7-1.8-.4-.4-1.1-.6-2.1-.6s-1.4.1-1.8.4c-.5.3-.8.6-.9,1.1,0,.1-.1.2-.3.2l-1.3-.2c-.2,0-.2,0-.2-.2.1-.8.6-1.5,1.4-2,.8-.5,1.8-.8,3-.8s2.5.3,3.2,1ZM153.4,37.4c.7-.4,1-1,1-1.7v-1.7c0,0,0,0,0,0h-2.5c-1,0-1.9.2-2.5.6-.6.4-.9.9-.9,1.6s.2,1.1.7,1.5c.5.3,1.1.5,1.9.5s1.7-.2,2.4-.6Z"/>
        <path class="cls-2" d="M164.5,29.3h-2.6c0,0,0,0,0,0v6.5c0,.7.2,1.2.5,1.5.3.3.9.4,1.6.4h.6c.2,0,.2,0,.2.2v.9c0,.1,0,.2-.2.2-.2,0-.5,0-.9,0-1.1,0-2-.2-2.5-.6-.6-.4-.9-1.1-.9-2.2v-7c0,0,0,0,0,0h-1.4c-.2,0-.2,0-.2-.2v-.9c0-.1,0-.2.2-.2h1.4c0,0,0,0,0,0v-2.6c0-.1,0-.2.2-.2h1.1c.2,0,.2,0,.2.2v2.6c0,0,0,0,0,0h2.6c.2,0,.2,0,.2.2v.9c0,.1,0,.2-.2.2Z"/>
        <path class="cls-2" d="M174.1,28.2c.1,0,.2.2.1.3l-.3,1.1c0,.1-.1.2-.3.1-.3-.1-.6-.2-.9-.2h-.3c-.8,0-1.5.3-2,.9-.5.5-.8,1.2-.8,2v6.5c0,.1,0,.2-.2.2h-1.2c-.2,0-.2,0-.2-.2v-10.7c0-.1,0-.2.2-.2h1.2c.2,0,.2,0,.2.2v1.3s0,0,0,0c0,0,0,0,0,0,.3-.5.7-1,1.2-1.3.5-.3,1.1-.5,1.8-.5s1,0,1.3.3Z"/>
        <path class="cls-2" d="M183.8,28.9c.8.7,1.1,1.6,1.1,2.7v7.4c0,.1,0,.2-.2.2h-1.2c-.2,0-.2,0-.2-.2v-.9s0,0,0,0c0,0,0,0,0,0-.4.4-.9.8-1.5,1s-1.3.3-2.1.3c-1.1,0-2-.3-2.8-.8-.7-.5-1.1-1.3-1.1-2.4s.4-2,1.3-2.6c.8-.6,2-1,3.5-1h2.7c0,0,0,0,0,0v-.8c0-.7-.2-1.3-.7-1.8-.4-.4-1.1-.6-2.1-.6s-1.4.1-1.8.4c-.5.3-.8.6-.9,1.1,0,.1-.1.2-.3.2l-1.3-.2c-.2,0-.2,0-.2-.2.1-.8.6-1.5,1.4-2,.8-.5,1.8-.8,3-.8s2.5.3,3.2,1ZM182.2,37.4c.7-.4,1-1,1-1.7v-1.7c0,0,0,0,0,0h-2.5c-1,0-1.9.2-2.5.6-.6.4-.9.9-.9,1.6s.2,1.1.7,1.5c.5.3,1.1.5,1.9.5s1.7-.2,2.4-.6Z"/>
        <path class="cls-2" d="M189.9,38.5c-.8-.5-1.4-1.3-1.6-2.2-.2-.6-.3-1.6-.3-2.7s.1-2,.3-2.7c.3-.9.8-1.6,1.6-2.2.8-.6,1.8-.8,2.9-.8s2.1.3,3,.8c.8.5,1.4,1.2,1.6,2,0,.3.1.5.1.7h0c0,.1,0,.2-.2.2l-1.2.2h0c-.1,0-.2,0-.2-.2v-.3c-.2-.6-.6-1-1.1-1.4-.5-.4-1.2-.6-2-.6s-1.4.2-2,.6-.9.9-1,1.6c-.1.6-.2,1.3-.2,2.2s0,1.7.2,2.2c.2.7.5,1.2,1,1.6.5.4,1.2.6,2,.6s1.4-.2,2-.6c.6-.4.9-.9,1-1.4h0c0,0,0-.2,0-.2,0-.1.1-.2.3-.2l1.1.2c.2,0,.2.1.2.2v.4c-.3.9-.9,1.5-1.7,2.1-.8.5-1.8.8-3,.8s-2.1-.3-2.9-.8Z"/>
        <path class="cls-2" d="M205.6,29.3h-2.6c0,0,0,0,0,0v6.5c0,.7.2,1.2.5,1.5.3.3.9.4,1.6.4h.6c.2,0,.2,0,.2.2v.9c0,.1,0,.2-.2.2-.2,0-.5,0-.9,0-1.1,0-2-.2-2.5-.6-.6-.4-.9-1.1-.9-2.2v-7c0,0,0,0,0,0h-1.4c-.2,0-.2,0-.2-.2v-.9c0-.1,0-.2.2-.2h1.4c0,0,0,0,0,0v-2.6c0-.1,0-.2.2-.2h1.1c.2,0,.2,0,.2.2v2.6c0,0,0,0,0,0h2.6c.2,0,.2,0,.2.2v.9c0,.1,0,.2-.2.2Z"/>
        <path class="cls-2" d="M209.2,25.7c-.2-.2-.4-.5-.4-.9s.1-.7.4-.9c.2-.2.6-.3.9-.3s.7.1.9.3c.2.2.4.5.4.9s-.1.6-.4.9c-.2.2-.6.4-.9.4s-.7-.1-.9-.4ZM209.3,38.9v-10.7c0-.1,0-.2.2-.2h1.2c.2,0,.2,0,.2.2v10.7c0,.1,0,.2-.2.2h-1.2c-.2,0-.2,0-.2-.2Z"/>
        <path class="cls-2" d="M217.7,39l-3.8-10.7h0c0-.2,0-.2.2-.2h1.3c.1,0,.2,0,.3.2l2.9,8.6s0,0,0,0,0,0,0,0l2.9-8.6c0-.1.1-.2.3-.2h1.3c.2,0,.2.1.2.3l-3.8,10.7c0,.1-.1.2-.3.2h-1.4c-.1,0-.2,0-.3-.2Z"/>
        <path class="cls-2" d="M227.3,38.5c-.8-.5-1.4-1.3-1.7-2.2-.2-.7-.3-1.6-.3-2.7s.1-2,.3-2.7c.3-.9.8-1.7,1.7-2.2.8-.5,1.8-.8,2.9-.8s2.1.3,2.9.8c.8.5,1.4,1.3,1.6,2.2.2.6.3,1.5.3,2.7s-.1,2.1-.3,2.7c-.3,1-.8,1.7-1.6,2.2-.8.5-1.8.8-2.9.8s-2.1-.3-2.9-.8ZM232.1,37.4c.5-.4.9-.9,1.1-1.6.1-.5.2-1.3.2-2.2s0-1.7-.2-2.2c-.2-.7-.5-1.2-1.1-1.6s-1.2-.6-2-.6-1.4.2-1.9.6c-.5.4-.9.9-1.1,1.6-.1.5-.2,1.3-.2,2.2s0,1.7.2,2.2c.2.7.5,1.2,1.1,1.6.5.4,1.2.6,2,.6s1.4-.2,1.9-.6Z"/>
        <path class="cls-2" d="M240,38.9c-.7-.3-1.2-.6-1.6-1.1-.4-.4-.5-.9-.5-1.5v-.3c0-.1,0-.2.2-.2h1.1c.2,0,.2,0,.2.2v.2c0,.5.3.9.8,1.3s1.2.5,2,.5,1.5-.2,2-.5.7-.8.7-1.3-.1-.7-.4-.9c-.3-.2-.6-.4-.9-.5s-.9-.3-1.6-.5c-.9-.2-1.6-.5-2.1-.7s-1-.6-1.4-1-.6-.9-.6-1.6c0-.9.4-1.7,1.2-2.2.8-.6,1.8-.8,3.1-.8s1.6.1,2.3.4c.7.3,1.2.6,1.5,1.1.4.5.5,1,.5,1.6h0c0,.2,0,.3-.2.3h-1.1c-.2,0-.2,0-.2-.2h0c0-.6-.3-1-.8-1.3-.5-.3-1.2-.5-2-.5s-1.4.2-1.9.5c-.5.3-.7.7-.7,1.2s.2.9.7,1.1,1.2.5,2.2.8c.9.2,1.6.5,2.2.7.6.2,1,.5,1.4,1,.4.4.6,1,.6,1.6s-.4,1.7-1.2,2.3-1.8.9-3.2.9-1.6-.1-2.3-.4Z"/>
        <path class="cls-2" d="M253.6,43.4v-.9c0-.1,0-.2.2-.2h0c.6,0,1.1,0,1.4-.3.3-.2.6-.4.9-.9.2-.4.5-1.1.8-1.9,0,0,0-.1,0-.1l-3.9-10.8h0c0-.2,0-.2.2-.2h1.2c.1,0,.2,0,.3.2l3,8.9s0,0,0,0,0,0,0,0l3-8.9c0-.1.1-.2.3-.2h1.2c.2,0,.2,0,.2.2l-4.3,11.9c-.4,1-.7,1.7-1.1,2.2-.3.5-.7.8-1.2,1s-1.2.3-2.1.3h-.2c-.1,0-.2,0-.2-.2Z"/>
        <path class="cls-2" d="M271.3,38.9c-.7-.3-1.2-.6-1.6-1.1-.4-.4-.5-.9-.5-1.5v-.3c0-.1,0-.2.2-.2h1.1c.2,0,.2,0,.2.2v.2c0,.5.3.9.8,1.3s1.2.5,2,.5,1.5-.2,2-.5.7-.8.7-1.3-.1-.7-.4-.9c-.3-.2-.6-.4-.9-.5s-.9-.3-1.6-.5c-.9-.2-1.6-.5-2.1-.7s-1-.6-1.4-1-.6-.9-.6-1.6c0-.9.4-1.7,1.2-2.2.8-.6,1.8-.8,3.1-.8s1.6.1,2.3.4c.7.3,1.2.6,1.5,1.1.4.5.5,1,.5,1.6h0c0,.2,0,.3-.2.3h-1.1c-.2,0-.2,0-.2-.2h0c0-.6-.3-1-.8-1.3-.5-.3-1.2-.5-2-.5s-1.4.2-1.9.5c-.5.3-.7.7-.7,1.2s.2.9.7,1.1,1.2.5,2.2.8c.9.2,1.6.5,2.2.7.6.2,1,.5,1.4,1,.4.4.6,1,.6,1.6s-.4,1.7-1.2,2.3-1.8.9-3.2.9-1.6-.1-2.3-.4Z"/>
        <path class="cls-2" d="M290.2,33.3v.7c0,.1,0,.2-.2.2h-7.5c0,0,0,0,0,0,0,.8,0,1.3.1,1.6.2.7.5,1.2,1.1,1.6.6.4,1.3.6,2.1.6s1.2-.1,1.7-.4c.5-.3.9-.7,1.2-1.2,0-.1.2-.2.3,0l.9.5c.1,0,.2.2,0,.3-.4.7-1,1.3-1.8,1.7-.8.4-1.7.6-2.7.6-1.1,0-2-.3-2.8-.7-.7-.5-1.3-1.2-1.6-2-.3-.7-.4-1.7-.4-3s0-1.1,0-1.5c0-.4,0-.7.2-1,.3-1,.8-1.7,1.6-2.3.8-.6,1.8-.9,2.9-.9s2.5.3,3.3,1c.8.7,1.2,1.6,1.4,2.9,0,.4,0,.9,0,1.5ZM283.5,29.8c-.5.4-.8.9-1,1.5,0,.3-.2.8-.2,1.5,0,0,0,0,0,0h6.1c0,0,0,0,0,0,0-.7,0-1.1-.1-1.4-.2-.7-.5-1.2-1-1.6s-1.2-.6-2-.6-1.4.2-1.9.6Z"/>
        <path class="cls-2" d="M299.6,28.2c.1,0,.2.2.1.3l-.3,1.1c0,.1-.1.2-.3.1-.3-.1-.6-.2-.9-.2h-.3c-.8,0-1.5.3-2,.9-.5.5-.8,1.2-.8,2v6.5c0,.1,0,.2-.2.2h-1.2c-.2,0-.2,0-.2-.2v-10.7c0-.1,0-.2.2-.2h1.2c.2,0,.2,0,.2.2v1.3s0,0,0,0c0,0,0,0,0,0,.3-.5.7-1,1.2-1.3.5-.3,1.1-.5,1.8-.5s1,0,1.3.3Z"/>
        <path class="cls-2" d="M305.4,39l-3.8-10.7h0c0-.2,0-.2.2-.2h1.3c.1,0,.2,0,.3.2l2.9,8.6s0,0,0,0,0,0,0,0l2.9-8.6c0-.1.1-.2.3-.2h1.3c.2,0,.2.1.2.3l-3.8,10.7c0,.1-.1.2-.3.2h-1.4c-.1,0-.2,0-.3-.2Z"/>
        <path class="cls-2" d="M313.9,25.7c-.2-.2-.4-.5-.4-.9s.1-.7.4-.9c.2-.2.6-.3.9-.3s.7.1.9.3.4.5.4.9-.1.6-.4.9c-.2.2-.6.4-.9.4s-.7-.1-.9-.4ZM314,38.9v-10.7c0-.1,0-.2.2-.2h1.2c.2,0,.2,0,.2.2v10.7c0,.1,0,.2-.2.2h-1.2c-.2,0-.2,0-.2-.2Z"/>
        <path class="cls-2" d="M321.3,38.5c-.8-.5-1.4-1.3-1.6-2.2-.2-.6-.3-1.6-.3-2.7s.1-2,.3-2.7c.3-.9.8-1.6,1.6-2.2.8-.6,1.8-.8,2.9-.8s2.1.3,3,.8c.8.5,1.4,1.2,1.6,2,0,.3.1.5.1.7h0c0,.1,0,.2-.2.2l-1.2.2h0c-.1,0-.2,0-.2-.2v-.3c-.2-.6-.6-1-1.1-1.4-.5-.4-1.2-.6-2-.6s-1.4.2-2,.6-.9.9-1,1.6c-.1.6-.2,1.3-.2,2.2s0,1.7.2,2.2c.2.7.5,1.2,1,1.6.5.4,1.2.6,2,.6s1.4-.2,2-.6.9-.9,1-1.4h0c0,0,0-.2,0-.2,0-.1.1-.2.3-.2l1.1.2c.2,0,.2.1.2.2v.4c-.3.9-.9,1.5-1.7,2.1-.8.5-1.8.8-3,.8s-2.1-.3-2.9-.8Z"/>
        <path class="cls-2" d="M332,25.7c-.2-.2-.4-.5-.4-.9s.1-.7.4-.9.6-.3.9-.3.7.1.9.3.4.5.4.9-.1.6-.4.9c-.2.2-.6.4-.9.4s-.7-.1-.9-.4ZM332.1,38.9v-10.7c0-.1,0-.2.2-.2h1.2c.2,0,.2,0,.2.2v10.7c0,.1,0,.2-.2.2h-1.2c-.2,0-.2,0-.2-.2Z"/>
        <path class="cls-2" d="M339.4,38.5c-.8-.5-1.4-1.3-1.7-2.2-.2-.7-.3-1.6-.3-2.7s.1-2,.3-2.7c.3-.9.8-1.7,1.7-2.2.8-.5,1.8-.8,2.9-.8s2.1.3,2.9.8c.8.5,1.4,1.3,1.6,2.2.2.6.3,1.5.3,2.7s-.1,2.1-.3,2.7c-.3,1-.8,1.7-1.6,2.2-.8.5-1.8.8-2.9.8s-2.1-.3-2.9-.8ZM344.2,37.4c.5-.4.9-.9,1.1-1.6.1-.5.2-1.3.2-2.2s0-1.7-.2-2.2c-.2-.7-.5-1.2-1.1-1.6-.5-.4-1.2-.6-2-.6s-1.4.2-1.9.6c-.5.4-.9.9-1.1,1.6-.1.5-.2,1.3-.2,2.2s0,1.7.2,2.2c.2.7.5,1.2,1.1,1.6.5.4,1.2.6,2,.6s1.4-.2,1.9-.6Z"/>
        <path class="cls-2" d="M352.1,38.9c-.7-.3-1.2-.6-1.6-1.1-.4-.4-.5-.9-.5-1.5v-.3c0-.1,0-.2.2-.2h1.1c.2,0,.2,0,.2.2v.2c0,.5.3.9.8,1.3s1.2.5,2,.5,1.5-.2,2-.5.7-.8.7-1.3-.1-.7-.4-.9-.6-.4-.9-.5-.9-.3-1.6-.5c-.9-.2-1.6-.5-2.2-.7s-1-.6-1.4-1-.6-.9-.6-1.6c0-.9.4-1.7,1.2-2.2.8-.6,1.8-.8,3.1-.8s1.6.1,2.3.4c.7.3,1.2.6,1.5,1.1.4.5.5,1,.5,1.6h0c0,.2,0,.3-.2.3h-1.1c-.2,0-.2,0-.2-.2h0c0-.6-.3-1-.8-1.3-.5-.3-1.2-.5-2-.5s-1.4.2-1.9.5c-.5.3-.7.7-.7,1.2s.2.9.7,1.1c.5.3,1.2.5,2.2.8.9.2,1.6.5,2.2.7.6.2,1,.5,1.4,1s.6,1,.6,1.6-.4,1.7-1.2,2.3c-.8.6-1.8.9-3.2.9s-1.6-.1-2.3-.4Z"/>
        <path class="cls-2" d="M374,23.8h1.2c.2,0,.2,0,.2.2v15c0,.1,0,.2-.2.2h-1.2c-.2,0-.2,0-.2-.2v-.9s0,0,0,0c0,0,0,0,0,0-.3.4-.8.8-1.3,1-.5.2-1.1.4-1.7.4-1.1,0-2-.3-2.7-.8-.7-.5-1.2-1.2-1.5-2.2-.2-.7-.3-1.6-.3-2.8s0-2.1.3-2.7c.3-.9.8-1.7,1.5-2.2.7-.5,1.7-.8,2.8-.8s1.2.1,1.7.3c.5.2.9.6,1.3,1,0,0,0,0,0,0,0,0,0,0,0,0v-5.2c0-.1,0-.2.2-.2ZM373.7,35.3c0-.4,0-.9,0-1.6s0-1.3,0-1.7c0-.4-.2-.8-.3-1.1-.2-.5-.5-.9-.9-1.2-.4-.3-.9-.5-1.5-.5s-1.2.1-1.6.4-.8.7-1,1.2c-.2.3-.3.7-.4,1.1,0,.4-.1,1-.1,1.7s0,1.2,0,1.6.2.7.3,1c.2.5.5.9,1,1.3.5.3,1,.5,1.7.5s1.1-.2,1.6-.5c.4-.3.7-.7.9-1.2.1-.3.2-.6.3-1Z"/>
        <path class="cls-2" d="M388.4,33.3v.7c0,.1,0,.2-.2.2h-7.5c0,0,0,0,0,0,0,.8,0,1.3.1,1.6.2.7.5,1.2,1.1,1.6.6.4,1.3.6,2.2.6s1.2-.1,1.7-.4c.5-.3.9-.7,1.2-1.2,0-.1.2-.2.3,0l.9.5c.1,0,.2.2,0,.3-.4.7-1,1.3-1.8,1.7s-1.7.6-2.7.6c-1.1,0-2-.3-2.8-.7-.7-.5-1.3-1.2-1.6-2-.3-.7-.4-1.7-.4-3s0-1.1,0-1.5c0-.4,0-.7.2-1,.3-1,.8-1.7,1.6-2.3.8-.6,1.8-.9,2.9-.9s2.5.3,3.3,1c.8.7,1.2,1.6,1.4,2.9,0,.4,0,.9,0,1.5ZM381.7,29.8c-.5.4-.8.9-1,1.5,0,.3-.2.8-.2,1.5,0,0,0,0,0,0h6.1c0,0,0,0,0,0,0-.7,0-1.1-.1-1.4-.2-.7-.5-1.2-1-1.6-.5-.4-1.2-.6-2-.6s-1.4.2-1.9.6Z"/>
        <path class="cls-2" d="M396.4,39v-15c0-.1,0-.2.2-.2h1.2c.2,0,.2,0,.2.2v15c0,.1,0,.2-.2.2h-1.2c-.2,0-.2,0-.2-.2Z"/>
        <path class="cls-2" d="M409.1,28.9c.8.7,1.1,1.6,1.1,2.7v7.4c0,.1,0,.2-.2.2h-1.2c-.2,0-.2,0-.2-.2v-.9s0,0,0,0c0,0,0,0,0,0-.4.4-.9.8-1.5,1s-1.3.3-2.1.3c-1.1,0-2-.3-2.8-.8-.7-.5-1.1-1.3-1.1-2.4s.4-2,1.3-2.6c.8-.6,2-1,3.5-1h2.7c0,0,0,0,0,0v-.8c0-.7-.2-1.3-.7-1.8-.4-.4-1.1-.6-2.1-.6s-1.4.1-1.8.4c-.5.3-.8.6-.9,1.1,0,.1-.1.2-.3.2l-1.3-.2c-.2,0-.2,0-.2-.2.1-.8.6-1.5,1.4-2,.8-.5,1.8-.8,3-.8s2.5.3,3.2,1ZM407.5,37.4c.7-.4,1-1,1-1.7v-1.7c0,0,0,0,0,0h-2.5c-1,0-1.9.2-2.5.6-.6.4-.9.9-.9,1.6s.2,1.1.7,1.5c.5.3,1.1.5,1.9.5s1.7-.2,2.4-.6Z"/>
        <path class="cls-2" d="M417.3,39v-1.1c0-.1,0-.2,0-.3l6.6-8.1s0,0,0,0c0,0,0,0,0,0h-6.4c-.2,0-.2,0-.2-.2v-1c0-.1,0-.2.2-.2h8.2c.2,0,.2,0,.2.2v1.1c0,.1,0,.2,0,.3l-6.7,8.1s0,0,0,0c0,0,0,0,0,0h6.5c.2,0,.2,0,.2.2v1c0,.1,0,.2-.2.2h-8.3c-.2,0-.2,0-.2-.2Z"/>
        <path class="cls-2" d="M430.4,38.5c-.8-.5-1.4-1.3-1.7-2.2-.2-.7-.3-1.6-.3-2.7s.1-2,.3-2.7c.3-.9.8-1.7,1.7-2.2.8-.5,1.8-.8,2.9-.8s2.1.3,2.9.8c.8.5,1.4,1.3,1.6,2.2.2.6.3,1.5.3,2.7s-.1,2.1-.3,2.7c-.3,1-.8,1.7-1.6,2.2-.8.5-1.8.8-2.9.8s-2.1-.3-2.9-.8ZM435.2,37.4c.5-.4.9-.9,1.1-1.6.1-.5.2-1.3.2-2.2s0-1.7-.2-2.2c-.2-.7-.5-1.2-1.1-1.6-.5-.4-1.2-.6-2-.6s-1.4.2-1.9.6c-.5.4-.9.9-1.1,1.6-.1.5-.2,1.3-.2,2.2s0,1.7.2,2.2c.2.7.5,1.2,1.1,1.6.5.4,1.2.6,2,.6s1.4-.2,1.9-.6Z"/>
        <path class="cls-2" d="M449.4,28.9c.7.7,1.1,1.6,1.1,2.8v7.3c0,.1,0,.2-.2.2h-1.2c-.2,0-.2,0-.2-.2v-7c0-.8-.3-1.5-.8-2-.5-.5-1.2-.8-2-.8s-1.6.2-2.1.7-.8,1.2-.8,2v7c0,.1,0,.2-.2.2h-1.2c-.2,0-.2,0-.2-.2v-10.7c0-.1,0-.2.2-.2h1.2c.2,0,.2,0,.2.2v.9s0,0,0,0,0,0,0,0c.7-.9,1.7-1.4,3.2-1.4s2.2.3,3,1Z"/>
        <path class="cls-2" d="M461.4,28.9c.8.7,1.1,1.6,1.1,2.7v7.4c0,.1,0,.2-.2.2h-1.2c-.2,0-.2,0-.2-.2v-.9s0,0,0,0c0,0,0,0,0,0-.4.4-.9.8-1.5,1s-1.3.3-2.1.3c-1.1,0-2-.3-2.8-.8-.7-.5-1.1-1.3-1.1-2.4s.4-2,1.3-2.6c.8-.6,2-1,3.5-1h2.7c0,0,0,0,0,0v-.8c0-.7-.2-1.3-.7-1.8-.4-.4-1.1-.6-2.1-.6s-1.4.1-1.8.4c-.5.3-.8.6-.9,1.1,0,.1-.1.2-.3.2l-1.3-.2c-.2,0-.2,0-.2-.2.1-.8.6-1.5,1.4-2,.8-.5,1.8-.8,3-.8s2.5.3,3.2,1ZM459.9,37.4c.7-.4,1-1,1-1.7v-1.7c0,0,0,0,0,0h-2.5c-1,0-1.9.2-2.5.6-.6.4-.9.9-.9,1.6s.2,1.1.7,1.5c.5.3,1.1.5,1.9.5s1.7-.2,2.4-.6Z"/>
      </g>
    </g>
  </g>
  <g id="Capa_2" data-name="Capa 2">
    <g>
      <rect class="cls-4" x="4.1" y="2.6" width="501.4" height="60.8"/>
      <path class="cls-3" d="M488.1,63.4h82.9l23.3-28.2c1.3-1.6,1.3-4.2,0-5.8l-22.1-26.7h-84.1v60.8Z"/>
      <text class="cls-1" transform="translate(17 39.2)"><tspan x="0" y="0">Discover more attractions and services in the area</tspan></text>
    </g>
  </g>
</svg>