<?xml version="1.0" encoding="UTF-8"?>
<svg id="Capa_2" data-name="Capa 2" xmlns="http://www.w3.org/2000/svg" viewBox="0 0 116.27 116.23">
  <defs>
    <style>
      .cls-1 {
        fill: #911443;
        stroke-width: 0px;
      }
    </style>
  </defs>
  <g id="Capa_1-2" data-name="Capa 1">
    <g>
      <path class="cls-1" d="M58.03,116.23C25.51,116.07-.14,90.14,0,57.56.14,25.67,26.64-.25,58.86,0c31.94.25,57.58,26.6,57.41,59-.16,31.53-26.47,57.38-58.24,57.23ZM109.88,57.82c.03-27.88-23.23-51.21-51.16-51.33-28.87-.12-52.22,22.82-52.33,51.41-.11,28.75,22.95,51.84,51.79,51.85,28.8.01,51.67-22.95,51.71-51.93Z"/>
      <path class="cls-1" d="M39.82,59.28c0-6.32-.05-12.65.01-18.97.08-7.26,3.76-9.41,9.78-5.73,11.37,6.95,22.72,13.92,34.06,20.92,3.99,2.46,4.1,4.88,0,7.38-12.44,7.57-24.94,15.01-37.55,22.29-1.02.59-3.64.04-4.36-.88-1.15-1.48-1.78-3.7-1.85-5.63-.22-6.45-.08-12.92-.08-19.38Z"/>
    </g>
  </g>
</svg>