<svg viewBox="0 0 116.27 116.23" xmlns="http://www.w3.org/2000/svg"><g fill="#911443"><path d="m58.03 116.23c-32.52-.16-58.17-26.09-58.03-58.67.14-31.89 26.64-57.81 58.86-57.56 31.94.25 57.58 26.6 57.41 59-.16 31.53-26.47 57.38-58.24 57.23zm51.85-58.41c.03-27.88-23.23-51.21-51.16-51.33-28.87-.12-52.22 22.82-52.33 51.41-.11 28.75 22.95 51.84 51.79 51.85 28.8.01 51.67-22.95 51.71-51.93z"/><path d="m39.82 59.28c0-6.32-.05-12.65.01-18.97.08-7.26 3.76-9.41 9.78-5.73 11.37 6.95 22.72 13.92 34.06 20.92 3.99 2.46 4.1 4.88 0 7.38-12.44 7.57-24.94 15.01-37.55 22.29-1.02.59-3.64.04-4.36-.88-1.15-1.48-1.78-3.7-1.85-5.63-.22-6.45-.08-12.92-.08-19.38z"/></g></svg>