<svg enable-background="new 0 0 215.7 127.1" viewBox="0 0 215.7 127.1" xmlns="http://www.w3.org/2000/svg"><path d="m47.2 77.5v38l11.8 10.7c.7.6 1.8.6 2.4 0l11.2-10.2v-38.5z" fill="#911442" stroke="#fff" stroke-miterlimit="10"/><path d="m39.5 41v54.9l11.8 15.4c.7.9 1.8.9 2.4 0l11.2-14.6v-55.7z" fill="#911442" opacity=".87" stroke="#fff" stroke-miterlimit="10"/><path d="m64.9 54.7v-41.9l-11.8-11.8c-.7-.7-1.8-.7-2.4 0l-11.2 11.2v42.6z" fill="#911442" stroke="#fff" stroke-miterlimit="10"/><path d="m72.6 52.1v-32.1l-11.8-9.1c-.7-.5-1.8-.5-2.4 0l-11.2 8.6v32.6z" fill="#911442" opacity=".87" stroke="#fff" stroke-miterlimit="10"/><path d="m64.9 77.5h31.8l9-11.8c.5-.7.5-1.8 0-2.4l-8.5-11.2h-32.3z" fill="#911442" stroke="#fff" stroke-miterlimit="10"/><path d="m47.2 84.8h34.6l9.8-11.8c.6-.7.6-1.8 0-2.4l-9.2-11.2h-35.2z" fill="#911442" opacity=".87" stroke="#fff" stroke-miterlimit="10"/><path d="m64.9 52.1h-49.8l-14 11.8c-.8.7-.8 1.8 0 2.4l13.3 11.2h50.5z" fill="#911442" opacity=".87" stroke="#fff" stroke-miterlimit="10"/><path d="m64.9 45.2h-42.7l-12 11.8c-.7.7-.7 1.8 0 2.4l11.4 11.2h43.3z" fill="#911442" opacity=".87" stroke="#fff" stroke-miterlimit="10"/><g fill="#fff"><path d="m111.9 42.6c-.1 0-.3 0-.4-.1s-.2-.2-.2-.3v-9.3c0-.1 0-.2.1-.3s.2-.1.3-.1h2.6c.6 0 1 .1 1.5.3.4.2.8.5 1 .9.3.4.4 1 .4 1.7v.1c0 .7-.1 1.3-.4 1.7s-.6.8-1.1 1-1 .3-1.5.3h-1.9v3.6c0 .1-.1.2-.2.3.1.2 0 .2-.2.2zm.6-4.9h1.9c.6 0 1-.2 1.3-.5s.5-.8.5-1.5v-.2c0-.7-.2-1.2-.5-1.5s-.8-.5-1.3-.5h-1.9z"/><g enable-background="new"><path d="m122.2 42.6c-.1 0-.3 0-.4-.1s-.2-.2-.2-.3v-8.6h-2.2c-.1 0-.2-.1-.3-.2s-.1-.2-.1-.4c0-.1 0-.2.1-.4s.2-.2.3-.2h5.6c.1 0 .2.1.3.2s.1.2.1.4c0 .1 0 .3-.1.4s-.2.2-.3.2h-2.2v8.6c0 .1-.1.2-.2.3s-.2.1-.4.1z"/><path d="m128.2 42.6c-.1 0-.3 0-.4-.1s-.2-.2-.2-.3v-9.3c0-.1.1-.2.2-.3s.3-.1.4-.1.3 0 .4.1.2.2.2.3v9.3c0 .1-.1.2-.2.3s-.2.1-.4.1z"/></g><g enable-background="new"><path d="m112 59.8c-.1 0-.3 0-.4-.1s-.2-.2-.2-.3v-9.7c0-.1.1-.2.2-.3s.3-.1.4-.1c.2 0 .3 0 .4.1s.2.2.2.3v9.7c0 .1-.1.3-.2.3s-.2.1-.4.1z"/><path d="m118.8 59.8c-.6 0-1.1-.1-1.6-.3s-.8-.5-1.1-1-.4-1.1-.4-1.8v-4.3c0-.8.1-1.4.4-1.8.3-.5.6-.8 1.1-1s1-.3 1.6-.3 1.2.1 1.7.3.8.5 1.1.9.4.8.4 1.4c0 .2-.1.4-.2.5s-.3.1-.4.1c-.2 0-.3 0-.4-.1s-.2-.2-.2-.3c0-.3-.1-.6-.3-.9-.1-.2-.3-.4-.6-.6s-.6-.2-1-.2c-.6 0-1.1.2-1.4.5s-.5.8-.5 1.6v4.3c0 .7.2 1.2.5 1.6s.8.5 1.4.5 1.1-.2 1.4-.5.5-.8.5-1.6v-1.5h-1.8c-.1 0-.2-.1-.3-.2s-.1-.2-.1-.3 0-.2.1-.3.2-.2.3-.2h2.5c.1 0 .2 0 .3.1s.1.2.1.3v2c0 .8-.1 1.4-.4 1.8s-.6.8-1.1 1-1 .3-1.6.3z"/><path d="m125.4 59.8c-.1 0-.3 0-.4-.1s-.2-.2-.2-.3v-9.7c0-.1.1-.2.2-.3s.3-.1.4-.1c.2 0 .3 0 .4.1s.2.2.2.3v9h4c.1 0 .2.1.3.2s.1.2.1.4c0 .1 0 .3-.1.4s-.2.2-.3.2h-4.6z"/><path d="m133.3 59.8c-.1 0-.3 0-.4-.1s-.2-.2-.2-.3v-9.7c0-.1.1-.3.2-.3s.2-.1.4-.1h5.1c.2 0 .3.1.3.2.1.1.1.2.1.4 0 .1 0 .3-.1.4s-.2.2-.3.2h-4.4v3.5h2.3c.1 0 .2.1.3.2s.1.2.1.4c0 .1 0 .2-.1.3s-.2.2-.3.2h-2.3v3.7h4.5c.1 0 .2.1.3.2s.1.2.1.4c0 .1 0 .2-.1.4-.1.1-.2.2-.3.2h-5.2z"/><path d="m143.9 59.9c-.6 0-1.2-.1-1.6-.3s-.8-.4-1.1-.7-.4-.5-.4-.7c0-.1 0-.2.1-.3s.1-.2.2-.3.2-.1.3-.1.2.1.3.2.2.3.4.4c.2.2.4.3.7.4s.6.2 1.1.2c.4 0 .8-.1 1.1-.2s.5-.3.7-.6.3-.6.3-1-.1-.8-.3-1c-.2-.3-.4-.5-.7-.6-.3-.2-.6-.3-.9-.5s-.7-.3-1-.4-.7-.3-.9-.5-.5-.5-.7-.8-.3-.7-.3-1.2.1-1 .3-1.3.4-.6.8-.8c.3-.2.7-.3 1-.4.4-.1.7-.1 1.1-.1.3 0 .5 0 .8.1.3 0 .6.1.8.2s.5.2.6.3c.2.1.2.3.2.4s0 .2-.1.3c0 .1-.1.2-.2.3s-.2.1-.3.1-.2 0-.4-.1-.4-.2-.6-.3c-.3-.1-.6-.1-1-.1-.3 0-.7 0-1 .1s-.5.3-.7.5-.3.5-.3.9c0 .3.1.6.3.9.2.2.4.4.7.5s.6.3.9.4.7.3 1 .4c.3.2.6.4.9.6s.5.5.7.9.3.8.3 1.4c0 .7-.1 1.3-.4 1.7s-.6.8-1.1 1c-.5 0-1 .1-1.6.1z"/><path d="m150.3 59.8c-.1 0-.3 0-.4-.1s-.2-.2-.2-.3v-9.7c0-.1.1-.2.2-.3s.3-.1.4-.1c.2 0 .3 0 .4.1s.2.2.2.3v9.7c0 .1-.1.3-.2.3s-.2.1-.4.1z"/><path d="m154.1 59.8c-.1 0-.2 0-.3-.1-.1 0-.2-.1-.3-.2s-.1-.2-.1-.3v-.1l3-9.6c0-.1.1-.2.3-.3s.3-.1.5-.1.3 0 .5.1.2.2.3.3l2.9 9.6v.1c0 .1 0 .2-.1.3s-.2.1-.3.2c-.1 0-.2.1-.3.1s-.2 0-.3-.1c-.1 0-.1-.1-.2-.2l-.7-2.2h-3.8l-.6 2.2c0 .1-.1.2-.2.2s-.2.1-.3.1zm1.4-3.5h3.2l-1.6-5.4z"/><path d="m165.7 59.9c-.6 0-1.2-.1-1.6-.3-.5-.2-.8-.4-1.1-.7s-.4-.5-.4-.7c0-.1 0-.2.1-.3s.1-.2.2-.3.2-.1.3-.1.2.1.3.2.3.3.4.4.4.3.7.4.6.2 1.1.2c.4 0 .8-.1 1.1-.2s.5-.3.7-.6.3-.6.3-1-.1-.8-.3-1c-.2-.3-.4-.5-.7-.6s-.6-.3-.9-.5-.7-.3-1-.4-.7-.3-.9-.5-.5-.5-.7-.8-.3-.7-.3-1.2.1-1 .3-1.3.4-.6.8-.8c.3-.2.7-.3 1-.4.4-.1.7-.1 1.1-.1.3 0 .5 0 .8.1.3 0 .6.1.8.2.3.1.5.2.6.3.2.1.2.3.2.4s0 .2-.1.3c0 .1-.1.2-.2.3s-.2.1-.3.1-.2 0-.4-.1-.4-.2-.6-.3c-.3-.1-.6-.1-1-.1-.3 0-.7 0-1 .1s-.5.3-.7.5-.3.5-.3.9c0 .3.1.6.3.9.2.2.4.4.7.5s.6.3.9.4.7.3 1 .4c.3.2.6.4.9.6s.5.5.7.9.3.8.3 1.4c0 .7-.1 1.3-.4 1.7s-.6.8-1.1 1c-.4 0-1 .1-1.6.1z"/></g><path d="m112 77.6c-.1 0-.3 0-.4-.1s-.2-.2-.2-.3v-9.7c0-.1 0-.2.1-.3s.2-.1.4-.1h2.7c.6 0 1.1.1 1.6.3s.8.5 1.1 1 .4 1.1.4 1.8v.1c0 .8-.1 1.4-.4 1.8s-.6.8-1.1 1-1 .3-1.6.3h-1.9v3.7c0 .1-.1.3-.2.3s-.3.2-.5.2zm.6-5.2h1.9c.6 0 1.1-.2 1.4-.5s.5-.9.5-1.5v-.2c0-.7-.2-1.2-.5-1.6-.3-.3-.8-.5-1.4-.5h-1.9z"/><path d="m119.7 77.6c-.1 0-.2 0-.3-.1-.1 0-.2-.1-.3-.2s-.1-.2-.1-.3v-.1l3-9.6c0-.1.1-.2.3-.3s.3-.1.5-.1.3 0 .5.1.2.2.3.3l2.9 9.6v.1c0 .1 0 .2-.1.3s-.2.1-.3.2c-.1 0-.2.1-.3.1s-.2 0-.3-.1c-.1 0-.1-.1-.2-.2l-.7-2.2h-3.8l-.6 2.2c0 .1-.1.2-.2.2s-.2.1-.3.1zm1.3-3.5h3.2l-1.6-5.4z"/><g enable-background="new"><path d="m130.5 77.6c-.2 0-.3 0-.4-.1s-.2-.2-.2-.3v-9h-2.3c-.1 0-.2-.1-.3-.2s-.1-.2-.1-.4c0-.1 0-.3.1-.4s.2-.2.3-.2h5.9c.1 0 .3.1.3.2.1.1.1.2.1.4 0 .1 0 .3-.1.4s-.2.2-.3.2h-2.3v9c0 .1-.1.3-.2.3s-.4.1-.5.1z"/><path d="m141.8 77.6c-.1 0-.2 0-.3-.1s-.2-.2-.2-.3l-2.2-4.2h-1.7v4.2c0 .1-.1.3-.2.3s-.3.1-.4.1-.3 0-.4-.1-.2-.2-.2-.3v-9.7c0-.1 0-.2.1-.3s.2-.1.3-.1h2.6c.6 0 1.1.1 1.6.3s.9.5 1.2.9.4 1 .4 1.7c0 .6-.1 1.1-.3 1.5s-.4.7-.8.9-.7.4-1.1.5l2.1 4.1v.1.1c0 .1 0 .2-.1.3s-.2.2-.3.2 0-.1-.1-.1zm-4.4-5.7h1.9c.6 0 1.1-.1 1.4-.4.4-.3.5-.8.5-1.5s-.2-1.2-.5-1.5c-.4-.3-.8-.4-1.4-.4h-1.9z"/><path d="m145.7 77.6c-.1 0-.3 0-.4-.1s-.2-.2-.2-.3v-9.7c0-.1.1-.2.2-.3s.3-.1.4-.1c.2 0 .3 0 .4.1s.2.2.2.3v9.7c0 .1-.1.3-.2.3s-.2.1-.4.1z"/><path d="m150.1 77.6c-.1 0-.3 0-.4-.1s-.2-.2-.2-.3v-9.5c0-.2.1-.4.2-.5s.3-.1.4-.1c.2 0 .3 0 .4.1s.2.1.3.3c.1.1.2.3.3.4l2.3 4.3 2.3-4.3c.1-.2.2-.3.3-.4s.2-.2.3-.3.2-.1.4-.1.3 0 .4.1.2.2.2.5v9.5c0 .1-.1.3-.2.3s-.3.1-.4.1-.3 0-.4-.1-.2-.2-.2-.3v-7.6l-2.2 4.1c-.1.1-.1.2-.2.3s-.2.1-.2.1c-.1 0-.1 0-.2-.1s-.2-.1-.2-.3l-2.2-4.2v7.6c0 .1-.1.3-.2.3s-.4.2-.6.2z"/><path d="m163.4 77.7c-.6 0-1.1-.1-1.6-.3s-.8-.5-1.1-1-.4-1.1-.4-1.8v-4.3c0-.8.1-1.4.4-1.8.3-.5.6-.8 1.1-1s1-.3 1.6-.3 1.1.1 1.6.3.8.5 1.1 1 .4 1.1.4 1.8v4.3c0 .8-.1 1.4-.4 1.8-.3.5-.6.8-1.1 1s-1 .3-1.6.3zm0-1.1c.6 0 1.1-.2 1.4-.5s.5-.8.5-1.6v-4.3c0-.7-.2-1.2-.5-1.6s-.8-.5-1.4-.5-1.1.2-1.4.5-.5.8-.5 1.6v4.3c0 .7.2 1.2.5 1.6s.8.5 1.4.5z"/><path d="m170.2 77.6c-.1 0-.3 0-.4-.1s-.2-.2-.2-.3v-9.7c0-.2.1-.3.2-.3s.3-.1.4-.1c.2 0 .3 0 .4.1s.2.1.3.3c.1.1.2.3.3.4l3.6 7v-7.4c0-.1.1-.2.2-.3s.3-.1.4-.1c.2 0 .3 0 .4.1s.2.2.2.3v9.7c0 .1-.1.3-.2.3s-.3.1-.4.1c-.2 0-.3-.1-.4-.2s-.2-.2-.3-.4l-3.8-7.3v7.4c0 .1-.1.3-.2.3s-.3.2-.5.2z"/><path d="m179.8 77.6c-.1 0-.3 0-.4-.1s-.2-.2-.2-.3v-9.7c0-.1.1-.2.2-.3s.3-.1.4-.1c.2 0 .3 0 .4.1s.2.2.2.3v9.7c0 .1-.1.3-.2.3s-.3.1-.4.1z"/><path d="m183.5 77.6c-.1 0-.2 0-.3-.1-.1 0-.2-.1-.3-.2s-.1-.2-.1-.3v-.1l3-9.6c0-.1.1-.2.3-.3.1-.1.3-.1.5-.1s.3 0 .5.1.2.2.3.3l2.9 9.6v.1c0 .1 0 .2-.1.3s-.2.1-.3.2c-.1 0-.2.1-.3.1s-.2 0-.3-.1c-.1 0-.1-.1-.2-.2l-.6-2.2h-3.8l-.6 2.2c0 .1-.1.2-.2.2s-.2.1-.4.1zm1.4-3.5h3.2l-1.6-5.4z"/><path d="m193.2 77.6c-.1 0-.3 0-.4-.1s-.2-.2-.2-.3v-9.7c0-.1.1-.2.2-.3s.3-.1.4-.1c.2 0 .3 0 .4.1s.2.2.2.3v9h4c.1 0 .2.1.3.2s.1.2.1.4c0 .1 0 .3-.1.4s-.2.2-.3.2h-4.6z"/><path d="m201.1 77.6c-.1 0-.3 0-.4-.1s-.2-.2-.2-.3v-9.7c0-.1.1-.3.2-.3.1-.1.2-.1.4-.1h5.1c.2 0 .3.1.3.2.1.1.1.2.1.4 0 .1 0 .3-.1.4s-.2.2-.3.2h-4.5v3.7h2.3c.1 0 .2.1.3.2s.1.2.1.4c0 .1 0 .2-.1.3s-.2.2-.3.2h-2.3v3.7h4.5c.1 0 .2.1.3.2s.1.2.1.4c0 .1 0 .2-.1.4-.1.1-.2.2-.3.2h-5.1z"/><path d="m211.6 77.7c-.6 0-1.2-.1-1.6-.3-.5-.2-.8-.4-1.1-.7s-.4-.5-.4-.7c0-.1 0-.2.1-.3s.1-.2.2-.3.2-.1.3-.1.2.1.3.2.3.3.4.4.4.3.7.4.6.2 1.1.2c.4 0 .8-.1 1.1-.2s.5-.3.7-.6.3-.6.3-1-.1-.8-.3-1c-.2-.3-.4-.5-.7-.6s-.6-.3-.9-.5-.7-.3-1-.4-.7-.3-.9-.5-.5-.5-.7-.8-.3-.7-.3-1.2.1-1 .3-1.3.4-.6.8-.8c.3-.2.7-.3 1-.4.4-.1.7-.1 1.1-.1.3 0 .5 0 .8.1.3 0 .6.1.8.2.3.1.5.2.6.3.2.1.2.3.2.4s0 .2-.1.3c0 .1-.1.2-.2.3s-.2.1-.3.1-.2 0-.4-.1-.4-.2-.6-.3c-.3-.1-.6-.1-1-.1-.3 0-.7 0-1 .1s-.5.3-.7.5-.3.5-.3.9c0 .3.1.6.3.9.2.2.4.4.7.5s.6.3.9.4.7.3 1 .4c.3.2.6.4.9.6s.5.5.7.9.3.8.3 1.4c0 .7-.1 1.3-.4 1.7s-.6.8-1.1 1c-.4-0-1 .1-1.6.1z"/></g><g enable-background="new"><path d="m112 95.4c-.2 0-.3 0-.4-.1s-.2-.2-.2-.3v-9.7c0-.1.1-.2.2-.3s.2-.1.4-.1h2.6c.6 0 1.1.1 1.6.3s.8.5 1.1 1 .4 1.1.4 1.8v4.3c0 .8-.1 1.4-.4 1.8s-.6.8-1.1 1-1 .3-1.6.3zm.6-1.1h1.9c.6 0 1.1-.2 1.4-.5s.5-.8.5-1.6v-4.2c0-.7-.2-1.2-.5-1.6-.3-.3-.8-.5-1.4-.5h-1.9z"/><path d="m121.3 95.4c-.1 0-.3 0-.4-.1s-.2-.2-.2-.3v-9.7c0-.1.1-.3.2-.3.1-.1.2-.1.4-.1h5.1c.2 0 .3.1.3.2.1.1.1.2.1.4 0 .1 0 .3-.1.4s-.2.2-.3.2h-4.5v3.7h2.3c.1 0 .2.1.3.2s.1.2.1.4c0 .1 0 .2-.1.3s-.2.2-.3.2h-2.3v3.7h4.5c.1 0 .2.1.3.2s.1.2.1.4c0 .1 0 .2-.1.4-.1.1-.2.2-.3.2h-5.1z"/><path d="m136.3 95.5c-.6 0-1.1-.1-1.5-.3s-.8-.5-1.1-1-.4-1.1-.4-1.8v-4.4c0-.8.1-1.4.4-1.8.3-.5.7-.8 1.1-1 .5-.2 1-.3 1.5-.3.7 0 1.2.1 1.7.3s.8.5 1.1.9c.2.4.4.8.4 1.3 0 .3-.1.4-.2.5s-.3.1-.5.1-.3 0-.4-.1-.2-.2-.2-.3 0-.3-.1-.5c0-.2-.1-.4-.3-.5-.1-.2-.3-.3-.6-.4-.2-.1-.6-.2-1-.2-.6 0-1.1.2-1.4.5s-.5.8-.5 1.6v4.3c0 .7.2 1.2.5 1.6s.8.5 1.5.5c.4 0 .7-.1 1-.2.2-.1.4-.3.5-.4.1-.2.2-.4.2-.6s.1-.4.1-.6c0-.1.1-.2.2-.3s.2-.1.4-.1.4 0 .5.1.2.3.2.5c0 .5-.1.9-.4 1.3s-.6.7-1.1.9c-.4.3-1 .4-1.6.4z"/><path d="m142.7 95.4c-.1 0-.3 0-.4-.1s-.2-.2-.2-.3v-9.7c0-.1.1-.2.2-.3s.3-.1.4-.1c.2 0 .3 0 .4.1s.2.2.2.3v4.2h3.9v-4.2c0-.1.1-.2.2-.3s.3-.1.4-.1c.2 0 .3 0 .4.1s.2.2.2.3v9.7c0 .1-.1.3-.2.3-.1.1-.3.1-.4.1s-.3 0-.4-.1-.2-.2-.2-.3v-4.5h-3.9v4.5c0 .1-.1.3-.2.3s-.2.1-.4.1z"/><path d="m152.3 95.4c-.1 0-.3 0-.4-.1s-.2-.2-.2-.3v-9.7c0-.1.1-.2.2-.3s.3-.1.4-.1c.2 0 .3 0 .4.1s.2.2.2.3v9.7c0 .1-.1.3-.2.3s-.3.1-.4.1z"/></g><path d="m156.8 95.4c-.1 0-.3 0-.4-.1s-.2-.2-.2-.3v-9.7c0-.1.1-.2.2-.3s.3-.1.4-.1c.2 0 .3 0 .4.1s.2.2.2.3v9h4c.1 0 .2.1.3.2s.1.2.1.4c0 .1 0 .3-.1.4s-.2.2-.3.2h-4.6z"/><g enable-background="new"><path d="m167 95.5c-.6 0-1.1-.1-1.6-.3s-.8-.5-1.1-1-.4-1.1-.4-1.8v-4.4c0-.8.1-1.4.4-1.8.3-.5.6-.8 1.1-1s1-.3 1.6-.3 1.1.1 1.6.3.8.5 1.1 1 .4 1.1.4 1.8v4.3c0 .8-.1 1.4-.4 1.8-.3.5-.6.8-1.1 1s-1.1.4-1.6.4zm0-1.1c.6 0 1.1-.2 1.4-.5s.5-.8.5-1.6v-4.3c0-.7-.2-1.2-.5-1.6s-.8-.5-1.4-.5-1.1.2-1.4.5-.5.8-.5 1.6v4.3c0 .7.2 1.2.5 1.6s.8.5 1.4.5z"/><path d="m173.7 95.4c-.1 0-.3 0-.4-.1s-.2-.2-.2-.3v-9.7c0-.1.1-.3.2-.3s.2-.1.4-.1h5.1c.2 0 .3.1.3.2.1.1.1.2.1.4 0 .1 0 .3-.1.4s-.2.2-.3.2h-4.5v3.7h2.3c.1 0 .2.1.3.2s.1.2.1.4c0 .1 0 .2-.1.3s-.2.2-.3.2h-2.3v3.7h4.5c.1 0 .2.1.3.2s.1.2.1.4c0 .1 0 .2-.1.4-.1.1-.2.2-.3.2h-5.1zm1.9-12.1c-.1 0-.2-.1-.3-.2s-.1-.2-.1-.3c0-.2.1-.3.2-.3l1.7-.9h.1c.1 0 .2.1.3.2s.1.2.1.3c0 .2-.1.3-.2.3l-1.6.8c-.1.1-.1.1-.2.1z"/></g></g></svg>