<?xml version="1.0" encoding="utf-8"?>
<!-- Generator: Adobe Illustrator 28.2.0, SVG Export Plug-In . SVG Version: 6.00 Build 0)  -->
<svg version="1.1" id="Capa_2_00000008842863644233769160000002033431116578237356_"
	 xmlns="http://www.w3.org/2000/svg" xmlns:xlink="http://www.w3.org/1999/xlink" x="0px" y="0px" viewBox="0 0 215.7 127.1"
	 style="enable-background:new 0 0 215.7 127.1;" xml:space="preserve">
<style type="text/css">
	.st0{fill:#911442;stroke:#FFFFFF;stroke-miterlimit:10;}
	.st1{opacity:0.87;fill:#911442;stroke:#FFFFFF;stroke-miterlimit:10;enable-background:new    ;}
	.st2{enable-background:new    ;}
	.st3{fill:#FFFFFF;}
</style>
<g id="Capa_1-2">
	<g>
		<path class="st0" d="M47.2,77.5v38L59,126.2c0.7,0.6,1.8,0.6,2.4,0L72.6,116V77.5L47.2,77.5L47.2,77.5z"/>
		<path class="st1" d="M39.5,41v54.9l11.8,15.4c0.7,0.9,1.8,0.9,2.4,0l11.2-14.6V41L39.5,41L39.5,41z"/>
		<path class="st0" d="M64.9,54.7V12.8L53.1,1c-0.7-0.7-1.8-0.7-2.4,0L39.5,12.2v42.6L64.9,54.7L64.9,54.7z"/>
		<path class="st1" d="M72.6,52.1V20l-11.8-9.1c-0.7-0.5-1.8-0.5-2.4,0l-11.2,8.6v32.6C47.2,52.1,72.6,52.1,72.6,52.1z"/>
		<path class="st0" d="M64.9,77.5h31.8l9-11.8c0.5-0.7,0.5-1.8,0-2.4l-8.5-11.2H64.9C64.9,52.1,64.9,77.5,64.9,77.5z"/>
		<path class="st1" d="M47.2,84.8h34.6L91.6,73c0.6-0.7,0.6-1.8,0-2.4l-9.2-11.2H47.2L47.2,84.8L47.2,84.8z"/>
		<path class="st1" d="M64.9,52.1H15.1l-14,11.8c-0.8,0.7-0.8,1.8,0,2.4l13.3,11.2h50.5L64.9,52.1L64.9,52.1z"/>
		<path class="st1" d="M64.9,45.2H22.2L10.2,57c-0.7,0.7-0.7,1.8,0,2.4l11.4,11.2h43.3L64.9,45.2L64.9,45.2z"/>
		<g class="st2">
			<path class="st3" d="M111.9,42.6c-0.1,0-0.3,0-0.4-0.1c-0.1-0.1-0.2-0.2-0.2-0.3v-9.3c0-0.1,0-0.2,0.1-0.3
				c0.1-0.1,0.2-0.1,0.3-0.1h2.6c0.6,0,1,0.1,1.5,0.3c0.4,0.2,0.8,0.5,1,0.9c0.3,0.4,0.4,1,0.4,1.7v0.1c0,0.7-0.1,1.3-0.4,1.7
				s-0.6,0.8-1.1,1c-0.5,0.2-1,0.3-1.5,0.3h-1.9v3.6c0,0.1-0.1,0.2-0.2,0.3C112.2,42.6,112.1,42.6,111.9,42.6z M112.5,37.7h1.9
				c0.6,0,1-0.2,1.3-0.5c0.3-0.3,0.5-0.8,0.5-1.5v-0.2c0-0.7-0.2-1.2-0.5-1.5c-0.3-0.3-0.8-0.5-1.3-0.5h-1.9V37.7z"/>
		</g>
		<g class="st2">
			<path class="st3" d="M122.2,42.6c-0.1,0-0.3,0-0.4-0.1c-0.1-0.1-0.2-0.2-0.2-0.3v-8.6h-2.2c-0.1,0-0.2-0.1-0.3-0.2
				s-0.1-0.2-0.1-0.4c0-0.1,0-0.2,0.1-0.4s0.2-0.2,0.3-0.2h5.6c0.1,0,0.2,0.1,0.3,0.2c0.1,0.1,0.1,0.2,0.1,0.4c0,0.1,0,0.3-0.1,0.4
				c-0.1,0.1-0.2,0.2-0.3,0.2h-2.2v8.6c0,0.1-0.1,0.2-0.2,0.3C122.5,42.6,122.4,42.6,122.2,42.6z"/>
			<path class="st3" d="M128.2,42.6c-0.1,0-0.3,0-0.4-0.1s-0.2-0.2-0.2-0.3v-9.3c0-0.1,0.1-0.2,0.2-0.3c0.1-0.1,0.3-0.1,0.4-0.1
				c0.1,0,0.3,0,0.4,0.1c0.1,0.1,0.2,0.2,0.2,0.3v9.3c0,0.1-0.1,0.2-0.2,0.3C128.5,42.6,128.4,42.6,128.2,42.6z"/>
		</g>
		<g class="st2">
			<path class="st3" d="M112,59.8c-0.1,0-0.3,0-0.4-0.1s-0.2-0.2-0.2-0.3v-9.7c0-0.1,0.1-0.2,0.2-0.3s0.3-0.1,0.4-0.1
				c0.2,0,0.3,0,0.4,0.1s0.2,0.2,0.2,0.3v9.7c0,0.1-0.1,0.3-0.2,0.3S112.2,59.8,112,59.8z"/>
			<path class="st3" d="M118.8,59.8c-0.6,0-1.1-0.1-1.6-0.3s-0.8-0.5-1.1-1c-0.3-0.5-0.4-1.1-0.4-1.8v-4.3c0-0.8,0.1-1.4,0.4-1.8
				c0.3-0.5,0.6-0.8,1.1-1s1-0.3,1.6-0.3c0.6,0,1.2,0.1,1.7,0.3c0.5,0.2,0.8,0.5,1.1,0.9s0.4,0.8,0.4,1.4c0,0.2-0.1,0.4-0.2,0.5
				c-0.1,0.1-0.3,0.1-0.4,0.1c-0.2,0-0.3,0-0.4-0.1c-0.1-0.1-0.2-0.2-0.2-0.3c0-0.3-0.1-0.6-0.3-0.9c-0.1-0.2-0.3-0.4-0.6-0.6
				s-0.6-0.2-1-0.2c-0.6,0-1.1,0.2-1.4,0.5s-0.5,0.8-0.5,1.6v4.3c0,0.7,0.2,1.2,0.5,1.6s0.8,0.5,1.4,0.5s1.1-0.2,1.4-0.5
				s0.5-0.8,0.5-1.6v-1.5H119c-0.1,0-0.2-0.1-0.3-0.2c-0.1-0.1-0.1-0.2-0.1-0.3c0-0.1,0-0.2,0.1-0.3c0.1-0.1,0.2-0.2,0.3-0.2h2.5
				c0.1,0,0.2,0,0.3,0.1s0.1,0.2,0.1,0.3v2c0,0.8-0.1,1.4-0.4,1.8s-0.6,0.8-1.1,1S119.4,59.8,118.8,59.8z"/>
			<path class="st3" d="M125.4,59.8c-0.1,0-0.3,0-0.4-0.1s-0.2-0.2-0.2-0.3v-9.7c0-0.1,0.1-0.2,0.2-0.3s0.3-0.1,0.4-0.1
				c0.2,0,0.3,0,0.4,0.1s0.2,0.2,0.2,0.3v9h4c0.1,0,0.2,0.1,0.3,0.2c0.1,0.1,0.1,0.2,0.1,0.4c0,0.1,0,0.3-0.1,0.4
				c-0.1,0.1-0.2,0.2-0.3,0.2H125.4z"/>
			<path class="st3" d="M133.3,59.8c-0.1,0-0.3,0-0.4-0.1s-0.2-0.2-0.2-0.3v-9.7c0-0.1,0.1-0.3,0.2-0.3s0.2-0.1,0.4-0.1h5.1
				c0.2,0,0.3,0.1,0.3,0.2c0.1,0.1,0.1,0.2,0.1,0.4c0,0.1,0,0.3-0.1,0.4c-0.1,0.1-0.2,0.2-0.3,0.2H134V54h2.3c0.1,0,0.2,0.1,0.3,0.2
				c0.1,0.1,0.1,0.2,0.1,0.4c0,0.1,0,0.2-0.1,0.3c-0.1,0.1-0.2,0.2-0.3,0.2H134v3.7h4.5c0.1,0,0.2,0.1,0.3,0.2
				c0.1,0.1,0.1,0.2,0.1,0.4c0,0.1,0,0.2-0.1,0.4c-0.1,0.1-0.2,0.2-0.3,0.2H133.3z"/>
			<path class="st3" d="M143.9,59.9c-0.6,0-1.2-0.1-1.6-0.3s-0.8-0.4-1.1-0.7c-0.3-0.3-0.4-0.5-0.4-0.7c0-0.1,0-0.2,0.1-0.3
				c0.1-0.1,0.1-0.2,0.2-0.3c0.1-0.1,0.2-0.1,0.3-0.1c0.1,0,0.2,0.1,0.3,0.2c0.1,0.1,0.2,0.3,0.4,0.4c0.2,0.2,0.4,0.3,0.7,0.4
				c0.3,0.1,0.6,0.2,1.1,0.2c0.4,0,0.8-0.1,1.1-0.2c0.3-0.1,0.5-0.3,0.7-0.6c0.2-0.3,0.3-0.6,0.3-1c0-0.4-0.1-0.8-0.3-1
				c-0.2-0.3-0.4-0.5-0.7-0.6c-0.3-0.2-0.6-0.3-0.9-0.5s-0.7-0.3-1-0.4c-0.3-0.1-0.7-0.3-0.9-0.5s-0.5-0.5-0.7-0.8
				c-0.2-0.3-0.3-0.7-0.3-1.2c0-0.5,0.1-1,0.3-1.3s0.4-0.6,0.8-0.8c0.3-0.2,0.7-0.3,1-0.4c0.4-0.1,0.7-0.1,1.1-0.1
				c0.3,0,0.5,0,0.8,0.1c0.3,0,0.6,0.1,0.8,0.2s0.5,0.2,0.6,0.3c0.2,0.1,0.2,0.3,0.2,0.4c0,0.1,0,0.2-0.1,0.3c0,0.1-0.1,0.2-0.2,0.3
				s-0.2,0.1-0.3,0.1c-0.1,0-0.2,0-0.4-0.1c-0.2-0.1-0.4-0.2-0.6-0.3c-0.3-0.1-0.6-0.1-1-0.1c-0.3,0-0.7,0-1,0.1
				c-0.3,0.1-0.5,0.3-0.7,0.5c-0.2,0.2-0.3,0.5-0.3,0.9c0,0.3,0.1,0.6,0.3,0.9c0.2,0.2,0.4,0.4,0.7,0.5c0.3,0.1,0.6,0.3,0.9,0.4
				c0.3,0.1,0.7,0.3,1,0.4c0.3,0.2,0.6,0.4,0.9,0.6c0.3,0.2,0.5,0.5,0.7,0.9c0.2,0.4,0.3,0.8,0.3,1.4c0,0.7-0.1,1.3-0.4,1.7
				c-0.3,0.4-0.6,0.8-1.1,1C145,59.8,144.5,59.9,143.9,59.9z"/>
			<path class="st3" d="M150.3,59.8c-0.1,0-0.3,0-0.4-0.1s-0.2-0.2-0.2-0.3v-9.7c0-0.1,0.1-0.2,0.2-0.3s0.3-0.1,0.4-0.1
				c0.2,0,0.3,0,0.4,0.1s0.2,0.2,0.2,0.3v9.7c0,0.1-0.1,0.3-0.2,0.3S150.5,59.8,150.3,59.8z"/>
			<path class="st3" d="M154.1,59.8c-0.1,0-0.2,0-0.3-0.1c-0.1,0-0.2-0.1-0.3-0.2s-0.1-0.2-0.1-0.3c0,0,0-0.1,0-0.1l3-9.6
				c0-0.1,0.1-0.2,0.3-0.3s0.3-0.1,0.5-0.1c0.2,0,0.3,0,0.5,0.1s0.2,0.2,0.3,0.3l2.9,9.6c0,0,0,0.1,0,0.1c0,0.1,0,0.2-0.1,0.3
				c-0.1,0.1-0.2,0.1-0.3,0.2c-0.1,0-0.2,0.1-0.3,0.1c-0.1,0-0.2,0-0.3-0.1c-0.1,0-0.1-0.1-0.2-0.2l-0.7-2.2h-3.8l-0.6,2.2
				c0,0.1-0.1,0.2-0.2,0.2C154.3,59.7,154.2,59.8,154.1,59.8z M155.5,56.3h3.2l-1.6-5.4L155.5,56.3z"/>
			<path class="st3" d="M165.7,59.9c-0.6,0-1.2-0.1-1.6-0.3c-0.5-0.2-0.8-0.4-1.1-0.7s-0.4-0.5-0.4-0.7c0-0.1,0-0.2,0.1-0.3
				c0.1-0.1,0.1-0.2,0.2-0.3s0.2-0.1,0.3-0.1c0.1,0,0.2,0.1,0.3,0.2c0.1,0.1,0.3,0.3,0.4,0.4s0.4,0.3,0.7,0.4
				c0.3,0.1,0.6,0.2,1.1,0.2c0.4,0,0.8-0.1,1.1-0.2c0.3-0.1,0.5-0.3,0.7-0.6c0.2-0.3,0.3-0.6,0.3-1c0-0.4-0.1-0.8-0.3-1
				c-0.2-0.3-0.4-0.5-0.7-0.6s-0.6-0.3-0.9-0.5s-0.7-0.3-1-0.4c-0.3-0.1-0.7-0.3-0.9-0.5s-0.5-0.5-0.7-0.8c-0.2-0.3-0.3-0.7-0.3-1.2
				c0-0.5,0.1-1,0.3-1.3c0.2-0.3,0.4-0.6,0.8-0.8c0.3-0.2,0.7-0.3,1-0.4c0.4-0.1,0.7-0.1,1.1-0.1c0.3,0,0.5,0,0.8,0.1
				c0.3,0,0.6,0.1,0.8,0.2c0.3,0.1,0.5,0.2,0.6,0.3c0.2,0.1,0.2,0.3,0.2,0.4c0,0.1,0,0.2-0.1,0.3c0,0.1-0.1,0.2-0.2,0.3
				s-0.2,0.1-0.3,0.1c-0.1,0-0.2,0-0.4-0.1c-0.2-0.1-0.4-0.2-0.6-0.3c-0.3-0.1-0.6-0.1-1-0.1c-0.3,0-0.7,0-1,0.1
				c-0.3,0.1-0.5,0.3-0.7,0.5c-0.2,0.2-0.3,0.5-0.3,0.9c0,0.3,0.1,0.6,0.3,0.9c0.2,0.2,0.4,0.4,0.7,0.5s0.6,0.3,0.9,0.4
				c0.3,0.1,0.7,0.3,1,0.4c0.3,0.2,0.6,0.4,0.9,0.6s0.5,0.5,0.7,0.9c0.2,0.4,0.3,0.8,0.3,1.4c0,0.7-0.1,1.3-0.4,1.7
				c-0.3,0.4-0.6,0.8-1.1,1C166.9,59.8,166.3,59.9,165.7,59.9z"/>
		</g>
		<g class="st2">
			<path class="st3" d="M112,77.6c-0.1,0-0.3,0-0.4-0.1s-0.2-0.2-0.2-0.3v-9.7c0-0.1,0-0.2,0.1-0.3c0.1-0.1,0.2-0.1,0.4-0.1h2.7
				c0.6,0,1.1,0.1,1.6,0.3c0.5,0.2,0.8,0.5,1.1,1s0.4,1.1,0.4,1.8v0.1c0,0.8-0.1,1.4-0.4,1.8s-0.6,0.8-1.1,1s-1,0.3-1.6,0.3h-1.9
				v3.7c0,0.1-0.1,0.3-0.2,0.3S112.2,77.6,112,77.6z M112.6,72.4h1.9c0.6,0,1.1-0.2,1.4-0.5c0.3-0.3,0.5-0.9,0.5-1.5v-0.2
				c0-0.7-0.2-1.2-0.5-1.6c-0.3-0.3-0.8-0.5-1.4-0.5h-1.9V72.4z"/>
		</g>
		<g class="st2">
			<path class="st3" d="M119.7,77.6c-0.1,0-0.2,0-0.3-0.1c-0.1,0-0.2-0.1-0.3-0.2s-0.1-0.2-0.1-0.3c0,0,0-0.1,0-0.1l3-9.6
				c0-0.1,0.1-0.2,0.3-0.3s0.3-0.1,0.5-0.1c0.2,0,0.3,0,0.5,0.1s0.2,0.2,0.3,0.3l2.9,9.6c0,0,0,0.1,0,0.1c0,0.1,0,0.2-0.1,0.3
				c-0.1,0.1-0.2,0.1-0.3,0.2c-0.1,0-0.2,0.1-0.3,0.1c-0.1,0-0.2,0-0.3-0.1c-0.1,0-0.1-0.1-0.2-0.2l-0.7-2.2h-3.8l-0.6,2.2
				c0,0.1-0.1,0.2-0.2,0.2C119.9,77.5,119.8,77.6,119.7,77.6z M121,74.1h3.2l-1.6-5.4L121,74.1z"/>
		</g>
		<g class="st2">
			<path class="st3" d="M130.5,77.6c-0.2,0-0.3,0-0.4-0.1s-0.2-0.2-0.2-0.3v-9h-2.3c-0.1,0-0.2-0.1-0.3-0.2s-0.1-0.2-0.1-0.4
				c0-0.1,0-0.3,0.1-0.4c0.1-0.1,0.2-0.2,0.3-0.2h5.9c0.1,0,0.3,0.1,0.3,0.2c0.1,0.1,0.1,0.2,0.1,0.4c0,0.1,0,0.3-0.1,0.4
				c-0.1,0.1-0.2,0.2-0.3,0.2h-2.3v9c0,0.1-0.1,0.3-0.2,0.3S130.6,77.6,130.5,77.6z"/>
			<path class="st3" d="M141.8,77.6c-0.1,0-0.2,0-0.3-0.1c-0.1-0.1-0.2-0.2-0.2-0.3l-2.2-4.2h-1.7v4.2c0,0.1-0.1,0.3-0.2,0.3
				s-0.3,0.1-0.4,0.1c-0.1,0-0.3,0-0.4-0.1s-0.2-0.2-0.2-0.3v-9.7c0-0.1,0-0.2,0.1-0.3s0.2-0.1,0.3-0.1h2.6c0.6,0,1.1,0.1,1.6,0.3
				c0.5,0.2,0.9,0.5,1.2,0.9c0.3,0.4,0.4,1,0.4,1.7c0,0.6-0.1,1.1-0.3,1.5c-0.2,0.4-0.4,0.7-0.8,0.9s-0.7,0.4-1.1,0.5l2.1,4.1
				c0,0,0,0.1,0,0.1c0,0,0,0.1,0,0.1c0,0.1,0,0.2-0.1,0.3c-0.1,0.1-0.2,0.2-0.3,0.2S141.9,77.6,141.8,77.6z M137.4,71.9h1.9
				c0.6,0,1.1-0.1,1.4-0.4c0.4-0.3,0.5-0.8,0.5-1.5s-0.2-1.2-0.5-1.5c-0.4-0.3-0.8-0.4-1.4-0.4h-1.9V71.9z"/>
			<path class="st3" d="M145.7,77.6c-0.1,0-0.3,0-0.4-0.1s-0.2-0.2-0.2-0.3v-9.7c0-0.1,0.1-0.2,0.2-0.3s0.3-0.1,0.4-0.1
				c0.2,0,0.3,0,0.4,0.1s0.2,0.2,0.2,0.3v9.7c0,0.1-0.1,0.3-0.2,0.3S145.9,77.6,145.7,77.6z"/>
			<path class="st3" d="M150.1,77.6c-0.1,0-0.3,0-0.4-0.1s-0.2-0.2-0.2-0.3v-9.5c0-0.2,0.1-0.4,0.2-0.5s0.3-0.1,0.4-0.1
				c0.2,0,0.3,0,0.4,0.1c0.1,0.1,0.2,0.1,0.3,0.3c0.1,0.1,0.2,0.3,0.3,0.4l2.3,4.3l2.3-4.3c0.1-0.2,0.2-0.3,0.3-0.4
				c0.1-0.1,0.2-0.2,0.3-0.3s0.2-0.1,0.4-0.1c0.2,0,0.3,0,0.4,0.1s0.2,0.2,0.2,0.5v9.5c0,0.1-0.1,0.3-0.2,0.3s-0.3,0.1-0.4,0.1
				s-0.3,0-0.4-0.1s-0.2-0.2-0.2-0.3v-7.6l-2.2,4.1c-0.1,0.1-0.1,0.2-0.2,0.3c-0.1,0.1-0.2,0.1-0.2,0.1c-0.1,0-0.1,0-0.2-0.1
				s-0.2-0.1-0.2-0.3l-2.2-4.2v7.6c0,0.1-0.1,0.3-0.2,0.3S150.3,77.6,150.1,77.6z"/>
			<path class="st3" d="M163.4,77.7c-0.6,0-1.1-0.1-1.6-0.3s-0.8-0.5-1.1-1c-0.3-0.5-0.4-1.1-0.4-1.8v-4.3c0-0.8,0.1-1.4,0.4-1.8
				c0.3-0.5,0.6-0.8,1.1-1s1-0.3,1.6-0.3s1.1,0.1,1.6,0.3s0.8,0.5,1.1,1c0.3,0.5,0.4,1.1,0.4,1.8v4.3c0,0.8-0.1,1.4-0.4,1.8
				c-0.3,0.5-0.6,0.8-1.1,1S164,77.7,163.4,77.7z M163.4,76.6c0.6,0,1.1-0.2,1.4-0.5s0.5-0.8,0.5-1.6v-4.3c0-0.7-0.2-1.2-0.5-1.6
				s-0.8-0.5-1.4-0.5s-1.1,0.2-1.4,0.5s-0.5,0.8-0.5,1.6v4.3c0,0.7,0.2,1.2,0.5,1.6S162.8,76.6,163.4,76.6z"/>
			<path class="st3" d="M170.2,77.6c-0.1,0-0.3,0-0.4-0.1s-0.2-0.2-0.2-0.3v-9.7c0-0.2,0.1-0.3,0.2-0.3s0.3-0.1,0.4-0.1
				c0.2,0,0.3,0,0.4,0.1c0.1,0.1,0.2,0.1,0.3,0.3c0.1,0.1,0.2,0.3,0.3,0.4l3.6,7v-7.4c0-0.1,0.1-0.2,0.2-0.3s0.3-0.1,0.4-0.1
				c0.2,0,0.3,0,0.4,0.1s0.2,0.2,0.2,0.3v9.7c0,0.1-0.1,0.3-0.2,0.3s-0.3,0.1-0.4,0.1c-0.2,0-0.3-0.1-0.4-0.2
				c-0.1-0.1-0.2-0.2-0.3-0.4l-3.8-7.3v7.4c0,0.1-0.1,0.3-0.2,0.3S170.4,77.6,170.2,77.6z"/>
			<path class="st3" d="M179.8,77.6c-0.1,0-0.3,0-0.4-0.1s-0.2-0.2-0.2-0.3v-9.7c0-0.1,0.1-0.2,0.2-0.3s0.3-0.1,0.4-0.1
				c0.2,0,0.3,0,0.4,0.1s0.2,0.2,0.2,0.3v9.7c0,0.1-0.1,0.3-0.2,0.3S179.9,77.6,179.8,77.6z"/>
			<path class="st3" d="M183.5,77.6c-0.1,0-0.2,0-0.3-0.1c-0.1,0-0.2-0.1-0.3-0.2c-0.1-0.1-0.1-0.2-0.1-0.3c0,0,0-0.1,0-0.1l3-9.6
				c0-0.1,0.1-0.2,0.3-0.3c0.1-0.1,0.3-0.1,0.5-0.1c0.2,0,0.3,0,0.5,0.1s0.2,0.2,0.3,0.3l2.9,9.6c0,0,0,0.1,0,0.1
				c0,0.1,0,0.2-0.1,0.3s-0.2,0.1-0.3,0.2c-0.1,0-0.2,0.1-0.3,0.1c-0.1,0-0.2,0-0.3-0.1c-0.1,0-0.1-0.1-0.2-0.2l-0.6-2.2h-3.8
				l-0.6,2.2c0,0.1-0.1,0.2-0.2,0.2C183.8,77.5,183.7,77.6,183.5,77.6z M184.9,74.1h3.2l-1.6-5.4L184.9,74.1z"/>
			<path class="st3" d="M193.2,77.6c-0.1,0-0.3,0-0.4-0.1c-0.1-0.1-0.2-0.2-0.2-0.3v-9.7c0-0.1,0.1-0.2,0.2-0.3s0.3-0.1,0.4-0.1
				c0.2,0,0.3,0,0.4,0.1s0.2,0.2,0.2,0.3v9h4c0.1,0,0.2,0.1,0.3,0.2c0.1,0.1,0.1,0.2,0.1,0.4c0,0.1,0,0.3-0.1,0.4
				c-0.1,0.1-0.2,0.2-0.3,0.2H193.2z"/>
			<path class="st3" d="M201.1,77.6c-0.1,0-0.3,0-0.4-0.1c-0.1-0.1-0.2-0.2-0.2-0.3v-9.7c0-0.1,0.1-0.3,0.2-0.3
				c0.1-0.1,0.2-0.1,0.4-0.1h5.1c0.2,0,0.3,0.1,0.3,0.2c0.1,0.1,0.1,0.2,0.1,0.4c0,0.1,0,0.3-0.1,0.4c-0.1,0.1-0.2,0.2-0.3,0.2h-4.5
				v3.7h2.3c0.1,0,0.2,0.1,0.3,0.2c0.1,0.1,0.1,0.2,0.1,0.4c0,0.1,0,0.2-0.1,0.3c-0.1,0.1-0.2,0.2-0.3,0.2h-2.3v3.7h4.5
				c0.1,0,0.2,0.1,0.3,0.2c0.1,0.1,0.1,0.2,0.1,0.4c0,0.1,0,0.2-0.1,0.4c-0.1,0.1-0.2,0.2-0.3,0.2H201.1z"/>
			<path class="st3" d="M211.6,77.7c-0.6,0-1.2-0.1-1.6-0.3c-0.5-0.2-0.8-0.4-1.1-0.7s-0.4-0.5-0.4-0.7c0-0.1,0-0.2,0.1-0.3
				c0.1-0.1,0.1-0.2,0.2-0.3s0.2-0.1,0.3-0.1c0.1,0,0.2,0.1,0.3,0.2c0.1,0.1,0.3,0.3,0.4,0.4s0.4,0.3,0.7,0.4
				c0.3,0.1,0.6,0.2,1.1,0.2c0.4,0,0.8-0.1,1.1-0.2c0.3-0.1,0.5-0.3,0.7-0.6c0.2-0.3,0.3-0.6,0.3-1c0-0.4-0.1-0.8-0.3-1
				c-0.2-0.3-0.4-0.5-0.7-0.6s-0.6-0.3-0.9-0.5s-0.7-0.3-1-0.4c-0.3-0.1-0.7-0.3-0.9-0.5s-0.5-0.5-0.7-0.8c-0.2-0.3-0.3-0.7-0.3-1.2
				c0-0.5,0.1-1,0.3-1.3c0.2-0.3,0.4-0.6,0.8-0.8c0.3-0.2,0.7-0.3,1-0.4c0.4-0.1,0.7-0.1,1.1-0.1c0.3,0,0.5,0,0.8,0.1
				c0.3,0,0.6,0.1,0.8,0.2c0.3,0.1,0.5,0.2,0.6,0.3c0.2,0.1,0.2,0.3,0.2,0.4c0,0.1,0,0.2-0.1,0.3c0,0.1-0.1,0.2-0.2,0.3
				s-0.2,0.1-0.3,0.1c-0.1,0-0.2,0-0.4-0.1c-0.2-0.1-0.4-0.2-0.6-0.3c-0.3-0.1-0.6-0.1-1-0.1c-0.3,0-0.7,0-1,0.1
				c-0.3,0.1-0.5,0.3-0.7,0.5c-0.2,0.2-0.3,0.5-0.3,0.9c0,0.3,0.1,0.6,0.3,0.9c0.2,0.2,0.4,0.4,0.7,0.5s0.6,0.3,0.9,0.4
				c0.3,0.1,0.7,0.3,1,0.4c0.3,0.2,0.6,0.4,0.9,0.6s0.5,0.5,0.7,0.9c0.2,0.4,0.3,0.8,0.3,1.4c0,0.7-0.1,1.3-0.4,1.7
				c-0.3,0.4-0.6,0.8-1.1,1C212.8,77.6,212.2,77.7,211.6,77.7z"/>
		</g>
		<g class="st2">
			<path class="st3" d="M112,95.4c-0.2,0-0.3,0-0.4-0.1c-0.1-0.1-0.2-0.2-0.2-0.3v-9.7c0-0.1,0.1-0.2,0.2-0.3
				c0.1-0.1,0.2-0.1,0.4-0.1h2.6c0.6,0,1.1,0.1,1.6,0.3s0.8,0.5,1.1,1c0.3,0.5,0.4,1.1,0.4,1.8v4.3c0,0.8-0.1,1.4-0.4,1.8
				s-0.6,0.8-1.1,1s-1,0.3-1.6,0.3H112z M112.6,94.3h1.9c0.6,0,1.1-0.2,1.4-0.5c0.3-0.3,0.5-0.8,0.5-1.6V88c0-0.7-0.2-1.2-0.5-1.6
				c-0.3-0.3-0.8-0.5-1.4-0.5h-1.9V94.3z"/>
			<path class="st3" d="M121.3,95.4c-0.1,0-0.3,0-0.4-0.1c-0.1-0.1-0.2-0.2-0.2-0.3v-9.7c0-0.1,0.1-0.3,0.2-0.3
				c0.1-0.1,0.2-0.1,0.4-0.1h5.1c0.2,0,0.3,0.1,0.3,0.2c0.1,0.1,0.1,0.2,0.1,0.4c0,0.1,0,0.3-0.1,0.4c-0.1,0.1-0.2,0.2-0.3,0.2h-4.5
				v3.7h2.3c0.1,0,0.2,0.1,0.3,0.2c0.1,0.1,0.1,0.2,0.1,0.4c0,0.1,0,0.2-0.1,0.3c-0.1,0.1-0.2,0.2-0.3,0.2h-2.3v3.7h4.5
				c0.1,0,0.2,0.1,0.3,0.2c0.1,0.1,0.1,0.2,0.1,0.4c0,0.1,0,0.2-0.1,0.4c-0.1,0.1-0.2,0.2-0.3,0.2H121.3z"/>
			<path class="st3" d="M136.3,95.5c-0.6,0-1.1-0.1-1.5-0.3s-0.8-0.5-1.1-1s-0.4-1.1-0.4-1.8V88c0-0.8,0.1-1.4,0.4-1.8
				c0.3-0.5,0.7-0.8,1.1-1c0.5-0.2,1-0.3,1.5-0.3c0.7,0,1.2,0.1,1.7,0.3s0.8,0.5,1.1,0.9c0.2,0.4,0.4,0.8,0.4,1.3
				c0,0.3-0.1,0.4-0.2,0.5c-0.1,0.1-0.3,0.1-0.5,0.1c-0.2,0-0.3,0-0.4-0.1c-0.1-0.1-0.2-0.2-0.2-0.3c0-0.1,0-0.3-0.1-0.5
				c0-0.2-0.1-0.4-0.3-0.5c-0.1-0.2-0.3-0.3-0.6-0.4c-0.2-0.1-0.6-0.2-1-0.2c-0.6,0-1.1,0.2-1.4,0.5s-0.5,0.8-0.5,1.6v4.3
				c0,0.7,0.2,1.2,0.5,1.6s0.8,0.5,1.5,0.5c0.4,0,0.7-0.1,1-0.2c0.2-0.1,0.4-0.3,0.5-0.4c0.1-0.2,0.2-0.4,0.2-0.6s0.1-0.4,0.1-0.6
				c0-0.1,0.1-0.2,0.2-0.3c0.1-0.1,0.2-0.1,0.4-0.1c0.2,0,0.4,0,0.5,0.1c0.1,0.1,0.2,0.3,0.2,0.5c0,0.5-0.1,0.9-0.4,1.3
				c-0.3,0.4-0.6,0.7-1.1,0.9C137.5,95.4,136.9,95.5,136.3,95.5z"/>
			<path class="st3" d="M142.7,95.4c-0.1,0-0.3,0-0.4-0.1s-0.2-0.2-0.2-0.3v-9.7c0-0.1,0.1-0.2,0.2-0.3s0.3-0.1,0.4-0.1
				c0.2,0,0.3,0,0.4,0.1s0.2,0.2,0.2,0.3v4.2h3.9v-4.2c0-0.1,0.1-0.2,0.2-0.3c0.1-0.1,0.3-0.1,0.4-0.1c0.2,0,0.3,0,0.4,0.1
				c0.1,0.1,0.2,0.2,0.2,0.3V95c0,0.1-0.1,0.3-0.2,0.3c-0.1,0.1-0.3,0.1-0.4,0.1c-0.1,0-0.3,0-0.4-0.1c-0.1-0.1-0.2-0.2-0.2-0.3
				v-4.5h-3.9V95c0,0.1-0.1,0.3-0.2,0.3S142.9,95.4,142.7,95.4z"/>
			<path class="st3" d="M152.3,95.4c-0.1,0-0.3,0-0.4-0.1s-0.2-0.2-0.2-0.3v-9.7c0-0.1,0.1-0.2,0.2-0.3s0.3-0.1,0.4-0.1
				c0.2,0,0.3,0,0.4,0.1s0.2,0.2,0.2,0.3V95c0,0.1-0.1,0.3-0.2,0.3S152.4,95.4,152.3,95.4z"/>
		</g>
		<g class="st2">
			<path class="st3" d="M156.8,95.4c-0.1,0-0.3,0-0.4-0.1c-0.1-0.1-0.2-0.2-0.2-0.3v-9.7c0-0.1,0.1-0.2,0.2-0.3s0.3-0.1,0.4-0.1
				c0.2,0,0.3,0,0.4,0.1s0.2,0.2,0.2,0.3v9h4c0.1,0,0.2,0.1,0.3,0.2c0.1,0.1,0.1,0.2,0.1,0.4c0,0.1,0,0.3-0.1,0.4
				c-0.1,0.1-0.2,0.2-0.3,0.2H156.8z"/>
		</g>
		<g class="st2">
			<path class="st3" d="M167,95.5c-0.6,0-1.1-0.1-1.6-0.3c-0.5-0.2-0.8-0.5-1.1-1c-0.3-0.5-0.4-1.1-0.4-1.8V88
				c0-0.8,0.1-1.4,0.4-1.8c0.3-0.5,0.6-0.8,1.1-1c0.5-0.2,1-0.3,1.6-0.3c0.6,0,1.1,0.1,1.6,0.3s0.8,0.5,1.1,1
				c0.3,0.5,0.4,1.1,0.4,1.8v4.3c0,0.8-0.1,1.4-0.4,1.8c-0.3,0.5-0.6,0.8-1.1,1S167.5,95.5,167,95.5z M167,94.4
				c0.6,0,1.1-0.2,1.4-0.5s0.5-0.8,0.5-1.6V88c0-0.7-0.2-1.2-0.5-1.6s-0.8-0.5-1.4-0.5c-0.6,0-1.1,0.2-1.4,0.5s-0.5,0.8-0.5,1.6v4.3
				c0,0.7,0.2,1.2,0.5,1.6S166.4,94.4,167,94.4z"/>
			<path class="st3" d="M173.7,95.4c-0.1,0-0.3,0-0.4-0.1s-0.2-0.2-0.2-0.3v-9.7c0-0.1,0.1-0.3,0.2-0.3s0.2-0.1,0.4-0.1h5.1
				c0.2,0,0.3,0.1,0.3,0.2c0.1,0.1,0.1,0.2,0.1,0.4c0,0.1,0,0.3-0.1,0.4c-0.1,0.1-0.2,0.2-0.3,0.2h-4.5v3.7h2.3
				c0.1,0,0.2,0.1,0.3,0.2c0.1,0.1,0.1,0.2,0.1,0.4c0,0.1,0,0.2-0.1,0.3c-0.1,0.1-0.2,0.2-0.3,0.2h-2.3v3.7h4.5
				c0.1,0,0.2,0.1,0.3,0.2c0.1,0.1,0.1,0.2,0.1,0.4c0,0.1,0,0.2-0.1,0.4c-0.1,0.1-0.2,0.2-0.3,0.2H173.7z M175.6,83.3
				c-0.1,0-0.2-0.1-0.3-0.2c-0.1-0.1-0.1-0.2-0.1-0.3c0-0.2,0.1-0.3,0.2-0.3l1.7-0.9c0.1,0,0.1,0,0.1,0c0.1,0,0.2,0.1,0.3,0.2
				c0.1,0.1,0.1,0.2,0.1,0.3c0,0.2-0.1,0.3-0.2,0.3l-1.6,0.8C175.7,83.3,175.7,83.3,175.6,83.3C175.7,83.3,175.6,83.3,175.6,83.3z"
				/>
		</g>
	</g>
</g>
</svg>
