<svg viewBox="0 0 88.9 140.24" xmlns="http://www.w3.org/2000/svg"><g fill="none" stroke="#911443" stroke-miterlimit="10"><path d="m32.88 29.54c1.42-1.16 4.13-2.22 5.42-4.22.96-1.49 1.74-3.23 2.56-4.84.71-1.4 1.6-3.01 2.01-4.49.4-1.46.35-3.24.43-4.81.46.02.64.17 1.37.08-.35 2.47-.02 4.77.76 6.36s1.9 3.22 2.83 4.79c.61 1.04 1.01 2.58 1.75 3.5.81 1.02 2.61 1.89 3.68 2.67.34.25 1.22.7 1.36 1.08.47 1.29-.68 1.09-1.4 1.09-3.7-.02-7.44-.25-11.12-.12-2.44.09-4.77.48-7.24.48-.5 0-1.91.24-2.29-.14s-.11-1.27-.12-1.42z"/><path d="m35.04 31.34c0 3.8-1.08 8.2-.34 11.88-.85.49-2.1 1.17-2.84 1.68-1.04.71-2.21 1.33-3.28 1.99 2.16.17 4.64.14 6.68.23 1.88.09 3.69.2 5.59.12 4.24-.17 8.64-.21 12.88 0 1.93.1 3.79-.23 5.59-.23-.93-1.07-2.65-1.57-3.89-2.25-1.96-1.08-2.59-1.34-2.7-3.64-.16-3.41.3-6.76.24-10.12"/><path d="m34.7 43.21c1.9-.82 7.4-.53 10.14-.55 1.68-.01 3.32.15 5.01.24.65.03 2.97.36 3.46.36"/><path d="m33.69 46.98c0 6.85-.57 14-.57 20.85 0 1.24-.12 2.63.34 3.7-1.66.83-3.25 1.96-5.01 2.68 3.85-.17 7.68.11 11.55.12 4.6 0 9.14.27 13.75.12 1.68-.06 3.34-.14 5-.27-1.06-1.14-2.5-1.56-3.89-2.26-1.22-.62-.91-.79-.79-2.28.1-1.17.11-2.34.11-3.52 0-4.68.56-9.41.33-14.1-.08-1.63-.27-3.09.05-4.64"/><path d="m33.53 71.45c2.21-.7 3.1-1.56 5.29-1.57h7.66c.74 0 1.93-.06 2.66.06.78.13 1.36.2 2.11.54 1.24.56 2.38.75 3.51 1.4"/><path d="m30.11 74.09c-.9 2.1.09 5.86.12 8.19.01 1.27.25 3.19-.33 4.34-.48.94-2.3 1.58-3.27 2.17-3.63 2.18-7.46 4.17-11.2 6.26-2.83 1.58-5.66 3.24-8.43 4.93-1.17.72-2.38 1.39-3.49 2.2-.98.72-1.7 1.55-2.89 1.9-.19.41-.08 1-.01 1.51.07.48.08 1.16.25 1.02 2.49-2.01 6.38.12 9.62-.03 5.41-.25 10.75.06 16.15.06s10.35.06 15.53-.12c6.45-.23 12.89.48 19.34.48 7.07 0 14.15-.61 21.18-.61.47-.4 4.57-.08 5.33.24"/><path d="m58.04 74.21c1.11 2.45.49 5.68.36 8.31-.05 1.16-.24 2.41-.12 3.61.16 1.65 1.18 1.83 2.7 2.53 1.98.92 4 1.89 5.79 3.06 2.04 1.34 4.2 2.49 6.2 3.86 1.52 1.04 2.99 2.11 4.68 2.83s3.43 1.2 5.11 2.2c1.37.83 3.05 1.42 4.24 2.49.93.83 1 2.26.91 3.58-.07-.09-.16-.16-.26-.2"/><path d="m.91 106.5c-.84 2.1-.08 5.66.11 7.93.18 2.08.15 4.03.13 6.12-.03 4.16-.36 8.29-.36 12.47 0 2.09-.08 4.2.02 6.28 11.86.5 23.92.72 35.79-.22 12.64-1 25.43-.24 38.13-.24h7.86c1.65 0 3.55.32 5.14.11.18-4.09.03-8.1.02-12.21 0-2.59.88-5.23.61-7.82-.24-2.27-.48-4.55-.37-6.9.08-1.72-.31-3.68.15-5.25.12.18.19.37.22.59"/><path d="m1.18 117.57c-.07-2.11 2.19-4.22 3.86-5.31 2.25-1.48 4.93-2.23 7.56-2.35 3.76-.18 6.79 1.87 8.41 5.19 1.07 2.21 1.91 4.41 1.94 6.9s-.12 4.78 0 7.18c.18 3.51-.07 7.06-.13 10.52"/><path d="m32.76 139.2c-1.16-4.38-.94-9.87-.7-14.41.19-3.57.61-9.38 3.59-11.8 3.05-2.48 7.07-2.74 10.85-2.26 1.94.25 4.44 1.18 5.64 2.79 1.58 2.13 2.43 5.73 2.64 8.33.27 3.35.26 6.74.41 10.1.07 1.61.16 3.23.21 4.85.02.67.22 1.1.15 1.71"/><path d="m65.56 138.72c-.02-.91-.31-4.47-.34-5.72-.06-2.33.02-4.64.24-6.93.4-4.14.11-9.01 2.43-12.63 2.13-3.34 6.16-4.54 9.94-4.62 3.42-.07 7.42 3.61 8.58 6.72.7 1.88 2.18 6.9 1.46 8.87"/><path d="m5.37 139.39c0-3.05.35-6.62.39-9.66.02-2.25-.28-4.7-.1-6.86 1.66.1 3.44-.26 5.15-.26 2.22 0 4.47-.1 6.68.02.31 5.66.13 11.39.14 17.08-.08.02.04-.07.12-.14"/><path d="m37.97 138.96c-.47-1.5-.24-3.4-.24-4.97 0-1.95-.18-3.87-.24-5.82-.1-3.3-.22-6.31.26-9.54 1.8-.09 3.49.23 5.26.37 2.15.18 4.46-.26 6.69-.13.22 3.76.14 7.6.14 11.37 0 1.29-.15 7.59.05 8.27"/><path d="m70.36 138.85c0-5.05.07-9.84.33-14.89 3.85.61 8.02.03 11.95.24.3 4.75-.24 9.36-.33 14.65"/><path d="m64.25 98.27c-2.13 2.18-.93 5.03 2.06 5.33 2.44.24 4.45-3.72 2.12-5.03-.92-.52-2.69-1.28-3.73-.65-.11.04-.24.19-.45.35z"/><path d="m19.87 97.92c-1.92 1.16-1.54 5.36.74 5.99 3.17.86 5.48-3.1 3.2-5.43-.55-.57-1.34-.87-2.13-.93-.34-.03-.69 0-1.02.05-.25.04-.67.21-.8.32z"/><path d="m39.57 104.51c-.06-1.19.18-2.46.18-3.68 0-1.16-.14-2.3.02-3.45.14-1.03.03-2.06.11-3.08.09-1.12 1.01-1.47 1.97-1.57 1.01-.1 1.48.43 2.01 1.17.47-1.14 2.94-1.52 3.73-.54.62.76.46 2.15.54 3.06.15 1.73.2 3.43.11 5.16-.05 1.04-.11 2.03-.26 3.03-1.43.09-2.93.05-4.36-.02-1.31-.06-2.71.08-3.98-.08.04-.04.23.03-.08 0z"/><path d="m43.89 93.86c0 3.49-.02 7.26-.02 10.75v-.17"/><path d="m40.85 78.47c.04 1.49-.19 3.11-.26 4.63-.06 1.23-.54 2.95-.11 4.16 1.09-.01 2.27.22 3.37.31 1.07.09 2.12.02 3.18.07.31-1.49.2-3.19.27-4.73.06-1.43.32-2.89.24-4.31-2.27-.07-4.56-.33-6.86-.33.06 0 .11 0 .17.19z"/><path d="m40.89 56.41c0 3.47.02 5.8.22 9.22 1.8.34 4.08.52 5.91.19.61-1.51.28-3.65.13-5.23-.18-1.89.15-3.79.06-5.65-.93-.31-2.27-.07-3.24-.07s-2.04-.05-3.05 0v.3c0 .37-.04 1.69-.03 1.23z"/><path d="m42.44 32.68c0 2.23-.35 4.49-.31 6.69 1.16-.19 2.4.06 3.6 0 .13-1.04-.06-2.12-.1-3.14-.05-1.19 0-2.37-.07-3.54-.96-.06-2.17-.14-3.12 0z"/><path d="m43.84 11.05c0-1.35.19-2.65.19-4.02 0-1.65.05-3.28.13-4.91.01-.3 0-.6 0-.89 0-.17 0-.89 0-.7"/><path d="m39.76 4.29c2.74-.02 5.48.13 8.23.13"/></g></svg>