<svg viewBox="0 0 130.2 68" xmlns="http://www.w3.org/2000/svg"><path d="m1.8 61.4h23.6v5.7h-23.6z" fill="#003da6"/><path d="m25.4 61.4h28.9v5.7h-28.9z" fill="#d84047"/><g fill="#003da6"><path d="m18.6 47.8c-.5 0-1 .1-1.4.1-3.5 0-5.9-1.6-6.5-2.2-1.3-1.1-2.5-3-2.5-5.7s1.1-4.6 2.7-6c1.5-1.3 3.7-2 6.1-2s1.2 0 1.7.2c1.4.2 3.1.6 5 1.4v-5.7c-2.8-1.1-5-1.4-6.8-1.4-4.4 0-8.1 1.5-10.6 3.7-2.6 2.3-4.4 5.7-4.4 9.8s1.9 7.6 4.4 9.8c2.4 2.1 5.9 3.8 11.2 3.8s3.8-.2 6.3-1.4v-5.7c-2 .8-3.6 1.2-5.1 1.4"/><path d="m35.4 34.2c-1.1 1.1-2.2 3-2.2 5.9s.7 4.3 2.3 5.8c1.6 1.6 3.4 2.1 5.3 2.1s4.3-1 5.5-2.2c1-1 2.1-2.8 2.1-5.8s-1-4.7-2.1-5.8c-1.2-1.2-3.2-2.2-5.4-2.2s-4.1.8-5.4 2.2m14.9-4c2.3 2.4 3.8 5.8 3.8 9.8s-1.2 7-3.8 9.7c-2.3 2.3-5.4 3.8-9.5 3.8s-7.8-1.9-9.6-3.8c-2.4-2.3-3.8-5.8-3.8-9.6s1.6-7.5 3.8-9.8c1.7-1.7 4.7-3.8 9.6-3.8s7.1 1.2 9.5 3.8"/><path d="m64.7 38.8h1.4c1.1 0 2.6-.1 3.6-1.1.4-.4 1-1.2 1-2.5s-.7-2.3-1.2-2.6c-1-.7-2.5-.8-3.3-.8h-1.4v7.1zm3.1-11.8c3.3 0 5.4 1.1 6.6 2.3 1.1 1 2.3 2.9 2.3 5.8s-.4 3.7-2 5.3c-.9.9-2.2 1.6-3.6 2l8 10.6h-7.3l-7-10.2v10.2h-6v-25.9h9.1z"/><path d="m99 32.1h-10v5h8.7v5.1h-8.7v10.8h-6v-26h16z"/><path d="m109.6 34.2c-1.1 1.1-2.2 3-2.2 5.9s.7 4.3 2.3 5.8c1.6 1.6 3.4 2.1 5.3 2.1s4.3-1 5.5-2.2c1-1 2.1-2.8 2.1-5.8s-1-4.7-2.1-5.8c-1.2-1.2-3.2-2.2-5.4-2.2s-4.1.8-5.4 2.2m14.8-4c2.3 2.4 3.8 5.8 3.8 9.8s-1.2 7-3.8 9.7c-2.3 2.3-5.4 3.8-9.5 3.8s-7.8-1.9-9.6-3.8c-2.4-2.3-3.8-5.8-3.8-9.6s1.6-7.5 3.8-9.8c1.7-1.7 4.7-3.8 9.6-3.8s7.1 1.2 9.5 3.8"/><path d="m19.4 6.2c.4.4.6.9.6 1.6s-.2 1.2-.6 1.5c-.4.4-.9.6-1.6.6h-2.1s0 0 0 0v3.3s0 .1-.1.1h-.6s-.1 0-.1-.1v-7.5s0-.1.1-.1h2.9c.6 0 1.2.2 1.6.6zm-.6 2.6c.3-.3.4-.6.4-1.1s-.1-.8-.4-1.1-.6-.4-1.1-.4h-2.1s0 0 0 0v2.9s0 0 0 0h2.1c.4 0 .8-.1 1.1-.4z"/><path d="m24.2 7.8v.1.5c-.1 0-.2 0-.3 0s-.3 0-.4 0h-.1c-.4 0-.7.2-.9.4-.2.3-.4.6-.4 1v3.2s0 .1-.1.1h-.6s-.1 0-.1-.1v-5.3s0-.1.1-.1h.6s.1 0 .1.1v.7s0 0 0 0c.2-.3.4-.5.6-.6s.5-.2.8-.2.5 0 .6.1z"/><path d="m26 13c-.4-.3-.6-.6-.8-1.1-.1-.3-.2-.8-.2-1.4s0-1 .2-1.3c.1-.5.4-.8.8-1.1s.8-.4 1.4-.4 1 .1 1.3.4c.4.3.6.6.8 1.1.1.3.2.8.2 1.4s0 1-.2 1.4c-.1.5-.4.9-.8 1.1-.4.3-.8.4-1.4.4s-1-.1-1.4-.4zm2.3-.6c.2-.2.4-.5.5-.8 0-.3 0-.6 0-1.1s0-.9 0-1.1c0-.3-.3-.6-.5-.8s-.6-.3-.9-.3-.7 0-.9.3c-.2.2-.4.5-.5.8v1.1s0 .9 0 1.1c0 .3.2.6.5.8s.6.3.9.3.7 0 .9-.3z"/><path d="m30.7 15.4v-.4s0-.1.1-.1c.3 0 .5 0 .7-.1.2 0 .3-.2.4-.4s.2-.5.4-1l-1.9-5.4v-.1h.6.1l1.4 4.4s0 0 0 0l1.4-4.4h.1.6s.1 0 0 .1l-2 5.9c-.2.5-.3.9-.5 1.1s-.3.4-.6.5c-.2 0-.6.1-1 .1s0 0 0-.1z"/><path d="m40.2 10.3v.4s0 .1-.1.1h-3.6s0 0 0 0v.8c0 .3.3.6.5.8.3.2.6.3 1 .3s.6 0 .8-.2c.2-.1.4-.3.5-.6h.2l.4.3v.2c-.2.4-.5.6-.8.8-.4.2-.8.3-1.3.3s-1-.1-1.3-.4c-.4-.2-.6-.6-.8-1-.1-.4-.2-.9-.2-1.5s0-.6 0-.8 0-.4 0-.5c.1-.5.4-.9.8-1.1.4-.3.8-.4 1.4-.4s1.2.2 1.5.5c.4.3.6.8.7 1.4v.8zm-3.1-1.7c-.2.2-.4.4-.5.8v.7h2.8s0 0 0 0c0-.3 0-.6 0-.7 0-.3-.2-.6-.5-.8-.2-.2-.6-.3-.9-.3s-.7 0-.9.3z"/><path d="m42.5 13c-.4-.3-.6-.6-.8-1.1 0-.3-.1-.8-.1-1.4s0-1 .1-1.3c.1-.5.4-.8.8-1.1s.8-.4 1.4-.4 1 .1 1.4.4.6.6.8 1v.3.1h-.5v-.2c0-.3-.3-.5-.5-.7s-.6-.3-.9-.3-.7 0-.9.3-.4.5-.5.8v1.1s0 .9 0 1.1c0 .3.2.6.5.8s.6.3.9.3.7 0 .9-.3c.3-.2.4-.4.5-.7s0 0 0 0 0-.1.1 0h.5c0 .1.1.1 0 .2v.2c-.2.4-.4.8-.8 1-.4.3-.9.4-1.4.4s-1-.1-1.4-.4z"/><path d="m49.9 8.4h-1.2s0 0 0 0v3.2c0 .4 0 .6.2.7s.4.2.7.2h.3s.1 0 .1.1v.5s0 .1-.1.1c0 0-.2 0-.4 0-.5 0-.9 0-1.2-.3s-.4-.6-.4-1.1v-3.5s0 0 0 0h-.7s-.1 0-.1-.1v-.4s0-.1.1-.1h.7s0 0 0 0v-1.3s0-.1.1-.1h.5s.1 0 .1.1v1.3s0 0 0 0h1.2s.1 0 .1.1v.4s0 .1-.1.1z"/><path d="m52.1 13c-.4-.3-.6-.6-.8-1.1-.1-.3-.2-.8-.2-1.4s0-1 .2-1.3c.1-.5.4-.8.8-1.1s.8-.4 1.4-.4 1 .1 1.3.4c.4.3.6.6.8 1.1.1.3.2.8.2 1.4s0 1-.2 1.4c-.1.5-.4.9-.8 1.1-.4.3-.8.4-1.4.4s-1-.1-1.4-.4zm2.3-.6c.2-.2.4-.5.5-.8 0-.3 0-.6 0-1.1s0-.9 0-1.1c0-.3-.3-.6-.5-.8s-.6-.3-.9-.3-.7 0-.9.3c-.2.2-.4.5-.5.8v1.1s0 .9 0 1.1c0 .3.2.6.5.8s.6.3.9.3.7 0 .9-.3z"/><path d="m63 8.1c.4.3.5.8.5 1.3v3.7s0 .1-.1.1h-.6s-.1 0-.1-.1v-.5s0 0 0 0c-.2.2-.4.4-.7.5s-.6.2-1 .2c-.5 0-1-.1-1.3-.4-.4-.3-.5-.7-.5-1.2s.2-1 .6-1.3 1-.5 1.7-.5h1.3s0 0 0 0v-.4c0-.4-.1-.7-.3-.9s-.5-.3-1-.3-.6 0-.9.2c-.2.1-.4.3-.4.6 0 0 0 .1-.1 0h-.6s-.1-.1 0-.2c0-.4.3-.7.7-1s.9-.4 1.4-.4 1.2.2 1.5.5zm-.7 4.3c.3-.2.5-.5.5-.9v-.9s0 0 0 0h-1.2c-.5 0-.9 0-1.2.3-.3.2-.4.5-.4.8s.1.6.3.7.5.2.9.2.8-.1 1.1-.3z"/><path d="m69.6 10.5c0 .6 0 1-.1 1.4-.1.5-.4.8-.7 1.1s-.8.4-1.3.4-.6 0-.8-.2c-.2-.1-.4-.3-.6-.5v2.6s0 .1-.1.1h-.6s-.1 0-.1-.1v-7.5s0-.1.1-.1h.6s.1 0 .1.1v.5s0 0 0 0c.2-.2.4-.4.6-.5s.5-.2.8-.2c.5 0 .9.1 1.3.4.3.3.6.6.7 1.1.1.4.2.8.2 1.4zm-.8.8c0-.2 0-.5 0-.8s0-.6 0-.8 0-.4-.2-.5c0-.3-.2-.5-.5-.6-.2-.2-.5-.2-.8-.2s-.5 0-.7.2-.3.4-.4.6c0 .1-.1.3-.1.5v.8s0 .6 0 .8 0 .4.2.5c0 .2.2.4.4.6s.4.2.7.2.5 0 .8-.2c.2-.1.4-.3.5-.6 0-.2.1-.3.2-.5z"/><path d="m72 13c-.4-.3-.6-.6-.8-1.1-.1-.3-.2-.8-.2-1.4s0-1 .2-1.3c.1-.5.4-.8.8-1.1s.8-.4 1.4-.4 1 .1 1.3.4c.4.3.6.6.8 1.1.1.3.2.8.2 1.4s0 1-.2 1.4c-.1.5-.4.9-.8 1.1-.4.3-.8.4-1.4.4s-1-.1-1.4-.4zm2.2-.6c.2-.2.4-.5.5-.8 0-.3 0-.6 0-1.1s0-.9 0-1.1c0-.3-.3-.6-.5-.8-.3-.2-.6-.3-.9-.3s-.7 0-.9.3c-.2.2-.4.5-.5.8v1.1s0 .9 0 1.1c0 .3.2.6.5.8s.6.3.9.3.7 0 .9-.3z"/><path d="m76.7 15.4v-.4s0-.1.1-.1c.3 0 .5 0 .7-.1.2 0 .3-.2.4-.4s.2-.5.4-1l-1.9-5.4v-.1h.6.1l1.4 4.4s0 0 0 0l1.4-4.4h.1.6s.1 0 0 .1l-2 5.9c-.2.5-.3.9-.5 1.1s-.3.4-.6.5c-.2 0-.6.1-1 .1s0 0 0-.1z"/><path d="m85.4 8.1c.4.3.5.8.5 1.3v3.7s0 .1-.1.1h-.6s-.1 0-.1-.1v-.5s0 0 0 0c-.2.2-.4.4-.7.5s-.6.2-1 .2c-.5 0-1-.1-1.3-.4-.4-.3-.5-.7-.5-1.2s.2-1 .6-1.3 1-.5 1.7-.5h1.3s0 0 0 0v-.4c0-.4-.1-.7-.3-.9s-.5-.3-1-.3-.6 0-.9.2c-.2.1-.4.3-.4.6 0 0 0 .1-.1 0h-.6s-.1-.1 0-.2c0-.4.3-.7.7-1s.9-.4 1.4-.4 1.2.2 1.5.5zm-.7 4.3c.3-.2.5-.5.5-.9v-.9s0 0 0 0h-1.2c-.5 0-.9 0-1.2.3-.3.2-.4.5-.4.8s.1.6.3.7c.2.2.5.2.9.2s.8-.1 1.1-.3z"/><path d="m91.1 5.6h.6s.1 0 .1.1v7.5s0 .1-.1.1h-.6s-.1 0-.1-.1v-.5s0 0 0 0c-.2.2-.4.4-.6.5s-.5.2-.8.2c-.5 0-.9-.1-1.3-.4-.3-.3-.6-.6-.7-1.1-.1-.3-.2-.8-.2-1.4s0-1.1.1-1.4c.1-.5.4-.8.7-1.1.4-.3.8-.4 1.3-.4s.5 0 .8.2.4.3.6.5v-2.6s0-.1.1-.1zm-.1 5.7c0-.2 0-.5 0-.8s0-.6 0-.8 0-.4-.2-.5c0-.2-.2-.4-.4-.6s-.4-.2-.7-.2-.5 0-.8.2-.4.3-.5.6c0 .2-.2.3-.2.5v.8s0 .6 0 .8 0 .4.2.5c0 .3.2.5.5.6.2.2.5.2.8.2s.5 0 .7-.2.3-.4.4-.6c0-.1.1-.3.1-.5z"/><path d="m94.3 13c-.4-.3-.6-.6-.8-1.1-.1-.3-.2-.8-.2-1.4s0-1 .2-1.3c.1-.5.4-.8.8-1.1s.8-.4 1.4-.4 1 .1 1.3.4c.4.3.6.6.8 1.1.1.3.2.8.2 1.4s0 1-.2 1.4c-.1.5-.4.9-.8 1.1-.4.3-.8.4-1.4.4s-1-.1-1.4-.4zm2.3-.6c.2-.2.4-.5.5-.8 0-.3 0-.6 0-1.1s0-.9 0-1.1c0-.3-.3-.6-.5-.8-.3-.2-.6-.3-.9-.3s-.7 0-.9.3c-.2.2-.4.5-.5.8v1.1s0 .9 0 1.1c0 .3.2.6.5.8s.6.3.9.3.7 0 .9-.3z"/><path d="m106.3 10.5c0 .6 0 1-.1 1.4-.1.5-.4.8-.7 1.1s-.8.4-1.3.4-.6 0-.8-.2c-.2-.1-.4-.3-.6-.5v2.6s0 .1-.1.1h-.6s-.1 0-.1-.1v-7.5s0-.1.1-.1h.6s.1 0 .1.1v.5s0 0 0 0c.2-.2.4-.4.6-.5s.5-.2.8-.2c.5 0 .9.1 1.3.4.3.3.6.6.7 1.1.1.4.2.8.2 1.4zm-.9.8c0-.2 0-.5 0-.8s0-.6 0-.8 0-.4-.2-.5c0-.3-.2-.5-.5-.6-.2-.2-.5-.2-.8-.2s-.5 0-.7.2-.3.4-.4.6c0 .1-.1.3-.1.5v.8s0 .6 0 .8 0 .4.2.5c0 .2.2.4.4.6s.4.2.7.2.5 0 .8-.2c.2-.1.4-.3.5-.6 0-.2.1-.3.2-.5z"/><path d="m108.6 13c-.4-.3-.6-.6-.8-1.1-.1-.3-.2-.8-.2-1.4s0-1 .2-1.3c.1-.5.4-.8.8-1.1s.8-.4 1.4-.4 1 .1 1.3.4c.4.3.6.6.8 1.1.1.3.2.8.2 1.4s0 1-.2 1.4c-.1.5-.4.9-.8 1.1-.4.3-.8.4-1.4.4s-1-.1-1.4-.4zm2.3-.6c.2-.2.4-.5.5-.8 0-.3 0-.6 0-1.1s0-.9 0-1.1c0-.3-.3-.6-.5-.8-.3-.2-.6-.3-.9-.3s-.7 0-.9.3c-.2.2-.4.5-.5.8v1.1s0 .9 0 1.1c0 .3.2.6.5.8s.6.3.9.3.7 0 .9-.3z"/><path d="m116.7 7.8v.1.5c-.1 0-.2 0-.3 0s-.3 0-.4 0h-.1c-.4 0-.7.2-.9.4-.2.3-.4.6-.4 1v3.2s0 .1-.1.1h-.6s-.1 0-.1-.1v-5.3s0-.1.1-.1h.6s.1 0 .1.1v.7s0 0 0 0c.2-.3.3-.5.6-.6s.5-.2.8-.2.5 0 .6.1z"/></g></svg>