<svg viewBox="0 0 72 72" xmlns="http://www.w3.org/2000/svg"><path d="m7.5 25v22c0 9.6 7.8 17.5 17.5 17.5h22c9.6 0 17.5-7.8 17.5-17.5v-22c0-9.6-7.8-17.5-17.5-17.5h-22c-9.6 0-17.5 7.8-17.5 17.5m5.7.8c0-6.9 5.6-12.6 12.6-12.6h20.4c6.9 0 12.6 5.6 12.6 12.6v20.4c0 6.9-5.6 12.6-12.6 12.6h-20.4c-6.9 0-12.6-5.6-12.6-12.6zm15 10.2c0 4.3 3.5 7.8 7.8 7.8s7.8-3.5 7.8-7.8-3.5-7.8-7.8-7.8-7.8 3.5-7.8 7.8m-5.2 0c0-7.1 5.8-13 13-13s13 5.8 13 13-5.8 13-13 13-13-5.8-13-13m27.6-18.1c1.8 0 3.3 1.5 3.3 3.3s-1.5 3.3-3.3 3.3-3.3-1.5-3.3-3.3 1.5-3.3 3.3-3.3" fill="#901441"/></svg>