<svg viewBox="0 0 72 72" xmlns="http://www.w3.org/2000/svg"><g fill="#901441"><path d="m39.7 62.1-1.3-3.7c-1 1.6-2.1 3.1-3.3 4.4 0 .1-.2.2-.3.3-.5 0-1 0-1.5 0h-1.5c0-.1-.2-.2-.3-.3-2.8-3.3-5.2-7.2-6.8-11.7 2.8-.6 5.6-.8 8.6-.8s1.5 0 2.3 0l-1.3-3.9h-.9c-3.4 0-6.7.3-9.8 1-.8-3.1-1.4-6.5-1.5-10h9.1l-.6-1.8c-.2-.6-.3-1.3-.3-2h-8.3c.1-3.5.6-6.8 1.5-10 3.1.6 6.4 1 9.8 1s6.7-.3 9.8-1c.6 2.2 1 4.6 1.3 7l4 1.4c-.2-3.2-.8-6.3-1.5-9.3 3-.8 5.8-2 8.5-3.4 0 0 .2 0 .3-.1 3 4.1 4.9 9 5.3 14.4h-7.8l11.2 3.9c.1 0 .3.1.5.2 0-.7 0-1.5 0-2.2 0-17.4-14.1-31.5-31.5-31.5s-31.5 14.2-31.5 31.5 14.1 31.4 31.5 31.4 6.6-.6 9.6-1.5c-1.5-.6-2.7-1.8-3.3-3.3m13.3-45.9s-.2.1-.3.1c-2.2 1.1-4.6 2-7.1 2.7-1.3-3.6-3-6.9-5.1-9.8 0-.1-.2-.3-.3-.4 4.9 1.2 9.2 3.9 12.7 7.4m-21-8.1h1.5s1 0 1.5 0c0 0 .2.2.3.3 2.8 3.3 5.2 7.2 6.8 11.7-2.8.6-5.6.8-8.6.8s-5.8-.3-8.6-.8c1.7-4.4 4-8.4 6.8-11.7.2-.1.3-.3.4-.3m-5.7.8c0 .1-.2.3-.3.4-2.1 2.9-3.8 6.2-5.1 9.9-2.5-.7-4.9-1.6-7.1-2.7 0 0-.2 0-.3-.1 3.5-3.5 7.8-6.2 12.7-7.4m-15.1 10.2s.2 0 .3.1c2.6 1.4 5.5 2.5 8.5 3.4-.9 3.5-1.5 7.1-1.6 10.9h-12.4c.3-5.4 2.3-10.3 5.3-14.4m-.1 32.7c-3-4.1-4.9-9-5.3-14.4h12.4c.1 3.7.7 7.4 1.6 10.9-3 .8-5.8 2-8.5 3.4-.1 0-.2 0-.3 0m2.6 3.1s.2 0 .3-.1c2.2-1.1 4.6-2 7.1-2.7 1.3 3.6 3 6.9 5.1 9.9 0 .1.2.3.3.4-4.9-1.4-9.2-4-12.7-7.4"/><path d="m69.5 60.3-12.9-12.9 6.3-3.2c1-.6 1-2.1-.1-2.5l-26.4-9.2c-1-.3-2.1.6-1.7 1.7l9.2 26.4c.4 1.1 1.9 1.2 2.5.1l3.2-6.3 12.9 12.9c.6.6 1.4.6 1.9 0l5.2-5.2c.6-.5.6-1.3 0-1.9"/></g></svg>