<?xml version="1.0" encoding="UTF-8"?>
<svg id="Capa_1" xmlns="http://www.w3.org/2000/svg" version="1.1" viewBox="0 0 290 110">
  <!-- Generator: Adobe Illustrator 29.3.1, SVG Export Plug-In . SVG Version: 2.1.0 Build 151)  -->
  <defs>
    <style>
      .st0 {
        fill: #4f4c4d;
      }
    </style>
  </defs>
  <g>
    <g>
      <path class="st0" d="M162.7,35.7h-1.8v1.4h0c0,.1,1.8.1,1.8.1h0s0,0,0,0v-1.5Z"/>
      <rect class="st0" x="158.3" y="35.7" width="1.8" height="1.6"/>
      <path class="st0" d="M163.6,39.7h1.8s0,0,0,0h0v-1.7h-1.8v1.7Z"/>
      <path class="st0" d="M155.6,39.7h1.8v-1.7h0s-1.8,0-1.8,0v1.7Z"/>
      <path class="st0" d="M166.2,40.5h0v1.8h1.8v-1.8h-1.8Z"/>
      <path class="st0" d="M152.9,40.6v1.8h1.8v-1.8h0s0,0,0,0h-1.8Z"/>
    </g>
    <g>
      <path class="st0" d="M160.9,39.6h0c0,0,1.8,0,1.8,0v-1.7h-1.8v1.6Z"/>
      <path class="st0" d="M158.3,39.7h1.8v-1.7h-1.8v1.7Z"/>
      <rect class="st0" x="163.6" y="40.4" width="1.8" height="1.7"/>
      <path class="st0" d="M155.6,40.5v1.8h1.8v-1.8h-1.8Z"/>
      <path class="st0" d="M166.3,43h0v1.4c.6-.3,1.2-.5,1.9-.6v-.8h-1.8Z"/>
      <path class="st0" d="M152.9,43.8c.6.2,1.2.4,1.8.6v-1.3h-1.8v.7Z"/>
    </g>
    <g>
      <path class="st0" d="M182.7,67.1c-.6,0-1.2.5-1.2,1.2s.5,1.2,1.2,1.2,1.2-.5,1.2-1.2-.5-1.2-1.2-1.2Z"/>
      <path class="st0" d="M170.1,75.2c-.6,0-1.2.5-1.2,1.2s.5,1.2,1.2,1.2,1.2-.5,1.2-1.2-.5-1.2-1.2-1.2Z"/>
      <path class="st0" d="M153.6,75.2c-.8,0-1.4.6-1.4,1.4s.6,1.4,1.4,1.4,1.4-.6,1.4-1.4-.6-1.4-1.4-1.4Z"/>
      <path class="st0" d="M138.1,63.2c-1,0-1.8.8-1.8,1.8s.8,1.8,1.8,1.8,1.8-.8,1.8-1.8-.8-1.8-1.8-1.8Z"/>
      <path class="st0" d="M134.3,39.4c-1,0-1.8.8-1.8,1.8s.8,1.8,1.8,1.8,1.8-.8,1.8-1.8-.8-1.8-1.8-1.8Z"/>
    </g>
    <g>
      <path class="st0" d="M241.6,55.2c1.5-.6,2.5-1.8,2.5-4,0-3.7-2.9-4.5-6.1-4.5h-3.6v16.8h2.1v-7.7h1.3c2.5,0,3.1.7,4,3.4.8,2.7.9,3,.9,3,.3,1,.9,1.6,2.7,1.6,0,0-1.1-3-1.6-4.8-.4-1.5-1.3-2.9-2.3-3.7ZM238.4,54.2h-1.9v-6h1.7c2.8,0,3.8.5,3.8,2.9s-1.1,3-3.6,3Z"/>
      <path class="st0" d="M251.1,50.9c-2.7,0-5.1,1.6-5.1,6.2s2.8,6.6,4.8,6.6,3.7-.6,3.9-.7l-.5-1.3s-1.1.6-2.1.6c-3.6,0-4-1.9-4-5.1h6c.9,0,1.7-.6,1.7-1.3,0-3.7-2.3-5.1-4.8-5.1ZM252.7,55.8h-4.5c0-2.1.7-3.4,2.9-3.4s2.5,1,2.7,2.6c0,.5-.1.8-1,.8Z"/>
      <path class="st0" d="M264.9,51.7c-.7-.5-1.6-.8-2.6-.8-2.6,0-4.9,1.7-4.9,6.2s2.7,6.5,4.9,6.5,1.8-.2,2.7-.7c.2.3.6.6,1,.6h1v-16.8h-2.1v5ZM264.9,61.5c-.5.2-1.7.7-2.2.7-2.8,0-3.1-1.7-3.1-5.1s0-4.7,2.8-4.7,2.4.7,2.6,2.3v6.8Z"/>
      <path class="st0" d="M273.6,50.9c-2.7,0-5.1,1.6-5.1,6.2s2.8,6.6,4.8,6.6,3.7-.6,3.9-.7l-.5-1.3s-1.1.6-2.1.6c-3.6,0-4-1.9-4-5.1h6c.9,0,1.7-.6,1.7-1.3,0-3.7-2.3-5.1-4.8-5.1ZM275.3,55.8h-4.5c0-2.1.7-3.4,2.9-3.4s2.5,1,2.7,2.6c0,.5-.1.8-1,.8Z"/>
      <path class="st0" d="M283.9,56.3c-2-.5-2.5-.8-2.5-1.7,0-1.6.4-2.2,2.5-2.2s2.4.6,2.7,1.4l1.8-.6c-.4-1-1.3-2.2-4.4-2.2s-4.4,1.9-4.4,3.5c0,2.4,1.6,3,4.3,3.6,2.1.5,2.6.9,2.6,2.1,0,1.7-.5,2.2-2.6,2.2s-2.2-.6-2.6-1.2l-1.6.6c.7,1.5,2.2,2,4.2,2,4,0,4.7-2,4.7-3.5,0-2.6-1.9-3.4-4.6-4Z"/>
      <rect class="st0" x="160.9" y="40.4" width="1.8" height="1.7"/>
      <path class="st0" d="M158.2,42.2h1.8v-1.7h-1.8v1.7s0,0,0,0h0Z"/>
      <path class="st0" d="M165.5,43h-1.9v1.8h1.9v-1.8Z"/>
      <path class="st0" d="M162.8,44.7v-1.7h-1.9v1.6h0c0,.1,1.9.1,1.9.1h0Z"/>
      <rect class="st0" x="158.2" y="43" width="1.9" height="1.8"/>
      <path class="st0" d="M157.3,44.8v-1.8h-1.9v1.7c0,0,.1,0,.2,0h1.7Z"/>
      <path class="st0" d="M162.8,45.6h-1.9v1.8c.3-.2.9-.6,1.9-1.2v-.6Z"/>
      <path class="st0" d="M160,45.6h-1.9v.5c.9.5,1.5.9,1.9,1.2v-1.7Z"/>
      <path class="st0" d="M134.3,44h0c-.5,0-.9,0-1.2-.2-1.4,6.7-.2,13.4,2.8,19.1.3-.4.7-.6,1.2-.8-2.9-5.4-3.9-11.8-2.8-18.1Z"/>
      <path class="st0" d="M140.3,66.8c-.3.4-.7.6-1.2.8,3.2,3.9,7.4,7,12.5,8.8,0-.4.1-.8.3-1.2-4.7-1.8-8.6-4.7-11.7-8.4Z"/>
      <path class="st0" d="M155.6,76.4c0,.4,0,.8-.1,1.1,4.3.9,8.7.8,12.8-.3-.1-.2-.2-.5-.2-.8-4,.9-8.3.9-12.5,0Z"/>
      <path class="st0" d="M171.8,75.3c.1.2.2.4.2.6,3.5-1.4,6.7-3.5,9.4-6.2,0,0-.2-.2-.3-.2-2.7,2.5-5.9,4.5-9.3,5.8Z"/>
    </g>
    <g>
      <path class="st0" d="M193.1,54.4c1-.7,1.8-1.7,1.8-3.8,0-3.3-3.2-3.9-5.5-3.9h-4.3v15.6c.3.5,1.8,1.2,2.9,1.2h1.5c3,0,6.1-.9,6.1-4.7s-1.3-3.9-2.6-4.4ZM187.4,48.3h2.7c1.1,0,2.9.2,2.9,2.3s-.7,3.2-2.6,3.2h-3v-5.5ZM189.6,61.9h-2.2v-6.6h2.6c2.7,0,3.5.8,3.5,3.4s-1.1,3.1-4,3.1Z"/>
      <rect class="st0" x="197.6" y="47.1" width="2.4" height="2.1"/>
      <path class="st0" d="M199.8,51.2h-3.1v1.5h1v5.7c0,3,.5,4.6,1.4,5.8l1.6-1c-.7-.9-.9-2.6-.9-4.7v-7.2Z"/>
      <path class="st0" d="M207,50.9c-1,0-2,.3-2.8.8v-5.1c-1.3,0-2.1.5-2.1,1.6v15.2h5.1c1.9,0,4.7-.8,4.7-6.4s-2.3-6.1-5-6.1ZM205.9,62.1h-1.6v-5.2c0-3.2.2-4.6,2.8-4.6s2.9,1.6,2.9,4.7-.5,5-4,5Z"/>
      <path class="st0" d="M215.8,58.6v-12.1c-1.3,0-2.1.7-2.1,1.8v10.2c0,3,.7,4.8,1.9,5.8l1.6-1.1c-1.2-1-1.4-2.5-1.4-4.6Z"/>
      <rect class="st0" x="218.7" y="47.1" width="2.4" height="2.1"/>
      <path class="st0" d="M220.9,51.2h-3.1v1.5h1v5.7c0,3,.5,4.6,1.4,5.8l1.6-1c-.7-.9-.9-2.6-.9-4.7v-7.2Z"/>
      <path class="st0" d="M227.9,50.9c-2.6,0-4.9,1.5-4.9,6.1v.7c0,4.6,2.3,6,4.9,6s5-1.5,5-6v-.7c0-4.6-2.4-6.1-5-6.1ZM230.7,57.7c0,3,0,4.6-2.8,4.6s-2.7-1.5-2.7-4.6v-.7c0-3,.1-4.6,2.7-4.6s2.8,1.5,2.8,4.6v.7Z"/>
      <rect class="st0" x="166.6" y="68.6" width="2.1" height="1"/>
      <path class="st0" d="M160.6,53.2v11.3h0v2.1s0,0,0,0v2.1h0v2.1h4v-2.1h2.1v-2.1s2.1,0,2.1,0v2.1h2.1s0-1,0-1h2.1v-1h-2v-2.1h2.1v2.1h2.3l3.8-20.2s-6.4.3-11.6,3c-5.2,2.6-6.7,4-6.7,3.9ZM164.5,68.6h-2.1v-2.1h2.1v2.1Z"/>
    </g>
    <g>
      <rect class="st0" x="158.5" y="66.5" width="2.1" height="2.1"/>
      <rect class="st0" x="156.4" y="68.6" width="2.1" height="2.1"/>
      <path class="st0" d="M166.8,45.6c-4.8,2.4-6.2,3.7-6.2,3.6,0,0-1.4-1.2-6.2-3.7-4.8-2.4-10.7-2.7-10.7-2.7l.4,1.9c2.3.3,6.3,1,9.8,2.8,5.2,2.6,6.7,4,6.7,4,0,0,1.5-1.3,6.7-3.9,3.5-1.8,7.6-2.5,9.9-2.8l.4-1.9s-5.9.3-10.8,2.7Z"/>
      <path class="st0" d="M142.2,46.3l3.7,18.1h2.3v2.1s2.1,0,2.1,0v-2.1h2.1v-2.1h2.1v2.1h-2.1v2.1h-2.1v2.1h2.1s0,1,0,1h2.1s0-1,0-1h2.1v-2.1h2.1v-2.1h2.1v-11.3s-1.5-1.4-6.7-4c-5.2-2.6-11.6-2.9-11.6-2.9Z"/>
    </g>
  </g>
  <g>
    <g>
      <path class="st0" d="M29.8,24.5v1.6c.3-.7.2-1.2,0-1.6"/>
      <path class="st0" d="M32.8,16s0-.2.2-.2c.2,0,.5.2.5.3,0,.2-.1.7.5.8,0,0,0,.1,0,.2h0c0,.1,0,.2,0,.3h.1c.9,0,1.3,0,1.6-.3,0,0,.1-.2.2-.3.2-.4.2-.8.1-1.2h0c0,0,0-.2,0-.2-.2-.3-.7-.8-1.3-1h-.1s0,0,0,0h0s0,0,0,0h.1c.5,0,1.2.5,1.4,1,.1,0,.3-.4.3-.6h0s0-.3.1-.6c0,0,0-.2,0-.2,0,0-.1,0-.2,0-.1.2-.4.1-.3-.1,0,0,0-.2,0-.2,0,0-.2,0-.2,0-.1.2-.4.1-.3-.1,0,0,0-.2,0-.2,0,0-.2,0-.2,0-.1.2-.4.1-.3-.1,0,0,0-.2,0-.2,0,0-.2,0-.2,0,0,.2-.2.3-.2.4.5.1,1,.4,1.4.7l.2.2h0s0,0,0,0h0c0,0,0,0,0,0,0,0-.1-.1-.2-.2-.6-.5-1.1-.7-1.5-.7-.3,0-.2.3-.2.5-.5-.1-.8.2-.8.6,0,.1,0,.2,0,.4h0s0,0-.1-.1c0,0,0-.2,0-.2-.4,0-.7.2-.7.6,0,.2.3.5.3.5M34.2,15.5c0-.1.1.4.5.2-.3.3-.7,0-.5-.2M34.1,15.2c.2,0,.3-.4.5-.2.1,0,.2.2.3.3.1,0,.3.2.3.3,0,.1-.1.5-.3.2-.1-.2-.3-.6-.6-.5-.2.1-.4.3-.5.1,0,0,.2,0,.3-.1M33.1,15.3c0,.1-.3.1-.3.3-.2-.2.1-.5.3-.3"/>
      <path class="st0" d="M43.2,32c-.3-.3-1-.2-1-.2.4-1.1-.7-1.4-.7-1.4-.4,0-.6,0-.8,0h0s0,0,0,0h0c0,.2-.1.3-.1.4,0,.3.2.5.5.5s.2,0,.3,0c.1,0,.2-.2.2-.3.1,0,.2.2.2.2.3.9-.8,1.3-.8,1.3-2.3.7-3.8-.5-3.8-.5l.4-.2c.1,0,.3,0,.4,0h0c0,.3.2.5.5.5s.5-.2.5-.5,0-.2,0-.2h0s0,0,0,0c-.3-.4-1.2-.1-1.2-.1.3-.8,0-1.3,0-1.3-.2-.3-.1-.4-.1-.4,0-.3,0-.3,0-.3-.1-.2-.4,0-.4,0-.4,0-.5,0-.5,0-.3-.2-.5,0-.5,0-.1,0,0,.3,0,.3-.3,0-.4.4-.4.4-.1.7.5.8.5.8.4,0,.4-.3.4-.3,0-.3-.4-.3-.4-.3,0-.2.2-.2.2-.2.5-.1.7.4.7.4.4.6-.1,1.2-.1,1.2,0,0-.2,0-.2,0-.3-.1-.7-.4-.7-.4h0s-.2,0-.2,0c-.2,0-.4,0-.5.1.2.2.8.7.8.7-.5.4-.7.1-.7.1-.2-.2-.2-.6-.1-.8h0c-.2.1-.4.2-.6.3.2.4.6,1,.6,1-.5.2-.7-.5-.7-.9-.1,0-.2,0-.3.1,0,0,0,.2,0,.2,0,.4.4.9.4.9-.4,0-.6.2-.6.2-.2.2-.2.5-.2.6,0,.1.1.3.3.3s.3-.1.3-.3-.1-.3-.3-.3c.1-.3.4,0,.4,0,.4.4-.2.8-.2.8-.5.3-.9-.3-.9-.3.5-.9.6-1.5.6-1.8-.2,0-.3.1-.5.2.2.8-.3,1.2-.3,1.2-.2-.1-.2-.5-.2-.5,0-.2-.1-.4-.2-.5-.1,0-.3,0-.4.1.2.5.2,1.2.2,1.2,0,.1-.3.1-.3.1-.4,0-.2-.2-.2-.2.2-.2.1-.3.1-.3-.1-.3-.5,0-.5,0-.6.3-.4.6-.4.6,0,.2.6.4.6.4-.3.2-.9.1-1,.1,0-.2-.1-.3-.3-.3h0c-.2,0-.3,0-.4.1h0c0,.1-.3,0-.3,0-.2,0-.4-.7-.4-1.3,0,0-.2,0-.3,0,0,.6.2,1.2.2,1.2-.1,0-.6-.4-.6-.4-.6-.4-1.1-.3-1.1-.3-.3,0-.6.3-.6.7s.3.7.7.7.7-.3.7-.7c.2.1.5.2.5.2.6.4,1.2.4,1.3.4,0,.2.2.4.5.4s.3-.1.4-.3c1.3,0,1.8-.6,1.8-.6.1-.2.2,0,.2,0,.5.7,1.4.3,1.4.3.2,0,.2,0,.2,0,.2.3.5.1.5.1.4-.2.1-.4.1-.4-.1-.1,0-.1,0-.1.4,0,.5-.2.5-.2,0-.2-.2-.4-.2-.4,0-.1,0-.2,0-.2.3-.1.2-.3.2-.3.3,0,.3-.1.3-.1,0-.1-.4-.1-.4-.1-.3,0-.3-.2-.3-.2.5,0,1.2-.2,1.2-.2,1,.8,2.6,1,2.6,1,0,.2,0,.4,0,.4h0c-.1,0-.2.1-.2.2s.1.2.2.2h0c.5-.1.5-.9.5-.9,1.4.1,2.4-.9,2.4-.9.1-.1.2,0,.2,0h0c0,0,.2.2.3.2s.3,0,.3-.2c0,0,0-.2,0-.2h0c0-.2,0-.3,0-.3"/>
      <path class="st0" d="M26.2,33.8c.1,0,.2-.2.2-.2,0-.4-.3-.6-.3-.6-.2,0-.3,0-.5,0h0c-.2,0-.3,0-.5,0,0,0-.3.2-.3.6,0,0,0,.2.2.2,0,0-.4.2-.4.4,0,0,0,.2.3.4,0,0,.2.3.3.5,0,0,0,.3.4.3s.4-.3.4-.3c0-.2.3-.5.3-.5.3-.3.3-.4.3-.4,0-.2-.4-.4-.4-.4"/>
      <polygon class="st0" points="28.8 32.2 29 32.2 28.9 32 28.8 32.2"/>
      <polygon class="st0" points="22.6 32.3 22.8 32.3 22.7 32 22.6 32.3"/>
      <path class="st0" d="M21.9,31.7h0s0,.3,0,.3c0,0,.1,0,.1,0h0s0-.1,0-.1h0c0-.1,0-.2-.1-.2"/>
      <path class="st0" d="M24.6,32c0,0-.1,0-.1,0,0,0,0,.1,0,.2,0,.1,0,.2,0,.3,0,0,0,0,.1,0,0,0,.1,0,.2,0,0,0,0-.1,0-.2,0-.1,0-.2,0-.2,0,0,0,0-.1,0"/>
      <path class="st0" d="M26.9,32c0,0-.1,0-.1,0,0,0,0,.1,0,.2,0,.1,0,.2,0,.3,0,0,0,0,.1,0,0,0,.1,0,.1,0,0,0,0-.1,0-.3,0-.1,0-.2,0-.2,0,0,0,0-.1,0"/>
      <polygon class="st0" points="20.5 32 20.7 32 20.7 31.7 20.5 32"/>
      <path class="st0" d="M17,30.5v.3c-.1,0,0,0,0,0,0,0,0,0,.1,0h0c0,0,0-.2,0-.2h0c0,0,0-.1,0-.1Z"/>
      <path class="st0" d="M17.7,30.9s0,.1-.1.2c0,.1,0,.2,0,.3,0,0,0,0,.1.1,0,0,.1,0,.2,0,0,0,0-.1.1-.2,0-.1,0-.2,0-.2,0,0,0-.1-.1-.1,0,0-.1,0-.2,0"/>
      <path class="st0" d="M18.7,31.1h0s0,.3,0,.3c0,0,.1,0,.1,0h0s0-.1,0-.1h0c0-.1,0-.2-.1-.2"/>
      <path class="st0" d="M32.7,31.1s0,0-.1,0h0s0,.3,0,.3c0,0,.1,0,.1,0h0c0,0,0-.1,0-.1h0Z"/>
      <polygon class="st0" points="34.2 31 34.4 31 34.2 30.8 34.2 31"/>
      <path class="st0" d="M34.7,30c0,0-.2,0-.2,0-.3,0-3.6,1.5-8.9,1.5-5.3,0-8.6-1.4-8.9-1.5,0,0,0,0-.2,0s-.2,0-.3,0l-1.1.9h0c.3,0,.7.2.7.2,2.8,1.2,6.1,1.8,9.7,1.8,3.6,0,6.9-.5,9.7-1.8,0,0,.4-.2.7-.2h0l-1.1-.9c0,0-.2,0-.3,0M24.6,31.7h.2s-.3.2-.3.2h0v-.2ZM17.3,30.8h0c0,.1-.1.1-.1.1,0,0-.1,0-.2,0h0s0,.2,0,.2h0c0,0,0,.1,0,.1h0s0,0,0,0h-.4c0-.1,0-.2,0-.2h0s0,0,0,0h0c0,0,.2-.5.2-.5h0c0,0,0-.1,0-.1h0s0,0,0,0h.3c0,.1.1.1.2.2h0c0,0,0,.2,0,.2h0M18.2,31.3c0,.1,0,.2-.2.2,0,0-.2,0-.3,0,0,0-.2,0-.2-.1,0,0,0-.1,0-.2,0,0,0-.1,0-.2,0,0,0-.1.1-.2,0,0,.1,0,.2,0,0,0,.1,0,.2,0,.1,0,.2.1.3.2,0,0,0,.2,0,.3M18.9,31.7c0,0,0,.1,0,.1h0s0,0,0,0h-.2c0,0,0-.2,0-.3,0,0,0,0,0-.1h0s0,0,0,0v.2s0,0,0,0h0s0,0,0,0h0c0,0-.4,0-.4,0h0c0,0,0,0,0,0h0s0,0,0,0v-.4c.1,0,.1,0,.1,0h0s0,0,0,0h0c0,0,.3,0,.3,0h0c0,0,.1,0,.1,0h0c0,0,0,.1,0,.1h0c0,.2,0,.2-.2.2,0,0,0,0,0,.2M20.2,32.2h-.7c0-.1,0-.2,0-.2h0s0,0,0,0v-.4c0,0,0,0,0,0h0s0,0,0,0h0c0,0,.4,0,.4,0h0c0,0,0,0,0,0h0s0,0,0,0v.4c0,0,0,0,0,0h0s0,0,0,0c0,0,.1,0,.2,0,0,0,0,0,0-.1h0s0,.3,0,.3ZM21,32.3h-.4c0,0,0-.1,0-.1h0s0,0,0,0h0s0,0,0,0h0c0,0-.2-.1-.2-.1h0s0,0,0,0h0s0,0,0,0h0c0,0-.2,0-.2,0h0s0,0,.1-.2l.3-.5h0s.1.6.1.6c0,0,0,.1,0,.1h0s0,0,0,0ZM22.3,32.5h-.2c0,0,0-.1,0-.2,0,0,0,0,0-.1h0s0,0,0,0v.2s0,0,0,0h0s0,0,0,0h0c0,0-.4,0-.4,0h0c0,0,0,0,0,0h0s0,0,0,0v-.4c0,0,0,0,0,0h0s0,0,0,0h0c0,0,.3,0,.3,0h0c0,0,.1,0,.1,0h0s0,.1,0,.1h0c0,.2,0,.2-.2.3,0,0,0,0,.1.2,0,0,0,.1,0,.1h0s0,0,0,0ZM23.1,32.6h-.4s0,0,0,0h0s0,0,0,0h0s0,0,0,0h0c0,0-.2,0-.2,0h0s0,0,0,0h0s0,0,0,0h0c0,0-.3,0-.3,0h0c0,0,0,0,.1-.2l.3-.6h0s.2.6.2.6c0,0,0,0,0,.1h0s0,0,0,0ZM24,31.9l-.5.6h.2s.1,0,.1,0h0s0-.1,0-.1h0s0,.2,0,.2h-.7c0,0,0,0,0,0l.5-.6h-.1c0,0-.1,0-.2,0,0,0,0,0,0,.1h0s0-.2,0-.2h.6s0,0,0,0ZM24.9,32.6c0,0-.2.1-.3.1,0,0-.2,0-.2,0,0,0-.1,0-.1-.2,0,0,0-.1,0-.2,0,0,0-.1,0-.2,0,0,0-.1.2-.1,0,0,.1,0,.2,0,.1,0,.2,0,.3.1,0,0,.1.2.1.3,0,.1,0,.2-.1.3M26,32h0s0,0,0,0h0c0,0,0,.7,0,.7h0l-.5-.6v.3c0,0,0,0,0,.1h0c0,0-.3,0-.3,0h0c0,0,0,0,0,0h0s0-.1,0-.1v-.4c0,0,0-.1-.1-.1h0c0,0,.3,0,.3,0l.4.5v-.3c0,0,0-.1-.1-.1h0c0,0,.3,0,.3,0h0ZM27.2,32.5c0,0-.2.1-.3.1,0,0-.2,0-.2,0,0,0-.1,0-.2-.1,0,0,0-.1,0-.2,0,0,0-.1,0-.2,0,0,0-.1.1-.1,0,0,.1,0,.2,0,.1,0,.2,0,.3.1,0,0,.1.2.1.3,0,.1,0,.2-.1.3M27.9,32.6h0c0,0,0,0,0,0h0s0-.1,0-.1v-.4s0,0,0,0h0s0,0,0,0h0c0,0,.4,0,.4,0h0c0,0,0,0,0,0h0s0,.1,0,.1v.4s0,0,0,0h0s0,0,0,0c0,0,.1,0,.1,0,0,0,0,0,0-.1h0s0,.2,0,.2h-.7ZM29,32.5h0c0,0,0,0,0,0h0s0,0,0,0h0s0,0,0,0h-.2s0,0,0,0h0c0,0,0,0,0,0h0s0,0,0,0h-.3s0,0,0,0c0,0,0,0,.1-.1l.2-.6h0s.3.6.3.6h0c0,0,0,.1,0,.1h0c0,0-.4.1-.4.1ZM30.4,31.7h0c0,0,0-.1,0-.1h0s-.1,0-.1,0v.3s.1,0,.1,0h0s0-.1,0-.1h0s0,.2,0,.2h0s0,0,0,0h0s0,0,0,0v.2s0,0,0,0h0s0,0,0,0h0c0,0-.4.1-.4.1h0c0,0,0,0,0,0h0s0-.1,0-.1v-.4c0,0,0,0,0,0h0s0,0,0,0h0c0,0,.6-.2.6-.2v.2s0,0,0,0ZM31.2,31.6v.2s0,.1,0,.1h0c0,.1,0,.2,0,.2h-.1c0,0-.1,0-.2,0h-.1c0,0,0-.1,0-.1h0c0-.1,0-.4,0-.4h0c0,0,0,0,0,0h0c0,0,.4-.1.4-.1h0c0,0,0,0,0,0h0s0,.1,0,.1v.3c0,0,0,.1,0,.1h0c0,0,.1,0,.1,0h.1c0,0,0-.2,0-.2,0,0,0,0,0-.1v-.3c0,0-.1-.1-.2,0h0c0,0,.3-.1.3-.1h0c0,0,0,0,0,0h0s0,.1,0,.1M31.6,32.1h0c0,0,0,0,0,0h0s0-.1,0-.1v-.4c-.1,0-.1,0-.1,0h0s0,0,0,0h0c0,0,.6-.2.6-.2v.2c0,0,0,0,0,0h0c0,0,0-.1,0-.1h0s-.1,0-.1,0v.3c0,0,.1,0,.1,0h0s0-.1,0-.1h0s0,.2,0,.2h0s0,0,0,0h0c0,0,0,0,0,0h0s0,.2,0,.2h0c0,0,0,0,0,0h0s.1,0,.1,0h0c0,0,0-.2,0-.2h0s0,.2,0,.2l-.7.2ZM33,31.7s0,0-.2-.2h0c0,0,0-.1,0-.1h0s0,.2,0,.2h0c0,0,0,0,0,0h0s0,0,0,0h-.4c0,.1,0,0,0,0h0s0,0,0,0h0c0,0-.1-.5-.1-.5h0c0,0,0,0,0,0h0s0,0,0,0h.3c0,0,0,0,0,0,0,0,.1,0,.1,0h0s0,0,0,0h0c0,.2,0,.2,0,.3,0,0,0,0,.2.1,0,0,.1,0,.1,0h0s0,0,0,0h-.2ZM33.3,31.6h0s.2-.8.2-.8h-.1c0,0-.1,0-.1.1,0,0,0,0,0,.1h0s0-.2,0-.2l.6-.2h0s-.2.8-.2.8h.2c0,0,0-.1,0-.1h0c0,0,0-.2,0-.2h0s0,.2,0,.2l-.7.2ZM34.5,31.2h0c0,0,0,0,0,0h0s0,0,0,0h0s0,0,0,0h-.2c0,0,0,.1,0,.1h0c0,0,0,0,0,0h0s0,0,0,0h-.2c0,0,0,0,0,0,0,0,0,0,0-.2v-.6s0,0,0,0l.4.5h0c0,0,0,0,0,0h0c0,0-.4.2-.4.2Z"/>
      <path class="st0" d="M21.8,19.2c0,0-.3.2-.4.3h.8c-.2,0-.3-.2-.4-.3"/>
      <path class="st0" d="M27.1,19.5c-.1,0-.3-.1-.3-.2h0c-.2,0-.3-.1-.4-.2h-1.7c-.1,0-.3,0-.4.2h0c0,0-.2.1-.3.2h0s3.4,0,3.4,0h0Z"/>
      <path class="st0" d="M29.3,19.2h0s0,0,0,0c0,0-.2.1-.4.2h.7c-.1,0-.3-.2-.3-.2"/>
      <path class="st0" d="M21.3,26.1v-1.8c-.1.3-.3,1.1,0,1.8"/>
      <path class="st0" d="M25.5,19.7h-4.4s0,.1,0,.1c0,0,0,.1.2.2h4v-.4Z"/>
      <path class="st0" d="M25.3,20.3h-3.8c0,.1.1.2.2.4h3.5v-.4Z"/>
      <path class="st0" d="M25,21.2v-.4c.1,0-3.3,0-3.3,0,0,.1,0,.2.1.4h3.1Z"/>
      <path class="st0" d="M24.9,21.5h-3c0,.1,0,.2,0,.4h2.8v-.4Z"/>
      <path class="st0" d="M21.9,23h1.6l-.5-.4h-1c0,.1,0,.2,0,.4"/>
      <path class="st0" d="M22,22.1h0c0,0,0,.2,0,.4h.7l-.5-.4h-.2Z"/>
      <path class="st0" d="M25.5,23.1l2,2.8v1.4c.1,0,.2,0,.3,0h0v-3.7h.2v3.6c.1,0,.2,0,.4,0v-3.6h.2v3.5c.1,0,.2,0,.4-.1v-3.4h.2v3.2c.1,0,.2-.2.3-.3h0v-2.4c-.1-.2-.2-.4-.3-.5h0c0-.1,0-.2-.1-.4h-2l-.4.3-.9-.3h-.3c0-.1,3.3-1.2,3.3-1.2h-2.6v-.2c0,0,2.8,0,2.8,0,0-.1,0-.2,0-.4h-3.1v-.2c0,0,3.1,0,3.1,0,0-.1,0-.2.1-.4h-3.4v-.2c0,0,3.5,0,3.5,0,0-.1.1-.2.2-.3h-3.9v-.2c0,0,4.1,0,4.1,0,.1-.2.2-.3.2-.3h0s-4.5,0-4.5,0h0s0,0,0,0v3.4h0ZM27.2,23.6h.2v2.2l-.2-.7v-1.5Z"/>
      <path class="st0" d="M26.3,27.6c.1,0,.2-.1.4-.2v-2.2l-.4-.3v2.6Z"/>
      <path class="st0" d="M25.7,28.4c0,0,.1-.2.1-.2h0c0-.1.1-.2.2-.3v-3l-.4-.3v3.8Z"/>
      <path class="st0" d="M25.1,27.8c.1,0,.2.2.3.4h0s0,.1,0,.1v-3.8l-.4.3v3.1Z"/>
      <path class="st0" d="M24.5,27.4c.1,0,.2,0,.4.2v-2.7l-.4.3v2.3Z"/>
      <path class="st0" d="M26.8,27.4c.1,0,.2,0,.4,0v-1.6l-.4-.3v1.9Z"/>
      <path class="st0" d="M23.9,27.3c.1,0,.2,0,.4,0v-2l-.4.3v1.7Z"/>
      <path class="st0" d="M21.9,26.8v-3.2h.2v3.3c.1,0,.2.1.4.2v-3.5h.2v3.6c.1,0,.2,0,.4,0v-3.6h.2v3.6h.1s.1,0,.2,0v-1.5l-.2.2,2-2.8h0,0s0,0,0,0h0s-.7-1.1-.7-1.1h-2.6l3.3,1.1-1.2.4-.4-.3h-2c0,.1,0,.2-.1.4,0,0,0,.2-.1.3v2.6c0,0,.2.2.4.3M23.7,23.6h.2v1l-.2.7v-1.7Z"/>
      <path class="st0" d="M27.4,23h1.6c0-.1,0-.3,0-.4h-1.1l-.5.4Z"/>
      <path class="st0" d="M29,22.1h-.2l-.5.4h.7c0-.1,0-.2,0-.2h0Z"/>
      <path class="st0" d="M19.8,15.4c.6.4,1.5.3,1.8.3.2,0,.3,0,.5-.2h0s0,0,0,0c.3-.2.4-.6.4-1h0s0,0,0,.2c0,.2,0,.4-.1.6h0c0,.2,0,.2,0,.3.1.1.4.2.7,0h0s-.2.2-.5.2-.1,0-.2,0c.2.3.6.5,1.1.4h0s-.1,0-.3,0-.5,0-.7-.2c.2.3.6.5,1.3.6,0,0-.5,0-.6,0,.3,1.2.9,1.1,1,1.1-.2,0-.3.3-.2.5.7-.2,1.2-.3,1.3-.3s.7,0,1.4.3c0-.1,0-.2,0-.3-.1-.3-1-.5-1.9-.3h-.1c0,0,0,0,0,0h0s0,0,0,0h.1c.4-.3,1.2-.3,1.6-.1h0c.4.2.7-.3.6-.5.3,0,.5-.2.5-.4,0,0-.1,0-.1,0h0c0,0-.2,0-.2,0h0s0,0,0,0h0s0,0,0,0h.1c.5-.3.7-.9.7-1.1,0,.1-.2.2-.3.2,0,0-.1,0-.1,0h0c0,0,.1,0,.2,0,.2-.1.3-.4.4-.6-.3-.3-.4-.6-.6-1.1,0-.2-.2-.4-.4-.4h-.2s0,0,0,0c.2-.2.5,0,.7.1,0-.4.2-.6.2-.5h0c-.3.9.3,1.8.8,2.1.6.3,1.8.4,2.5-.3h0c-.1,0-.3,0-.4,0-.2,0-.3,0-.3,0h0c.1,0,.2,0,.3,0,1.1-.3,1.1-1.6,1-1.7h0c0,0,0,.2,0,.2,0,.1-.2.2-.2.2h0c.2-.5.2-.8.1-1.2,0-.2-.2-.4-.4-.6-.6-.4-1.7-.5-2.3,0-.2-.2-.5-.4-.8-.5,0,.3-.4.8-.8,1,0,0-.3.2-.3.2,0,0,0,0,0,0,.6-.4.9-.8.9-1.4h0c0-.3,0-.8-.4-1.2-.5-.6-2-.7-2.6-.1-.2.2-.3.4-.3.7,0-.2.2-.4.5-.5.3,0,.9,0,.9.3-.5-.5-1.4-.1-1.5.7h0s0,0,0,0h0s0,0,0-.4c0-.2,0-.5.2-.8-1.1-.2-2.4.3-2.4,2,0,.2,0,.4.3.7h0c0,0-.2,0-.3-.1-.1-.1-.2-.3-.3-.5-.7-.2-1.1-.3-1.5-.2-.4,0-.9.4-1.1.6,0,.1-.2.3-.2.4-.1.3-.2.6-.2,1,0,.6.4,1.2.8,1.4M30.8,12c.3,0,.5.3.6.6.1.3,0,.6,0,.7h0s0,0,0,0c0-.2,0-.4-.1-.7,0-.1-.2-.3-.3-.4.1.2.2.3.2.4,0,.1,0,.2,0,.3,0,.3-.1.7-.3.8h0s0,0,0,0c.2-.4.2-.7,0-1h0c-.1-.3-.3-.6-.6-.6.2.1.3.3.4.5.2.4.1.9,0,1.1h0c0,0,0-.1,0-.2,0-.1,0-.3,0-.4-.2-.7-.8-1-1.2-.5,0,0,.5-.9,1.5-.5M26.5,17.1c0,0,0-.2,0-.3,0-.2.3-.3.4-.5,0,0,0,.4-.3.8M26.4,16.5c-.1-.2.2-.5.3-.8.4,0-.1.7-.3.8M27.5,10.8c0,.4-.2.5-.2.5h0c.1-.3,0-.7-.1-.9-.1-.2-.4-.3-.4-.3,0,0,.6.1.8.7M26.5,14.4c.3.1-.2.8-.2.9,0,0,.3-.3.4-.2.2.1-.3.8-.5.8-.7-.9.2-1.2.2-1.5M26.1,16c0,.4.1,1,0,1.4-.1,0,0-.2,0-.3,0-.5,0-1-.1-1.4,0-.2-.2-.9-.7-1.7.2.2.8,1.2.9,2M23.1,13.7c.3.5,1.2,1.2,2.3,1.5.4.1.5,1.3.2,1.9-.3,0-.4-.2-.4-.5.2.1.4.3.3,0-.1-.1-.9-.3-.7-.6.1-.2.5.5.6.3,0-.5-1.4-.6-1.4-1.1,0-.2,1.2.6,1.4.6,0-.3-1.8-1-2.3-1.9,0,0,0-.1,0-.1h0M20.4,15.1c.4-.1.8-.3.7-.7,0-.1-.1-.2-.3-.2-.2,0-.4.1-.5.3,0-.4.2-.6.6-.5.2,0,.4.2.5.4.1.6-.4.8-1,.7M20.4,12.4c.5-.2,1,0,1.3.3.8.8.4,1.9.1,2,.2-.5.3-1.2-.5-1.4-.6-.1-1.1.3-1.4.5.2-.5.7-.9,1.5-.8-.2-.4-.7-.6-1.4-.3-.2,0-.3.2-.4.3.1-.3.4-.6.7-.7"/>
      <path class="st0" d="M23.5,33.4s-.4-.1-1.1.3c0,0-.5.3-.6.3,0,0,.1-.6.2-1.2,0,0-.2,0-.3,0,0,.6-.2,1.3-.4,1.3h-.3c0,0,0,0,0,0,0,0-.2-.2-.4-.1h0c-.2,0-.3.2-.3.3,0,0-.7.1-1-.1,0,0,.6-.2.6-.4,0,0,.2-.3-.4-.6,0,0-.4-.2-.5,0,0,0,0,.1.1.3,0,0,.2.2-.2.2,0,0-.3,0-.3-.1,0,0,0-.7.2-1.2-.1,0-.3,0-.4-.1,0,.2-.1.3-.2.5,0,0,0,.4-.2.5,0,0-.5-.4-.3-1.2-.2,0-.3-.1-.5-.2,0,.4,0,1,.6,1.8,0,0-.4.6-.9.3,0,0-.6-.4-.2-.8,0,0,.3-.2.4,0-.1,0-.3.1-.3.3s.1.3.3.3.3-.1.3-.3c0-.1,0-.4-.2-.6,0,0-.2-.2-.6-.2,0,0,.4-.5.4-.9,0,0,0,0,0-.2-.1,0-.2,0-.3-.1,0,.4-.1,1.1-.7.9,0,0,.3-.6.6-1-.2,0-.4-.2-.6-.3h0c0,.1,0,.5-.1.8,0,0-.3.3-.7-.1,0,0,.6-.5.8-.7-.1,0-.3-.1-.5-.1h-.2s-.4.3-.7.4c0,0,0,0-.2,0,0,0-.5-.6-.1-1.2,0,0,.2-.6.7-.4,0,0,.1,0,.2.2,0,0-.5,0-.4.3,0,0,0,.3.4.3,0,0,.6,0,.5-.8,0,0-.1-.4-.4-.4,0,0,.2-.2,0-.3,0,0-.1-.1-.5,0,0,0,0,.2-.5,0,0,0-.3-.1-.4,0,0,0,0,0,0,.3,0,0,0,.1-.1.4,0,0,0,.2-.1.5-.1,0-.3-.2-.4-.2-.2-.2-.2-1.1-.4-1.6,0-.1,0-.6,0-1.1,1.4-.3,2-1.4,2.1-1.9.2-.8,0-1.6-.1-1.8h0c0,.1.1.2.2.4.7,0,1.2,0,1.5-.2h0s0,0,0,0c0,0,.1,0,.2,0h0c1-.5,1.4-1.4,1.7-1.8-.1,0-.6-.2-.7-.4.4,0,.6.2,1,.2.5,0,.9-.3,1.5-.2,0,0,0,.3.5.4,0,.3,0,.6.1.9,0,0,0,.1,0,.1,0,0-.4.3-.3.6,0,0,0,.2,0,.2h0c0,0-.1,0-.2.2,0,0-.3.6-.1.6h.1c0,.5,0,1.2.3,1.8h0c0,0,.7,1.1,2.4,1.1h0c.2,0,1.7,0,2.2,1,0,0,.2.2.3.2s.3-.2.3-.2c.5-1,2.1-1,2.2-1h0c1.7,0,2.4-1,2.4-1.1h0c.2-.3.3-.6.4-.9.3-.2.3-.9.3-1.1,0,.1.3.5.7.6,0,.4,0,1,.3,1,.1,0,.2-.2.2-.3.3,1,0,1.5.3,1.6.3,0,.3-.6.4-.6,0,0,.1.2.1.5,0,.3,0,.6,0,.6.4,0,.2-1.2.6-1.1,0,.6,0,.9.2,1,0,.3,0,.5-.1.5-.6.1-1.2-.4-1.8-.2h0c-1-.6-1.7-.2-1.7-.2-.3-.3-.4.1-.5,0-.5-.3-.8.2-1,.2-.1,0-.4-.3-.6.3-.1.3-.7.4-.8.4-.2,0-.3-.1-.3-.1,0,0,0-.1,0-.2h0c0-.2-.2-.2-.2-.2-.2,0-.3.2-.3.3s0,.1,0,.2c0,0,0,0,.2,0,.1,0,.2.1.2.2h0c0,.3-.4.6-.4.6-.2.2-.5,0-.5,0-.2-.1-.3-.1-.3-.1-.2,0-.3.2-.3.2,0,0,0-.2-.3-.2,0,0-.1,0-.3.1,0,0-.3.3-.5,0,0,0-.4-.3-.4-.5h0c0-.1.1-.2.2-.2,0,0,.1,0,.2,0,0,0,0-.1,0-.2,0-.2-.1-.3-.3-.3,0,0-.2,0-.2,0h0c0,.2,0,.2,0,.3,0,0,0,.2-.3.1,0,0-.6-.1-.8-.4-.2-.6-.5-.3-.6-.3-.1,0-.4-.5-1-.2,0,0-.2-.4-.5,0,0,0-.6-.3-1.4,0,0,0-.3-.1-.4-.2-.2,0-.3-.2-.4-.2-.2-.1-.6,0-.9,0-.1,0-.2,0-.3-.1-.3-.2-.7-.5-.9-.8v-.2c-.2-.1-.3-.2-.4-.4-.1-.4,0-.9.1-1.3,0-.2,0-.3,0-.4-.3,0-.8,0-1.3,0,.1.4.2.9.1,1.3.2.2.3.4.3.5,0,.2,0,.4,0,.6.2.3.6.5.8.7,0,0,1.2.9,1.4,1,.2,0,.3,0,.4,0h.1c0,0,0,.2.2.3-.4.2-.8.5-1.1.6,0,0-.5.3-.3.3,0,0,.4,0,.4,0,0,0-.2,0-.4.2.5.2,1.1.4,1.7.5.4-.4.8-.7,1.3-.9,0,0,.7,0,.9-.4,0-.1.3.3.9,0,0,0,.1.1.3.2,0,0-.2,0-.2.3,0,0-.5,0-.6.3,0,0-1.1,0-2,.8.2,0,.3,0,.5.1.3-.2.7-.4,1.1-.4,0,0,.6,0,.8.7.3,0,.7,0,1,.1h0c0,0,.6-.3.4-.6,0,0-.1-.1-.3,0,0,0-.1.1-.2,0,0,0,0-.1,0-.2,0,0,0-.1,0,0,0,0,.2,0,.3,0,.2,0,.3-.2.3-.3s-.1-.4-.3-.4h0s0,.1,0,.1c0,0,0,.1-.1.1-.2,0-.1-.4.1-.5,0,0,.2,0,.4.3,0,0,.5.7.9.8,0,0,0,.2.2.3,0,0,0,.2.3.2,0,0,0,0,.1.2.2,0,.5,0,.7,0s.5,0,.7,0c0-.1.1-.2.1-.2.3,0,.2-.2.3-.2.3,0,.2-.3.2-.3.4-.1.9-.8.9-.8.2-.2.4-.3.4-.3.3,0,.3.4.1.5,0,0-.1,0-.1-.1h0c0,0,0-.1,0-.1-.2,0-.3.2-.3.4s.1.3.3.3c.2,0,.3,0,.3,0,.2,0,0,0,0,0,0,0,0,.2,0,.2,0,.2-.2,0-.2,0-.2-.2-.3,0-.3,0-.2.3.3.5.4.6h0c.4,0,.7,0,1-.1.2-.7.8-.7.8-.7.4,0,.8.1,1.1.4.2,0,.3,0,.5-.1-.9-.8-1.9-.7-2-.8-.2-.3-.6-.2-.6-.3,0-.3-.2-.3-.2-.3.2,0,.3-.2.3-.2.6.3.8-.1.9,0,.2.5.9.4.9.4.5.2.9.6,1.3.9.5-.1,1-.3,1.5-.5h0s0-.1,0-.1h0s0,0,0,0h0c-.1-.4-.3-.6-.4-.6h0s0,0,0,0c0,0,.4-.6.6-.2,0,0,0,.2-.3.2,0,0,.3.4.3.7h0c.1,0,.2,0,.2,0h0c-.1-.3-.4-.5-.3-.6,0,0,.3,0,.4,0,0,0,0-.3,0-.5.1,0,.3,0,.4,0,.4,0,.5-.6.4-.8,0,0,.3-.2.3-.2.1.3.8.6.7,0,0,.3.2.6.5.6.3,0,0-.5.2-.5,0,.1.2.6.6.5.1,0,.2-.1.2-.3,0-.5-1.4-3-1.5-4.1h0c-.1,0-.1-.3-.1-.5h0c-.2,0-.4-.2-.5-.7,0-.4.2-.6.2-.6h0c-.1.4-.2.7,0,1,0,0,.1,0,.2,0,0-.1.2-.2.2-.2h0c-.1.3-.1.6,0,.7,0,0,.2.1.3.1.4-.1.6-.9.7-1.1.3,0-.4,1.5.1,1.8.2,0,.3-.3.4-.5.2.4-.5,1.3,0,1.6.3,0,.4-.7.4-.6,0,1.2-.5,1.8-.1,2,.3.2.5-.8.5-.7,0,1.3-.7,1.7-.4,1.9.3.1.6-.7.5-.5,0,1.2-.6,1.5-.4,1.8.3.4.9-.8.9-.5,0,.3-.6,1.6-.3,1.7.3,0,.4-.4.5-.5,1-3.3,1-6.6,1-7.7-.1-1.7-.2-3.2-.7-4.7-.3-.9-.7-2.6-1.9-2.9-.5-.1-.9.4-.9.8,0,.4.3.6.2,1-.1.2-.3.5-.4.8,0,.3.2.4,0,.7-.3,0-.5.2-1,.1-.5.2-.9.1-.9,0h0c.5,0,1-.2,1.1-.4.1-.3,0-.9-.2-1-.3,0-.4.3-1.5.3-.8,0-1.1.1-1.2.6,0,0,0-.1,0-.2,0-.3.3-.5.7-.5,0-.1,0-.2,0-.4-.2,0-.2,0-.4,0-.4,0-1,.3-1.1.7,0,0,0,.1,0,.2,0,0,0,.1,0,.2h0c.1.4.4.6,1.1.6h0s-.1,0-.3,0c0,0-.6,0-.9-.3h0c-.2.2-.5.4-.8.4-.3,0-.6-.2-.8-.3-.4-.5.1-1.5.1-1.8,0-.9-1.3-.5-1.8-.3-.6.3-1,.8-1.4,1.2-.2.2-.4.6-.5.8.2,0,.7.3,1,.3h0s0,0,.1,0c.2,0,.6,0,.8-.3,0,0,.1-.1.3-.1s.2,0,.3.1c0,0,.9.7,1.1.9,0,0,.1,0,.1.2,0,0,0,.2-.1.3,0,0-.5.5-.7,1.2,0,0,0,.2-.1.3,0,.3-.2.9.3,1.1,0,0,.5.1.5-.7,0,0,0,.6.5.5.2,0,.3-.2.3-.6h0c0-.4,0-.8,0-1.2h0s0,0,0,.2c0,.2-.1,2.3,1.5,3.6,0,0-.7-.3-1.2-1.2-.3.2-.7.5-.5,1.3,0,.3.3.5.4.6h0c0,0,0,.1-.2,0h0c0-.2-.1-.3-.1-.3-.2-.2-.4-.3-.5-.5h0c-.1-.3,0-1.1-.9-1.1h-.2s0,0,0,0c-.2-.7-.2-1.2-.1-1.2.2-1,.9-1.9,1-2h0c0-.1,0-.2,0-.2h0c-.3-.2-1.1-.8-1.2-.9h0c0,0-.1,0-.2,0s-.2,0-.2,0c-.3.3-.7.3-1,.3s-.1,0-.2,0h0c-.5,0-1-.3-1.1-.3-.8-.3-1.4-.3-1.5-.3s-.7,0-1.5.3c-.1,0-.7.3-1.1.3h0s0,0-.2,0c-.2,0-.6,0-.9-.3h0s0,0-.2,0-.1,0-.2,0h0c0,0-.9.7-1.2.9h0s0,0,0,0h0c0,.2.8,1.1,1,2.1,0,0,0,.2,0,.4,0-.2-.1-.4-.2-.5,0-.1,0-.2-.1-.3h0c-.1-.2-.3-.3-.5-.4-.1,0-.3-.1-.4-.2-.2-.1-.4-.3-.6-.6,0-.5-.3-.9-.3-.9,0,0,.4.2.4.8.4-.4.6-1,.7-1.6.3-.4,1.1-.2,1.4-.2,0,0,.2,0,.3,0,0,0,.1.2.2.2.1,0,.3,0,.4,0,0,0,0,.1.1.2h.1s0,0,0,0h0c.4,0,1-.3,1.1-.3h0s0,0,0,0c-.2-.2-.4-.3-.7-.3-.3,0-.5-.3-.7-.4,0,0-.3,0-.4,0-.6,0-1.1-.2-1.7-.2-.6,0-.6.3-.8.7,0,.1-.2.3-.3.3-.2.2-.3.2-.5.3h0c0-.2-.1-.5-.3-.7h0s0,0,0,0c-.3-.5-.7-.8-1.3-1-.1,0-.2,0-.2-.1-.1,0,0-.2,0-.2.2-.1.5,0,.7-.2.5-.3.3-.7.1-.7-.3,0-.8-.2-.9-.2-.1,0-.2-.3-.4-.4-.2,0-.3,0-.4,0-.1,0-.2.1-.3,0,.1-.2.3-.3.6-.3-.2,0-.2-.4-.4-.5,0,0-.2,0-.4.1,0-.1,0-.5-.3-.7-.2-.1-.2,0-.2.2,0,0,.3.2.3.6h-.1c0,0-.1-.3-.3-.4-.2-.1-.2,0-.2.2,0,0,.2.2.3.5,0,0-.1.1-.2.2-.4,0-.4-.4-.5-.4-.1,0-.3,0-.2.2,0,.2.4.3.5.3h-.1c-.4,0-.5-.2-.6-.3-.1,0-.3,0-.2.2.1.2.5.4.6.4,0,.1-.1.2,0,.3-.3,0-.9.1-.8.5.1,0,.5-.2.8,0,.2.4.6.4.7.4.1.1.2.3.2.5.1.3.3.6.5.8.2.3.4.6.6.9,0,0,0,.2,0,.3-.2.4-1,.8-1.3,1.1-.3.3-3.1,2.4-3.5,3.4,0,.2-.1.5-.1.8-.2,0-.5,0-.6,0-.2-.2.2-.4,0-.7,0-.1-.2-.2-.3-.1-.2,0-.3.5-.1.7,0,0,.1.2,0,.2-.1,0-.2,0-.2-.2,0,0-.1.1,0,.2,0,.2.3.2.4.3,0,0-.1.1-.2,0-.2.2,0,.3,0,.3.2,0,.4-.1.5-.1,0,.1,0,.2-.2.2.3.3.5-.2.8-.2,0,0,1,.8.8,1.5h0c-.2.4-.5.6-.7.8-.5.3.4,2.1.4,3.1,0,.4.3.3.5.9-.2,0-.5,0-.6.2h0c0,0,0,0,0,0,0,0,0,.1,0,.2,0,.3.2.5.5.5s.5-.2.5-.5h0c.1,0,.2,0,.4,0l.4.2s-1.4,1.2-3.8.5c0,0-1.1-.3-.8-1.3,0,0,0-.2.2-.2,0,.1.1.2.2.3,0,0,.2,0,.3,0,.3,0,.5-.2.5-.5s0-.3-.1-.4h0c0,0,0,0,0,0h0c-.2-.1-.4-.2-.8,0,0,0-1,.3-.6,1.4,0,0-.7-.2-1,.2,0,0,0,.1,0,.3h0c0,0,0,.2,0,.2,0,.1.2.2.3.2s.2,0,.3-.1h0s0,0,.2,0c0,0,1,1.1,2.4.9,0,0,0,.7.5.9h0c.1,0,.2-.1.2-.2s-.1-.2-.2-.2h0s0-.2,0-.4c0,0,1.5-.2,2.6-1,0,0,.7.2,1.2.2,0,0,0,.2-.3.2,0,0-.4,0-.4.1,0,0,0,.1.3.1,0,0,0,.1.2.3,0,0,.2,0,0,.2,0,0-.3.2-.2.4,0,0,0,.2.5.2,0,0,.1,0,0,.1,0,0-.2.2.1.4,0,0,.3.2.5-.1,0,0,0-.1.2,0,0,0,.9.4,1.4-.3,0,0,0-.1.2,0,0,0,.5.6,1.8.6,0,.2.2.3.4.3s.4-.2.5-.4c.2,0,.7,0,1.3-.4,0,0,.2-.1.5-.2,0,.4.3.7.7.7s.7-.3.7-.7-.2-.6-.6-.7M19.2,28.4h0s0,0,0,0h0s0,0-.1,0c0,0-.2,0-.2,0,0,0,0,.1,0,.1h0s0,0,0,0h0s.1,0,.1,0c0,0-.1.1-.2.1-.1,0-.2-.2-.3-.3h0s0,0,0,0c-.1,0-.3,0-.5-.1,0-.3,1-.1,1-.1,0,0,.2,0,.3,0h0M33.3,29.2h0c-.2,0-.6-.2-.6-.2,0,0-.2-.1-.4,0h0c-.2,0-.2.2-.3.3h0c0,0,0,0,0,0h0c0-.1,0-.2,0-.2h0s0,0,0,0h0s0,0,0,0h0s0,0,0,0c0,0,.2,0,.3,0h0c.1,0,.3,0,.4.2.1.1.4.1.5.2,0,0,0,.1-.1.2M37.2,17.6c0-.3.5-.6.5-.8,0-.2-.2-.4-.2-.6,0-.4.2-.7.6-.6.2,0,.4.2.5.4,0,0,.1.1.2.2.4.5.7,1.4.9,2.2.6,2.2.9,5.6.2,9.3,0,.3-.2,1.1-.3,1.1.7-6.2.3-7.8.2-7.7,0,0-.2.8-.6.5-.3-.2.8-1.6.3-2.3-.1-.1-.2.2-.4.1-.5-.2.3-1.3.1-1.5,0,0-.4-.2-.5-.6,0-.2.1-.4,0-.5-.1-.1-.1.1-.2,0-.2-.2,0-.5-.1-.7,0,0-.2.1-.3,0-.1-.1,0-.3,0-.4-.2,0-.5.3-.4.6,0,.2.2.3.2.5,0,.2-.2.4-.3.5-.3.7.2.8.1,1,0,.1-.2.2-.4.1-.2,0-.2-.7-.2-.9M36.3,19c0,0,.2,0,.3,0,0,0,.2-.1.3-.1h0c-.1.2-.3.3-.5.4-.3,0-.6,0-.8-.2.2,0,.4,0,.8,0M30.6,16.6h0c-.3-.1-.8-.1-1.1,0-.3.1-.5.4-.5.4,0,0,.4-.7,1.2-.8.5,0,.5.2.5.3M32.3,18.8c-.1.2-.3.4-.5.5-.4.1-.9-.3-.9-.3,0,0,.4.2.7.2.3,0,.5-.2.7-.3h0M33,25.8c.4.1.9,0,1.1-.1h0s0,.3-.5.4c-.8,0-1.3-.7-1.3-.6,0,0,.3.3.5.4M30.9,24.3h0s0,0,0,0h0s0,0,0,0h0c0,.1,0,.2,0,.3h0s0,0,0,0c0,0,0,.1,0,.2,0,.1,0,.3,0,.5h0c0,0,0,0,0,0h0s0,0,0,0h0s0,0,0,0h0s0,0,0,0h0s0,0,0,0h0s0,0,0,0h0s0,0,0,0c0,0-.1-.2,0-.2h0c0,0,0,0,0,0h0s0,0,0,0h0s0,0,0,0h0s0,0,0,0h0s0,0,0,0h0s0,0,0,0h0s0,0,0,0c0-.3,0-.6,0-.8h0s0,0,0,0h0s0,0,0,0h0s0,0,0,0M30,23.3h0c0,0,.1,0,.2,0h.1s0,0,0,0h.1s.1.2.2.4h0s0,.3.2.4c0,0,0,.3-.2.2h0c-.2,0-.5-.4-.4-.7,0,0-.1,0-.2,0h0s0,0,0,0h0s0,0,0,0c0,0,0,.1-.2.1,0-.1,0-.2.2-.3M21.3,24c.6-1.1.6-1.8.5-1.9,0-1.2-.7-2.1-.8-2.2,0,0,0-.2,0-.2,0-.1,0-.2.1-.2.2-.1.5-.3.7-.4h0s0,0,0,0c0,0,0,0,.2,0,.1.1.4.3.9.3s.2,0,.3,0c.2,0,.7-.2.7-.2.1,0,.3-.1.4-.2h0c.7-.3,1.2-.3,1.4-.3s.7,0,1.4.3h0c0,0,.2.1.4.2,0,0,.4.2.7.2,0,0,.2,0,.3,0,.5,0,.7-.2.9-.3,0,0,.1,0,.2,0h0s0,0,0,0c.2.1.5.3.7.4,0,0,0,0,.1.2,0,0,0,.1,0,.2,0,0-.8,1-.8,2.1,0,.2,0,.9.5,1.9,0,0,.7,1.3,0,2.4,0,0-.6,1-2.1,1s-1.3,0-1.8.8h0c0,.1-.2.4-.3.5h0s0,0,0,0c0-.1-.2-.4-.3-.5h0c-.4-.8-1.6-.8-1.8-.8-1.5,0-2.1-.9-2.1-1-.7-1.1,0-2.3,0-2.4M20.9,22.7c0,0,.1.3.2.5h0c0,0,0,.1,0,.1h0c0,0,0,.1,0,.1h0c0,0,0,.2,0,.2h0c0,0,0,.1,0,.1h0c0,0,0,.2,0,.2h0c0,0,0,.1,0,.1h0c0,0,0,.1,0,.1h0c0,0,0,.1,0,.1h0c0,0,0,.1,0,.1h0c0,0,0,.1,0,.1h0c0,0,0,0,0,0h0c0,0,0,0,0,0h0s0,0,0,0h0s0,0,0,0h0s0,0,0,0h0s0,0,0,0c0,0,.1-.2.1-.3,0-.1,0-.2,0-.2.1,0,.2,0,.2,0-.1-.1-.2-.4,0-.6.3-.3,0-.9,0-.9M20.8,21.8c-.1,0-.1-.5-.8-.4-.3.2-.6,0-.8,0,.9-.5,1.7,0,1.6.4M15.5,16.5c-.1-.3.4-.8.5-.8.3-.1.5,0,.8.1.2,0,.4,0,.5,0,.4,0,.3.3.2.3-.3,0-.5-.1-.7-.2-.2,0-.4,0-.6,0-.2,0-.3-.1-.4,0,0,0-.2.2-.2.4,0,.1-.2.2-.2.1M15.8,16.5c.4.1.4-.4.5-.2.1.2-.2.6-.5.2M16.6,17.6c.6,0,1.2,0,1.6.3h0c.1.1.4.4.6.8-.5-.3-.7-.4-1.1-.6-.4-.1-.9-.2-1.1-.6M13.5,31.2h0c0,0-.2,0-.2-.1,0,.1,0,.2.1.3h0c0,0,0,0,0,0h-.1s0,0,0,0h0c-.1,0-.2-.3-.2-.4,0,0,0-.3-.2-.4.3-.2.7.3.7.3h0s0,0,0,0h0c0,0,.1,0,.2.1h0c0,.1-.1.1-.2,0"/>
      <path class="st0" d="M29.8,24.5v1.6c.3-.7.2-1.2,0-1.6"/>
      <path class="st0" d="M33.1,15.3c0,.1-.3.1-.3.3-.2-.2.1-.5.3-.3M34.1,15.2c.1,0,.3-.4.5-.2.1,0,.2.2.3.3.1,0,.3.2.3.3,0,.1-.1.5-.3.2-.1-.2-.3-.6-.6-.5-.2.1-.4.3-.5.1,0,0,.2,0,.3-.1M34.2,15.5c0-.1.1.4.5.2-.3.3-.7,0-.5-.2M32.8,16s0-.2.2-.2c.2,0,.5.2.5.3,0,.2-.1.7.5.8,0,0,0,0,0,.2h0c0,.1,0,.2,0,.3h.1c.9,0,1.3,0,1.6-.3,0,0,.1-.2.2-.3.2-.4.2-.8.1-1.2h0c0,0,0-.2,0-.2-.2-.3-.7-.8-1.3-1h-.1s0,0,0,0h0s0,0,0,0h.1c.5,0,1.2.5,1.4,1,.2,0,.3-.4.3-.6,0,0,0-.3.1-.6,0,0,0-.2,0-.2,0,0-.2,0-.2,0-.1.2-.4.1-.3-.1,0,0,0-.2,0-.2,0,0-.1,0-.2,0-.1.2-.4.1-.3-.1,0,0,0-.2,0-.2,0,0-.2,0-.2,0-.1.2-.4.1-.3-.1,0,0,0-.2,0-.2,0,0-.2,0-.2,0,0,.2-.2.3-.2.4.5.1,1,.4,1.4.7l.2.2h0s0,0,0,0h0c0,0,0,0,0,0,0,0-.1-.1-.2-.2-.6-.5-1.1-.7-1.5-.7-.3,0-.2.3-.2.5-.5-.1-.8.2-.8.6,0,.1,0,.2,0,.4h0s0,0-.1-.1c0,0,0-.2,0-.2-.4,0-.7.2-.7.6,0,.2.3.5.3.5"/>
      <path class="st0" d="M43.2,32c-.3-.3-1-.2-1-.2.4-1.1-.7-1.4-.7-1.4-.4,0-.6,0-.8,0h0s0,0,0,0h0c0,.2-.1.3-.1.4,0,.3.2.5.5.5s.2,0,.3,0c.1,0,.2-.2.2-.3.1,0,.2.2.2.2.3.9-.8,1.3-.8,1.3-2.3.7-3.8-.5-3.8-.5l.4-.2c.1,0,.3,0,.4,0h0c0,.3.2.5.5.5s.5-.2.5-.5,0-.2,0-.2h0s0,0,0,0c-.3-.4-1.2-.1-1.2-.1.3-.8,0-1.3,0-1.3-.2-.3-.1-.4-.1-.4,0-.3,0-.3,0-.3-.1-.2-.4,0-.4,0-.4,0-.5,0-.5,0-.3-.2-.5,0-.5,0-.1,0,0,.3,0,.3-.3,0-.4.4-.4.4-.1.7.5.8.5.8.4,0,.4-.3.4-.3,0-.3-.4-.3-.4-.3,0-.2.2-.2.2-.2.5-.1.7.4.7.4.4.6-.1,1.2-.1,1.2,0,0-.2,0-.2,0-.3-.1-.7-.4-.7-.4h0s-.2,0-.2,0c-.2,0-.4,0-.5.1.2.2.8.7.8.7-.5.4-.7.1-.7.1-.2-.2-.2-.6-.1-.8h0c-.2.1-.4.2-.6.3.2.4.6,1,.6,1-.5.2-.7-.5-.7-.9-.1,0-.2,0-.3.1,0,0,0,.2,0,.2,0,.4.4.9.4.9-.4,0-.6.2-.6.2-.2.2-.2.5-.2.6,0,.1.1.3.3.3s.3-.1.3-.3-.1-.3-.3-.3c.1-.3.4,0,.4,0,.4.4-.2.8-.2.8-.5.3-.9-.3-.9-.3.5-.9.6-1.5.6-1.8-.2,0-.3.1-.5.2.2.8-.3,1.2-.3,1.2-.2-.1-.2-.5-.2-.5,0-.2-.1-.3-.2-.5-.1,0-.3,0-.4.1.2.5.2,1.2.2,1.2,0,.1-.3.1-.3.1-.4,0-.2-.2-.2-.2.2-.2.1-.3.1-.3-.1-.3-.5,0-.5,0-.6.3-.4.6-.4.6,0,.2.6.4.6.4-.3.2-.9.1-1,.1,0-.2-.1-.3-.3-.3h0c-.2,0-.3,0-.4.1h0c0,.1-.3,0-.3,0-.2,0-.4-.7-.4-1.3,0,0-.2,0-.3,0,0,.6.2,1.2.2,1.2-.1,0-.6-.3-.6-.3-.6-.4-1.1-.3-1.1-.3-.3,0-.6.3-.6.7s.3.7.7.7.7-.3.7-.7c.2.1.5.2.5.2.6.4,1.2.4,1.3.5,0,.2.2.4.5.4s.3-.1.4-.3c1.3,0,1.8-.6,1.8-.6.1-.2.2,0,.2,0,.5.7,1.4.3,1.4.3.2,0,.2,0,.2,0,.2.3.5.1.5.1.4-.2.2-.4.2-.4-.1-.1,0-.1,0-.1.4,0,.5-.2.5-.2,0-.2-.2-.4-.2-.4,0-.1,0-.2,0-.2.3-.1.2-.3.2-.3.3,0,.3-.1.3-.1,0-.1-.4-.1-.4-.1-.3,0-.3-.2-.3-.2.5,0,1.2-.2,1.2-.2,1,.8,2.6,1.1,2.6,1.1,0,.2,0,.4,0,.4h0c-.1,0-.2.1-.2.2s.1.2.2.2h0c.5-.1.5-.9.5-.9,1.4.1,2.4-.9,2.4-.9.1-.1.2,0,.2,0h0c0,0,.2.2.3.2s.3,0,.3-.2c0,0,0-.2,0-.2h0c0-.2,0-.3,0-.3"/>
      <path class="st0" d="M26.2,33.8c.1,0,.2-.2.2-.2,0-.4-.3-.6-.3-.6-.2,0-.3,0-.5,0h0c-.2,0-.3,0-.5,0,0,0-.3.2-.3.6,0,0,0,.2.2.2,0,0-.4.2-.4.4,0,0,0,.2.3.4,0,0,.2.3.3.5,0,0,0,.3.4.3s.4-.3.4-.3c0-.2.3-.5.3-.5.3-.3.3-.4.3-.4,0-.2-.4-.4-.4-.4"/>
      <polygon class="st0" points="28.8 32.2 29 32.2 28.9 32 28.8 32.2"/>
      <polygon class="st0" points="22.6 32.3 22.8 32.3 22.7 32 22.6 32.3"/>
      <path class="st0" d="M21.9,31.7h0s0,.3,0,.3c0,0,.1,0,.1,0h0s0-.1,0-.1h0c0-.1,0-.2-.1-.2"/>
      <path class="st0" d="M24.6,32c0,0-.1,0-.1,0,0,0,0,.1,0,.2,0,.1,0,.2,0,.3,0,0,0,0,.1,0,0,0,.1,0,.1,0,0,0,0-.1,0-.2,0-.1,0-.2,0-.2,0,0,0,0-.1,0"/>
      <path class="st0" d="M26.9,32c0,0-.1,0-.1,0,0,0,0,.1,0,.2,0,.1,0,.2,0,.2,0,0,0,0,.1,0,0,0,.1,0,.1,0,0,0,0-.1,0-.3,0-.1,0-.2,0-.2,0,0,0,0-.1,0"/>
      <polygon class="st0" points="20.5 32 20.7 32 20.7 31.7 20.5 32"/>
      <path class="st0" d="M17,30.5v.3c-.1,0,0,0,0,0,0,0,0,0,.1,0h0c0,0,0-.2,0-.2h0c0,0,0-.1,0-.1Z"/>
      <path class="st0" d="M17.9,30.8c0,0-.1,0-.2,0,0,0,0,.1-.1.2,0,.1,0,.2,0,.3,0,0,0,0,.1.1,0,0,.1,0,.2,0,0,0,0-.1.1-.2,0-.1,0-.2,0-.2,0,0,0,0-.1-.1"/>
      <path class="st0" d="M18.7,31.1h0s0,.3,0,.3c0,0,.1,0,.1,0h0s0-.1,0-.1h0c0-.1,0-.2-.1-.2"/>
      <path class="st0" d="M32.7,31.1s0,0-.1,0h0s0,.3,0,.3c0,0,.1,0,.1,0h0c0,0,0-.1,0-.1h0Z"/>
      <polygon class="st0" points="34.2 31 34.4 31 34.2 30.8 34.2 31"/>
      <path class="st0" d="M34.5,31.2h0c0,0,0,0,0,0h0s0,0,0,0h0s0,0,0,0h-.2c0,0,0,.1,0,.1h0c0,0,0,0,0,0h0s0,0,0,0h-.2c0,0,0,0,0,0,0,0,0,0,0-.2v-.6s0,0,0,0l.4.5h0c0,0,0,0,0,0h0c0,0-.4.2-.4.2ZM33.3,31.6h0s.2-.8.2-.8h-.1c0,0-.1,0-.1.1,0,0,0,0,0,.1h0s0-.2,0-.2l.6-.2h0s-.2.8-.2.8h.2c0,0,0,0,0,0h0c0,0,0-.2,0-.2h0s0,.2,0,.2l-.7.2ZM33,31.7s0,0-.2-.2h0c0,0,0-.1,0-.1h0s0,.2,0,.2h0c0,0,0,0,0,0h0s0,0,0,0h-.4c0,.1,0,0,0,0h0s0,0,0,0h0c0,0-.1-.5-.1-.5h0c0,0,0,0,0,0h0s0,0,0,0h.3c0,0,0,0,0,0,0,0,.1,0,.1,0h0s0,0,0,0h0c0,.2,0,.2,0,.3,0,0,0,0,.2.1,0,0,.1,0,.1,0h0s0,0,0,0h-.2ZM31.6,32.1h0c0,0,0,0,0,0h0s0-.1,0-.1v-.4c-.1,0-.1,0-.1,0h0s0,0,0,0h0c0,0,.6-.2.6-.2v.2c0,0,0,0,0,0h0c0,0,0,0,0,0h0s-.1,0-.1,0v.3c0,0,.1,0,.1,0h0c0-.1,0-.1,0-.1v.3c0,0,0,0,0,0h0s0,0,0,0h0s0,0,0,0v.2s0,0,0,0h0s0,0,0,0h.1s0-.1,0-.1h0c0-.1,0-.1,0-.1v.2c0,0-.6.2-.6.2ZM31.2,31.6v.2s0,.1,0,.1h0c0,.1,0,.2,0,.2,0,0,0,0-.1,0,0,0-.1,0-.2,0h-.1c0,0,0-.1,0-.1h0c0-.1,0-.4,0-.4h0c0,0,0,0,0,0h0c0,0,.4-.1.4-.1h0c0,0,0,0,0,0h0s0,.1,0,.1v.3c0,0,0,.1,0,.1h0c0,0,.1,0,.1,0h.1c0,0,0-.2,0-.2,0,0,0,0,0-.1v-.2c0,0-.1-.1-.2,0h0c0,0,.3-.1.3-.1h0c0,0,0,0,0,0h0M30.4,31.7h0c0,0,0-.1,0-.1h0s-.1,0-.1,0v.3s0,0,0,0h0s0-.1,0-.1h0s0,.2,0,.2h0s0,0,0,0h0s0,0,0,0v.2s0,0,0,0h0s0,0,0,0h0c0,0-.4.1-.4.1h0c0,0,0,0,0,0h0s0-.1,0-.1v-.4c0,0,0,0,0,0h0s0,0,0,0h0c0,0,.6-.2.6-.2v.2s0,0,0,0ZM29,32.5h0c0,0,0,0,0,0h0s0,0,0,0h0s0,0,0,0h-.2s0,0,0,0h0c0,0,0,0,0,0h0s0,0,0,0h-.3s0,0,0,0c0,0,0,0,.1-.1l.2-.6h0s.3.5.3.5h0c0,0,0,.1,0,.1h0c0,0-.4.1-.4.1ZM27.9,32.6h0c0,0,0,0,0,0h0s0-.1,0-.1v-.4s0,0,0,0h0s0,0,0,0h0c0,0,.4,0,.4,0h0c0,0,0,0,0,0h0s0,.1,0,.1v.4s0,0,0,0h0s0,0,0,0c0,0,.1,0,.1,0,0,0,0,0,0-.1h0s0,.2,0,.2h-.7ZM27.2,32.5c0,0-.2.1-.3.1,0,0-.2,0-.2,0,0,0-.1,0-.2-.1,0,0,0-.1,0-.2,0,0,0-.1,0-.2,0,0,0-.1.1-.2,0,0,.1,0,.2,0,.1,0,.2,0,.3.1,0,0,.1.2.1.3,0,.1,0,.2-.1.3M26,32h0s0,0,0,0h0c0,0,0,.7,0,.7h0l-.5-.6v.3c0,0,0,0,0,.1h0c0,0-.3,0-.3,0h0c0,0,0,0,0,0h0s0-.1,0-.1v-.4c0,0,0-.1-.1-.1h0c0,0,.3,0,.3,0l.4.5v-.3c0,0,0-.1-.1-.1h0c0,0,.3,0,.3,0h0ZM24.9,32.6c0,0-.2.1-.3.1,0,0-.2,0-.2,0,0,0-.1,0-.1-.2,0,0,0-.1,0-.2,0,0,0-.1,0-.2,0,0,0-.1.2-.1,0,0,.1,0,.2,0,.1,0,.2,0,.3.1,0,0,.1.2.1.3,0,.1,0,.2-.1.3M24,31.9l-.5.6h.2s.1,0,.1,0h0s0-.1,0-.1h0s0,.2,0,.2h-.7s0,0,0,0l.5-.6h-.1c0,0-.1,0-.2,0,0,0,0,0,0,.1h0s0-.2,0-.2h.6s0,0,0,0ZM23.1,32.6h-.4s0,0,0,0h0s0,0,0,0h0s0,0,0,0h0c0,0-.2,0-.2,0h0s0,0,0,0h0s0,0,0,0h0c0,0-.2,0-.2,0h0c0,0,0,0,.1-.2l.3-.6h0s.2.6.2.6c0,0,0,0,0,.1h0s0,0,0,0ZM22.3,32.5h-.2c0,0,0-.1,0-.2,0,0,0,0,0-.1h0s0,0,0,0v.2s0,0,0,0h0s0,0,0,0h0c0,0-.4,0-.4,0h0c0,0,0,0,0,0h0s0,0,0,0v-.4c0,0,0,0,0,0h0s0,0,0,0h0c0,0,.3,0,.3,0h0c0,0,.1,0,.1,0h0s0,.1,0,.1h0c0,.2,0,.2-.2.3,0,0,0,0,.1.2,0,0,0,.1,0,.1h0s0,0,0,0ZM21,32.3h-.4c0,0,0-.1,0-.1h0s0,0,0,0h0s0,0,0,0h0c0,0-.2-.1-.2-.1h0s0,0,0,0h0s0,0,0,0h0c0,0-.2,0-.2,0h0c0,0,0,0,.1-.2l.3-.5h0s.1.6.1.6c0,0,0,.1,0,.1h0s0,0,0,0ZM20.2,32.2h-.7c0-.1,0-.2,0-.2h0s0,0,0,0v-.4c0,0,0,0,0,0h0s0,0,0,0h0c0,0,.4,0,.4,0h0c0,0,0,0,0,0h0s0,0,0,0v.4c0,0,0,0,0,0h0s0,0,0,0c0,0,.1,0,.2,0,0,0,0,0,0-.1h0s0,.3,0,.3ZM18.9,31.7c0,0,0,.1,0,.1h0s0,0,0,0h-.2c0,0,0-.2,0-.3,0,0,0,0,0-.1h0s0,0,0,0v.2s0,0,0,0h0s0,0,0,0h0c0,0-.4,0-.4,0h0c0,0,0,0,0,0h0s0,0,0,0v-.4c.1,0,.1,0,.1,0h0s0,0,0,0h0c0,0,.3,0,.3,0h0c0,0,.1,0,.1,0h0c0,0,0,.1,0,.1h0c0,.2,0,.2-.2.2,0,0,0,0,0,.2M18.2,31.3c0,.1,0,.2-.2.2,0,0-.2,0-.3,0,0,0-.2,0-.2-.1,0,0,0-.1,0-.2,0,0,0-.1,0-.2,0,0,0-.1.1-.2,0,0,.1,0,.2,0,0,0,.1,0,.2,0,.1,0,.2.1.3.2,0,0,0,.2,0,.3M17.3,30.8h0c0,.1-.1.1-.1.1,0,0-.1,0-.2,0h0s0,.2,0,.2h0c0,0,0,.1,0,.1h0s0,0,0,0h-.4c0-.1,0-.2,0-.2h0s0,0,0,0h0c0,0,.2-.5.2-.5h0c0,0,0-.1,0-.1h0s0,0,0,0h.3c0,.1.1.1.2.2h0c0,0,0,.2,0,.2h0M24.6,31.7h.2s-.3.2-.3.2h0v-.2ZM34.9,30.1c0,0-.2,0-.3,0s-.2,0-.2,0c-.3,0-3.6,1.5-8.9,1.5-5.3,0-8.6-1.4-8.9-1.5,0,0,0,0-.2,0s-.2,0-.3,0l-1.1.9h0c.3,0,.7.2.7.2,2.8,1.2,6.1,1.8,9.7,1.8,3.6,0,6.9-.5,9.7-1.8,0,0,.4-.2.7-.2h0l-1.1-.9Z"/>
      <path class="st0" d="M22.2,19.5c-.2,0-.3-.2-.4-.3,0,0-.2.2-.4.3h.8Z"/>
      <path class="st0" d="M24.1,19.3c0,0-.2,0-.3.2h0s3.4,0,3.4,0h0c-.1,0-.3-.1-.3-.2h0c-.2,0-.3-.1-.4-.2h-1.7c-.1,0-.3,0-.4.2h0Z"/>
      <path class="st0" d="M29.3,19.2h0c0,0-.2.2-.4.3h.7c-.1,0-.3-.2-.3-.2h0Z"/>
      <path class="st0" d="M21.3,26.1v-1.8c-.1.3-.3,1.1,0,1.8"/>
      <polygon class="st0" points="25.5 23.1 22.2 22.1 24.7 22.1 25.5 23.1"/>
      <path class="st0" d="M25.4,19.7h-4.4s0,.1,0,.1c0,0,0,.1.2.2h4v-.4Z"/>
      <path class="st0" d="M25.3,20.3h-3.8c0,.1.1.2.2.4h3.5v-.4Z"/>
      <path class="st0" d="M25.1,20.9h-3.4c0,.1,0,.2.1.4h3.1v-.4Z"/>
      <path class="st0" d="M24.9,21.5h-3c0,.1,0,.2,0,.4h2.8v-.4Z"/>
      <path class="st0" d="M23,22.6h-1c0,.1,0,.2,0,.4h1.6l-.5-.4Z"/>
      <path class="st0" d="M22.7,22.4l-.5-.4h-.2c0,0,0,.2,0,.4h.7Z"/>
      <path class="st0" d="M25.5,19.7h0c0,0,0,0,0,0v3.4l3.3-1.1h-2.6v-.2c0,0,2.8,0,2.8,0,0-.1,0-.2,0-.4h-3.1v-.2c0,0,3.1,0,3.1,0,0-.1,0-.2.1-.4h-3.4v-.2c0,0,3.5,0,3.5,0,0-.1.1-.2.2-.4h-3.9v-.2c0,0,4.1,0,4.1,0,.1-.2.2-.3.2-.3h0s-4.5,0-4.5,0Z"/>
      <path class="st0" d="M26.3,25v2.6c.1,0,.2-.1.4-.2v-2.2l-.4-.3Z"/>
      <path class="st0" d="M25.7,24.5v3.8c0,0,.1-.2.1-.2h0c0-.1.1-.2.2-.3v-3l-.4-.3Z"/>
      <path class="st0" d="M25.1,24.7v3.1c.1,0,.2.2.3.4h0s0,.1,0,.1v-3.8l-.4.3Z"/>
      <path class="st0" d="M24.5,25.1v2.3c.1,0,.2,0,.4.2v-2.7l-.4.3Z"/>
      <path class="st0" d="M26.8,27.4c.1,0,.2,0,.4,0v-1.6l-.4-.3v1.9Z"/>
      <path class="st0" d="M23.9,27.3c.1,0,.2,0,.4,0v-2l-.4.3v1.7Z"/>
      <path class="st0" d="M23.7,23.6h.2v1l-.2.7v-1.7ZM25.5,23.1l-1.2.4-.4-.3h-2c0,.1,0,.2-.1.4h0,0c0,0,0,.2-.1.3v2.6c0,0,.2.2.3.3v-3.2h.2v3.3c.1,0,.2.1.4.2v-3.5h.2v3.6c.1,0,.2,0,.4,0v-3.6h.2v3.6h.2s.1,0,.2,0v-1.5l-.2.2,2-2.8Z"/>
      <path class="st0" d="M27.4,25.8l-.2-.7v-1.5h.2v2.2ZM29.3,23.6h0c0-.1,0-.2-.1-.4h-2l-.4.3-.9-.3h-.3c0-.1,2,2.6,2,2.6v1.4c.1,0,.2,0,.3,0h0v-3.7h.2v3.6c.1,0,.2,0,.4,0v-3.6h.2v3.5c.1,0,.2,0,.4-.1v-3.4h.2v3.2c.1,0,.2-.2.3-.3h0v-2.4c-.1-.2-.2-.4-.3-.5"/>
      <path class="st0" d="M27.4,23h1.6c0-.1,0-.3,0-.4h-1.1l-.5.4Z"/>
      <path class="st0" d="M28.7,22.1l-.5.4h.7c0-.1,0-.2,0-.2h0c0-.1-.2-.1-.2-.1Z"/>
      <path class="st0" d="M30.5,13.7h0c0,0,0-.1,0-.2,0-.1,0-.3,0-.4-.2-.7-.8-1-1.2-.5,0,0,.5-.9,1.5-.5.3,0,.4.3.6.6.1.3,0,.6,0,.7h0s0,0,0,0c0-.2,0-.4-.1-.7,0-.1-.2-.3-.3-.4.1.2.2.3.2.4,0,.1,0,.2,0,.3,0,.3-.1.7-.3.8h0s0,0,0,0c.2-.4.2-.7,0-1h0c-.1-.3-.3-.6-.6-.6.2.1.3.3.4.5.2.4.1.9,0,1.1M26.8,10.1s.6.1.8.7c0,.4-.2.5-.2.5h0c.1-.3,0-.7-.1-.9-.1-.2-.4-.3-.4-.3M26.4,16.5c-.1-.2.2-.5.3-.8.4,0-.1.7-.3.8M26.5,17.1c0,0-.1-.2,0-.3,0-.2.3-.3.4-.5,0,0,0,.4-.3.8M26.5,14.4c.3.1-.2.8-.2.9,0,0,.3-.3.4-.2.2.1-.3.8-.5.8-.7-.9.2-1.2.2-1.5M26,17.4c-.1,0,0-.2,0-.3,0-.5,0-1-.1-1.4,0-.2-.2-.9-.7-1.7.2.2.8,1.2.9,2,0,.4.1,1,0,1.4M25.6,17.1c-.3,0-.4-.2-.4-.5.2.1.4.3.3,0-.1-.1-.9-.3-.7-.6.1-.2.5.5.6.3,0-.5-1.4-.6-1.4-1.1,0-.2,1.2.6,1.4.6,0-.3-1.8-1-2.3-1.9,0,0,0-.1,0-.1h0c.3.5,1.2,1.2,2.3,1.5.4.1.5,1.3.2,1.9M21.8,14.7c.2-.5.3-1.2-.5-1.4-.6-.1-1.1.3-1.4.5.2-.5.7-.9,1.5-.8-.2-.4-.7-.6-1.4-.3-.2,0-.3.2-.4.3.1-.3.4-.6.7-.7.5-.2,1,0,1.3.3.8.8.4,1.9.1,2M20.4,15.1c.4-.1.8-.3.7-.7,0-.1-.1-.2-.3-.2-.2,0-.4.1-.5.3,0-.4.2-.6.6-.5.2,0,.4.2.5.4.1.6-.4.8-1,.7M30.7,15.1c.1,0,.2,0,.3,0,1.1-.3,1.1-1.6,1-1.7h0c0,0,0,.2,0,.2,0,.1-.2.2-.2.2h0c.2-.5.2-.8.1-1.2,0-.2-.2-.4-.4-.6-.6-.4-1.7-.5-2.3,0-.2-.2-.5-.4-.8-.5,0,.3-.4.8-.8,1,0,0-.3.2-.3.2,0,0,0,0,0,0,.6-.4.9-.8.9-1.4h0c0-.3,0-.8-.4-1.2-.5-.6-2-.7-2.6-.1-.2.2-.3.4-.3.7,0-.2.2-.4.5-.5.3,0,.9,0,.9.3-.5-.5-1.4-.1-1.5.7h0s0,0,0,0h0s0,0,0-.4c0-.2,0-.5.2-.8-1.1-.2-2.4.3-2.4,2,0,.2,0,.4.3.7h0c0,0-.2,0-.3-.1-.1-.1-.2-.3-.3-.5-.7-.2-1.1-.3-1.5-.2-.4,0-.9.4-1.1.6,0,.1-.2.3-.2.4-.1.3-.2.6-.2,1,0,.6.4,1.2.8,1.4.6.4,1.5.3,1.8.3.2,0,.3,0,.5-.2h0s0,0,0,0c.3-.2.4-.6.4-1h0s0,0,0,.2c0,.2,0,.4-.1.6h0c0,.2,0,.2,0,.3.1.1.4.2.7,0h0s-.2.2-.5.2-.1,0-.2,0c.2.3.6.5,1.1.4h0s-.1,0-.3,0-.5,0-.7-.2c.2.3.6.5,1.3.6,0,0-.5,0-.6,0,.3,1.2.9,1.1,1,1.1-.2,0-.3.3-.2.5.7-.2,1.2-.3,1.3-.3s.7,0,1.4.3c0-.1,0-.2,0-.3-.1-.3-1-.5-1.9-.3h-.1c0,0,0,0,0,0h0s0,0,0,0h0s.1,0,.1,0c.4-.2,1.2-.3,1.6,0h0c.4.2.7-.3.6-.5.3,0,.5-.2.5-.4,0,0-.1,0-.1,0h0c0,0-.2,0-.2,0h0s0,0,0,0h0s0,0,0,0h.1c.5-.3.7-.9.7-1.1,0,0-.2.2-.3.2,0,0-.1,0-.1,0h0c0,0,.1,0,.2,0,.2-.1.3-.4.4-.6-.3-.3-.4-.6-.6-1.1,0-.2-.2-.4-.4-.4h-.2s0,0,0,0c.2-.2.5,0,.7.1,0-.4.2-.6.2-.5h0c-.3.9.3,1.8.8,2.1.6.3,1.8.4,2.5-.3-.1,0-.3,0-.4,0-.2,0-.3,0-.3,0h0"/>
      <path class="st0" d="M39.8,27.7c0,.3-.2,1.1-.3,1.1.7-6.2.3-7.8.2-7.7,0,0-.2.8-.6.5-.3-.2.8-1.6.3-2.3,0-.1-.2.2-.4.1-.5-.1.2-1.3.1-1.5,0,0-.4-.2-.5-.6,0-.2.1-.4,0-.5-.1-.1-.1.1-.2,0-.2-.2,0-.5-.1-.7,0,0-.2.1-.3,0-.1-.1,0-.3,0-.4-.2,0-.5.3-.4.6,0,.2.2.3.2.5,0,.2-.2.4-.3.5-.3.7.2.8.1,1,0,.1-.2.2-.4.1-.2,0-.2-.7-.2-.9,0-.3.5-.6.5-.8,0-.2-.2-.4-.2-.6,0-.4.2-.7.6-.6.2,0,.4.2.5.4,0,0,.1.1.2.2.4.5.7,1.4.9,2.2.6,2.2.9,5.6.2,9.3M36.8,18.9c-.1,0-.4.2-.5.3-.3,0-.6,0-.8-.2.2,0,.5,0,.8,0,0,0,.2,0,.3,0,0,0,.2-.1.3-.1h0M33.3,29.2h0c-.2,0-.6-.2-.6-.2,0,0-.2-.1-.4,0h0c-.2,0-.2.2-.3.3h0c0,0,0,0,0,0h0c0-.1,0-.2,0-.2h0s0,0,0,0h0s0,0,0,0h0s0,0,0,0c0,0,.2,0,.3,0,.1,0,.3,0,.4.2.1.1.4.1.5.2,0,0,0,.1-.1.2M19.2,28.4h0s0,0,0,0h0s0,0-.1,0c0,0-.2,0-.3,0,0,0,0,0,0,.1h0s0,0,0,0h0s.1,0,.1,0c0,0-.1.1-.2.1-.1,0-.2-.2-.3-.3h0s0,0,0,0c-.1,0-.3,0-.5-.1,0-.3,1-.1,1-.1,0,0,.2,0,.3,0h0M33.7,26c-.8,0-1.3-.7-1.3-.6,0,0,.3.3.5.4.4.1.9,0,1.1-.1h0s0,.3-.5.4M30.9,25.5h0c0,0,0,0,0,0h0s0,0,0,0h0s0,0,0,0h0s0,0,0,0h0s0,0,0,0h0s0,0,0,0h0s0,0,0,0c0,0,0-.2,0-.2h0c0,0,0,0,0,0h0s0,0,0,0h0s0,0,0,0h0s0,0,0,0h0s0,0,0,0h0s0,0,0,0h0s0,0,0,0c0-.3,0-.6,0-.8h0s0,0,0,0h0s0,0,0,0h0s0,0,0,0h0s0,0,0,0h0s0,0,0,0h0c0,.1,0,.2,0,.3h0c0,.1,0,.2,0,.2,0,.1,0,.3,0,.5M29.8,26.4c0,0-.6,1-2.1,1s-1.3,0-1.8.8h0c0,.1-.2.4-.3.5h0s0,0,0,0c0-.1-.2-.4-.3-.5h0c-.4-.8-1.6-.8-1.8-.8-1.5,0-2.1-.9-2.1-1-.7-1.1,0-2.3,0-2.4.6-1.1.6-1.8.5-1.9,0-1.2-.7-2.1-.8-2.2,0,0,0-.2,0-.2,0-.1,0-.2.1-.2.2-.1.5-.3.7-.4h0s0,0,0,0c0,0,0,0,.2,0,.1.1.4.3.9.3s.2,0,.3,0c.2,0,.7-.2.7-.2.1,0,.3-.1.4-.2h0c.7-.3,1.2-.3,1.4-.3s.7,0,1.4.3h0c0,0,.2.1.4.2,0,0,.4.2.7.2,0,0,.2,0,.3,0,.5,0,.7-.2.9-.3,0,0,.1,0,.2,0h0s0,0,0,0c.2,0,.5.3.7.4,0,0,0,0,.1.2,0,0,0,.1,0,.2,0,0-.8,1-.8,2.1,0,.2,0,.9.5,1.9,0,0,.7,1.3,0,2.4M21,24.4h0s0,.1,0,.1h0s0,0,0,0h0s0,.1,0,.1h0s0,0,0,0h0s0,0,0,0h0s0,0,0,0h0s0,0,0,0h0c0-.2,0-.2.1-.4,0-.1,0-.2,0-.2.1,0,.2,0,.2,0-.1-.1-.2-.4,0-.6.3-.3,0-.9,0-.9,0,0,.1.3.2.5h0c0,0,0,.1,0,.1h0c0,0,0,.1,0,.1h0c0,0,0,.2,0,.2h0c0,0,0,.1,0,.1h0c0,0,0,.2,0,.2h0c0,0,0,.1,0,.1h0c0,0,0,.1,0,.1h0c0,0,0,.1,0,.1h0M30.3,23.2h.1s0,0,0,0h.1s.1.2.2.4c0,0,0,.3.2.4,0,0,0,.3-.2.2h0c-.2,0-.5-.4-.4-.7,0,0-.1,0-.2,0h0s0,0,0,0h0s0,0,0,0c0,0,0,.1-.2.1,0-.1,0-.2.2-.3h0c0,0,.1,0,.2,0M20.8,21.8c-.1,0-.1-.5-.8-.4-.3.2-.6,0-.8,0,.9-.5,1.7,0,1.6.4M17.7,18.1c-.4-.1-.9-.2-1.1-.6.6,0,1.2,0,1.6.3h0c.1.1.4.4.6.8-.5-.3-.7-.4-1.2-.6M16.3,16.1c-.2,0-.3-.1-.4,0,0,0-.2.2-.2.4,0,.1-.2.2-.2.1-.1-.3.4-.8.5-.8.3-.1.5,0,.8.1.2,0,.4,0,.5,0,.4,0,.3.3.2.3-.3,0-.5-.1-.7-.2-.2,0-.4,0-.6,0M15.8,16.5c.4.1.4-.4.5-.2.1.2-.2.6-.5.2M13.4,30.9h0s0,0,0,0h0c0,0,.1,0,.2.1h0c0,.1-.1.1-.2,0h0c0,0-.2,0-.2-.1,0,.1,0,.2.1.3h0c0,0,0,0,0,0h-.1s0,0,0,0h0c-.1,0-.2-.3-.2-.4,0,0,0-.3-.2-.4.3-.2.7.3.7.3M32.3,18.8c-.1.2-.3.4-.5.5-.4.1-.9-.3-.9-.3,0,0,.4.2.7.2.3,0,.5-.2.7-.3h0M30.6,16.6h0c-.3-.1-.8-.1-1.1,0-.3.1-.5.4-.5.4,0,0,.4-.7,1.2-.8.5,0,.5.2.5.3M40.5,22.8c-.1-1.7-.2-3.2-.7-4.7-.3-.9-.7-2.6-1.9-2.9-.5-.1-.9.4-.9.8,0,.4.3.6.2,1-.1.2-.3.5-.4.8,0,.3.2.4,0,.7-.3,0-.5.2-1,.1-.5.2-.9.1-.9,0h0c.5,0,1-.2,1.1-.4.1-.3,0-.9-.2-1.1-.3,0-.4.3-1.5.3-.8,0-1.1.1-1.2.6,0,0,0-.1,0-.2,0-.3.3-.5.7-.5,0-.1,0-.2,0-.4-.2,0-.2,0-.4,0-.4,0-1,.3-1.1.7,0,0,0,.1,0,.2,0,0,0,.1,0,.2h0c.1.4.4.6,1.1.6h0s-.1,0-.3,0c0,0-.6,0-.9-.3h0c-.2.2-.5.4-.8.4-.3,0-.6-.2-.8-.3-.4-.5.1-1.5.1-1.8,0-.9-1.3-.5-1.8-.3-.6.3-1,.8-1.4,1.2-.2.2-.4.6-.5.8.2,0,.7.3,1,.3h0s0,0,.1,0c.2,0,.6,0,.8-.3,0,0,.1-.1.3-.1s.2,0,.3.1c0,0,.9.7,1.1.9,0,0,.1,0,.1.2,0,0,0,.2-.1.3,0,0-.5.5-.7,1.2,0,0,0,.2-.1.3-.1.3-.2.9.3,1.1,0,0,.5.1.5-.7,0,0,0,.6.5.5.2,0,.3-.2.3-.6h0c0-.4,0-.8,0-1.2h0s0,0,0,.2c0,.2-.1,2.3,1.5,3.6,0,0-.7-.3-1.2-1.2-.3.2-.7.5-.5,1.3,0,.3.3.5.4.6h0c0,0,0,.1-.2,0h0c0-.2-.1-.3-.1-.3-.2-.2-.4-.3-.5-.5h0c-.1-.3,0-1.1-.9-1.1h-.2s0,0,0,0c-.2-.7-.2-1.2-.1-1.2.2-1,.9-1.9,1-2h0c0-.1,0-.2,0-.2h0c-.3-.2-1.1-.8-1.2-.9h0c0,0-.1,0-.2,0s-.2,0-.2,0c-.3.3-.7.3-1,.3s-.1,0-.2,0h0c-.5,0-1-.3-1.1-.3-.8-.3-1.4-.3-1.5-.3s-.7,0-1.5.3c-.1,0-.7.3-1.1.3h0s0,0-.2,0c-.2,0-.6,0-.9-.3h0s0,0-.2,0-.1,0-.2,0h0c0,0-.9.7-1.2.9h0s0,0,0,0h0c0,.2.8,1.1,1,2.1,0,0,0,.2,0,.4,0-.2-.1-.4-.2-.5,0-.1,0-.2-.1-.3-.1-.2-.3-.3-.5-.4-.1,0-.3-.1-.4-.2-.2-.1-.4-.3-.6-.6,0-.5-.3-.9-.3-.9,0,0,.4.2.4.8.4-.4.6-1,.7-1.6.3-.4,1.1-.2,1.4-.2,0,0,.2,0,.3,0,0,0,.1.2.2.2.1,0,.3,0,.4,0,0,0,0,.1.1.2h.1s0,0,0,0h0c.4,0,1-.3,1.1-.3h0s0,0,0,0c-.2-.2-.4-.3-.7-.3-.3,0-.5-.3-.7-.4,0,0-.3,0-.4,0-.6,0-1.1-.2-1.7-.2-.6,0-.6.3-.8.7,0,.1-.2.3-.3.3-.2.2-.3.2-.5.3h0c0-.2-.1-.5-.3-.7h0s0,0,0,0c-.3-.5-.7-.8-1.3-1-.1,0-.2,0-.2-.1-.1,0,0-.2,0-.2.2-.1.5,0,.7-.2.5-.3.3-.7.1-.7-.3,0-.8-.2-.9-.2-.1,0-.2-.3-.4-.4-.2,0-.3,0-.4,0-.1,0-.2.1-.3,0,.1-.2.3-.3.6-.3-.2,0-.2-.4-.4-.5,0,0-.2,0-.4.1,0-.1,0-.5-.3-.7-.2-.1-.2,0-.2.2,0,0,.3.2.3.6h-.1c0,0-.1-.3-.3-.4-.2-.1-.2,0-.2.2,0,0,.2.2.3.5,0,0-.1.1-.2.2-.4,0-.4-.4-.5-.4-.1,0-.3,0-.2.2,0,.2.4.3.5.3h-.1c-.4,0-.5-.2-.6-.3-.1,0-.3,0-.2.2.1.2.5.4.6.4,0,.1-.1.2,0,.3-.3,0-.9.1-.8.5.1,0,.5-.2.8,0,.2.4.6.4.7.4.1.1.2.3.2.5.1.3.3.6.5.8.2.3.4.6.6.9,0,0,0,.2,0,.3-.2.4-1,.8-1.3,1.1-.3.3-3.1,2.4-3.5,3.4,0,.2-.1.5-.1.8-.2,0-.5,0-.6,0-.2-.2.2-.4,0-.7,0-.1-.2-.2-.3-.1-.2,0-.3.5-.2.7,0,0,.1.2,0,.2-.1,0-.2,0-.2-.2,0,0-.1.1,0,.2,0,.2.3.2.4.3,0,0-.1.1-.2,0-.2.2,0,.3,0,.3.2,0,.4-.1.5-.1,0,.1,0,.2-.2.2.3.3.5-.2.8-.2,0,0,1,.8.8,1.5h0c-.2.4-.5.6-.7.8-.5.3.4,2.1.4,3.1,0,.4.3.3.5.9-.2,0-.4,0-.6.2h0c0,0,0,0,0,0,0,0,0,.1,0,.2,0,.3.2.5.5.5s.5-.2.5-.5h0c.1,0,.2,0,.4,0l.4.2s-1.4,1.2-3.8.5c0,0-1.1-.3-.8-1.3,0,0,0-.2.2-.2,0,.1.1.2.2.3,0,0,.2,0,.3,0,.3,0,.5-.2.5-.5s0-.3-.1-.4h0c0,0,0,0,0,0h0c-.2-.1-.4-.2-.8,0,0,0-1,.3-.6,1.4,0,0-.7-.2-1,.2,0,0,0,.1,0,.3h0c0,0,0,.2,0,.2,0,.1.2.2.3.2s.2,0,.3-.1h0s0,0,.2,0c0,0,1,1.1,2.4.9,0,0,0,.7.5.9h0c.1,0,.2-.1.2-.2s-.1-.2-.2-.2h0s0-.2,0-.4c0,0,1.5-.2,2.6-1.1,0,0,.7.2,1.2.2,0,0,0,.2-.3.2,0,0-.4,0-.4.1,0,0,0,.1.3.1,0,0,0,.1.2.3,0,0,.2,0,0,.2,0,0-.3.2-.2.4,0,0,0,.2.5.2,0,0,.1,0,0,.1,0,0-.2.2.1.4,0,0,.3.2.5-.1,0,0,0-.1.2,0,0,0,.9.4,1.4-.3,0,0,0-.1.2,0,0,0,.5.6,1.8.6,0,.2.2.3.4.3s.4-.2.5-.4c.2,0,.7,0,1.3-.5,0,0,.2-.1.5-.2,0,.4.3.7.7.7s.7-.3.7-.7-.2-.6-.6-.7c0,0-.4-.1-1.1.3,0,0-.5.3-.6.3,0,0,.1-.6.2-1.2,0,0-.2,0-.3,0,0,.6-.2,1.3-.4,1.3h-.3c0,0,0,0,0,0,0,0-.2-.2-.4-.1h0c-.2,0-.3.2-.3.3,0,0-.7.1-1-.1,0,0,.6-.2.6-.4,0,0,.2-.3-.4-.6,0,0-.4-.2-.5,0,0,0,0,.1.1.3,0,0,.2.2-.2.2,0,0-.3,0-.3-.1,0,0,0-.7.2-1.2-.1,0-.3,0-.4-.1,0,.2-.1.3-.2.5,0,0,0,.4-.2.5,0,0-.5-.4-.3-1.2-.2,0-.3-.1-.5-.2,0,.4,0,1,.6,1.8,0,0-.4.6-.9.3,0,0-.6-.4-.2-.8,0,0,.3-.2.4,0-.1,0-.3.1-.3.3s.1.3.3.3.3-.1.3-.3c0-.1,0-.4-.2-.6,0,0-.2-.2-.6-.2,0,0,.4-.5.4-.9,0,0,0,0,0-.2-.1,0-.2,0-.3-.1,0,.4-.1,1.1-.7.9,0,0,.3-.6.6-1-.2,0-.4-.2-.6-.3h0c0,.1,0,.5-.1.8,0,0-.3.3-.7-.1,0,0,.6-.5.8-.7-.1,0-.3-.1-.5-.1h-.2s-.4.3-.7.4c0,0,0,0-.2,0,0,0-.5-.6-.1-1.2,0,0,.2-.6.7-.4,0,0,.1,0,.2.2,0,0-.5,0-.4.3,0,0,0,.3.4.3,0,0,.6,0,.5-.8,0,0-.1-.4-.4-.4,0,0,.2-.2,0-.3,0,0-.1-.1-.5,0,0,0,0,.2-.5,0,0,0-.3-.1-.4,0,0,0,0,0,0,.3,0,0,0,.1-.1.4,0,0,0,.2-.1.5-.1,0-.3-.2-.4-.2-.2-.2-.2-1.1-.4-1.6,0-.1,0-.6,0-1.1,1.4-.3,2-1.4,2.1-1.9.2-.8,0-1.6-.1-1.8h0c0,.1.1.2.2.4.7,0,1.2,0,1.5-.2h0s0,0,0,0c0,0,.1,0,.2,0h0c1-.5,1.4-1.4,1.7-1.8-.1,0-.6-.2-.7-.4.4,0,.6.2,1,.2.5,0,.9-.3,1.5-.2,0,0,0,.3.5.4,0,.3,0,.6.1.9,0,0,0,.1,0,.1,0,0-.4.3-.3.6,0,0,0,.2,0,.2h0c0,0-.1,0-.2.2,0,0-.3.6-.1.6h.1c0,.5,0,1.2.3,1.8h0s.7,1.1,2.4,1.1h0c.2,0,1.7,0,2.2,1,0,0,.2.2.3.2s.3-.2.3-.2c.5-1,2.1-1,2.2-1h0c1.7,0,2.4-1.1,2.4-1.1h0c.2-.3.3-.6.4-.9.3-.2.3-.9.3-1.1,0,.1.3.5.7.6,0,.4,0,1,.3,1,.1,0,.2-.2.2-.3.3,1,0,1.5.3,1.6.3,0,.3-.6.4-.6,0,0,.1.2.1.5,0,.3,0,.6,0,.6.4,0,.2-1.2.6-1.1,0,.6,0,.9.2,1,0,.3,0,.5-.1.5-.6.1-1.2-.4-1.8-.2h0c-1-.6-1.7-.2-1.7-.2-.3-.3-.4.1-.5,0-.5-.3-.8.2-1,.2-.1,0-.4-.3-.6.3-.1.3-.7.4-.8.4-.2,0-.3-.1-.3-.1,0,0,0-.1,0-.2h0c0-.2-.2-.2-.2-.2-.2,0-.3.2-.3.3s0,.1,0,.2c0,0,0,0,.2,0,.1,0,.2.1.2.2h0c0,.3-.4.6-.4.6-.2.2-.5,0-.5,0-.2-.1-.3-.1-.3-.1-.2,0-.3.2-.3.2,0,0,0-.2-.3-.2,0,0-.1,0-.3.1,0,0-.3.3-.5,0,0,0-.4-.3-.4-.5h0c0-.1.1-.2.2-.2,0,0,.1,0,.2,0,0,0,0-.1,0-.2,0-.2-.1-.3-.3-.3,0,0-.2,0-.2,0h0c0,.2,0,.2,0,.3,0,0,0,.2-.3.1,0,0-.6-.1-.8-.4-.3-.6-.5-.3-.6-.3-.1,0-.4-.5-1-.2,0,0-.2-.4-.5,0,0,0-.6-.3-1.4,0,0,0-.3-.1-.4-.2-.2,0-.3-.2-.4-.2-.2-.1-.6,0-.9,0-.1,0-.2,0-.3-.1-.3-.2-.7-.5-.9-.8v-.2c-.2-.1-.3-.2-.4-.4-.1-.4,0-.9.1-1.3,0-.2,0-.3,0-.4-.3,0-.8,0-1.3,0,.1.4.2.9.1,1.3.2.2.3.4.3.5,0,.2,0,.4,0,.6.2.3.6.5.8.7,0,0,1.2.9,1.4,1,.2,0,.3,0,.4,0h.1c0,0,0,.2.2.3-.4.2-.8.5-1.1.6,0,0-.5.3-.3.3,0,0,.4,0,.4,0,0,0-.2,0-.4.2.5.2,1.1.4,1.7.5.4-.4.8-.7,1.3-.9,0,0,.7,0,.9-.4,0-.1.3.3.9,0,0,0,.1.1.3.2,0,0-.2,0-.2.3,0,0-.5,0-.6.3,0,0-1.1,0-2,.8.2,0,.3,0,.5.1.3-.2.7-.4,1.1-.4,0,0,.5,0,.8.7.3,0,.7,0,1,.1h0c0,0,.6-.3.4-.6,0,0-.1-.1-.3,0,0,0-.1.1-.2,0,0,0,0-.1,0-.2,0,0,0-.1,0,0,0,0,.2,0,.3,0,.2,0,.3-.2.3-.3s-.1-.4-.3-.4h0s0,.1,0,.1c0,0,0,.1-.1.1-.2,0-.1-.4.1-.5,0,0,.2,0,.4.3,0,0,.5.7.9.8,0,0,0,.2.2.3,0,0,0,.2.3.2,0,0,0,0,.1.2.2,0,.5,0,.7,0s.5,0,.7,0c0-.1.1-.2.1-.2.3,0,.2-.2.3-.2.3,0,.2-.3.2-.3.4-.1.9-.8.9-.8.2-.2.4-.3.4-.3.3,0,.3.4.1.5,0,0-.1,0-.1-.1h0c0,0,0-.1,0-.1-.2,0-.3.2-.3.4s.1.3.3.3c.2,0,.3,0,.3,0,.2,0,0,0,0,0,0,0,0,.2,0,.2,0,.2-.2,0-.2,0-.2-.2-.3,0-.3,0-.2.3.3.5.4.6h0c.4,0,.7,0,1-.1.2-.7.8-.7.8-.7.4,0,.8.1,1.1.4.2,0,.3,0,.5-.1-.9-.8-1.9-.7-2-.8-.2-.3-.6-.2-.6-.3,0-.3-.2-.3-.2-.3.2,0,.3-.2.3-.2.6.3.8-.1.9,0,.2.5.9.4.9.4.5.2.9.6,1.3.9.5-.1,1-.3,1.5-.5h0s0-.1,0-.1h0s0,0,0,0h0c0-.1,0-.1,0-.1-.1-.2-.3-.4-.4-.5h0s0,0,0,0c0,0,.4-.6.6-.2,0,0,0,.2-.3.2,0,0,.3.4.3.7h0c.1,0,.2,0,.2,0h0c-.1-.3-.4-.5-.3-.6,0,0,.3,0,.4,0,0,0,0-.3,0-.5.1,0,.3,0,.4,0,.4,0,.5-.6.4-.8,0,0,.3-.2.3-.2.1.3.8.6.7,0,0,.3.2.6.5.6.3,0,0-.5.2-.5,0,.1.2.6.6.5.1,0,.2-.1.2-.3,0-.5-1.3-3-1.5-4.1h0c-.1,0-.1-.3-.1-.5h0c-.2,0-.4-.2-.5-.7,0-.4.2-.6.2-.6h0c-.1.4-.2.8,0,1,0,0,.1,0,.2,0,0-.1.2-.2.2-.2h0c-.1.3-.1.6,0,.7,0,0,.2.1.3.1.4-.1.6-.9.7-1.1.3,0-.4,1.5,0,1.8.2,0,.3-.3.4-.5.2.4-.5,1.3,0,1.6.3,0,.4-.7.4-.6,0,1.2-.5,1.8-.1,2,.3.2.5-.8.5-.7,0,1.3-.7,1.7-.4,1.9.3.1.6-.7.5-.5,0,1.2-.6,1.5-.4,1.8.3.4.9-.8.9-.5,0,.3-.6,1.6-.3,1.7.3,0,.4-.4.5-.5,1-3.3,1-6.6,1-7.7"/>
      <g>
        <path class="st0" d="M55.8,17.2c-.8,0-1.5-.3-2-.6l.4-.9c.3.3,1,.6,1.5.6s.9-.3.9-.8c0-1.3-2.8-.6-2.8-2.8s.7-1.7,2.1-1.7,1.3.2,1.8.4l-.4.9c-.3-.2-.9-.3-1.4-.3s-.9.2-.9.6c0,1.1,2.8.7,2.8,2.7s-.8,1.8-2.2,1.8Z"/>
        <path class="st0" d="M59,17.1v-6h3.7v1h-2.5v1.5h1.9v1h-1.9v1.5h2.5v1h-3.7Z"/>
        <path class="st0" d="M64.8,17.1h-1.2v-6h1.9c1.2,0,2.1.6,2.1,1.8s-.5,1.4-1.1,1.7c.4.8.9,1.6,1.3,2.5h-1.4l-1-2.3c-.3,0-.4,0-.7,0v2.3ZM65.4,12h-.6v1.9h.6c.8,0,1.1-.3,1.1-1s-.4-.9-1.1-.9Z"/>
        <path class="st0" d="M70.4,15h-.7v2.1h-1.2v-6h1.8c1.2,0,2.3.6,2.3,1.9s-.9,2-2.3,2ZM70.4,12h-.6v2h.6c.7,0,1.1-.4,1.1-1.1s-.4-.9-1.1-.9Z"/>
        <path class="st0" d="M74.2,17.1h-1.1l1.6-6h1.9l1.6,6h-1.3l-.3-1.4h-2.1l-.3,1.4ZM75.4,12.1l-.7,2.7h1.6l-.6-2.7h-.4Z"/>
        <path class="st0" d="M81.1,12v5h-1.2v-5h-1.5v-1h4.2v1h-1.5Z"/>
      </g>
      <g>
        <path class="st0" d="M57.1,23.7v-3.3h-.1c0,.4-.1.7-.2.9l-.5,2.3h-1.1l-.5-2.3c0-.2-.1-.5-.2-.9h0v3.3h-.7v-3.9h1.4s.4,1.9.6,3.2h0c.3-1.2.8-3.2.8-3.2h1.3v3.9c.1,0-.7,0-.7,0Z"/>
        <path class="st0" d="M58.9,23.7v-2.3h-.3v-.5h1.1v2.8h-.7ZM58.8,19.7h.8v.7h-.8v-.7Z"/>
        <path class="st0" d="M62,23.7v-1.7c0-.4-.2-.6-.5-.6s-.4,0-.5.2v2.1h-.7v-2.8h.5v.3c.3-.2.6-.4,1-.4.7,0,1,.4,1,1.1v1.7h-.8Z"/>
        <path class="st0" d="M63.6,23.7v-2.3h-.3v-.5h1.1v2.8h-.7ZM63.6,19.7h.8v.7h-.8v-.7Z"/>
        <path class="st0" d="M65.7,21.6c0,.4,1.2.3,1.2,1.2s-.4.9-1.1.9-.7,0-.8-.2l.2-.5c.1,0,.4.2.7.2s.4-.1.4-.3c0-.5-1.2-.3-1.2-1.3s.3-.8,1.1-.8.6,0,.8.1v.5c-.3,0-.5-.1-.8-.1s-.4,0-.4.3Z"/>
        <path class="st0" d="M68.5,23.7c-.5,0-.8-.2-.8-.9v-1.4h-.4v-.5h.4v-.5l.7-.2v.7h.7v.5h-.7v1.4c0,.2,0,.3.3.3s.3,0,.4-.1v.5c0,0-.3.2-.6.2Z"/>
        <path class="st0" d="M70.4,22.5c0,.4.3.7.7.7s.6-.1.8-.2v.5c0,.1-.5.3-.9.3-.9,0-1.4-.5-1.4-1.5s.4-1.4,1.3-1.4,1.2.6,1.2,1.3v.3h-1.7ZM70.9,21.4c-.4,0-.5.3-.5.7h1c0-.4-.1-.7-.5-.7Z"/>
        <path class="st0" d="M74.3,21.5c0,0-.2,0-.3,0-.2,0-.4,0-.5.2v2h-.7v-2.8h.5v.4h0c0-.2.3-.4.7-.4s.3,0,.3,0v.6Z"/>
        <path class="st0" d="M75,23.7v-2.3h-.3v-.5h1.1v2.8h-.7ZM74.9,19.7h.8v.7h-.8v-.7Z"/>
        <path class="st0" d="M78.9,22.3c0,1-.5,1.5-1.3,1.5s-1.3-.5-1.3-1.5.5-1.4,1.3-1.4,1.3.6,1.3,1.4ZM78.1,22.3c0-.7-.2-.9-.5-.9s-.5.2-.5.9.2.9.5.9.5-.2.5-.9Z"/>
        <path class="st0" d="M82.5,21.1c0-.2,0-.3,0-.5v-.8h.7v3.9h-.6v-.3c-.2.2-.5.4-.8.4-.6,0-1.1-.5-1.1-1.5s.5-1.5,1.2-1.5.5.1.7.3ZM82.5,21.5c-.1,0-.3-.1-.5-.1-.4,0-.6.2-.6.9s.2.9.6.9.4,0,.5-.2v-1.4Z"/>
        <path class="st0" d="M84.5,22.5c0,.4.3.7.7.7s.6-.1.8-.2v.5c0,.1-.5.3-.9.3-.9,0-1.4-.5-1.4-1.5s.4-1.4,1.3-1.4,1.2.6,1.2,1.3v.3h-1.7ZM85,21.4c-.4,0-.5.3-.5.7h1c0-.4-.1-.7-.5-.7Z"/>
        <path class="st0" d="M88.1,22.9v-3.2h.7v3.2c0,.2.1.3.5.3v.5s-.2,0-.4,0c-.6,0-.8-.3-.8-.8Z"/>
        <path class="st0" d="M91.5,23.7v-.3c-.2.2-.5.4-.9.4-.6,0-.9-.4-.9-.9s.4-.8,1.1-.8h.6c0-.5-.2-.6-.5-.6s-.6,0-.8.2l-.2-.5c.3-.1.7-.2,1.1-.2.8,0,1.1.4,1.1,1.1v1.8h-.5ZM91.3,22.4h-.5c-.3,0-.5.1-.5.4s.1.4.4.4.4,0,.5-.2v-.6Z"/>
        <path class="st0" d="M93.3,21.6c0,.4,1.2.3,1.2,1.2s-.4.9-1.1.9-.7,0-.8-.2l.2-.5c.1,0,.4.2.7.2s.4-.1.4-.3c0-.5-1.2-.3-1.2-1.3s.3-.8,1.1-.8.6,0,.8.1v.5c-.3,0-.5-.1-.8-.1s-.4,0-.4.3Z"/>
      </g>
      <g>
        <path class="st0" d="M55.3,30.6c-1.1,0-1.7-.7-1.7-2s.6-2,1.7-2,1,.1,1.3.3l-.3.6c-.2-.2-.5-.3-.9-.3-.6,0-1,.5-1,1.3s.3,1.3.9,1.3.8-.2,1-.4l.2.6c-.4.3-.8.4-1.3.4Z"/>
        <path class="st0" d="M59.1,30.5v-.3c-.2.2-.5.4-1,.4-.7,0-1-.4-1-1.2v-1.7h.7v1.7c0,.4.2.6.5.6s.4,0,.5-.2v-2.1h.8v2.8h-.5Z"/>
        <path class="st0" d="M60.2,29.8v-3.2h.7v3.2c0,.2.1.3.5.3v.5s-.2,0-.4,0c-.6,0-.8-.3-.8-.8Z"/>
        <path class="st0" d="M63,30.6c-.5,0-.8-.2-.8-.9v-1.4h-.4v-.5h.4v-.5l.7-.2v.7h.7v.5h-.7v1.4c0,.2,0,.3.3.3s.3,0,.4-.1v.5c0,0-.3.2-.6.2Z"/>
        <path class="st0" d="M66.1,30.5v-.3c-.2.2-.5.4-1,.4-.7,0-1-.4-1-1.2v-1.7h.7v1.7c0,.4.2.6.5.6s.4,0,.5-.2v-2.1h.8v2.8h-.5Z"/>
        <path class="st0" d="M68.8,28.3c0,0-.2,0-.3,0-.2,0-.4,0-.5.2v2h-.7v-2.8h.5v.4h0c0-.2.3-.4.7-.4s.3,0,.3,0v.6Z"/>
        <path class="st0" d="M71,30.5v-.3c-.2.2-.5.4-.9.4-.6,0-.9-.4-.9-.9s.4-.8,1.1-.8h.6c0-.5-.2-.6-.5-.6s-.6,0-.8.2l-.2-.5c.3-.1.7-.2,1.1-.2.8,0,1.1.4,1.1,1.1v1.8h-.5ZM70.8,29.3h-.5c-.3,0-.5.1-.5.4s.1.4.4.4.4,0,.5-.2v-.6Z"/>
        <path class="st0" d="M72.8,28.4c0,.4,1.2.3,1.2,1.2s-.4.9-1.1.9-.7,0-.8-.2l.2-.5c.1,0,.4.2.7.2s.4-.1.4-.3c0-.5-1.2-.3-1.2-1.3s.3-.8,1.1-.8.6,0,.8.1v.5c-.3,0-.5-.1-.8-.1s-.4,0-.4.3Z"/>
        <path class="st0" d="M74.5,29.7h.8v.9c0,.5-.3.7-.8.7v-.4c.1,0,.2-.1.2-.4h-.2v-.8Z"/>
        <path class="st0" d="M77.2,29.8v-3.2h.7v3.2c0,.2.1.3.5.3v.5s-.2,0-.4,0c-.6,0-.8-.3-.8-.8Z"/>
        <path class="st0" d="M80.6,30.5v-.3c-.2.2-.5.4-.9.4-.6,0-.9-.4-.9-.9s.4-.8,1.1-.8h.6c0-.5-.2-.6-.5-.6s-.6,0-.8.2l-.2-.5c.3-.1.7-.2,1.1-.2.8,0,1.1.4,1.1,1.1v1.8h-.5ZM80.4,29.3h-.5c-.3,0-.5.1-.5.4s.1.4.4.4.4,0,.5-.2v-.6Z"/>
        <path class="st0" d="M82.4,28.4c0,.4,1.2.3,1.2,1.2s-.4.9-1.1.9-.7,0-.8-.2l.2-.5c.1,0,.4.2.7.2s.4-.1.4-.3c0-.5-1.2-.3-1.2-1.3s.3-.8,1.1-.8.6,0,.8.1v.5c-.3,0-.5-.1-.8-.1s-.4,0-.4.3Z"/>
        <path class="st0" d="M85.9,30.5h-.7l1-3.9h1.2l1,3.9h-.8l-.2-.9h-1.3l-.2.9ZM86.7,27.3l-.4,1.7h1l-.4-1.7h-.2Z"/>
        <path class="st0" d="M90.5,28.3c0,0-.2,0-.3,0-.2,0-.4,0-.5.2v2h-.7v-2.8h.5v.4h0c0-.2.3-.4.7-.4s.3,0,.3,0v.6Z"/>
        <path class="st0" d="M91.9,30.6c-.5,0-.8-.2-.8-.9v-1.4h-.4v-.5h.4v-.5l.7-.2v.7h.7v.5h-.7v1.4c0,.2,0,.3.3.3s.3,0,.4-.1v.5c0,0-.3.2-.6.2Z"/>
        <path class="st0" d="M93.8,29.3c0,.4.3.7.7.7s.6-.1.8-.2v.5c0,.1-.5.3-.9.3-.9,0-1.4-.5-1.4-1.5s.4-1.4,1.3-1.4,1.2.6,1.2,1.3v.3h-1.7ZM94.3,28.2c-.4,0-.5.3-.5.7h1c0-.4-.1-.7-.5-.7Z"/>
        <path class="st0" d="M96.8,28.4c0,.4,1.2.3,1.2,1.2s-.4.9-1.1.9-.7,0-.8-.2l.2-.5c.1,0,.4.2.7.2s.4-.1.4-.3c0-.5-1.2-.3-1.2-1.3s.3-.8,1.1-.8.6,0,.8.1v.5c-.3,0-.5-.1-.8-.1s-.4,0-.4.3Z"/>
      </g>
      <g>
        <path class="st0" d="M54.8,37.3h-.5c0,0-.8-2.7-.8-2.7h.8l.6,2.3h0l.6-2.3h.7l-.9,2.9c-.2.8-.6,1.1-1.2,1.1s-.7-.2-.8-.3l.2-.5h0s.3.2.5.2.5-.2.6-.6h0Z"/>
        <path class="st0" d="M58.6,36.2c0,.4.3.7.7.7s.6-.1.8-.2v.5c0,.1-.5.3-.9.3-.9,0-1.4-.5-1.4-1.5s.4-1.4,1.3-1.4,1.2.6,1.2,1.3v.3h-1.7ZM59.1,35c-.4,0-.5.3-.5.7h1c0-.4-.1-.7-.5-.7Z"/>
        <path class="st0" d="M60.9,36.6v-3.2h.7v3.2c0,.2.1.3.5.3v.5s-.2,0-.4,0c-.6,0-.8-.3-.8-.8Z"/>
        <path class="st0" d="M65,36h-.4v1.3h-.7v-3.9h1.2c.8,0,1.5.4,1.5,1.2s-.6,1.3-1.5,1.3ZM65,34.1h-.4v1.3h.4c.4,0,.7-.3.7-.7s-.3-.6-.7-.6Z"/>
        <path class="st0" d="M68.6,37.4v-.3c-.2.2-.5.4-.9.4-.6,0-.9-.4-.9-.9s.4-.8,1.1-.8h.6c0-.5-.2-.6-.5-.6s-.6,0-.8.2l-.2-.5c.3-.1.7-.2,1.1-.2.8,0,1.1.4,1.1,1.1v1.8h-.5ZM68.4,36.1h-.5c-.3,0-.5.1-.5.4s.1.4.4.4.4,0,.5-.2v-.6Z"/>
        <path class="st0" d="M70.8,37.4c-.5,0-.8-.2-.8-.9v-1.4h-.4v-.5h.4v-.5l.7-.2v.7h.7v.5h-.7v1.4c0,.2,0,.3.3.3s.3,0,.4-.1v.5c0,0-.3.2-.6.2Z"/>
        <path class="st0" d="M73.6,35.2c0,0-.2,0-.3,0-.2,0-.4,0-.5.2v2h-.7v-2.8h.5v.4h0c0-.2.3-.4.7-.4s.3,0,.3,0v.6Z"/>
        <path class="st0" d="M74.3,37.4v-2.3h-.3v-.5h1.1v2.8h-.7ZM74.3,33.4h.8v.7h-.8v-.7Z"/>
        <path class="st0" d="M78.2,35.6v1.7h-.8v-1.7c0-.4-.2-.6-.5-.6s-.3,0-.5.2v2.1h-.7v-2.8h.5v.3c.3-.2.6-.4,1-.4s.7.1.9.4c.2-.2.5-.4.8-.4.8,0,1,.4,1,1.1v1.7h-.8v-1.7c0-.4-.2-.6-.5-.6s-.3,0-.5.2c0,.1,0,.2,0,.4Z"/>
        <path class="st0" d="M83.1,36c0,1-.5,1.5-1.3,1.5s-1.3-.5-1.3-1.5.5-1.4,1.3-1.4,1.3.6,1.3,1.4ZM82.3,36c0-.7-.2-.9-.5-.9s-.5.2-.5.9.2.9.5.9.5-.2.5-.9Z"/>
        <path class="st0" d="M85.3,37.4v-1.7c0-.4-.2-.6-.5-.6s-.4,0-.5.2v2.1h-.7v-2.8h.5v.3c.3-.2.6-.4,1-.4.7,0,1,.4,1,1.1v1.7h-.8Z"/>
        <path class="st0" d="M86.9,37.4v-2.3h-.3v-.5h1.1v2.8h-.7ZM86.9,33.4h.8v.7h-.8v-.7Z"/>
        <path class="st0" d="M90.9,36c0,1-.5,1.5-1.3,1.5s-1.3-.5-1.3-1.5.5-1.4,1.3-1.4,1.3.6,1.3,1.4ZM90.1,36c0-.7-.2-.9-.5-.9s-.5.2-.5.9.2.9.5.9.5-.2.5-.9Z"/>
      </g>
    </g>
    <g>
      <path class="st0" d="M57.4,99.9c-.7.3-1.2.5-1.8.5-1.5,0-2.2-1-2.2-2.6s.7-2.5,2.3-2.5,1.2.2,1.6.4l-.4.7c-.3-.2-.7-.3-1.2-.3-.9,0-1.3.7-1.3,1.6s.4,1.8,1.3,1.8.6,0,.9-.2v-.9h-.7v-.7c0,0,1.6,0,1.6,0v2.2Z"/>
      <path class="st0" d="M61.4,98.5c0,1.2-.6,1.9-1.7,1.9s-1.7-.6-1.7-1.9.6-1.9,1.7-1.9,1.7.8,1.7,1.9M60.4,98.5c0-.9-.3-1.2-.7-1.2s-.7.3-.7,1.2.2,1.2.7,1.2.7-.3.7-1.2"/>
      <path class="st0" d="M63,97c.2-.2.5-.4.9-.4.8,0,1.4.6,1.4,1.9s-.7,1.9-1.6,1.9-.8-.2-1-.5l-.2.4h-.5v-5h1v1.8ZM63.1,99.3c.1.2.4.4.6.4.4,0,.7-.3.7-1.2s-.3-1.2-.7-1.2-.5.1-.7.3v1.7Z"/>
      <path class="st0" d="M66.4,100.3v-2.9h-.4v-.7h1.4v3.6h-.9ZM66.4,95.2h1v.9h-1v-.9Z"/>
      <path class="st0" d="M69,98.7c0,.6.3.9.9.9s.7-.2,1-.3l.2.7c-.3.2-.8.4-1.3.4-1.1,0-1.8-.7-1.8-1.9s.5-1.9,1.7-1.9,1.5.8,1.5,1.7v.4h-2.2ZM69.7,97.3c-.5,0-.7.4-.7.9h1.3c0-.5-.1-.9-.6-.9"/>
      <path class="st0" d="M74,97.5c-.1,0-.3,0-.4,0-.3,0-.5.1-.6.2v2.6h-.9v-3.6h.7c0,.2,0,.3.1.5h0c.1-.3.4-.5.9-.5s.3,0,.4,0c0,.3,0,.5,0,.8"/>
      <path class="st0" d="M76.8,100.3v-2.1c0-.5-.2-.8-.6-.8s-.5.1-.6.2v2.7h-1v-3.6h.7v.4c.3-.2.7-.5,1.3-.5.9,0,1.3.5,1.3,1.4v2.2h-1Z"/>
      <path class="st0" d="M81.8,98.5c0,1.2-.6,1.9-1.7,1.9s-1.7-.6-1.7-1.9.6-1.9,1.7-1.9,1.7.8,1.7,1.9M80.8,98.5c0-.9-.3-1.2-.7-1.2s-.7.3-.7,1.2.2,1.2.7,1.2.7-.3.7-1.2"/>
      <path class="st0" d="M86.4,97c0-.2,0-.4,0-.7v-1.1h1v5h-.8v-.4c-.3.2-.6.5-1.1.5-.8,0-1.5-.6-1.5-1.9s.7-1.9,1.5-1.9.7.1.9.4M86.3,97.5c-.1,0-.4-.2-.6-.2-.5,0-.7.3-.7,1.1s.3,1.2.7,1.2.5-.1.7-.3v-1.8Z"/>
      <path class="st0" d="M89,98.7c0,.6.3.9.9.9s.7-.2,1-.3l.2.7c-.3.2-.8.4-1.3.4-1.1,0-1.8-.7-1.8-1.9s.5-1.9,1.7-1.9,1.5.8,1.5,1.7v.4h-2.2ZM89.6,97.3c-.5,0-.7.4-.7.9h1.3c0-.5-.1-.9-.6-.9"/>
      <path class="st0" d="M95.5,100.3c-1.4,0-2.1-.9-2.1-2.6s.7-2.5,2.1-2.5,1.3.1,1.7.4l-.4.8c-.3-.2-.7-.3-1.2-.3-.8,0-1.2.6-1.2,1.7s.4,1.7,1.2,1.7,1-.2,1.3-.5l.3.8c-.5.3-1,.5-1.7.5"/>
      <path class="st0" d="M97.9,100.3v-5h1v1.3c0,.2,0,.5,0,.6.2-.2.5-.5,1-.5,1,0,1.3.5,1.3,1.4v2.2h-1v-2.1c0,0,0-.2,0-.2,0-.4-.2-.6-.6-.6s-.5.1-.6.2v2.7h-1Z"/>
      <path class="st0" d="M102.1,100.3v-2.9h-.4v-.7h1.4v3.6h-.9ZM102.1,95.2h1v.9h-1v-.9Z"/>
      <path class="st0" d="M104,99.3v-4.1h.9v4c0,.3.2.3.6.3v.7s-.3,0-.5,0c-.7,0-1-.4-1-1"/>
      <path class="st0" d="M106.9,98.7c0,.6.3.9.9.9s.7-.2,1-.3l.2.7c-.3.2-.8.4-1.3.4-1.1,0-1.8-.7-1.8-1.9s.5-1.9,1.7-1.9,1.5.8,1.5,1.7v.4h-2.2ZM107.6,97.3c-.5,0-.7.4-.7.9h1.3c0-.5-.1-.9-.6-.9"/>
      <path class="st0" d="M1.5,2.8v104.3h114.4V2.8H1.5ZM3.3,4.6h44.5v100.8s-44.5,0-44.5,0V4.6ZM114.1,105.4H49.6V4.6s64.5,0,64.5,0v100.8Z"/>
    </g>
  </g>
</svg>