<svg viewBox="0 0 33.2 54.4" xmlns="http://www.w3.org/2000/svg"><g fill="none" stroke="#901441" stroke-miterlimit="10" stroke-width=".8"><path d="m24.2 6.5c0 2.7-2.2 4.9-4.9 4.9s-4.9-2.2-4.9-4.9 2.2-4.9 4.9-4.9 4.9 2.2 4.9 4.9z"/><path d="m30.7 27.4c-1-.4-7.3-3.6-7.3-3.6s-2.2-4.8-3.4-7.4c-1.1-2.5-1.9-3.1-3.4-3.1h-2.4c-1.3 0-1.7.5-2.5.9l-6.5 5.5c-.6.3-.9.8-1.1 1.5l-1.4 9.3c-.2 1.5.6 2.1 1.5 2.3.7.2 1.8-.2 2-1.3.2-.9 1.5-8.5 1.5-8.5l4.2-3.2c-.7 3.2-1.4 6.8-1.6 8-.4 2.1.6 3.6 1.4 4.8.7 1.1 10.3 16.2 11.5 17.8 1.3 1.6 2.4 2.4 4.2 1.5 1.5-.8 1.2-2.7.4-4.1s-10.4-17-10.4-17l1.6-7s1.1 1.6 1.7 2.5c.3.4.6.6 1.3 1 .9.5 5.2 2.4 6.5 3 1.2.5 2.6.7 3.2-.3s-.2-2.3-1-2.7z"/><path d="m9.4 33.8-2 6.9s-4.1 5.9-5.2 7.5c-.9 1.2-1.5 2.8 0 3.9 1.6 1.2 2.9-.4 3.8-1.3.8-.9 3.9-5.3 4.8-6.4.6-.8.9-1.4 1.2-2 .2-.4.8-2.2 1.2-3.3l-3.8-5.2z"/></g></svg>