<svg viewBox="0 0 55 55" xmlns="http://www.w3.org/2000/svg"><path d="m15.2 7.4c-1.5 0-3 1-3.5 2.4l-2.2 5h-5c-2 0-3.7 1.7-3.7 3.7s1.7 3.7 3.7 3.7h1.7c-1.8 1.2-2.9 3.3-2.9 5.6v12.3c0 .3.3.6.6.6h4.3v6.8c0 .3.3.6.6.6h7.4c.3 0 .6-.3.6-.6v-6.8h21v6.8c0 .3.3.6.6.6h7.4c.3 0 .6-.3.6-.6v-6.8h4.3c.3 0 .6-.3.6-.6v-12.3c0-2.3-1.2-4.4-2.9-5.6h1.7c2 0 3.7-1.7 3.7-3.7s-1.7-3.7-3.7-3.7h-5l-2.2-5s0 0 0 0c-.5-1.4-2-2.4-3.5-2.4zm0 1.2h24.2c.9 0 2 .8 2.4 1.6s4.8 11 4.8 11c-.6-.2-1.3-.3-2-.3h-34.6c-.7 0-1.4.1-2 .3l4.8-11s0 0 0 0c.3-.8 1.5-1.6 2.4-1.6m-10.7 7.4h4.5l-2.2 4.9h-2.3c-1.4 0-2.5-1.1-2.5-2.5s1.1-2.5 2.5-2.5m41.1.1h4.5c1.4 0 2.5 1.1 2.5 2.5s-1.1 2.5-2.5 2.5h-2.3l-2.2-4.9zm-35.6 6.2h34.5c3.1 0 5.6 2.5 5.6 5.6v11.7h-45.6v-11.7c0-3.1 2.5-5.6 5.6-5.6m-1.4 6.1c-.3 0-.5.3-.5.6v6.2c0 .3.3.6.6.6h5.1c2 0 3.6-1.7 3.6-3.7s-1.6-3.7-3.6-3.7h-5.1s0 0 0 0m31.9 0c-2 0-3.6 1.7-3.6 3.7s1.6 3.7 3.6 3.7h5.1c.3 0 .6-.3.6-.6v-6.2c0-.3-.3-.6-.6-.6zm-31.3 1.3h4.4c1.3 0 2.3 1.1 2.3 2.5s-1 2.5-2.3 2.5h-4.4v-4.9zm31.3 0h4.4v4.9h-4.4c-1.3 0-2.3-1.1-2.3-2.5s1-2.5 2.3-2.5m-31.3 11.2h6.2v6.2h-6.2zm29.6 0h6.2v6.2h-6.2z" fill="#901441"/></svg>