<svg viewBox="0 0 90 100" xmlns="http://www.w3.org/2000/svg"><g fill="none" stroke="#fff" stroke-miterlimit="10" stroke-width="2"><path d="m45 16.4c-2.1 0-3.6.9-5 2.2-1.7 1.5-1.9 3.1-2 5.3-.1 2.3 0 4.5.1 6.8.2 2.5 0 5.2-1.9 7-2.1 2-4.5 4.4-4.9 7.5-.1 1.3.1 2.8.6 4 .5 1.3 1.6 2 2.2 3.3 2.7 6.1-.1 13.4-.9 19.8-.4 3-.7 6.1-.9 9.1-.1 1.3-.5 3.6.3 4.7 1.6 2.1 5.3 1 7.4 2.2.3-3.6.5-7.2.8-10.8.4-4.8 0-9.8.3-14.7.2-3.4.1-6.9.1-10.3s-.3-2.4 0-3.4c.3-1.1 1.4-2 2.1-3 1.5-2.2 1-5.8-2.3-5.7-.2-2.3.3-4.6 0-6.9-.2-1.3.3-2.7.1-3.9-.2-1.8-1.7-3-1.5-5 .7-6.8 14-5.1 10.5 2.2-.6 1.2-1 1.9-1.2 3.3-.2 1.6-.2 3.2-.2 4.8s.4 4.1-.2 5.7c-1.9-.5-2.9 2.3-2.7 4 .2 1.3 1.3 2.3 2.1 3.2 1 1.2 1.6 2.4 1.6 4 0 3.2-1 6.2-.9 9.5.2 3.9.8 7.8.8 11.7s.4 5.1 0 7.6c-.4 2.7-.1 5.3 0 8 2.9.2 5.8-1 8.3-2.1.2-2.6-.4-5.5-.8-8.1-.5-3.5-.7-7.1-1.2-10.6-.5-3.2-.9-6.3-1.1-9.5 0-1.4-.2-3 .3-4.3s1.5-2.2 2.3-3.3c1.4-2 2.8-4.9 2-7.4-.8-2.6-3.4-3.7-5.2-5.6-1.8-2-2.3-4.9-2.3-7.5s.9-5.1.6-7.6c-.2-2.2-1.7-4.7-3.9-5.6-1.2-.5-3.8-.8-3.5-.8z"/><path d="m37.6 34.9c-6.1-3.5-7.8-12-4.5-18.1 2.3-4.2 8.3-6.3 12.9-5.5 4.9.9 10.7 4.6 11.6 9.8.6 3.3.5 6.3-1.3 9.2-.5.7-3.6 4.7-4 4.4"/></g></svg>