<svg viewBox="0 0 90 100" xmlns="http://www.w3.org/2000/svg"><path d="m56.2 41.6h-5.2c-.5 0-.9-.4-.9-.9v-5.2c0-2.4-2-4.4-4.4-4.4h-1.7c-2.4 0-4.4 2-4.4 4.4v5.2c0 .5-.4.9-.9.9h-5.2c-2.4 0-4.4 2-4.4 4.4s2 4.4 4.4 4.4h5.2c.2 0 .5 0 .6.3.2.2.3.4.3.6v31.4c0 1.2.4 2.3 1.2 3.1s1.9 1.3 3.1 1.3h1.9c1.2 0 2.3-.5 3.1-1.3s1.3-1.9 1.3-3.1v-31.4c0-.2 0-.5.2-.6.2-.2.4-.3.6-.3h5.2c2.4 0 4.4-2 4.4-4.4s-2-4.4-4.4-4.4zm-11.2 36.6h-.3c-.5 0-.9-.4-.9-.9s.4-.9.9-.9h.3c.5 0 .9.4.9.9s-.4.9-.9.9zm0-5.2h-.3c-.5 0-.9-.4-.9-.9s.4-.9.9-.9h.3c.5 0 .9.4.9.9s-.4.9-.9.9zm0-5.2h-.3c-.5 0-.9-.4-.9-.9s.4-.9.9-.9h.3c.5 0 .9.4.9.9s-.4.9-.9.9zm0-5.3h-.3c-.5 0-.9-.4-.9-.9s.4-.9.9-.9h.3c.5 0 .9.4.9.9s-.4.9-.9.9z" fill="none" stroke="#fff" stroke-miterlimit="10" stroke-width="2"/><g fill="#fff"><path d="m45 23c.5 0 .9-.4.9-.9v-9.2c0-.5-.4-.9-.9-.9s-.9.4-.9.9v9.2c0 .5.4.9.9.9"/><path d="m73.4 38.4c.1 0 .3 0 .4-.1l8.5-4.6c.4-.2.6-.8.4-1.2s-.8-.6-1.2-.4l-8.5 4.6c-.4.2-.6.8-.4 1.2.2.3.5.5.8.5"/><path d="m17 36.7-8.5-4.6c-.4-.2-1 0-1.2.4s0 1 .4 1.2l8.5 4.6c.1 0 .3.1.4.1.3 0 .6-.2.8-.5.2-.4 0-1-.4-1.2"/><path d="m64.1 21.8c-.4-.3-.9-.1-1.2.3l-3 4.9c-.3.4-.1.9.3 1.2.1 0 .3.1.5.1.3 0 .6-.1.7-.4l3-4.9c.3-.4.1-.9-.3-1.2"/><path d="m82.4 52.1h-6c-.5 0-.9.4-.9.9s.4.9.9.9h6c.5 0 .9-.4.9-.9s-.4-.9-.9-.9"/><path d="m13.7 53.8c.5 0 .9-.4.9-.9s-.4-.9-.9-.9h-6c-.5 0-.9.4-.9.9s.4.9.9.9z"/><path d="m28.6 27.9c.2.3.5.4.7.4s.3 0 .5-.1c.4-.3.5-.8.3-1.2l-3-4.9c-.3-.4-.8-.5-1.2-.3-.4.3-.5.8-.3 1.2z"/><path d="m82.4 72.2-8.5-4.6c-.4-.2-1 0-1.2.4s0 1 .4 1.2l8.5 4.6c.1 0 .3.1.4.1.3 0 .6-.2.8-.5.2-.4 0-1-.4-1.2"/><path d="m16.2 67.6-8.5 4.6c-.4.2-.6.8-.4 1.2.2.3.5.5.8.5s.3 0 .4-.1l8.5-4.6c.4-.2.6-.8.4-1.2s-.8-.6-1.2-.4"/><path d="m61.4 78c-.3-.4-.8-.5-1.2-.3s-.5.8-.3 1.2l3 4.9c.2.3.5.4.7.4s.3 0 .5-.1c.4-.3.5-.8.3-1.2z"/><path d="m29.8 77.7c-.4-.3-.9-.1-1.2.3l-3 4.9c-.3.4-.1.9.3 1.2.1 0 .3.1.5.1.3 0 .6-.1.7-.4l3-4.9c.3-.4.1-.9-.3-1.2"/></g></svg>