<svg viewBox="0 0 90 100" xmlns="http://www.w3.org/2000/svg"><g fill="none" stroke="#fff" stroke-miterlimit="10" stroke-width="2"><path d="m16.5 64.2c-.2 1.3 0 2.8 0 4.1 0 1-.5 3.4 0 4.2 1 1.6 6.1.6 7.8.7 3.2.2 6.4-.1 9.6-.1 6.5 0 12.9-.1 19.4-.1 7.9 0 15.9.9 23.6.2.2-2.5.9-5.7.3-8.1-.4-1.6-1.1-1.1-2.5-1-2.5.2-4.8-.3-7.2-.5-5.7-.6-11.6-.4-17.3-.4-3.3 0-6.6.5-9.9.5-2.9 0-5.8-.1-8.6-.1-3.3 0-6.7-.3-10-.1-1.4 0-4-.3-5 .8z"/><path d="m35.9 63.7c5.8-5.1 12.5-9.2 18.5-14 1.5-1.2 2.3-1.5 3.9-2.9.2 0 .6-.4.8-.5-1-1.1-1.7-1.9-2.7-3.6-3.1 2.4-6.5 4.7-9.6 7.3-1.7 1.3-3.2 2.7-5 3.8-1 .6-3.5 2.2-4.6 2.9"/><path d="m56.2 42c-.6-1.2 0-3.3 1-4.1.7-.6 1.3-.2 1.9-.4.8-.3 1.4-1.6 2.1-2.2 1.8-1.5 3.8-3 5.7-4.4 1.6-1.2 3.6-2.6 5.8-2.3 4.3.6 6.1 4.7 4.4 8.6-1.3 2.8-3 3.9-5.5 5.4-1 .6-2.1 1.3-3.1 1.9-.9.5-1.6.5-2.5.8-1.2.4-.7 1.4-1.8 2.1-1 .7-2.6.8-3.5.2-1.7-1.1-3.5-3.5-4.5-5.6z"/><path d="m26.1 43.7c4.4-.4 6.7 4.6 4.6 8.1-.9 1.5-2.9 2.9-4.7 3.1-2.2.2-6.2-.9-7.2-3-2.3-4.7-.8-12 4.4-14 7.2-2.8 16.3 1.3 16.2 9.7 0 3.6-1.1 8.3-3.6 11-1.8 1.9-4.4 3.4-6.7 4.4-.4.2-1.3.4-1.7.4"/></g></svg>