<?xml version="1.0" encoding="UTF-8"?>
<svg id="Capa_2" data-name="Capa 2" xmlns="http://www.w3.org/2000/svg" viewBox="0 0 183.29 72.61">
  <defs>
    <style>
      .cls-1 {
        fill: #fff;
        stroke-width: 0px;
      }
    </style>
  </defs>
  <g id="Capa_34" data-name="Capa 34">
    <g>
      <path class="cls-1" d="M39.62,23.75c.33,1.76.64,3.41.98,5.23-1.49.29-2.94.56-4.38.85-7.65,1.55-15.23,3.35-22.3,6.77-2.09,1.01-3.99,2.43-5.95,3.68-.35.22-.63.56-.92.87-2.23,2.38-2.21,4.49.08,6.85,2.07,2.13,4.64,3.53,7.3,4.75,7.24,3.31,14.91,5.21,22.69,6.69,10.24,1.95,20.58,3.02,30.99,3.51.91.04,1.81.1,2.82.15.09-1.32.18-2.49.28-3.83,8.15,2.51,16.23,5,24.3,7.49,0,.06-.01.13-.02.19-8.2,1.87-16.4,3.75-24.75,5.65,0-1.15-.05-2.14.02-3.12.06-.82-.28-1.05-1.04-1.1-4.64-.3-9.28-.52-13.9-.98-13.2-1.32-26.28-3.3-38.84-7.82-3.98-1.44-7.84-3.17-11.23-5.75-1.06-.81-2.08-1.72-2.97-2.71-3.7-4.11-3.66-9.19.06-13.3,2.82-3.12,6.42-5.09,10.2-6.75,7.74-3.41,15.91-5.34,24.19-6.9.75-.14,1.5-.27,2.42-.43Z"/>
      <path class="cls-1" d="M155.36,33.66c-.37,1.43-.71,2.75-1.08,4.18-7.53-4.14-14.94-8.21-22.65-12.45,8.77-.19,17.2-.37,25.79-.55-.25,1.2-.47,2.3-.72,3.48,1.61.47,3.15.91,4.68,1.37,4.93,1.5,9.78,3.24,14.15,6.04,1.76,1.13,3.46,2.46,4.9,3.98,3.8,4.01,3.78,9.15.12,13.28-2.93,3.3-6.73,5.32-10.69,7.04-7.19,3.12-14.75,4.99-22.42,6.44-13.39,2.54-26.92,3.71-40.53,4.05-1.02.03-1.38-.29-1.34-1.28.04-1.19-.02-2.38-.03-3.57,0-.11.05-.21.11-.43,1.62-.07,3.26-.17,4.9-.22,11.99-.39,23.92-1.47,35.71-3.73,8.23-1.58,16.38-3.52,23.91-7.35,2.03-1.03,3.99-2.34,5.7-3.84,2.77-2.42,2.69-4.82.06-7.38-2.32-2.27-5.13-3.82-8.11-4.96-3.76-1.44-7.61-2.63-11.43-3.91-.28-.1-.6-.11-1.04-.19Z"/>
      <path class="cls-1" d="M125.25,25.5c-.16,4.76-.42,8.26-1.77,11.6-2.63,6.52-9.8,9.29-16.13,6.18-3.18-1.57-4.82-4.35-5.63-7.62-1.41-5.73-1.42-11.5.22-17.18,1.22-4.22,3.63-7.54,8.15-8.56,6.68-1.5,12.33.81,14.18,8.7.62,2.63.77,5.38.97,6.88ZM117.89,27.63c-.16-2.4-.22-4.09-.41-5.76-.21-1.91-.55-3.81-1.71-5.42-1.36-1.88-3.91-2.01-5.3-.15-.71.95-1.27,2.13-1.54,3.29-1.07,4.5-1.05,9.06-.32,13.6.21,1.3.64,2.63,1.28,3.77,1.51,2.67,4.66,2.62,6.17-.05.45-.79.82-1.68.96-2.57.39-2.45.64-4.93.86-6.71Z"/>
      <path class="cls-1" d="M94.82,16.28c-3.68-1.5-7.27-2.2-10.54.52-2.7,2.24-3.46,5.38-3.56,8.98.34-.27.54-.38.66-.53,2.34-2.87,5.45-3.45,8.85-2.81,3.44.64,5.46,2.94,6.47,6.19,1.71,5.52-.25,11.24-4.79,14.11-5.89,3.72-13.69,1.45-16.63-4.83-1.45-3.11-1.8-6.43-1.73-9.78.09-4.23.82-8.32,3.14-11.99,3.08-4.86,7.57-6.89,13.2-6.58,1.41.08,2.81.34,4.21.59.28.05.69.45.69.69.06,1.79.03,3.58.03,5.45ZM90.42,33.12c-.08-.04-.15-.07-.23-.11-.09-.68-.12-1.38-.27-2.05-.49-2.12-1.77-3.26-3.78-3.43-2.19-.19-3.94.77-4.69,2.76-.95,2.51-.64,4.94,1.02,7.07,1.73,2.22,5.09,2.09,6.56-.32.71-1.16.95-2.61,1.4-3.92Z"/>
      <path class="cls-1" d="M60.49,26.17c1.37.49,2.57.79,3.65,1.33,5.6,2.84,4.75,10.38,1.37,13.51-2.03,1.88-4.44,2.83-7.14,3.17-3.54.44-7.04.31-10.45-.91-.86-.31-1.3-.7-1.23-1.72.1-1.57.03-3.15.03-4.87.39.19.69.31.97.47,2.83,1.53,5.82,2.13,9.01,1.55,2.4-.44,3.93-2.05,4.08-4.2.15-2.15-1.04-3.86-3.41-4.59-1.16-.35-2.4-.45-3.62-.55-1.06-.09-2.13-.02-3.3-.02v-5.59c1,0,1.96.07,2.9-.02,1.21-.12,2.47-.2,3.61-.58,2.16-.71,3.04-2.39,2.72-4.71-.26-1.92-1.63-3.14-3.8-3.36-2.23-.23-4.36.12-6.37,1.15-.41.21-.82.41-1.44.73,0-1.9-.02-3.68.02-5.45,0-.18.32-.42.54-.51,4.51-1.82,9.11-2.21,13.68-.36,3.44,1.39,5,4.19,4.83,7.98-.16,3.44-2.01,5.86-5.45,7.09-.35.12-.69.26-1.2.46Z"/>
      <path class="cls-1" d="M129.22,8.93C129.2,4.02,133.13.03,138.02,0c4.86-.03,8.89,3.96,8.92,8.83.03,4.93-3.99,8.99-8.89,8.98-4.88,0-8.82-3.97-8.84-8.88ZM141.54,8.97c.02-1.97-1.5-3.55-3.44-3.57-1.9-.02-3.54,1.6-3.55,3.5,0,1.85,1.57,3.46,3.42,3.5,1.94.05,3.54-1.5,3.56-3.44Z"/>
    </g>
  </g>
</svg>