<svg enable-background="new 0 0 107 143" viewBox="0 0 107 143" xmlns="http://www.w3.org/2000/svg"><g fill="none" stroke="#901443" stroke-miterlimit="10"><path d="m83.6 141.5c3 .5 6.3.2 9.3 0 2.2-.1 7.6 1 9.5-.1 3.6-2.2 1.3-13.8 1.5-17.5.4-7.2-.3-14.5-.3-21.7-.1-14.6-.3-29.2-.3-43.8 0-17.8 2.1-35.9.5-53.3-5.6-.3-13-1.9-18.3-.6-3.6.9-2.6 2.5-2.3 5.7.5 5.7-.6 10.7-1.1 16.4-1.2 13-.9 26.2-.9 39.2 0 7.5 1.2 14.9 1.1 22.3 0 6.5-.3 13-.3 19.5 0 7.5-.7 15.1-.3 22.6.4 3-.5 9.1 1.9 11.3z"/><path d="m82.5 97.4c-11.6-13-20.9-28.2-31.8-41.8-2.7-3.4-3.5-5.2-6.5-8.8-.2-.4-.9-1.3-1.2-1.8-2.5 2.2-4.4 4-8 6 5.5 7.1 10.7 14.7 16.4 21.8 3 3.8 6.1 7.3 8.5 11.4 1.4 2.4 5 7.9 6.5 10.4"/><path d="m33.6 51.6c-2.8 1.2-7.4.2-9.4-2.4-1.2-1.6-.4-3-1-4.3-.8-1.7-3.6-3.1-5-4.7-3.5-4-6.8-8.6-9.8-12.9-2.7-3.7-5.9-8-5.2-13.1 1.4-9.6 10.7-13.8 19.6-9.8 6.4 2.9 8.8 6.8 12.3 12.4 1.5 2.3 2.9 4.6 4.2 7.1 1.1 2 1 3.7 1.7 5.7.9 2.8 3.1 1.7 4.7 4s1.8 6 .5 7.9c-2.6 3.8-8 7.9-12.6 10.1z"/><path d="m37.4 119.7c-1-9.9 10.3-15.2 18.3-10.3 3.5 2.1 6.6 6.6 6.9 10.7.4 4.9-2.1 14.1-6.8 16.3-10.6 5.1-27.2 1.9-31.8-10-6.2-16.4 3-36.8 21.9-36.6 8.1.1 18.7 2.5 24.9 8.1 4.4 4 7.6 10 10 15.2.4.9 1 2.8 1 3.9"/></g></svg>