<svg enable-background="new 0 0 107 143" viewBox="0 0 107 143" xmlns="http://www.w3.org/2000/svg"><g fill="none" stroke="#911443" stroke-miterlimit="10"><path d="m52.9 10.9c-3.9-.2-6.4 1.6-9.1 4-3 2.8-3.4 5.6-3.6 9.6-.2 4.2-.2 8.2.2 12.3.4 4.5-.1 9.5-3.5 12.7-3.9 3.7-8.2 7.9-8.8 13.4-.3 2.4.2 5 1.1 7.2.9 2.3 3 3.7 4 6 4.9 11.1-.3 24.2-1.6 35.6-.6 5.5-1.2 11-1.7 16.5-.2 2.3-1 6.6.5 8.5 2.8 3.8 9.6 1.9 13.4 3.9.5-6.5.9-13 1.4-19.5.7-8.7 0-17.7.5-26.4.3-6.2.2-12.4.2-18.6 0-1.8-.5-4.3 0-6.1.5-2 2.6-3.7 3.7-5.4 2.6-4 1.7-10.5-4.1-10.3-.4-4.2.6-8.3 0-12.5-.3-2.3.5-4.8.2-7-.4-3.3-3.2-5.5-2.8-9.1 1.3-12.3 25.2-9.3 19 4-1.1 2.2-1.8 3.4-2.1 6-.3 2.9-.4 5.8-.4 8.7 0 3 .7 7.4-.3 10.2-3.5-.8-5.2 4.2-4.8 7.2.3 2.3 2.4 4.1 3.8 5.8 1.9 2.2 2.8 4.3 2.9 7.3.2 5.9-1.9 11.2-1.6 17.1.3 7.1 1.4 14 1.4 21.2 0 4.6.8 9.2.1 13.7-.7 4.9-.3 9.5-.1 14.4 5.2.3 10.4-1.9 15-3.7.4-4.6-.8-10-1.4-14.6-.8-6.4-1.3-12.8-2.2-19.2-.8-5.7-1.7-11.4-1.9-17.1-.1-2.5-.4-5.5.5-7.8s2.7-4 4.1-6c2.5-3.6 5-8.8 3.7-13.3-1.4-4.7-6.2-6.7-9.3-10.1-3.4-3.5-4.2-8.7-4.3-13.5s1.6-9.2 1.2-13.8c-.4-4-3-8.5-7-10-2.2-.8-6.9-1.3-6.3-1.3z"/><path d="m45.8 34.7c-.3 1.7 3.6 4 4.9 4.4 2.9 1.1 4.6 0 6.8-1.8.7-.6 2.1-1.8 2.2-2.4"/><path d="m49.3 55.2c2.1-2 1.8-6 1.9-8.7 1.6-.7 1.2 5.3 1.2 6.2 0 2.2.4 3.7-1.8 4.7"/><path d="m55.7 55.5c-1.4-.9-1.9-3.7-2-5.2-.1-1 .1-2.2-.2-3.1-.5-1.4-1.3-.6-1.3.5"/><path d="m52.3 55.9c.2.8 1.6 1.8 2.3 2.1.2-.1 0-.1 0-.2"/><path d="m39.6 44.4c-11.1-6.4-14.1-21.6-8.1-32.7 4.1-7.6 15.1-11.4 23.2-9.9 8.8 1.7 19.2 8.3 21 17.7 1.1 6 .9 11.3-2.3 16.5-.8 1.3-6.5 8.5-7.3 7.9"/><path d="m44 140.2c1.8.9 4.8 1.2 5.9 1.3 2.5.1 5.1-.2 7.6-.5 1.1-.1 2.2-.2 3.3-.3"/></g></svg>