<svg enable-background="new 0 0 107 143" viewBox="0 0 107 143" xmlns="http://www.w3.org/2000/svg"><g fill="none" stroke="#911443" stroke-miterlimit="10" stroke-width=".75"><path d="m70.1 58.7c-.5 2.5-.9 5-1.2 7.5s-.4 4.9-.9 7.3c-.4 2.4-1.5 4.2-2.4 6.3-.9 2.2 0 4.9.9 7 .5 1.2 2.8 3.8 1.2 4.9-.6.3-.9-3.3-2.3-2.7-.9.4-.5 2.1-.6 3.2 0 .4-.5.5-.7.2-.8-1.4-1.4-2.2-1.6-4.1-.3-2.7-.5-5.4-.3-8.2.2-5.2 1.3-10 2.4-15.1.4-1.8.8-4-.2-5.5-.6-.9-1.2-.5-1.2-1.8 0-.9.7-2 1.1-2.8 1.9-3.9 2.3-8.5 6.4-10.6 2.6-1.4 9-3 7.3-7 0 0-1-.9-1.1-1.2-.2-.5-.4-1.1-.4-1.6 0-.4.1-1.4.7-1.2.4.1.5 1.1.8 1.4.8-.8 0-2.3.6-3.2.3-.5.5-.7.6-1.4s.2-1.7.7-2.1c.5-.5 1.2-.2 1.8-.1.4.1.8.2 1.2.1.5 0 .8-.3 1.3-.4.7-.2 1.6-.2 2.1.3s1.1 1.3 1.2 2c.1.8.1 1.3.4 2 .2.4.6.9.5 1.4 1.1-.9.5 1.1.4 1.5-.1 1 .7 1.7-.2 2.4-.6.5-1.1 1.2-1.1 2.1-.1 1 0 1.6.7 2.4.6.7 1.4 1 2.3 1.5 1.2.8 2.2 1.1 3 1.8 1.1.9 2.4 1.5 3.3 2.7.9 1.3 1.7 2.8 2.4 4.2.3.6.5 1.2.9 1.7.3.4.6.7.8 1.2.4 1 .5 2.3.9 3.3-1.5 1.1-3.2.9-5 1.2-.7.1-1.6.1-2.3.3-1 .3-1.8 2-2 3-.2.9-.2 1.8-.3 2.7-.1.7-.3 1.6-.2 2.3.3 2.5.3 5.1.1 7.6-.2 2.8-.2 5.5-.1 8.3.1 1.3.2 2.7.2 4 0-.1 0 0 .1 0-.1 1.4 0 2.9-.1 4.3-.1 1.9-.7 3.6-1.3 5.4s-.7 3.9-.7 5.9c0 1.2-.2 2.4-.2 3.6 0 1.1 0 2.2.1 3.3v2.9c0 .5-.3 1.8-.1 2 .4 1.1.1 2.5 0 3.6-.2 1.2-.2 2.3-.2 3.5-.1 1.2-.2 2.5-.2 3.8-.1 1.1 0 2.1-.3 3.2-.2.8-.5.9-1.1 1.3-.7.5-.5.8-.3 1.5.1.3.3.8.2 1.1-.1.4-.4.2-.6.5-.3.5.7 1.3.8 1.7.2.4 0 .8.1 1.2.1.5.4.9.6 1.4.3.6.6 1.8 0 2.4s-2.2.4-3 .3c-.9 0-1.7-.2-2.5-.6-.8-.5-.9-1.5-1.6-2-.4-.3-.7-.2-.9-.8-.1-.4-.2-1.1-.1-1.6.1-.9.6-1.7.2-2.6-.5-1.2-.4-2.2.4-3.2.2-.3.8-.7.6-1.1-.1-.1-.4-.2-.5-.3-.3-.3-.3-.7-.4-1.1-.3-2.2.3-4.6.4-6.8.1-2 .1-4 .2-6 0-1 .2-2 .3-3 0-.4-.1-.8.2-1.2 0-1.8-.4-4-.8-5.8-.4-1.7 0-3.7-1.2-5-.1.9-.1 1.9-.3 2.9s-.7 1.8-1.2 2.6c-.2.3-.3.8-.5 1.1-.2.4-.5.7-.6 1.1-.2 1-.3 2.1-.4 3.1-.1 2.6-.6 5.1-.8 7.7-.1 1.4-.6 3-.3 4.4.1.7.3 1.2.3 1.9 0 .5.1 1.1.3 1.5.4.8-.4 1.6-1 2.3-.8 1-1.7 1.8-2.2 3.1-.4.9-1 2.4-1.8 3-.8.5-2.4.4-3.1 0-2.9-1.4-1.1-5.4.1-7.4.5-.8 1.2-1.8 1.3-2.8.1-.4 0-.9-.2-1.3-.2-.5-.7-.7-.9-1.2-.5-1.1-.3-2.9-.2-4.2.1-.9.2-2-.1-2.9-.3-1.4 0-2.9.1-4.3 0-1.3-.1-2.6-.4-3.8-.2-.9-.3-1.5.1-2.4.3-.8.5-1.7.4-2.5-.1-1.4-.2-2.8-.3-4.1-.1-1-.3-4.4-.2-5.4"/><path d="m63.2 58.3c1.2.3 2.4.8 3.6 1.2.6.2 1.2.3 1.8.4.2 0 .5 0 .7.1.2 0 .6 0 .5 0"/><path d="m68.1 89.2c-.3-.7-.2-1.6-.3-2.4-.1-1-.3-2.1-.6-3.1-.3-1.2.1-1.9.3-3.1.2-1 .3-2 .3-3 0-.4 0-.8-.1-1.2 0-.3-.1-1.1-.1-1.1"/><path d="m67.7 80.7c.1-.2 1.2.4 1.7.5 1 .2 2 .2 3 .4 1.9.4 3.9.7 5.9.8 3.2.1 6.7.6 9.9.1 1.3-.2 2.5-.5 3.8-.9"/><path d="m74.7 42.4c-.8 1.2 5.3 3.3 6.3 3.4 2 .3 5.1-.1 6.7-1.4.5-.4 1.2-1.5 1.5-2.1"/><path d="m76.9 33.1c-.1-.8.3-1.3.4-1.9.2-.8.4-1.6.4-2.5s.1-1.6.6-2.3 1.2-1.1 1.9-1.3c1-.3 2.1-.4 3.2-.3.9 0 1.9.1 2.8.4 1 .4 1.3 1.1 1.6 2 .2.9.7 1.5.9 2.4.1.4.2.7.3 1.1 0 .3-.1.6-.1.9 0 .4.3.8.1 1.2"/><path d="m94.7 59.4c-.1-.5 0-1 .2-1.4.2-.7.6-1.3.8-1.9.4-1.2.7-2.6.4-3.8"/><path d="m99.8 58.7c0 1.6 0 3 .3 4.6.2 1.2 1 2.1 1.6 3.1.8 1.3 1.1 2.9 1.4 4.4.2 1.1.3 2 .7 3 .3.7.5 1.5.7 2.2s.3 1.5.4 2.3c.1.3.1.7.2 1 .1.2.3.9.2 1 0 1.2.1 2.5.3 3.7.2 1.1.6 2.2.8 3.3.1 1.1.2 2.2.2 3.3-.1 1.3-.6 2.2-1.6 2.9-.4.3-2.1 1.1-2.1.2 0-.6.7-.6 1.1-.9.3-.2.2-.4.2-.8 0-.5-.1-.5-.4-.2-1.3 1.1-.9-2.5-.8-3 .1-1 .4-1.9.4-2.9 0-1.1-.2-2.2-.6-3.2-.4-.9-.9-1.7-1.4-2.5-.2-.4-.6-.9-.6-1.3-.3-2-1.9-3.6-2.8-5.5-1-2-1.4-4.3-1.5-6.6 0-.5.1-1.2-.2-1.6-.3-.5-.3-1.2-.4-1.8-.1-.5-.1-1.1-.2-1.6s-.2-1.1-.2-1.6c0-.3-.2-.9-.1-1.2"/><path d="m64.9 92.4c.5.4 1 1.1 1.7.4.3-.3.9-1.6.5-1.9"/><path d="m18.1 52.4c-1.5.2-2.9 3.2-4.2 3.9-2.7 1.5-4.3 3.3-6.2 5.8-2.5 3.3-4.1 7.5-5.1 11.5-.5 1.8-.6 3.8-.7 5.7-.1 1.6-.6 3.4-1.1 5-1 3.1 0 6.7 2.3 8.9 1.1 1.1.8 1.3.9 2.8.1 1 .3 1.6 1.3 2 .3.1.7.1 1 .2s.7.5 1 .4c.6-.1.3-.5.8-.6.3 0 1 .4 1.1.3.7-.3 0-1.3.1-1.9.2-1.1.7-1.4.3-2.5-.1-.4-.7-.9-.7-1.3.1-.3 1-1.3 1.4-1.1.7.3.9 4.8.9 5.6 0 .3-.2 1.5-.1 1.7.3.6.9 0 1.2.3 1.2 1.1-.1 3.7.3 5.4.4 1.4.7 2.6 1.1 3.9.5 1.7.9 3.2 1.1 4.9.3 2 .8 3.7.8 5.7v5.1c0 2.8-.3 5.2-1.1 7.9-.6 2.1-1.3 6.1 2.3 5.6 3.1-.4 3.1-3.2 3.5-5.7.1-.4.1-1.5.3-1.8 1-1.2.7.3.6 1-.4 2.1-.4 3.2.6 5 1.5 2.6.5 7.1 5 5.6 2.2-.7 2.2-1.8 2.2-3.9 0-1.1 0-2.1.2-3.1.1-.7.7-2 .6-2.7-.1-.4-.7-.5-.7-.8 0-.4.4-.9.5-1.3.4-1 .5-1.9.6-3 .2-2.7.2-5.5.5-8.3s.3-5.4.8-8.1c.4-2.4.7-4.8.9-7.2 0-.5 0-1.2.3-1.5.9 0 3.9.6 4.6.6.9 0 1.6-.5 2.1-1.2.6-.8.7-1.5 1-2.4.3-1.2.1-2.4.4-3.7s.2-2.2.2-3.4c-.1-.9-.3-1.6-.7-2.4s-.9-1.5-.2-2.3c.5-.6 1.6-1.4 1.4-2.2-.1-.3-.3-.7-.4-1 0-.3 0-.7 0-1 0-1 .3-2.1.1-3.1-.1-.5-.4-.6-.6-.9-.2-.4-.1-1.2-.1-1.7-.1-1.6-.1-3.1-.4-4.6-.3-1.3-1-2.6-1.4-3.9-.1-.5-.2-1-.3-1.5-.1-.3-.5-.7-.5-1-.3-.2 0-1.4 0-1.8 0-.7-.1-1.4-.3-2.1-.3-1-.5-2.7-1.3-3.4-.5-.5-1.4-.7-2-1-.6-.4-1.3-.6-2-1-1-.6-1.9-1.2-2.8-1.9-.4-.3-.7-.6-1.1-.9-.2-.2-.7-.5-.8-.7-.3.2-.1.7-.6 1.2 1.2.5 1.4 2.6 1.6 3 .4 1.1.2 2.2.4 3.3.4 2.2.7 4.4.8 6.7.1 2-.5 4-.6 5.9-.1 1.1-.3 2.1-.2 3.1 0 .3-.3 1.4-.1 1.6"/><path d="m28.4 50.1c.5-1.4.4-4.1-.4-5.3-1-1.5-2.3-3.5-4-4.1-4.7-1.7-9.8 4.5-7.1 7.9"/><path d="m24.9 69.3c-.3-1.5-.3-3.4-1.4-5.1-.6-1-1.7-1.5-2.4-2.3s-.8-2-1.1-3.1-1.1-1.8-1.6-2.8c-.4-.8-.2-1.2 0-2.1.4-1.9-1-2.1-1.5-3.8-.1-.5-.4-2.2.6-1.3.5.5 0 1.4 1 1.7-.2-1 1.3-2.1 2.1-2.7 1-.8 2-.4 3.2-.8.9-.3 2.9-.8 3.6 0"/><path d="m27.4 54c.1-.2.3-.7.4-1 .1-.4.3-.8.4-1.2.1-.6.2-1.2.3-1.8"/><path d="m20.5 60.4c.3.5 1.4.8 1.9.8.9.1 1.9-.4 2.7-.8s2-1.1 2.3-2c.2-.5.4-1.4.3-1.9-.1-.4-.4-1.1-.8-1.3"/><path d="m11.4 57.9c1.2 0 2.3.6 3.4 1 .8.3 1.5.9 2.3 1.4.6.4 1.2.7 1.8 1.2s1.3.9 1.8 1.5c.4.4.8.8 1.2 1.2.6.6 1.3 1.1 1.8 1.8.2.2.4.5.5.7.2.2.4.4.5.7"/><path d="m20.3 62.6c.3.5.3 1.2.6 1.7s.5.9.7 1.4c.3.7.7 1.4 1.1 2.1.3.6.5 1.2.8 1.8.6 1.4 1.2 2.9 1.9 4.3.5 1 1.1 1.9 1.6 2.9.4.8.7 1.5 1 2.3.1.2.3.8.3 1 .3 1 .3 1.9.1 2.8-.3 1-.7 2-.9 3-.5 1.8-.4 3.2.1 5 .5 2.1 1 4.1 1.3 6.2.1.8.2 1.7.3 2.5.1.5.1 1.2.5 1.5.5.4 1.2.3 1.8.5.5.2 1 .6 1.5.7"/><path d="m39.7 87.9c0-.3-.7-.7-.9-1.2-.3-.8-.8-1.6-1.3-2.4-1.2-1.7-4.2-.8-5.9-1.8-1.3-.8-2.2-2.4-2.9-3.6-.8-1.4-1.3-3-1.8-4.5-.4-1.2-.9-2.1-1.3-3.2-.2-.6-.4-1-.7-1.9"/><path d="m27.1 88.8c-1.3-4-2.7-8.6-2.5-12.9 0-.4.1-.9.2-1.3s.3-1.2.2-1.1"/><path d="m11.4 99.2c2.6-1.2 6.5-.8 9.3-.8 2 0 3.6-.5 5.4-.8.6-.1 2-.1 2.8.2"/><path d="m10.3 91.6c.7-.7.5-1.6.3-2.5-.3-1.7-.1-3.3-.2-5-.1-1.4-.4-2.8-.2-4.2s.7-2.6 1-3.9c.1-.5.8-3.8.3-3.8"/><path d="m35.7 83.3c-.2-.5-.7-.7-.9-1.3s0-1.2.1-1.9c.1-1.4.2-2.8.4-4.2.1-.9.4-1.9.6-2.8.1-.3.2-.7.3-1 0-.1.4-.9.3-.6"/><path d="m28.5 49.7c.1-.2-.1-.5-.2-.7-.1-.3-.2-.6-.4-.9-.1-.2-.3-.5-.4-.7-.1-.1-.2-.3-.4-.4"/><path d="m21.2 130c.5-1.6 1-3.7.9-5.4 0-2.1-.2-4.1-.3-6.2-.1-1.1 0-2.1 0-3.2 0-1.2-.3-2.2-.6-3.4-.4-1.9.1-3.8.4-5.7.2-.8.3-1.7.4-2.5.1-.5.4-1.5.2-2"/><path d="m20.6 130.5c.1-.5-.4-.7-.8-.9-.7-.2-1.4-.7-2-1.1-.5-.3-1-.7-1.6-.8-.1 0-.6-.1-.6 0"/><path d="m21.2 132.4c.4 0 .7.2 1 .4.4.3.8.5 1.3.5 1.2 0 2.4-.1 3.5 0 .8 0 1.6-.1 2-.8.1-.2.2-.5.4-.5"/><path d="m41.1 93.1c1.8.3 3 1.8 4.7 2.3 2.1.6 4 .7 6.1.2 3.1-.8 5.3-3.1 7.8-4.9.5-.4 2.9-1.5 2.9-1.4"/><path d="m62.3 81.4c-3.6 1.4-7.3 2.4-11.2 2.8-3.1.3-7 1.1-10 .2"/><path d="m41.1 82.6c.9.4 2.9.1 3.9.1 1.6 0 3.2-.1 4.8-.2 3.2-.3 7-.9 10-2 .6-.2 2.2-1 2.5-1.2"/><path d="m40.3 74.7c1.9-.6 3.7-1.3 5.3-2.5.9-.7 1.9-1.4 2.7-2.2.6-.6 1-1.2 1.5-1.8.7 1.1 2.7 1.7 3.8 2.3 1.4.7 3.1 1.1 4.7 1.5 1.4.4 3.3 1.3 4.7 1.3"/><path d="m40.1 73.3c.6-.4 1.5-.9 2.2-1.2 1-.5 1.9-1.3 2.8-2 1.7-1.4 3.2-2.9 4.5-4.6.1.9 1.7 1.8 2.4 2.2 1.2.6 2.5 1 3.8 1.5 1.7.7 3.5 1.3 5.2 2 .7.3 1.5.5 2.2.8"/><path d="m49.5 65.6c.1-1.1-.6-2.4-1-3.5-.5-1.5-1-3-1.5-4.4-1.1-3.3-2.4-6.5-3.4-9.8-.9-2.6-1.4-5.4-2.2-8-.6-2-1.5-4-2.1-6-.7-2.1-1.4-6.3-1.1-8.6"/><path d="m49.5 65.6c1.7-.4 2.9-3.8 3.6-5.3 1.6-3.3 2-6.4 2.1-10s.6-7.3.6-11c0-2.5-.1-5 .2-7.4.3-2.1.3-4.7.6-6.6"/><path d="m52.1 23.5c.5.3.5.4 1 .4.4.1.6 0 1 0 .6 0 1.2-.5 1.5-1 .3-.4.4-1.3 1.1-.9s.6 1.5.7 2.1c0 .2.2.4 0 .7-.1.1-.5.4-.6.5-.8.4-1.8 1.7-2.8 1-.5-.4-1-1.3-1.8-1"/><path d="m40 22.4c.6-.8 1.9-1.5 2.5-2.4.7-1 1.4-2.2 2.5-2.9.5-.3.9-.4 1.5-.4h.9c.5.1.5.3.9.7.7.6 1.4 1.2 2 1.9s1.5 1.1 2.2 1.7c.5.5 1 1.1 1.6 1.5.2.2 1.1.8 1.2.8"/><path d="m38.9 22.5c.2 0 1.8-3.1 2.1-3.4.5-.6 1-1.2 1.5-1.7.7-.7 1.7-1.5 2.8-1.4 1 .2 2 .5 3.2.5.9 0 1.7 0 2.4.6s.7 1.6 1.2 2.4c.5.7 1.3 1.5 2 2 .4.4 1.2.9 1.7.8"/><path d="m44.7 16c-.1 0 0-1-.1-1.3-.1-.5-.4-1-.4-1.6-.1-1.4.4-2.3 1.3-3.3.4-.5.9-1.6 1.5-2 .6-.3 1.2.3 1.7.6.8.7 1.3 1.6 1.3 2.7 0 .7.2 1.7 0 2.3-.5 1.2-2.1 1.6-1.4 3.1"/><path d="m46 9c.2.7 2.8.2 3.3 0"/><path d="m38.3 22.4c0-.8 2.3-3.7 2.6-4.4.6-1.2 1-2.2 1.3-3.5.3-1.4.7-2.9 1.1-4.3.4-1.2 1.1-3 2.2-3.7 1-.7 2.7-1 3.8-.4 1.3.8 2.2 2.4 2.4 3.8.4 2.3 1.7 4.4 2.4 6.6.4 1.1 1.1 2.4 1.2 3.6.1.8.2 1.5.7 2"/><path d="m57.2 25c.6 2 1.7 3.8 2.4 5.8.7 2.1 1.1 4.3 1.9 6.3s1.6 4 2.1 6.2c.4 1.6.6 3.2.9 4.8.3 1.4.9 2.6.9 4v-.3"/><path d="m28.8 55.1c.1-.1.2-1.8.4-2.4.4-1.4 1-2.7 1.5-4 1-2.8.8-5.4 1-8.4.2-2.6 1.4-5.1 2.1-7.6.4-1.6.4-3.2.9-4.8.2-.8 2-3.6 1.7-3.9"/><path d="m34.3 58.5c3-4.4 2.2-10.2 2.2-15.2 0-4.7 0-9.4.2-14.1 0-.8.1-3.9 1-4.2"/><path d="m41.8 22.6c-.6.3-1.7-.1-2.1-.2-.3-.1-.6.2-1 .2-.6 0-1.2-.5-1.5-1-.3-.4-.4-1.3-1.1-.9s-.6 1.5-.7 2.1c0 .2-.2.4 0 .7.1.1.5.4.6.5.8.4 1.8 1.7 2.8 1 .5-.4 2.2-.8 3-.6"/><path d="m42 28c1 .7 2.6.7 3.8.9 1.5.1 2.9 0 4.4-.4.5-.1 1-.3 1.4-.6.1.7 0 1.2.4 1.8-.8.4-1.4.9-2.3 1.1-1.1.3-2.4.2-3.5.1-.9-.1-1.9-.3-2.8-.5-.4-.1-.8-.1-1.2-.2-.2-.1-.2-0-.7-.2.4-.4.5-1.6.5-2 .1-.1 0 .1 0 0z"/><path d="m39.7 35.3c.3-.4.5-.9.7-1.3.3-.5.5-1 .8-1.6.3-.7.2-1.6.2-2.4"/><path d="m52 29.7c.4 1.1 1 2.2 1.3 3.4.4 1.4.4 2.8.7 4.3.3 1.8 1.2 3.2 1.8 4.8"/><path d="m51.7 27.8c0-1.1.5-2.2.4-3.4-.1-.7-.1-1.5-.1-2.3 0-.3 0-.6 0-.9 0-.1 0-.4.1-.5"/><path d="m42 27.9c0-.6-.2-1.3-.2-2s.1-1.4.1-2.1c0-.6-.1-1.1-.2-1.7 0-.2-.3-1-.3-1"/><path d="m45.6 6.3c-.3-.3-.4-.3-.5-.7 0-.3 0-.6.1-.9.2-.3.6-.5.9-.7s.6-.2 1.2-.2c-.5-.3-.9-1-.2-1.4.5-.2 2.3-.2 2.4.5.1.5 0 .7-.4.8 1.2.3 1.5.7 1.8 1.6.2.7.2 1.5-.6 1.6"/><path d="m48.2.3c.2.5.1 1.4.1 2"/><path d="m49.2 1c-.4 0-.8 0-1.2.1-.2 0-.6.1-.8 0"/></g></svg>