<?xml version="1.0" encoding="UTF-8"?>
<svg id="Capa_2" data-name="Capa 2" xmlns="http://www.w3.org/2000/svg" viewBox="0 0 76.7 56.19">
  <defs>
    <style>
      .cls-1 {
        fill: none;
        stroke: #911443;
        stroke-miterlimit: 10;
      }
    </style>
  </defs>
  <g id="Capa_34" data-name="Capa 34">
    <g>
      <path class="cls-1" d="M.74,44.33c-.29,1.62-.09,3.46-.01,5.08.06,1.22-.57,4.15.05,5.17,1.18,1.97,7.52.71,9.55.81,3.93.2,7.91-.14,11.79-.16,7.96-.03,15.92-.17,23.87-.16,9.68.02,19.57,1.14,29.04.29.19-3.04,1.06-7.08.34-9.95-.49-1.98-1.37-1.39-3.11-1.24-3.08.27-5.85-.32-8.91-.61-7.08-.68-14.26-.46-21.35-.48-4.07,0-8.1.63-12.17.62-3.55,0-7.09-.16-10.63-.16-4.1,0-8.21-.36-12.3-.16-1.68.08-4.97-.4-6.16.94Z"/>
      <path class="cls-1" d="M24.73,43.71c7.1-6.34,15.34-11.36,22.75-17.29,1.83-1.46,2.82-1.9,4.8-3.54.23-.1.71-.47.96-.67-1.22-1.36-2.15-2.4-3.27-4.38-3.88,2.97-7.98,5.81-11.88,8.94-2.05,1.64-3.96,3.3-6.2,4.64-1.29.77-4.32,2.72-5.64,3.57"/>
      <path class="cls-1" d="M49.66,17.07c-.68-1.5-.11-4,1.28-5.1.87-.68,1.62-.22,2.33-.53.94-.41,1.7-1.97,2.55-2.71,2.17-1.89,4.71-3.7,7.04-5.36,2.03-1.45,4.38-3.19,7.12-2.81,5.3.73,7.57,5.8,5.38,10.62-1.58,3.47-3.68,4.8-6.74,6.7-1.28.79-2.53,1.6-3.86,2.31-1.08.58-2.01.57-3.12.93-1.52.5-.91,1.66-2.18,2.54-1.24.85-3.24,1.01-4.3.28-2.06-1.4-4.29-4.35-5.51-6.88Z"/>
      <path class="cls-1" d="M12.6,19.16c5.38-.55,8.27,5.62,5.63,9.98-1.15,1.89-3.58,3.62-5.8,3.78-2.68.19-7.66-1.16-8.88-3.68-2.8-5.78-1.04-14.82,5.47-17.29,8.93-3.39,20.02,1.65,19.92,11.94-.04,4.42-1.35,10.21-4.39,13.55-2.16,2.37-5.45,4.14-8.26,5.46-.47.22-1.55.54-2.1.55"/>
    </g>
  </g>
</svg>